<?xml version="1.0" encoding="UTF-8"?>
<svg width="135px" height="194px" viewBox="0 0 135 194" version="1.1" xmlns="http://www.w3.org/2000/svg" xmlns:xlink="http://www.w3.org/1999/xlink">
    <!-- Generator: Sketch 52.6 (67491) - http://www.bohemiancoding.com/sketch -->
    <title>ada redemption</title>
    <desc>Created with Sketch.</desc>
    <g id="ada-redemption" stroke="none" stroke-width="1" fill="none" fill-rule="evenodd">
        <g id="Group">
            <g id="roadmap:native-mobile-apps" transform="translate(68.000000, 120.000000)" stroke="#244BC0" stroke-width="2">
                <g id="Group-8-Copy-3">
                    <path d="M5,0 L5,63.4296764" id="Path-3"></path>
                    <circle id="Oval-2" cx="4.5" cy="67.5" r="4.5"></circle>
                </g>
            </g>
            <g id="ada-redemption">
                <g id="add_wallet">
                    <g id="_x36__35_">
                        <g id="XMLID_320_">
                            <path d="M130.393365,6.31914894 L122.459716,1.78723404 C121.883886,1.34042553 119.64455,0.638297872 118.940758,0.446808511 C116.829384,-0.255319149 114.206161,0.127659574 111.454976,1.72340426 L13.563981,58.5319149 C6.20616114,62.8085106 0.255924171,74.2340426 0.255924171,84.0638298 L0.511848341,163.148936 C0.511848341,169.021277 2.68720379,172.978723 6.01421801,174.319149 L15.0995261,179.042553 L22.2654028,168.319149 L111.838863,116.361702 C119.196682,112.085106 125.146919,100.659574 125.146919,90.8297872 L124.890995,14.5531915 L130.393365,6.31914894 Z" id="XMLID_328_" fill="#E1F2FF"></path>
                            <path d="M134.744076,16.9148936 C134.680095,7.08510638 128.729858,2.61702128 121.308057,6.89361702 L23.4170616,63.7021277 C16.0592417,67.9787234 10.1090047,79.4042553 10.1090047,89.2340426 L10.3649289,168.319149 C10.42891,178.148936 16.3791469,182.617021 23.8009479,178.340426 L121.691943,121.531915 C129.049763,117.255319 135,105.829787 135,96 L134.744076,16.9148936 Z" id="Path" fill="#1D45BA"></path>
                        </g>
                    </g>
                </g>
                <g id="Layer_7" transform="translate(51.824645, 65.106383)" fill="#E1F2FF" stroke="#E1F2FF">
                    <path d="M52.1445498,12.9574468 L49.457346,14.5531915 L49.457346,14.0425532 C49.457346,13.5957447 49.457346,13.0851064 49.3933649,12.6382979 C49.2014218,9 48.049763,6 46.1943128,3.89361702 C44.4028436,1.85106383 41.8436019,0.638297872 38.8364929,0.382978723 C35.7654028,0.127659574 32.2464455,0.957446809 28.6635071,2.61702128 C24.6327014,4.53191489 20.5379147,7.53191489 16.8270142,11.2978723 C13.1800948,15 9.91706161,19.4042553 7.42180095,24 C6.97393365,24.7659574 7.10189573,25.5319149 7.61374408,25.6595745 C8.12559242,25.787234 8.89336493,25.212766 9.34123223,24.4468085 C9.46919431,24.1914894 9.5971564,23.9361702 9.72511848,23.6808511 C11.9004739,19.787234 14.6516588,16.1489362 17.7227488,13.0212766 C21.049763,9.63829787 24.7606635,6.95744681 28.3436019,5.23404255 C31.6066351,3.70212766 34.7417062,3 37.492891,3.19148936 C40.1800948,3.38297872 42.4834123,4.46808511 44.0829384,6.31914894 C45.7464455,8.23404255 46.7061611,10.9148936 46.8981043,14.1702128 C46.8981043,14.3617021 46.8981043,14.5531915 46.8981043,14.8085106 C46.8981043,15 46.8981043,15.2553191 46.8981043,15.4468085 L46.8981043,15.9574468 L44.2109005,17.5531915 C43.8909953,17.7446809 43.6990521,18.3191489 43.9549763,18.3829787 L47.8578199,19.9787234 C47.985782,20.0425532 48.2417062,19.9148936 48.3696682,19.6595745 L52.2725118,13.4042553 C52.6563981,13.0851064 52.464455,12.7659574 52.1445498,12.9574468 Z" id="Path_2_"></path>
                    <path d="M0.703791469,43.3404255 L3.39099526,41.7446809 L3.39099526,42.2553191 C3.39099526,42.7021277 3.39099526,43.212766 3.4549763,43.6595745 C3.64691943,47.2978723 4.7985782,50.2978723 6.65402844,52.4042553 C8.44549763,54.4468085 11.0047393,55.6595745 14.0118483,55.9148936 C17.0829384,56.1702128 20.6018957,55.3404255 24.1848341,53.6808511 C28.2156398,51.7659574 32.3104265,48.7659574 36.021327,45 C39.6682464,41.2978723 42.9312796,36.893617 45.4265403,32.2978723 C45.8744076,31.5319149 45.7464455,30.7659574 45.2345972,30.6382979 C44.7227488,30.5106383 43.9549763,31.0851064 43.507109,31.8510638 C43.3791469,32.106383 43.2511848,32.3617021 43.1232227,32.6170213 C40.9478673,36.5106383 38.1966825,40.1489362 35.1255924,43.2765957 C31.7985782,46.6595745 28.0876777,49.3404255 24.5047393,51.0638298 C21.2417062,52.5957447 18.1066351,53.2978723 15.3554502,53.106383 C12.6682464,52.9148936 10.3649289,51.8297872 8.76540284,49.9787234 C7.10189573,48.0638298 6.14218009,45.3829787 5.95023697,42.1276596 C5.95023697,41.9361702 5.95023697,41.7446809 5.95023697,41.4893617 C5.95023697,41.2978723 5.95023697,41.0425532 5.95023697,40.8510638 L5.95023697,40.3404255 L8.63744076,38.7446809 C8.95734597,38.5531915 9.1492891,37.9787234 8.89336493,37.9148936 L4.99052133,36.3191489 C4.86255924,36.2553191 4.60663507,36.3829787 4.47867299,36.6382979 L0.575829384,42.893617 C0.191943128,43.212766 0.383886256,43.5319149 0.703791469,43.3404255 Z" id="Path-Copy_2_"></path>
                    <path d="M21.6255924,31.7234043 L22.5853081,28.787234 C22.5853081,28.787234 22.5853081,28.787234 22.5853081,28.787234 L29.3672986,24.7659574 C29.3672986,24.7659574 29.3672986,24.7659574 29.3672986,24.7659574 L30.3270142,26.6170213 C30.3270142,26.6170213 30.3270142,26.6170213 30.3270142,26.6170213 L21.6255924,31.7234043 C21.6255924,31.7234043 21.6255924,31.7234043 21.6255924,31.7234043 M25.9123223,18.2553191 L28.4075829,22.9787234 C28.4075829,22.9787234 28.4075829,22.9787234 28.4075829,22.9787234 L23.4810427,25.9148936 C23.4810427,25.9148936 23.4810427,25.9148936 23.4810427,25.9148936 L25.9123223,18.2553191 C25.9123223,18.2553191 25.9123223,18.2553191 25.9123223,18.2553191 M37.556872,23.2978723 C37.556872,22.7234043 36.9810427,22.5957447 36.3412322,22.9787234 L32.8222749,25.0851064 C32.8222749,25.0851064 32.8222749,25.0851064 32.8222749,25.0851064 L31.8625592,23.2340426 C31.8625592,23.2340426 31.8625592,23.2340426 31.8625592,23.2340426 L34.0379147,21.9574468 C34.6777251,21.5744681 35.2535545,20.8085106 35.2535545,20.1702128 C35.2535545,19.5319149 34.7417062,19.2765957 34.1018957,19.6595745 L30.9028436,21.5744681 C30.9028436,21.5744681 30.9028436,21.5744681 30.9028436,21.5744681 L26.936019,14.1702128 C26.7440758,13.8510638 26.3601896,13.787234 25.8483412,14.106383 C25.4004739,14.3617021 24.9526066,14.9361702 24.7606635,15.4468085 L20.9218009,27.5106383 C20.9218009,27.5106383 20.9218009,27.5106383 20.9218009,27.5106383 L17.8507109,29.3617021 C17.2109005,29.7446809 16.6350711,30.5106383 16.6350711,31.1489362 C16.6350711,31.787234 17.1469194,32.0425532 17.7867299,31.6595745 L20.0900474,30.3191489 C20.0900474,30.3191489 20.0900474,30.3191489 20.0900474,30.3191489 L19.1943128,33.1914894 C19.1943128,33.1914894 19.1943128,33.1914894 19.1943128,33.1914894 L15.6753555,35.2978723 C15.035545,35.6808511 14.4597156,36.4468085 14.4597156,37.0851064 C14.4597156,37.7234043 14.971564,37.9787234 15.6113744,37.5957447 L18.2985782,36 C18.2985782,36 18.2985782,36 18.2985782,36 L15.1635071,45.7659574 C14.9075829,46.4680851 15.2274882,46.9787234 15.8033175,46.8510638 C15.9312796,46.8510638 16.0592417,46.787234 16.1872038,46.6595745 C16.6350711,46.4042553 17.0829384,45.8297872 17.2748815,45.3191489 L20.7298578,34.5319149 C20.7298578,34.5319149 20.7298578,34.5319149 20.7298578,34.5319149 L31.2227488,28.2765957 C31.2227488,28.2765957 31.2227488,28.2765957 31.2227488,28.2765957 L34.8056872,34.9787234 C34.9976303,35.2978723 35.4454976,35.2978723 35.8933649,35.0425532 C36.021327,34.9787234 36.1492891,34.8510638 36.3412322,34.7234043 C36.9170616,34.1489362 37.2369668,33.3191489 36.9810427,32.8723404 L33.7819905,26.8085106 C33.7819905,26.8085106 33.7819905,26.8085106 33.7819905,26.8085106 L36.4052133,25.212766 C37.0450237,24.7659574 37.556872,23.9361702 37.556872,23.2978723" id="Fill-1_2_" fill-rule="nonzero"></path>
                </g>
            </g>
        </g>
    </g>
</svg>