<?xml version="1.0" encoding="UTF-8"?>
<svg width="135px" height="194px" viewBox="0 0 135 194" version="1.1" xmlns="http://www.w3.org/2000/svg" xmlns:xlink="http://www.w3.org/1999/xlink">
    <!-- Generator: Sketch 52.6 (67491) - http://www.bohemiancoding.com/sketch -->
    <title>blockchain explorer</title>
    <desc>Created with Sketch.</desc>
    <defs>
        <linearGradient x1="99.96851%" y1="50.0078193%" x2="0.0287250384%" y2="50.0078193%" id="linearGradient-1">
            <stop stop-color="#17D1AA" offset="0%"></stop>
            <stop stop-color="#1AC2AE" offset="6.594372%"></stop>
            <stop stop-color="#229BB8" offset="26.51%"></stop>
            <stop stop-color="#297CC0" offset="46.16%"></stop>
            <stop stop-color="#2D66C6" offset="65.25%"></stop>
            <stop stop-color="#3059CA" offset="83.49%"></stop>
            <stop stop-color="#3154CB" offset="100%"></stop>
        </linearGradient>
        <linearGradient x1="-0.128441755%" y1="50.0315257%" x2="99.971407%" y2="50.0315257%" id="linearGradient-2">
            <stop stop-color="#17D1AA" offset="0%"></stop>
            <stop stop-color="#1AC2AE" offset="6.594372%"></stop>
            <stop stop-color="#229BB8" offset="26.51%"></stop>
            <stop stop-color="#297CC0" offset="46.16%"></stop>
            <stop stop-color="#2D66C6" offset="65.25%"></stop>
            <stop stop-color="#3059CA" offset="83.49%"></stop>
            <stop stop-color="#3154CB" offset="100%"></stop>
        </linearGradient>
    </defs>
    <g id="blockchain-explorer" stroke="none" stroke-width="1" fill="none" fill-rule="evenodd">
        <g id="Group-2">
            <g id="roadmap:native-mobile-apps" transform="translate(68.000000, 120.000000)" stroke="#244BC0" stroke-width="2">
                <g id="Group-8-Copy-3">
                    <path d="M5,0 L5,63.4296764" id="Path-3"></path>
                    <circle id="Oval-2" cx="4.5" cy="67.5" r="4.5"></circle>
                </g>
            </g>
            <g id="secure_simple_fast_blockchain-explorer">
                <g id="_x36__34_">
                    <g id="XMLID_322_">
                        <path d="M4.67061611,6.48763251 L12.6042654,1.97173145 C13.1800948,1.52650177 15.4194313,0.826855124 16.1232227,0.636042403 C18.2345972,-0.0636042403 20.8578199,0.318021201 23.6090047,1.90812721 L121.5,58.5159011 C128.85782,62.7773852 134.808057,74.1625442 134.808057,83.9575972 L134.552133,162.826855 C134.552133,168.678445 132.376777,172.621908 129.049763,173.957597 L119.964455,178.664311 L112.798578,167.978799 L23.2251185,116.204947 C15.8672986,111.943463 9.91706161,100.558304 9.91706161,90.7632509 L10.2369668,14.7561837 L4.67061611,6.48763251 Z" id="XMLID_323_" fill="#E1F2FF"></path>
                        <path d="M0.319905213,17.0459364 C0.383886256,7.25088339 6.33412322,2.79858657 13.7559242,7.06007067 L111.646919,63.6678445 C119.004739,67.9293286 124.954976,79.3144876 124.954976,89.1095406 L124.635071,167.915194 C124.57109,177.710247 118.620853,182.162544 111.199052,177.90106 L13.3080569,121.293286 C5.95023697,117.031802 1.42108547e-14,105.646643 1.42108547e-14,95.8515901 L0.319905213,17.0459364 Z" id="Path" fill="url(#linearGradient-1)"></path>
                    </g>
                </g>
                <g id="icon_x2F_epoch" transform="translate(26.232227, 51.519435)" fill="#E1F2FF" fill-rule="nonzero">
                    <path d="M61.6137441,86.819788 L49.521327,66.2756184 C53.8080569,64.04947 56.1753555,59.2155477 56.1753555,52.664311 C56.1753555,37.590106 43.8909953,16.7915194 28.7914692,6.36042403 C20.4099526,0.508833922 12.4123223,-1.14487633 6.90995261,1.65371025 C2.62322275,3.87985866 0.255924171,8.71378092 0.255924171,15.2650177 C0.255924171,30.3392226 12.5402844,51.1378092 27.6398104,61.5689046 C33.3981043,65.5123675 38.9004739,67.6113074 43.6350711,67.6113074 L43.9549763,67.6113074 L56.4312796,88.664311 C56.943128,89.5547703 57.7109005,90.3816254 58.478673,90.9540636 C59.1184834,91.3992933 59.8222749,91.6537102 60.3981043,91.6537102 C60.5900474,91.6537102 60.7819905,91.6537102 60.9739336,91.590106 C61.549763,91.4628975 61.9976303,91.0176678 62.2535545,90.4452297 C62.6374408,89.5547703 62.3815166,88.155477 61.6137441,86.819788 Z M28.3436019,13.229682 C39.9881517,21.6254417 49.3933649,37.6537102 49.3933649,49.2932862 C49.3933649,54.0636042 47.8578199,57.3710247 44.9146919,58.8975265 C41.0118483,60.9328622 35.1255924,59.5335689 28.7914692,55.1448763 C16.8270142,46.8763251 7.10189573,30.4664311 7.10189573,18.6360424 C7.10189573,13.8657244 8.63744076,10.5583039 11.5805687,9.03180212 C12.7962085,8.39575972 14.1398104,8.14134276 15.6753555,8.14134276 C19.0023697,8.14134276 23.0331754,9.60424028 27.3199052,12.5300353 L28.3436019,13.229682 Z" id="Shape"></path>
                </g>
                <path d="M54.5758294,64.7491166 C66.2203791,73.1448763 75.6255924,89.1731449 75.6255924,100.812721 C75.6255924,105.583039 74.0900474,108.890459 71.1469194,110.416961 C67.2440758,112.452297 61.3578199,111.053004 55.0236967,106.664311 C43.0592417,98.3957597 33.3341232,81.9858657 33.3341232,70.155477 C33.3341232,65.385159 34.8696682,62.0777385 37.8127962,60.5512367 C39.028436,59.9151943 40.3720379,59.6607774 41.9075829,59.6607774 C45.2345972,59.6607774 49.2654028,61.1236749 53.5521327,64.04947 L54.5758294,64.7491166 Z" id="Path" fill="url(#linearGradient-2)"></path>
                <path d="M46.7701422,81.9858657 C46.7701422,80.9045936 47.4739336,80.1413428 48.4336493,80.1413428 C48.5616114,80.1413428 48.7535545,80.1413428 48.8815166,80.204947 C48.2417062,79.1236749 47.2819905,78.1060071 46.2582938,77.4699647 L41.2677725,74.3533569 C39.2843602,73.0812721 37.6208531,73.6537102 37.6208531,75.6890459 C37.6208531,77.6607774 39.2843602,80.3321555 41.2677725,81.6042403 L46.2582938,84.7208481 C47.2180095,85.2932862 48.049763,85.4840989 48.6895735,85.3568905 C47.6658768,84.5300353 46.7701422,83.130742 46.7701422,81.9858657 Z" id="Path"></path>
                <path d="M48.4976303,81.0954064 C48.049763,81.0954064 47.7938389,81.4134276 47.7938389,81.9222615 C47.7938389,82.8127208 48.4976303,83.8939929 49.3293839,84.4664311 L49.6492891,84.6572438 C49.9052133,84.3392226 50.0331754,83.8939929 50.0331754,83.3215548 C50.0331754,82.7491166 49.9052133,82.1766784 49.6492891,81.540636 L49.3293839,81.3498233 C49.0094787,81.2226148 48.7535545,81.0954064 48.4976303,81.0954064 Z" id="Path" fill="#E1F2FF"></path>
                <path d="M49.6492891,84.7208481 L52.4004739,86.5017668 C52.528436,86.0565371 52.5924171,85.6113074 52.5924171,85.1024735 C52.5924171,84.5936396 52.528436,84.0212014 52.4004739,83.4487633 L49.6492891,81.6678445 C49.9052133,82.3038869 50.0331754,82.8763251 50.0331754,83.4487633 C49.9691943,83.9575972 49.8412322,84.3392226 49.6492891,84.7208481 Z" id="Path" fill="#E1F2FF"></path>
                <g id="Group" transform="translate(37.109005, 71.872792)" fill="#E1F2FF">
                    <path d="M19.7701422,17.2367491 C20.0260664,17.4275618 20.2819905,17.4911661 20.4739336,17.4911661 C20.8578199,17.4911661 21.1137441,17.2367491 21.1137441,16.7279152 C21.1137441,15.9646643 20.4739336,15.0106007 19.7701422,14.5017668 L17.0829384,12.7844523 L16.1232227,12.1484099 L15.4194313,11.7031802 L12.9881517,10.1766784 L12.7322275,9.98586572 C12.4763033,9.795053 12.2203791,9.73144876 12.028436,9.73144876 C11.6445498,9.73144876 11.3886256,9.98586572 11.3886256,10.4946996 C11.3886256,11.2579505 12.028436,12.2120141 12.7322275,12.7208481 L12.9881517,12.9116608 L15.4194313,14.4381625 L17.0829384,15.5194346 L19.7701422,17.2367491 Z" id="Path"></path>
                    <path d="M12.2203791,13.4204947 C11.6445498,13.5477032 10.9407583,13.4204947 10.1090047,12.9116608 L5.75829384,10.1766784 C4.03080569,9.09540636 2.55924171,6.74204947 2.55924171,5.02473498 C2.55924171,3.30742049 3.96682464,2.79858657 5.75829384,3.87985866 L10.1090047,6.61484099 C11.0047393,7.18727915 11.8364929,8.07773852 12.4123223,9.03180212 C12.6682464,9.09540636 12.9241706,9.22261484 13.1800948,9.34982332 L15.035545,10.4946996 C14.1398104,8.14134276 12.2843602,5.66077739 10.1090047,4.32508834 L5.75829384,1.59010601 C2.75118483,-0.318021201 0.319905213,0.572438163 0.319905213,3.56183746 C0.319905213,6.55123675 2.75118483,10.5583039 5.75829384,12.4664311 L10.1090047,15.2014134 C12.2843602,16.6007067 14.1398104,16.4734982 15.035545,15.2650177 L12.2203791,13.4204947 C12.2843602,13.4840989 12.2843602,13.4840989 12.2203791,13.4204947 Z" id="Path"></path>
                    <path d="M26.7440758,14.819788 L22.3933649,12.0848057 C20.2180095,10.6855124 18.3625592,10.8127208 17.4668246,12.0212014 L20.2180095,13.8021201 C20.2180095,13.8021201 20.2180095,13.8021201 20.2819905,13.8021201 C20.8578199,13.6749117 21.5616114,13.8021201 22.3933649,14.3109541 L26.7440758,17.0459364 C28.471564,18.1272085 29.943128,20.4805654 29.943128,22.1978799 C29.943128,23.9151943 28.535545,24.4240283 26.7440758,23.3427562 L22.3933649,20.6077739 C21.4976303,20.0353357 20.6658768,19.1448763 20.0900474,18.1908127 C19.8341232,18.1272085 19.5781991,18 19.3222749,17.8727915 L17.4668246,16.7279152 C18.3625592,19.0812721 20.2180095,21.5618375 22.3933649,22.8975265 L26.7440758,25.6325088 C29.7511848,27.540636 32.1824645,26.6501767 32.1824645,23.6607774 C32.1824645,20.7349823 29.7511848,16.7279152 26.7440758,14.819788 Z" id="Path"></path>
                </g>
            </g>
        </g>
    </g>
</svg>