<?xml version="1.0" encoding="UTF-8"?>
<svg width="135px" height="194px" viewBox="0 0 135 194" version="1.1" xmlns="http://www.w3.org/2000/svg" xmlns:xlink="http://www.w3.org/1999/xlink">
    <!-- Generator: Sketch 52.2 (67145) - http://www.bohemiancoding.com/sketch -->
    <title>v</title>
    <desc>Created with Sketch.</desc>
    <defs>
        <polygon id="path-1" points="0 0.11385159 129.382473 0.11385159 129.382473 178.477633 0 178.477633"></polygon>
        <polygon id="path-3" points="0.330794838 0.143827543 124.47477 0.143827543 124.47477 174.275409 0.330794838 174.275409"></polygon>
    </defs>
    <g id="v" stroke="none" stroke-width="1" fill="none" fill-rule="evenodd">
        <g id="Group-29">
            <g id="Group-8-Copy-2" transform="translate(66.000000, 121.000000)" stroke="#244BC0" stroke-width="2">
                <path d="M5,0 L5,63.4296764" id="Path-3"></path>
                <circle id="Oval-2" cx="4.5" cy="67.5" r="4.5"></circle>
            </g>
            <g id="Group-17">
                <g id="Group-3" transform="translate(0.000000, 0.522191)">
                    <mask id="mask-2" fill="white">
                        <use xlink:href="#path-1"></use>
                    </mask>
                    <g id="Clip-2"></g>
                    <path d="M129.382473,6.30159011 L121.481555,1.77742049 C120.902756,1.35636042 118.658163,0.657985866 117.984594,0.441731449 L117.983958,0.441095406 C115.857032,-0.242650177 113.296325,0.124982332 110.543534,1.72717314 L13.2118728,58.3629329 C5.88212014,62.6282332 -0.0330742049,74.024841 0,83.8173498 L0.267137809,162.623004 C0.287491166,168.494947 2.45067138,172.436502 5.75236749,173.748657 L14.7981625,178.477633 L21.9046643,167.799117 L110.931519,115.996007 C118.261908,111.730071 124.177102,100.334099 124.144028,90.5415901 L123.885795,14.5612367 L129.382473,6.30159011 Z" id="Fill-1" fill="#E1F2FF" mask="url(#mask-2)"></path>
                </g>
                <g id="Group-6" transform="translate(9.540636, 5.610530)">
                    <mask id="mask-4" fill="white">
                        <use xlink:href="#path-3"></use>
                    </mask>
                    <g id="Clip-5"></g>
                    <path d="M124.207187,11.7657668 C124.173477,1.97325795 118.204219,-2.50766078 110.874466,1.75763958 L13.5434417,58.3933993 C6.213053,62.6586996 0.297858657,74.0546714 0.330932862,83.8478163 L0.598706714,162.65347 C0.631780919,172.445979 6.60103887,176.926898 13.9314276,172.661597 L111.262452,116.025837 C118.592205,111.760537 124.508035,100.364565 124.474961,90.5720565 L124.207187,11.7657668 Z" id="Fill-4" fill="#1D45BA" mask="url(#mask-4)"></path>
                </g>
                <path d="M101.161208,95.5538587 L77.4031166,110.591809 L77.4031166,105.387074 L83.3424806,101.628064 C84.4358375,100.936049 85.3224806,99.2091943 85.3224806,97.7723746 C85.3224806,96.3355548 84.4358375,95.7313145 83.3424806,96.4233286 L77.4031166,100.182975 L77.4031166,94.9782403 L83.3424806,91.2185936 C84.4358375,90.5265795 85.3224806,88.7997244 85.3224806,87.3635406 C85.3224806,85.9267208 84.4358375,85.3224806 83.3424806,86.0138587 L77.4031166,89.7735053 L77.4031166,84.5687703 L83.3424806,80.8091237 C84.4358375,80.1177456 85.3224806,78.3902544 85.3224806,76.9540707 C85.3224806,75.5172509 84.4358375,74.9130106 83.3424806,75.6050247 L77.4031166,79.3640353 L77.4031166,74.1593004 L83.3424806,70.4002898 C84.4358375,69.7082756 85.3224806,67.9807845 85.3224806,66.5446007 C85.3224806,65.1077809 84.4358375,64.5035406 83.3424806,65.1955548 L77.4031166,68.9552014 L77.4031166,63.7504664 L101.161208,48.7118799 L101.161208,95.5538587 Z M68.9927279,101.191739 C69.713364,101.812516 69.6300424,103.510113 68.8063675,104.978735 C68.4304664,105.648488 67.9667915,106.155413 67.5037527,106.448629 C66.9529399,106.79718 66.4065795,106.841067 66.0147774,106.500784 L60.2573216,101.500219 L55.208417,113.231385 C54.8166148,114.135201 54.2308198,114.849477 53.6443887,115.22029 C53.2207845,115.4887 52.793364,115.582834 52.4289117,115.443541 C51.5658021,115.105166 51.4112438,113.568488 52.0803604,112.01082 L57.6005724,99.1901131 L52.1560495,94.4541413 C51.4347774,93.833364 51.5180989,92.1357668 52.3417739,90.6671449 C53.1616325,89.2017032 54.4089117,88.5160495 55.1378163,89.1425512 L60.0792297,93.4364735 L65.9435406,79.8149894 C66.6164735,78.2598657 67.8599364,77.2644594 68.7230459,77.6028339 C69.5861555,77.9361201 69.7407138,79.4727986 69.0677809,81.038735 L62.7321625,95.7491237 L68.9927279,101.191739 Z M103.141208,42.2547774 L77.4031166,58.5457314 L77.4031166,50.738947 C77.4031166,49.9629753 77.1417032,49.3949894 76.6862968,49.1889117 C76.2347067,48.9796537 75.6291943,49.1501131 75.0586643,49.6672155 L43.3812085,77.5246007 C42.4424099,78.3476396 41.7656608,79.8486996 41.7656608,81.1023392 L41.7656608,138.353788 C41.7656608,139.602339 42.4424099,140.251102 43.3812085,139.88665 L75.0586643,127.642834 C75.1776042,127.598947 75.3003604,127.536615 75.4231166,127.459018 C75.8823392,127.168346 76.329477,126.676686 76.6862968,126.060996 C77.1417032,125.278028 77.4031166,124.374212 77.4031166,123.603329 L77.4031166,115.796544 L103.141208,99.5055901 C104.233929,98.813576 105.121208,97.0867208 105.121208,95.6499011 L105.121208,43.6038233 C105.121208,42.1670035 104.233929,41.5627633 103.141208,42.2547774 Z" id="Fill-7" fill="#E1F2FF"></path>
                <path d="M95.2215901,57.6764523 L91.2615901,60.1824594 C90.1688693,60.8744735 89.2822261,62.6019647 89.2822261,64.0381484 C89.2822261,65.4749682 90.1688693,66.0792085 91.2615901,65.3878304 L95.2215901,62.8811873 C96.314311,62.1891731 97.2015901,60.462318 97.2015901,59.0254982 C97.2015901,57.5893145 96.314311,56.9850742 95.2215901,57.6764523" id="Fill-9" fill="#E1F2FF"></path>
                <path d="M95.2215901,68.0857314 L91.2615901,70.5917385 C90.1688693,71.2837527 89.2822261,73.0112438 89.2822261,74.4474276 C89.2822261,75.8842473 90.1688693,76.4884876 91.2615901,75.7971095 L95.2215901,73.2904664 C96.314311,72.5984523 97.2015901,70.8715972 97.2015901,69.4347774 C97.2015901,67.9985936 96.314311,67.3943534 95.2215901,68.0857314" id="Fill-11" fill="#E1F2FF"></path>
                <path d="M95.2215901,78.4950106 L91.2615901,81.0010177 C90.1688693,81.6930318 89.2822261,83.420523 89.2822261,84.8567067 C89.2822261,86.2935265 90.1688693,86.8977668 91.2615901,86.2063887 L95.2215901,83.6997456 C96.314311,83.0077314 97.2015901,81.2802403 97.2015901,79.8440565 C97.2015901,78.4078728 96.314311,77.8036325 95.2215901,78.4950106" id="Fill-13" fill="#E1F2FF"></path>
                <path d="M95.2215901,88.9043534 L91.2615901,91.4103604 C90.1688693,92.1023746 89.2822261,93.8298657 89.2822261,95.2660495 C89.2822261,96.7028693 90.1688693,97.3071095 91.2615901,96.6150954 L95.2215901,94.1090883 C96.314311,93.4170742 97.2015901,91.689583 97.2015901,90.2533993 C97.2015901,88.8172155 96.314311,88.2123392 95.2215901,88.9043534" id="Fill-15" fill="#E1F2FF"></path>
            </g>
        </g>
    </g>
</svg>