<?xml version="1.0" encoding="UTF-8"?>
<svg width="135px" height="194px" viewBox="0 0 135 194" version="1.1" xmlns="http://www.w3.org/2000/svg" xmlns:xlink="http://www.w3.org/1999/xlink">
    <!-- Generator: Sketch 52.6 (67491) - http://www.bohemiancoding.com/sketch -->
    <title>firefox</title>
    <desc>Created with Sketch.</desc>
    <defs>
        <linearGradient x1="99.9684588%" y1="50.0078193%" x2="0.0286738351%" y2="50.0078193%" id="linearGradient-1">
            <stop stop-color="#17D1AA" offset="0%"></stop>
            <stop stop-color="#1AC2AE" offset="6.594372%"></stop>
            <stop stop-color="#229BB8" offset="26.51%"></stop>
            <stop stop-color="#297CC0" offset="46.16%"></stop>
            <stop stop-color="#2D66C6" offset="65.25%"></stop>
            <stop stop-color="#3059CA" offset="83.49%"></stop>
            <stop stop-color="#3154CB" offset="100%"></stop>
        </linearGradient>
    </defs>
    <g id="firefox" stroke="none" stroke-width="1" fill="none" fill-rule="evenodd">
        <g id="Group">
            <g id="roadmap:native-mobile-apps" transform="translate(68.000000, 120.000000)" stroke="#244BC0" stroke-width="2">
                <g id="Group-8-Copy-3">
                    <path d="M5,0 L5,63.4296764" id="Path-3"></path>
                    <circle id="Oval-2" cx="4.5" cy="67.5" r="4.5"></circle>
                </g>
            </g>
            <g id="p_new-theme-copy">
                <g id="_x36__27_">
                    <g id="XMLID_306_">
                        <path d="M4.67061611,6.48763251 L12.6042654,1.97173145 C13.1800948,1.52650177 15.4194313,0.826855124 16.1232227,0.636042403 C18.2345972,-0.0636042403 20.8578199,0.318021201 23.6090047,1.90812721 L121.5,58.5159011 C128.85782,62.7773852 134.808057,74.1625442 134.808057,83.9575972 L134.552133,162.826855 C134.552133,168.678445 132.376777,172.621908 129.049763,173.957597 L119.964455,178.664311 L112.798578,167.978799 L23.2251185,116.204947 C15.8672986,111.943463 9.91706161,100.558304 9.91706161,90.7632509 L10.2369668,14.7561837 L4.67061611,6.48763251 Z" id="XMLID_307_" fill="#E1F2FF"></path>
                        <path d="M0.319905213,17.0459364 C0.383886256,7.25088339 6.33412322,2.79858657 13.7559242,7.06007067 L111.646919,63.6678445 C119.004739,67.9293286 124.954976,79.3144876 124.954976,89.1095406 L124.635071,167.915194 C124.57109,177.710247 118.620853,182.162544 111.199052,177.90106 L13.3080569,121.293286 C5.95023697,117.031802 1.42108547e-14,105.646643 1.42108547e-14,95.8515901 L0.319905213,17.0459364 Z" id="Path" fill="url(#linearGradient-1)"></path>
                    </g>
                </g>
                <g id="icon_x2F_firefox" transform="translate(31.990521, 62.332155)" fill="#E1F2FF">
                    <path d="M37.0450237,11.9575972 C42.1635071,17.5547703 45.1066351,27.8586572 45.1066351,34.664311 C45.1066351,36.3816254 44.8507109,38.0353357 44.4668246,39.434629 C44.0829384,35.3003534 42.035545,30.9116608 38.964455,27.3498233 C40.6919431,30.3392226 41.6516588,33.5830389 41.6516588,36.5724382 C41.6516588,44.0777385 35.4454976,47.5123675 27.8317536,44.2685512 C24.7606635,42.9328622 23.2251185,41.7243816 20.9218009,39.0530035 C25.5924171,41.024735 28.471564,37.7809187 32.4383886,39.434629 C32.4383886,39.434629 31.8625592,36.9540636 28.9834123,35.6819788 C26.1042654,34.4734982 27.4478673,37.2720848 22.0734597,34.9823322 C16.6990521,32.6925795 14.0118483,28.3674912 14.0118483,25.8869258 C14.0118483,23.4063604 17.7227488,23.2155477 18.6184834,24.4876325 C19.3862559,24.0424028 18.6184834,22.1978799 18.6184834,22.1978799 L25.528436,20.6077739 C25.528436,20.6077739 24.3767773,20.0989399 23.2251185,19.6537102 C12.9881517,15.2650177 18.8744076,10.7491166 20.9218009,9.60424028 C17.2748815,8.01413428 14.971564,10.3674912 14.0118483,11.1943463 C13.436019,10.6855124 9.40521327,8.96819788 8.2535545,8.71378092 C7.74170616,8.58657244 7.03791469,7.44169611 6.39810427,5.91519435 C5.56635071,4.00706714 4.86255924,1.65371025 4.86255924,0.445229682 C1.91943128,2.09893993 2.43127962,6.61484099 3.58293839,8.77738516 C3.51895735,8.77738516 3.51895735,8.8409894 3.4549763,8.90459364 C1.40758294,11.7031802 0.255924171,15.4558304 0.255924171,19.9717314 C0.255924171,34.3462898 12.0924171,51.0742049 26.7440758,57.3710247 C41.3317536,63.6042403 53.2322275,58.1342756 53.2322275,43.7597173 C53.2322275,43.5053004 53.2322275,41.7243816 53.2322275,41.4699647 C53.1682464,28.04947 44.4028436,17.2367491 37.0450237,11.9575972 Z" id="Shape"></path>
                </g>
            </g>
        </g>
    </g>
</svg>