<?xml version="1.0" encoding="UTF-8"?>
<svg width="135px" height="194px" viewBox="0 0 135 194" version="1.1" xmlns="http://www.w3.org/2000/svg" xmlns:xlink="http://www.w3.org/1999/xlink">
    <!-- Generator: Sketch 52.6 (67491) - http://www.bohemiancoding.com/sketch -->
    <title>full node</title>
    <desc>Created with Sketch.</desc>
    <defs>
        <linearGradient x1="0.0478125%" y1="50.0051512%" x2="119.044938%" y2="50.0051512%" id="linearGradient-1">
            <stop stop-color="#17D1AA" offset="0%"></stop>
            <stop stop-color="#1CB9B0" offset="22.74%"></stop>
            <stop stop-color="#297DC0" offset="70.39%"></stop>
            <stop stop-color="#3154CB" offset="100%"></stop>
        </linearGradient>
    </defs>
    <g id="full-node" stroke="none" stroke-width="1" fill="none" fill-rule="evenodd">
        <g id="Group-8" transform="translate(72.000000, 120.000000)" stroke="#244BC0" stroke-width="2">
            <path d="M5,0 L5,63.4296764" id="Path-3"></path>
            <circle id="Oval-2" cx="4.5" cy="67.5" r="4.5"></circle>
        </g>
        <g id="pics_full-node">
            <g id="add_wallet">
                <g id="_x36__24_">
                    <g id="XMLID_304_">
                        <path d="M130.393365,6.31914894 L122.459716,1.78723404 C121.883886,1.34042553 119.64455,0.638297872 118.940758,0.446808511 C116.829384,-0.255319149 114.206161,0.127659574 111.454976,1.72340426 L13.563981,58.5319149 C6.20616114,62.8085106 0.255924171,74.2340426 0.255924171,84.0638298 L0.511848341,163.148936 C0.511848341,169.021277 2.68720379,172.978723 6.01421801,174.319149 L15.0995261,179.042553 L22.2654028,168.319149 L111.838863,116.361702 C119.196682,112.085106 125.146919,100.659574 125.146919,90.8297872 L124.890995,14.5531915 L130.393365,6.31914894 Z" id="XMLID_305_" fill="#E1F2FF"></path>
                        <path d="M134.744076,16.9148936 C134.680095,7.08510638 128.729858,2.61702128 121.308057,6.89361702 L23.4170616,63.7021277 C16.0592417,67.9787234 10.1090047,79.4042553 10.1090047,89.2340426 L10.3649289,168.319149 C10.42891,178.148936 16.3791469,182.617021 23.8009479,178.340426 L121.691943,121.531915 C129.049763,117.255319 135,105.829787 135,96 L134.744076,16.9148936 Z" id="Path" fill="#1D45BA"></path>
                    </g>
                </g>
            </g>
            <g id="Layer_7" transform="translate(26.872038, 31.914894)">
                <path d="M89.3175355,52.1489362 C84.5189573,54.5744681 80.2962085,59.2340426 77.92891,64.212766 L65.7085308,63.8297872 C67.3720379,59.6170213 68.3317536,55.3404255 68.3317536,51.3829787 C68.3317536,45 65.9004739,40.4042553 61.9976303,38.0425532 L75.7535545,17.4255319 C76.9691943,17.6808511 78.4407583,17.4255319 80.0402844,16.5957447 C84.1990521,14.4893617 87.5900474,9.38297872 87.5900474,5.23404255 C87.5900474,1.08510638 84.1990521,-0.638297872 80.0402844,1.46808511 C75.8815166,3.57446809 72.4905213,8.68085106 72.4905213,12.8297872 C72.4905213,14.4255319 73.0023697,15.6382979 73.8341232,16.4680851 L60.0781991,37.0212766 C55.6635071,35.2978723 49.8412322,35.8085106 43.507109,39 C29.8151659,45.893617 18.6824645,62.5531915 18.6824645,76.2765957 C18.6824645,83.0425532 21.3696682,87.7659574 25.7843602,90.0638298 L17.1469194,103.787234 C15.4194313,103.468085 13.3720379,103.787234 11.0687204,104.93617 C5.2464455,107.87234 0.511848341,114.893617 0.511848341,120.702128 C0.511848341,126.510638 5.2464455,128.808511 11.0687204,125.93617 C16.8909953,123 21.6255924,115.978723 21.6255924,110.170213 C21.6255924,107.617021 20.6658768,105.702128 19.1303318,104.617021 L27.7677725,90.893617 C32.0545024,92.2340426 37.556872,91.5957447 43.507109,88.5957447 C52.528436,84.0638298 60.4620853,75.2553191 64.8127962,65.8723404 L77.0331754,66.2553191 C76.2654028,68.2978723 75.8815166,70.4042553 75.8815166,72.3191489 C75.8815166,79.7234043 81.8957346,82.7234043 89.3815166,79.0212766 C96.8033175,75.2553191 102.881517,66.2553191 102.881517,58.787234 C102.817536,51.3829787 96.8033175,48.3829787 89.3175355,52.1489362 Z" id="Path" fill="url(#linearGradient-1)"></path>
                <path d="M40.8199052,68.1702128 L41.7796209,65.2340426 C41.7796209,65.2340426 41.7796209,65.2340426 41.7796209,65.2340426 L48.5616114,61.212766 C48.5616114,61.212766 48.5616114,61.212766 48.5616114,61.212766 L49.521327,63.0638298 C49.521327,63.0638298 49.521327,63.0638298 49.521327,63.0638298 L40.8199052,68.1702128 C40.8199052,68.1702128 40.8199052,68.1702128 40.8199052,68.1702128 M45.1066351,54.7021277 L47.6018957,59.4255319 C47.6018957,59.4255319 47.6018957,59.4255319 47.6018957,59.4255319 L42.6753555,62.3617021 C42.6753555,62.3617021 42.6753555,62.3617021 42.6753555,62.3617021 L45.1066351,54.7021277 C45.1066351,54.7021277 45.1066351,54.7021277 45.1066351,54.7021277 M56.7511848,59.8085106 C56.7511848,59.2340426 56.1753555,59.106383 55.535545,59.4893617 L52.0165877,61.5957447 C52.0165877,61.5957447 52.0165877,61.5957447 52.0165877,61.5957447 L51.056872,59.7446809 C51.056872,59.7446809 51.056872,59.7446809 51.056872,59.7446809 L53.2322275,58.4680851 C53.8720379,58.0851064 54.4478673,57.3191489 54.4478673,56.6808511 C54.4478673,56.0425532 53.936019,55.787234 53.2962085,56.1702128 L50.0971564,58.0851064 C50.0971564,58.0851064 50.0971564,58.0851064 50.0971564,58.0851064 L46.1303318,50.6808511 C45.9383886,50.3617021 45.5545024,50.2978723 45.042654,50.6170213 C44.5947867,50.8723404 44.1469194,51.4468085 43.9549763,51.9574468 L40.1161137,64.0212766 C40.1161137,64.0212766 40.1161137,64.0212766 40.1161137,64.0212766 L37.0450237,65.8723404 C36.4052133,66.2553191 35.8293839,67.0212766 35.8293839,67.6595745 C35.8293839,68.2978723 36.3412322,68.5531915 36.9810427,68.1702128 L39.2843602,66.8297872 C39.2843602,66.8297872 39.2843602,66.8297872 39.2843602,66.8297872 L38.3246445,69.7659574 C38.3246445,69.7659574 38.3246445,69.7659574 38.3246445,69.7659574 L34.8056872,71.8723404 C34.1658768,72.2553191 33.5900474,73.0212766 33.5900474,73.6595745 C33.5900474,74.2978723 34.1018957,74.5531915 34.7417062,74.1702128 L37.42891,72.5744681 C37.42891,72.5744681 37.42891,72.5744681 37.42891,72.5744681 L34.2938389,82.3404255 C34.0379147,83.0425532 34.3578199,83.5531915 34.9336493,83.4255319 C35.0616114,83.4255319 35.1895735,83.3617021 35.3175355,83.2340426 C35.7654028,82.9787234 36.2132701,82.4042553 36.4052133,81.893617 L39.8601896,71.106383 C39.8601896,71.106383 39.8601896,71.106383 39.8601896,71.106383 L50.3530806,64.8510638 C50.3530806,64.8510638 50.3530806,64.8510638 50.3530806,64.8510638 L53.936019,71.5531915 C54.1279621,71.8723404 54.5758294,71.8723404 55.0236967,71.6170213 C55.1516588,71.5531915 55.2796209,71.4255319 55.471564,71.2978723 C56.0473934,70.7234043 56.3672986,69.893617 56.1113744,69.4468085 L52.9123223,63.3829787 C52.9123223,63.3829787 52.9123223,63.3829787 52.9123223,63.3829787 L55.535545,61.787234 C56.2393365,61.2765957 56.7511848,60.3829787 56.7511848,59.8085106" id="Fill-1_1_" stroke="#E1F2FF" fill="#E1F2FF" fill-rule="nonzero"></path>
            </g>
        </g>
    </g>
</svg>