<?xml version="1.0" encoding="UTF-8"?>
<svg width="135px" height="194px" viewBox="0 0 135 194" version="1.1" xmlns="http://www.w3.org/2000/svg" xmlns:xlink="http://www.w3.org/1999/xlink">
    <!-- Generator: Sketch 52.6 (67491) - http://www.bohemiancoding.com/sketch -->
    <title>hide balance</title>
    <desc>Created with Sketch.</desc>
    <defs>
        <linearGradient x1="54.1937622%" y1="109.229845%" x2="46.6260234%" y2="2.28503304%" id="linearGradient-1">
            <stop stop-color="#17D1AA" offset="0%"></stop>
            <stop stop-color="#1CB9B0" offset="22.74%"></stop>
            <stop stop-color="#297DC0" offset="70.39%"></stop>
            <stop stop-color="#3154CB" offset="100%"></stop>
        </linearGradient>
        <linearGradient x1="61.2906061%" y1="-23.5442754%" x2="30.7430303%" y2="175.223176%" id="linearGradient-2">
            <stop stop-color="#17D1AA" offset="0%"></stop>
            <stop stop-color="#1CB9B0" offset="22.74%"></stop>
            <stop stop-color="#297DC0" offset="70.39%"></stop>
            <stop stop-color="#3154CB" offset="100%"></stop>
        </linearGradient>
        <linearGradient x1="32.1012821%" y1="10.3935778%" x2="94.4134615%" y2="148.059682%" id="linearGradient-3">
            <stop stop-color="#1D45BA" offset="0%"></stop>
            <stop stop-color="#2A94F3" offset="100%"></stop>
        </linearGradient>
    </defs>
    <g id="hide-balance" stroke="none" stroke-width="1" fill="none" fill-rule="evenodd">
        <g id="Group-8" transform="translate(72.000000, 120.000000)" stroke="#244BC0" stroke-width="2">
            <path d="M5,0 L5,63.4296764" id="Path-3"></path>
            <circle id="Oval-2" cx="4.5" cy="67.5" r="4.5"></circle>
        </g>
        <g id="Layer_9">
            <g>
                <g id="_x36__27_">
                    <g id="XMLID_306_">
                        <path d="M130.393365,6.31914894 L122.459716,1.78723404 C121.883886,1.34042553 119.64455,0.638297872 118.940758,0.446808511 C116.829384,-0.255319149 114.206161,0.127659574 111.454976,1.72340426 L13.563981,58.5319149 C6.20616114,62.8085106 0.255924171,74.2340426 0.255924171,84.0638298 L0.511848341,163.148936 C0.511848341,169.021277 2.68720379,172.978723 6.01421801,174.319149 L15.0995261,179.042553 L22.2654028,168.319149 L111.838863,116.361702 C119.196682,112.085106 125.146919,100.659574 125.146919,90.8297872 L124.890995,14.5531915 L130.393365,6.31914894 Z" id="XMLID_307_" fill="#E1F2FF"></path>
                        <path d="M134.744076,16.9148936 C134.680095,7.08510638 128.729858,2.61702128 121.308057,6.89361702 L23.4170616,63.7021277 C16.0592417,67.9787234 10.1090047,79.4042553 10.1090047,89.2340426 L10.3649289,168.319149 C10.42891,178.148936 16.3791469,182.617021 23.8009479,178.340426 L121.691943,121.531915 C129.049763,117.255319 135,105.829787 135,96 L134.744076,16.9148936 Z" id="Path" fill="#1D45BA"></path>
                    </g>
                </g>
                <path d="M43.6990521,116.744681 C43.6990521,98.6808511 58.4146919,74.8085106 76.521327,63.5106383 C94.6279621,52.212766 109.343602,57.7021277 109.343602,75.7659574 C109.343602,93.8297872 94.6279621,117.702128 76.521327,129 C58.4146919,140.297872 43.6990521,134.808511 43.6990521,116.744681 Z" id="Path" fill="url(#linearGradient-1)"></path>
                <g id="Layer_2_6_" transform="translate(51.824645, 74.042553)">
                    <g id="Group">
                        <path d="M25.8483412,13.0851064 C20.0260664,17.106383 15.2914692,25.0851064 15.2914692,30.9574468 C15.2914692,36.7659574 20.0260664,38.2340426 25.8483412,34.212766 C31.6706161,30.1914894 36.4052133,22.212766 36.4052133,16.3404255 C36.4052133,10.5319149 31.6706161,9.06382979 25.8483412,13.0851064 Z M25.8483412,28.6595745 C23.0971564,30.5744681 20.8578199,29.8723404 20.8578199,27.1276596 C20.8578199,26.0425532 21.1777251,24.893617 21.7535545,23.6808511 C21.5616114,23.4255319 21.4976303,23.106383 21.4976303,22.6595745 C21.4976303,21.1914894 22.7132701,19.1489362 24.1848341,18.1914894 C25.3364929,17.4255319 26.2962085,17.4255319 26.6800948,18.1914894 C29.1113744,16.9148936 30.9668246,17.6808511 30.9668246,20.1702128 C30.8388626,22.9148936 28.5995261,26.7446809 25.8483412,28.6595745 Z" id="Shape" fill="url(#linearGradient-2)" fill-rule="nonzero"></path>
                        <path d="M28.535545,4.85106383 C25.464455,6.95744681 22.8412322,9.06382979 20.6658768,11.2340426 C10.6208531,20.7446809 0,38.8085106 0,41.3617021 C0,43.9148936 13.6279621,47.9361702 24.5047393,40.4042553 C27.5758294,38.2978723 30.1990521,36.1914894 32.3744076,34.0212766 C42.4194313,24.5106383 53.0402844,7.0212766 53.0402844,3.89361702 C52.9763033,0.70212766 39.4123223,-2.68085106 28.535545,4.85106383 Z M25.8483412,34.212766 C20.0260664,38.2340426 15.2914692,36.7659574 15.2914692,30.9574468 C15.2914692,25.1489362 20.0260664,17.106383 25.8483412,13.0851064 C31.6706161,9.06382979 36.4052133,10.5319149 36.4052133,16.3404255 C36.4052133,22.1489362 31.6706161,30.1914894 25.8483412,34.212766 Z" id="Shape" fill="#E1F2FF" fill-rule="nonzero"></path>
                        <path d="M26.6161137,18.1914894 C26.7440758,18.3829787 26.8080569,18.7021277 26.8080569,19.0212766 C26.8080569,20.4893617 25.5924171,22.5319149 24.1208531,23.4893617 C23.0971564,24.1914894 22.2014218,24.2553191 21.7535545,23.6808511 C21.1777251,24.893617 20.8578199,26.0425532 20.8578199,27.1276596 C20.8578199,29.8723404 23.0971564,30.5744681 25.8483412,28.6595745 C28.5995261,26.7446809 30.8388626,22.9787234 30.8388626,20.1702128 C30.8388626,17.6808511 28.9834123,16.8510638 26.6161137,18.1914894 Z" id="Path" fill="url(#linearGradient-3)"></path>
                        <path d="M24.1208531,23.4893617 C25.5924171,22.4680851 26.8080569,20.4893617 26.8080569,19.0212766 C26.8080569,18.7021277 26.7440758,18.4468085 26.6161137,18.1914894 C26.2322275,17.4255319 25.2725118,17.3617021 24.1208531,18.1914894 C22.6492891,19.212766 21.4336493,21.1914894 21.4336493,22.6595745 C21.4336493,23.106383 21.5616114,23.4255319 21.6895735,23.6808511 C22.1374408,24.2553191 23.0331754,24.1914894 24.1208531,23.4893617 Z" id="Path" fill="#E1F2FF"></path>
                    </g>
                </g>
                <path d="M92.3644279,60.7897377 C92.9505822,59.5396223 94.4391728,59.0013754 95.6892882,59.5875297 C96.9394036,60.1736839 97.4776505,61.6622746 96.8914962,62.91239 L64.3891266,132.231539 C63.8029723,133.481654 62.3143817,134.019901 61.0642663,133.433747 C59.8141509,132.847593 59.275904,131.359002 59.8620583,130.108887 L92.3644279,60.7897377 Z" id="Path" fill="#1D45BA" fill-rule="nonzero"></path>
            </g>
        </g>
    </g>
</svg>