<?xml version="1.0" encoding="UTF-8"?>
<svg width="135px" height="194px" viewBox="0 0 135 194" version="1.1" xmlns="http://www.w3.org/2000/svg" xmlns:xlink="http://www.w3.org/1999/xlink">
    <!-- Generator: Sketch 52.6 (67491) - http://www.bohemiancoding.com/sketch -->
    <title>ledger integration </title>
    <desc>Created with Sketch.</desc>
    <defs>
        <linearGradient x1="99.9643113%" y1="50.0078193%" x2="0.0245263697%" y2="50.0078193%" id="linearGradient-1">
            <stop stop-color="#17D1AA" offset="0%"></stop>
            <stop stop-color="#1AC2AE" offset="6.594372%"></stop>
            <stop stop-color="#229BB8" offset="26.51%"></stop>
            <stop stop-color="#297CC0" offset="46.16%"></stop>
            <stop stop-color="#2D66C6" offset="65.25%"></stop>
            <stop stop-color="#3059CA" offset="83.49%"></stop>
            <stop stop-color="#3154CB" offset="100%"></stop>
        </linearGradient>
        <linearGradient x1="-11.5191523%" y1="93.3324378%" x2="103.127663%" y2="12.9160864%" id="linearGradient-2">
            <stop stop-color="#17D1AA" offset="0%"></stop>
            <stop stop-color="#1AC2AE" offset="6.594372%"></stop>
            <stop stop-color="#229BB8" offset="26.51%"></stop>
            <stop stop-color="#297CC0" offset="46.16%"></stop>
            <stop stop-color="#2D66C6" offset="65.25%"></stop>
            <stop stop-color="#3059CA" offset="83.49%"></stop>
            <stop stop-color="#3154CB" offset="100%"></stop>
        </linearGradient>
    </defs>
    <g id="ledger-integration-" stroke="none" stroke-width="1" fill="none" fill-rule="evenodd">
        <g id="Group-2">
            <g id="Group-8" transform="translate(56.000000, 120.000000)" stroke="#244BC0" stroke-width="2">
                <path d="M5,0 L5,63.4296764" id="Path-3"></path>
                <circle id="Oval-2" cx="4.5" cy="67.5" r="4.5"></circle>
            </g>
            <g id="roadmap_ledger">
                <g id="_x36__14_">
                    <g id="XMLID_325_">
                        <path d="M4.86255924,6.45435134 L12.7962085,1.96161658 C13.3720379,1.5186709 15.6113744,0.822613406 16.3151659,0.632779543 C18.4265403,-0.0632779543 21.049763,0.316389771 23.8009479,1.89833863 L121.691943,58.2157179 C129.049763,62.4553409 135,73.7820947 135,83.5268996 L134.744076,161.991563 C134.744076,167.813135 132.56872,171.736368 129.241706,173.065205 L120.156398,177.747774 L112.990521,167.117077 L23.4170616,115.608822 C16.0592417,111.3692 10.1090047,100.042446 10.1090047,90.2976407 L10.3649289,14.6804854 L4.86255924,6.45435134 Z" id="XMLID_326_" fill="#E1F2FF"></path>
                        <path d="M0.511848341,16.9584917 C0.575829384,7.21368679 6.52606635,2.78422999 13.9478673,7.02385292 L111.838863,63.3412322 C119.196682,67.5808552 125.146919,78.907609 125.146919,88.6524139 L124.827014,167.053799 C124.763033,176.798604 118.812796,181.228061 111.390995,176.988438 L13.5,120.671059 C6.14218009,116.431436 0.191943128,105.104682 0.191943128,95.3598771 L0.511848341,16.9584917 Z" id="Path" fill="url(#linearGradient-1)"></path>
                    </g>
                </g>
                <g id="Group" transform="translate(39.668246, 44.294568)">
                    <g>
                        <path d="M7.99763033,34.2966512 C7.42180095,34.8661528 7.10189573,35.7520442 7.10189573,36.8277694 C7.10189573,39.8018332 9.27725118,43.3453987 11.964455,44.8640696 C14.2677725,46.1296287 16.1872038,45.4335712 16.6350711,43.4086766 C16.507109,41.3837821 15.3554502,38.9159419 13.436019,36.9543253 C11.5805687,35.0559867 9.53317536,34.1068174 7.99763033,34.2966512 Z" id="Path"></path>
                        <path d="M11.8364929,44.1047341 C9.66113744,42.902453 7.86966825,39.9283891 7.86966825,37.5238269 C7.86966825,36.5746576 8.12559242,35.8786001 8.57345972,35.4356544 C7.93364929,35.4989323 7.42180095,35.8153221 7.10189573,36.3215458 C6.07819905,37.9667726 7.03791469,41.1306703 9.34123223,43.4719546 C11.5805687,45.8132389 14.2677725,46.3827405 15.3554502,44.7375137 C15.6753555,44.23129 15.8033175,43.5985105 15.7393365,42.902453 C15.2274882,44.6109578 13.6919431,45.1804594 11.8364929,44.1047341 Z" id="Path" fill="#E1F2FF"></path>
                        <path d="M6.71800948,47.4584657 C2.55924171,42.7758971 1.08767773,36.0684339 3.4549763,32.3983126 L7.48578199,26.1337951 L3.77488152,24.0456226 C1.91943128,23.0331754 0.383886256,23.7925108 0.383886256,25.8806833 L0.383886256,82.3246185 C0.383886256,84.349513 1.91943128,86.8806312 3.77488152,87.9563564 L19.5781991,96.7519921 C21.4336493,97.7644394 22.9691943,97.0051039 22.9691943,94.9169314 L22.9691943,42.3329514 L18.4905213,49.2302484 C16.1872038,52.9003698 10.8767773,52.0777564 6.71800948,47.4584657 Z" id="Path" fill="#E1F2FF"></path>
                        <path d="M11.964455,34.2333733 C10.3009479,33.3474819 8.89336493,33.4107599 7.99763033,34.2966512 C9.53317536,34.1068174 11.6445498,35.0559867 13.436019,36.9543253 C15.3554502,38.9159419 16.507109,41.44706 16.6350711,43.4086766 C16.6990521,43.0290089 16.7630332,42.6493412 16.7630332,42.2696735 C16.7630332,39.2956096 14.5876777,35.6887662 11.964455,34.2333733 Z" id="Path" fill="#E1F2FF"></path>
                        <path d="M29.1113744,2.34128431 C28.7914692,2.02489454 27.8957346,1.07572522 27.1279621,0.379667726 C26.6161137,-0.0632779543 25.7843602,8.75688411e-15 25.4004739,0.569501588 L9.98104265,24.4885683 L4.3507109,32.9045362 C2.30331754,36.1317119 3.71090047,42.4595073 7.54976303,46.6991303 C9.78909953,49.2302484 12.4763033,50.6223634 14.6516588,50.4325296 C15.9312796,50.3059736 16.8909953,49.7364721 17.5947867,48.6607468 L21.8815166,42.0165616 L27,33.0943701 L37.8127962,16.3257122 C38.6445498,14.9968752 38.5165877,13.3516484 37.492891,12.1493672 L29.1113744,2.34128431 Z M16.6350711,43.4086766 C16.6990521,44.294568 16.507109,45.0539034 16.1232227,45.623405 C14.8436019,47.5850216 11.5805687,46.8889641 8.82938389,44.0414562 C6.07819905,41.1939482 4.86255924,37.333993 6.14218009,35.3723764 C6.59004739,34.7395969 7.22985782,34.3599292 7.93364929,34.2966512 C8.82938389,33.4107599 10.2369668,33.2842039 11.9004739,34.2333733 C14.5876777,35.7520442 16.7630332,39.2956096 16.7630332,42.2696735 C16.7630332,42.6493412 16.7630332,43.0922869 16.6350711,43.4086766 Z" id="Shape" fill="#E1F2FF" fill-rule="nonzero"></path>
                    </g>
                    <path d="M15.6113744,88.3360242 L7.10189573,83.5901776 C5.82227488,82.8941201 4.86255924,81.2488933 4.86255924,79.8567783 L4.86255924,56.8868809 C4.86255924,55.4947659 5.88625592,54.9885423 7.10189573,55.6845998 L15.6113744,60.4304463 C16.8909953,61.1265038 17.8507109,62.7717306 17.8507109,64.1638456 L17.8507109,87.133743 C17.9146919,88.4625801 16.8909953,89.0320817 15.6113744,88.3360242 Z" id="Path" fill="url(#linearGradient-2)"></path>
                </g>
            </g>
        </g>
    </g>
</svg>