<?xml version="1.0" encoding="UTF-8"?>
<svg width="135px" height="194px" viewBox="0 0 135 194" version="1.1" xmlns="http://www.w3.org/2000/svg" xmlns:xlink="http://www.w3.org/1999/xlink">
    <!-- Generator: Sketch 52.6 (67491) - http://www.bohemiancoding.com/sketch -->
    <title>lock screen</title>
    <desc>Created with Sketch.</desc>
    <defs>
        <linearGradient x1="99.9643113%" y1="50.0078193%" x2="0.0245263697%" y2="50.0078193%" id="linearGradient-1">
            <stop stop-color="#17D1AA" offset="0%"></stop>
            <stop stop-color="#1AC2AE" offset="6.594372%"></stop>
            <stop stop-color="#229BB8" offset="26.51%"></stop>
            <stop stop-color="#297CC0" offset="46.16%"></stop>
            <stop stop-color="#2D66C6" offset="65.25%"></stop>
            <stop stop-color="#3059CA" offset="83.49%"></stop>
            <stop stop-color="#3154CB" offset="100%"></stop>
        </linearGradient>
    </defs>
    <g id="lock-screen" stroke="none" stroke-width="1" fill="none" fill-rule="evenodd">
        <g>
            <g id="Group-8" transform="translate(56.000000, 120.000000)" stroke="#244BC0" stroke-width="2">
                <path d="M5,0 L5,63.4296764" id="Path-3"></path>
                <circle id="Oval-2" cx="4.5" cy="67.5" r="4.5"></circle>
            </g>
            <g id="pics_lock-screen">
                <g id="_x36__32_" transform="translate(0.552234, 0.000000)">
                    <g id="XMLID_312_">
                        <path d="M4.84266834,6.48763251 L12.7438641,1.97173145 C13.3173379,1.52650177 15.5475142,0.826855124 16.2484267,0.636042403 C18.3511643,-0.0636042403 20.9636564,0.318021201 23.7035872,1.90812721 L121.194147,58.5159011 C128.521869,62.7773852 134.447766,74.1625442 134.447766,83.9575972 L134.192889,162.826855 C134.192889,168.678445 132.026432,172.621908 128.713027,173.957597 L119.664884,178.664311 L112.52832,167.978799 L23.3212712,116.204947 C15.9935494,111.943463 10.0676526,100.558304 10.0676526,90.7632509 L10.3225299,14.7561837 L4.84266834,6.48763251 Z" id="XMLID_317_" fill="#E1F2FF"></path>
                        <path d="M0.509754563,17.0459364 C0.573473883,7.25088339 6.49937067,2.79858657 13.8908118,7.06007067 L111.381372,63.6678445 C118.709094,67.9293286 124.634991,79.3144876 124.634991,89.1095406 L124.316394,167.915194 C124.252675,177.710247 118.326778,182.162544 110.935337,177.90106 L13.4447766,121.293286 C6.11705475,117.031802 0.191157961,105.646643 0.191157961,95.8515901 L0.509754563,17.0459364 Z" id="Path" fill="url(#linearGradient-1)"></path>
                    </g>
                </g>
                <path d="M41.3963184,78.4876325 L41.3963184,108.190813 C41.3963184,112.770318 44.4548458,118.4947 48.278005,120.848057 L72.6825047,136.240283 C76.4419446,138.657244 79.5641913,136.812721 79.5641913,132.233216 L79.5641913,102.530035 C79.5641913,98.5229682 77.2702958,93.7526502 74.2117684,91.0176678 L74.2117684,82.1766784 C74.2117684,72.9540636 68.0947137,61.6325088 60.5121145,56.8621908 C52.9295154,52.0918728 46.8124607,55.7173145 46.8124607,64.8763251 L46.8124607,73.7173145 C43.690214,72.6360424 41.3963184,74.4805654 41.3963184,78.4876325 Z M54.9685337,97.1236749 C54.9685337,93.434629 57.4535872,91.9717314 60.5121145,93.8798587 C63.5706419,95.7879859 66.0556954,100.367491 66.0556954,104.056537 C66.0556954,107.109541 64.3352738,108.636042 62.0413782,107.936396 L62.0413782,117.222615 C62.0413782,118.240283 61.3404657,118.621908 60.5121145,118.113074 C59.6837634,117.60424 58.9828508,116.332155 58.9828508,115.314488 L58.9828508,106.028269 C56.6889553,103.80212 54.9685337,100.176678 54.9685337,97.1236749 Z M54.4587791,69.7738516 C54.4587791,65.7667845 57.1349906,64.1766784 60.4483952,66.2120141 C63.7617999,68.3109541 66.4380113,73.2720848 66.4380113,77.3427562 L66.4380113,85.9293286 L54.3950598,78.360424 L54.3950598,69.7738516 L54.4587791,69.7738516 Z" id="Shape" fill="#E1F2FF" fill-rule="nonzero"></path>
            </g>
        </g>
    </g>
</svg>