<?xml version="1.0" encoding="UTF-8"?>
<svg width="135px" height="194px" viewBox="0 0 135 194" version="1.1" xmlns="http://www.w3.org/2000/svg" xmlns:xlink="http://www.w3.org/1999/xlink">
    <!-- Generator: Sketch 52.6 (67491) - http://www.bohemiancoding.com/sketch -->
    <title>Mobile staking</title>
    <desc>Created with Sketch.</desc>
    <g id="Mobile-staking" stroke="none" stroke-width="1" fill="none" fill-rule="evenodd">
        <g id="Group-8" transform="translate(72.000000, 120.000000)" stroke="#244BC0" stroke-width="2">
            <path d="M5,0 L5,63.4296764" id="Path-3"></path>
            <circle id="Oval-2" cx="4.5" cy="67.5" r="4.5"></circle>
        </g>
        <g id="Mobile-staking]">
            <g id="add_wallet">
                <g id="_x36__39_">
                    <g id="XMLID_335_">
                        <path d="M130.393365,6.31914894 L122.459716,1.78723404 C121.883886,1.34042553 119.64455,0.638297872 118.940758,0.446808511 C116.829384,-0.255319149 114.206161,0.127659574 111.454976,1.72340426 L13.563981,58.5319149 C6.20616114,62.8085106 0.255924171,74.2340426 0.255924171,84.0638298 L0.511848341,163.148936 C0.511848341,169.021277 2.68720379,172.978723 6.01421801,174.319149 L15.0995261,179.042553 L22.2654028,168.319149 L111.838863,116.361702 C119.196682,112.085106 125.146919,100.659574 125.146919,90.8297872 L124.890995,14.5531915 L130.393365,6.31914894 Z" id="XMLID_336_" fill="#E1F2FF"></path>
                        <path d="M134.744076,16.9148936 C134.680095,7.08510638 128.729858,2.61702128 121.308057,6.89361702 L23.4170616,63.7021277 C16.0592417,67.9787234 10.1090047,79.4042553 10.1090047,89.2340426 L10.3649289,168.319149 C10.42891,178.148936 16.3791469,182.617021 23.8009479,178.340426 L121.691943,121.531915 C129.049763,117.255319 135,105.829787 135,96 L134.744076,16.9148936 Z" id="Path" fill="#1D45BA"></path>
                    </g>
                </g>
                <path d="M93.4763033,122.93617 C93.4763033,122.93617 100.514218,118.787234 100.514218,111.12766 L100.514218,42.3829787 C100.514218,34.7234043 93.4763033,38.8723404 93.4763033,38.8723404 L61.8056872,57.5744681 C61.8056872,57.5744681 54.7677725,61.7234043 54.7677725,69.3829787 L54.7677725,138.191489 C54.7677725,145.851064 61.8056872,141.702128 61.8056872,141.702128 L93.4763033,122.93617 Z M74.0900474,127.404255 C74.0900474,125.297872 75.6895735,122.680851 77.6090047,121.531915 C79.528436,120.382979 81.1279621,121.148936 81.1279621,123.255319 C81.1279621,125.361702 79.528436,127.978723 77.6090047,129.12766 C75.6895735,130.276596 74.0900474,129.510638 74.0900474,127.404255 Z M86.4383886,47.9361702 C86.4383886,48.3829787 86.0545024,48.9574468 85.6706161,49.212766 L69.6113744,58.7234043 C69.1635071,58.9787234 68.8436019,58.787234 68.8436019,58.3404255 L68.8436019,58.0851064 C68.8436019,57.6382979 69.2274882,57.0638298 69.6113744,56.8085106 L85.6706161,47.2978723 C86.1184834,47.0425532 86.4383886,47.2340426 86.4383886,47.6808511 L86.4383886,47.9361702 Z M96.9952607,107.425532 L58.2867299,130.340426 L58.2867299,69.2553191 L96.9952607,46.3404255 L96.9952607,107.425532 Z" id="Shape" fill="#E1F2FF" fill-rule="nonzero"></path>
            </g>
            <g id="Layer_9" transform="translate(60.781991, 72.127660)" fill="#E1F2FF">
                <g id="Group">
                    <path d="M6.71800948,21.5106383 L4.60663507,22.7234043 C6.20616114,18.6382979 8.95734597,14.4893617 12.2843602,11.2340426 L12.2843602,13.2765957 C9.98104265,15.7021277 8.06161137,18.5744681 6.71800948,21.5106383 Z M22.9052133,5.10638298 C26.2322275,4.46808511 28.9834123,5.36170213 30.5829384,7.59574468 L28.471564,8.80851064 C27.1279621,7.40425532 25.2085308,6.82978723 22.9052133,7.14893617 L22.9052133,5.10638298 Z M17.5947867,34.5319149 C21.6255924,32.1702128 25.2085308,28.212766 27.5758294,23.9361702 L29.8791469,22.5957447 C27.2559242,28.0851064 22.7772512,33.3829787 17.6587678,36.3829787 C12.5402844,39.3829787 7.99763033,39.3829787 5.43838863,36.893617 L7.74170616,35.5531915 C9.98104265,37.0851064 13.563981,36.8297872 17.5947867,34.5319149 Z" id="Combined-Shape_2_" fill-rule="nonzero"></path>
                    <g id="user_2_" transform="translate(24.312796, 7.757774)">
                        <ellipse id="Oval_9_" transform="translate(5.511014, 4.665274) rotate(-53.154165) translate(-5.511014, -4.665274) " cx="5.51101351" cy="4.66527447" rx="4.08883393" ry="2.30150254"></ellipse>
                        <path d="M10.3649289,9.76595745 C10.3649289,10.3404255 9.91706161,11.0425532 9.34123223,11.3617021 L1.08767773,16.212766 C0.95971564,16.2765957 0.895734597,16.3404255 0.767772512,16.3404255 C0.255924171,16.4680851 -0.0639810427,16.0851064 0.127962085,15.4468085 C1.02369668,12.1914894 2.75118483,9.82978723 5.37440758,8.36170213 C7.93364929,6.82978723 9.5971564,7.27659574 10.3649289,9.57446809 C10.3649289,9.57446809 10.3649289,9.70212766 10.3649289,9.76595745 Z" id="Path-3_9_"></path>
                    </g>
                    <g id="user-copy_3_" transform="translate(0.393730, 21.162029)">
                        <ellipse id="Oval_8_" transform="translate(5.524558, 5.237974) rotate(-53.154165) translate(-5.524558, -5.237974) " cx="5.52455829" cy="5.23797447" rx="4.08883393" ry="2.30150254"></ellipse>
                        <path d="M10.3649289,10.3404255 C10.3649289,10.9148936 9.91706161,11.6170213 9.34123223,11.9361702 L1.08767773,16.787234 C0.95971564,16.8510638 0.895734597,16.9148936 0.767772512,16.9148936 C0.255924171,17.0425532 -0.0639810427,16.6595745 0.127962085,16.0212766 C1.02369668,12.7659574 2.75118483,10.4042553 5.37440758,8.93617021 C7.93364929,7.40425532 9.5971564,7.85106383 10.3649289,10.1489362 C10.3649289,10.1489362 10.3649289,10.212766 10.3649289,10.3404255 Z" id="Path-3_8_"></path>
                    </g>
                    <g id="user-copy-2_2_" transform="translate(12.353263, 0.000000)">
                        <ellipse id="Oval_7_" transform="translate(5.537495, 4.845536) rotate(-53.154165) translate(-5.537495, -4.845536) " cx="5.53749526" cy="4.84553617" rx="4.08883393" ry="2.30150254"></ellipse>
                        <path d="M10.3649289,9.89361702 C10.3649289,10.4680851 9.91706161,11.1702128 9.34123223,11.4893617 L1.08767773,16.3404255 C0.95971564,16.4042553 0.895734597,16.4680851 0.767772512,16.4680851 C0.255924171,16.5957447 -0.0639810427,16.212766 0.127962085,15.5744681 C1.02369668,12.3191489 2.75118483,9.95744681 5.37440758,8.4893617 C7.93364929,6.95744681 9.5971564,7.40425532 10.3649289,9.70212766 C10.3649289,9.76595745 10.3649289,9.82978723 10.3649289,9.89361702 Z" id="Path-3_7_"></path>
                    </g>
                </g>
            </g>
        </g>
    </g>
</svg>