<?xml version="1.0" encoding="UTF-8"?>
<svg width="135px" height="194px" viewBox="0 0 135 194" version="1.1" xmlns="http://www.w3.org/2000/svg" xmlns:xlink="http://www.w3.org/1999/xlink">
    <!-- Generator: Sketch 52.2 (67145) - http://www.bohemiancoding.com/sketch -->
    <title>v</title>
    <desc>Created with Sketch.</desc>
    <defs>
        <polygon id="path-1" points="0 0.11385159 129.382473 0.11385159 129.382473 178.477633 0 178.477633"></polygon>
        <polygon id="path-3" points="0.330731233 0.143827543 124.47477 0.143827543 124.47477 174.275409 0.330731233 174.275409"></polygon>
        <path d="M5.07561837,1.35031802 C2.08876325,3.60318021 0.0178091873,8.28063604 0.449681979,11.7979505 C0.882826855,15.315265 3.65533569,16.3399293 6.64219081,14.0864311 C9.63031802,11.8342049 11.7019081,7.15611307 11.2687633,3.63879859 C10.9914488,1.38530035 9.75371025,0.154558304 8.11335689,0.155194346 C7.19427562,0.155194346 6.14862191,0.541272085 5.07561837,1.35031802" id="path-5"></path>
        <linearGradient x1="-189.002454%" y1="32.9612445%" x2="293.171245%" y2="67.3330161%" id="linearGradient-7">
            <stop stop-color="#3154CA" offset="0%"></stop>
            <stop stop-color="#17D1AA" offset="100%"></stop>
        </linearGradient>
        <path d="M5.12586572,1.54303887 C2.13837456,3.79590106 0.0674204947,8.47335689 0.499929329,11.9906714 C0.93180212,15.5079859 3.704947,16.5320141 6.69243816,14.2791519 C9.67992933,12.0262898 11.7515194,7.34883392 11.3183746,3.83215548 C11.0416961,1.5780212 9.80332155,0.347915194 8.1629682,0.347915194 C7.24388693,0.347915194 6.19886926,0.733992933 5.12586572,1.54303887" id="path-8"></path>
        <linearGradient x1="-189.01414%" y1="32.9610607%" x2="293.18078%" y2="67.3334724%" id="linearGradient-10">
            <stop stop-color="#3154CA" offset="0%"></stop>
            <stop stop-color="#17D1AA" offset="100%"></stop>
        </linearGradient>
        <path d="M5.15575972,1.58628975 C2.16826855,3.83915194 0.0966784452,8.51660777 0.529187279,12.0332862 C0.961696113,15.5506007 3.73484099,16.575265 6.72233216,14.3224028 C9.70982332,12.0689046 11.7807774,7.39144876 11.3482686,3.87477032 C11.0709541,1.62127208 9.83321555,0.390530035 8.19286219,0.391166078 C7.27378092,0.391166078 6.22876325,0.777243816 5.15575972,1.58628975" id="path-11"></path>
        <linearGradient x1="-309.301299%" y1="24.3843598%" x2="172.872406%" y2="58.7571962%" id="linearGradient-13">
            <stop stop-color="#3154CA" offset="0%"></stop>
            <stop stop-color="#17D1AA" offset="100%"></stop>
        </linearGradient>
    </defs>
    <g id="v" stroke="none" stroke-width="1" fill="none" fill-rule="evenodd">
        <g id="Group" transform="translate(1.000000, -1.000000)">
            <g id="Group-14" transform="translate(72.000000, 121.000000)" stroke="#244BC0" stroke-width="2">
                <path d="M5,0 L5,63.4296764" id="Path-3-Copy"></path>
                <circle id="Oval-2-Copy" cx="4.5" cy="67.5" r="4.5"></circle>
            </g>
            <g id="Group-19" transform="translate(-0.000000, 0.000000)">
                <g id="Group-9" transform="translate(0.000000, 0.522191)">
                    <g id="Group-3">
                        <mask id="mask-2" fill="white">
                            <use xlink:href="#path-1"></use>
                        </mask>
                        <g id="Clip-2"></g>
                        <path d="M129.382473,6.30159011 L121.481555,1.77742049 C120.902756,1.35636042 118.658163,0.657985866 117.984594,0.441731449 L117.983958,0.441095406 C115.857032,-0.242650177 113.296325,0.124982332 110.543534,1.72717314 L13.2125088,58.3629329 C5.88212014,62.6282332 -0.0330742049,74.024841 -1.08420217e-19,83.8173498 L0.267137809,162.623004 C0.287491166,168.494947 2.45067138,172.436502 5.75236749,173.748657 L14.7981625,178.477633 L21.9046643,167.799117 L110.931519,115.996007 C118.261908,111.730071 124.177102,100.334099 124.144028,90.5415901 L123.885795,14.5612367 L129.382473,6.30159011 Z" id="Fill-1" fill="#E1F2FF" mask="url(#mask-2)"></path>
                    </g>
                    <g id="Group-6" transform="translate(9.540636, 5.088339)">
                        <mask id="mask-4" fill="white">
                            <use xlink:href="#path-3"></use>
                        </mask>
                        <g id="Clip-5"></g>
                        <path d="M124.207124,11.7657668 C124.173413,1.97325795 118.204155,-2.50766078 110.874403,1.75763958 L13.5433781,58.3933993 C6.2129894,62.6586996 0.297795053,74.0546714 0.330869258,83.8478163 L0.59864311,162.65347 C0.631717314,172.445979 6.60097527,176.926898 13.931364,172.661597 L111.262389,116.025837 C118.592141,111.760537 124.507972,100.364565 124.474898,90.5720565 L124.207124,11.7657668 Z" id="Fill-4" fill="#1D45BA" mask="url(#mask-4)"></path>
                    </g>
                    <path d="M104.835816,51.8258799 C104.819915,47.0600141 101.914473,44.8796608 98.3475477,46.9550671 L50.9801979,74.5179647 C47.412636,76.593371 44.5339081,82.1396608 44.5498092,86.9055265 L44.6801979,125.257611 C44.6960989,130.022841 47.6015406,132.20383 51.1691025,130.127788 L65.7999859,121.61436 C66.0499505,123.29542 66.1688905,126.066021 64.9794912,128.741216 C64.3905159,130.066092 63.7939081,131.224961 63.251364,132.191746 C62.7151802,133.147081 63.8269823,134.192099 64.7454276,133.594219 C68.1609753,131.369979 72.9173004,127.079873 73.9934841,120.020438 C74.1836608,118.769343 74.3299505,117.630827 74.4431661,116.584537 L98.5364523,102.565527 C102.103378,100.489484 104.982106,94.9438304 104.966205,90.1779647 L104.835816,51.8258799 Z" id="Fill-7" fill="#E1F2FF"></path>
                </g>
                <g id="Group-12" transform="translate(69.964664, 82.571661)">
                    <mask id="mask-6" fill="white">
                        <use xlink:href="#path-5"></use>
                    </mask>
                    <g id="Clip-11"></g>
                    <path d="M5.07561837,1.35031802 C2.08876325,3.60318021 0.0178091873,8.28063604 0.449681979,11.7979505 C0.882826855,15.315265 3.65533569,16.3399293 6.64219081,14.0864311 C9.63031802,11.8342049 11.7019081,7.15611307 11.2687633,3.63879859 C10.9914488,1.38530035 9.75371025,0.154558304 8.11335689,0.155194346 C7.19427562,0.155194346 6.14862191,0.541272085 5.07561837,1.35031802" id="Fill-10" fill="url(#linearGradient-7)" mask="url(#mask-6)"></path>
                </g>
                <g id="Group-15" transform="translate(55.335689, 90.840212)">
                    <mask id="mask-9" fill="white">
                        <use xlink:href="#path-8"></use>
                    </mask>
                    <g id="Clip-14"></g>
                    <path d="M5.12586572,1.54303887 C2.13837456,3.79590106 0.0674204947,8.47335689 0.499929329,11.9906714 C0.93180212,15.5079859 3.704947,16.5320141 6.69243816,14.2791519 C9.67992933,12.0262898 11.7515194,7.34883392 11.3183746,3.83215548 C11.0416961,1.5780212 9.80332155,0.347915194 8.1629682,0.347915194 C7.24388693,0.347915194 6.19886926,0.733992933 5.12586572,1.54303887" id="Fill-13" fill="url(#linearGradient-10)" mask="url(#mask-9)"></path>
                </g>
                <g id="Group-18" transform="translate(83.957597, 74.303110)">
                    <mask id="mask-12" fill="white">
                        <use xlink:href="#path-11"></use>
                    </mask>
                    <g id="Clip-17"></g>
                    <path d="M5.15575972,1.58628975 C2.16826855,3.83915194 0.0966784452,8.51660777 0.529187279,12.0332862 C0.961696113,15.5506007 3.73484099,16.575265 6.72233216,14.3224028 C9.70982332,12.0689046 11.7807774,7.39144876 11.3482686,3.87477032 C11.0709541,1.62127208 9.83321555,0.390530035 8.19286219,0.391166078 C7.27378092,0.391166078 6.22876325,0.777243816 5.15575972,1.58628975" id="Fill-16" fill="url(#linearGradient-13)" mask="url(#mask-12)"></path>
                </g>
            </g>
        </g>
    </g>
</svg>