<?xml version="1.0" encoding="UTF-8"?>
<svg width="135px" height="194px" viewBox="0 0 135 194" version="1.1" xmlns="http://www.w3.org/2000/svg" xmlns:xlink="http://www.w3.org/1999/xlink">
    <!-- Generator: Sketch 52.6 (67491) - http://www.bohemiancoding.com/sketch -->
    <title>multisig</title>
    <desc>Created with Sketch.</desc>
    <defs>
        <linearGradient x1="99.9643113%" y1="50.0078193%" x2="0.0244239631%" y2="50.0078193%" id="linearGradient-1">
            <stop stop-color="#17D1AA" offset="0%"></stop>
            <stop stop-color="#1AC2AE" offset="6.594372%"></stop>
            <stop stop-color="#229BB8" offset="26.51%"></stop>
            <stop stop-color="#297CC0" offset="46.16%"></stop>
            <stop stop-color="#2D66C6" offset="65.25%"></stop>
            <stop stop-color="#3059CA" offset="83.49%"></stop>
            <stop stop-color="#3154CB" offset="100%"></stop>
        </linearGradient>
        <linearGradient x1="-111.318146%" y1="-170.160649%" x2="88.1700298%" y2="87.3645459%" id="linearGradient-2">
            <stop stop-color="#17D1AA" offset="0%"></stop>
            <stop stop-color="#1CB9B0" offset="22.74%"></stop>
            <stop stop-color="#297DC0" offset="70.39%"></stop>
            <stop stop-color="#3154CB" offset="100%"></stop>
        </linearGradient>
        <linearGradient x1="-136.453137%" y1="-52.0733868%" x2="112.907299%" y2="85.7374988%" id="linearGradient-3">
            <stop stop-color="#17D1AA" offset="0%"></stop>
            <stop stop-color="#1CB9B0" offset="22.74%"></stop>
            <stop stop-color="#297DC0" offset="70.39%"></stop>
            <stop stop-color="#3154CB" offset="100%"></stop>
        </linearGradient>
        <linearGradient x1="-47.4752909%" y1="-20.3002085%" x2="181.489167%" y2="138.643985%" id="linearGradient-4">
            <stop stop-color="#17D1AA" offset="0%"></stop>
            <stop stop-color="#1CB9B0" offset="22.74%"></stop>
            <stop stop-color="#297DC0" offset="70.39%"></stop>
            <stop stop-color="#3154CB" offset="100%"></stop>
        </linearGradient>
        <linearGradient x1="-24.7596729%" y1="20.3871538%" x2="212.845198%" y2="116.768083%" id="linearGradient-5">
            <stop stop-color="#17D1AA" offset="0%"></stop>
            <stop stop-color="#1CB9B0" offset="22.74%"></stop>
            <stop stop-color="#297DC0" offset="70.39%"></stop>
            <stop stop-color="#3154CB" offset="100%"></stop>
        </linearGradient>
    </defs>
    <g id="multisig" stroke="none" stroke-width="1" fill="none" fill-rule="evenodd">
        <g>
            <g id="lock-screen" transform="translate(56.000000, 120.000000)" stroke="#244BC0" stroke-width="2">
                <g id="Group-8">
                    <path d="M5,0 L5,63.4296764" id="Path-3"></path>
                    <circle id="Oval-2" cx="4.5" cy="67.5" r="4.5"></circle>
                </g>
            </g>
            <g id="9_multisig">
                <g id="Layer_7">
                    <g id="_x36__24_">
                        <g id="XMLID_304_">
                            <path d="M4.86255924,6.48763251 L12.7962085,1.97173145 C13.3720379,1.52650177 15.6113744,0.826855124 16.3151659,0.636042403 C18.4265403,-0.0636042403 21.049763,0.318021201 23.8009479,1.90812721 L121.691943,58.5159011 C129.049763,62.7773852 135,74.1625442 135,83.9575972 L134.744076,162.826855 C134.744076,168.678445 132.56872,172.621908 129.241706,173.957597 L120.156398,178.664311 L112.990521,167.978799 L23.4170616,116.204947 C16.0592417,111.943463 10.1090047,100.558304 10.1090047,90.7632509 L10.3649289,14.7561837 L4.86255924,6.48763251 Z" id="XMLID_305_" fill="#E1F2FF"></path>
                            <path d="M0.511848341,17.0459364 C0.575829384,7.25088339 6.52606635,2.79858657 13.9478673,7.06007067 L111.838863,63.6678445 C119.196682,67.9293286 125.146919,79.3144876 125.146919,89.1095406 L124.827014,167.915194 C124.763033,177.710247 118.812796,182.162544 111.390995,177.90106 L13.5,121.293286 C6.14218009,117.031802 0.191943128,105.646643 0.191943128,95.8515901 L0.511848341,17.0459364 Z" id="Path" fill="url(#linearGradient-1)"></path>
                        </g>
                    </g>
                    <g id="Group" transform="translate(9.597156, 34.982332)" fill-rule="nonzero">
                        <path d="M63.9170616,66.6572438 C63.9170616,66.6572438 63.9170616,66.7208481 63.9170616,66.6572438 L48.6895735,57.6254417 C48.6895735,57.6254417 48.6895735,57.6254417 48.6895735,57.5618375 L50.4170616,54.3816254 C50.4170616,54.3816254 50.4170616,54.3816254 50.4170616,54.3816254 L62.2535545,61.4416961 C62.2535545,61.4416961 62.2535545,61.4416961 62.2535545,61.4416961 L63.9170616,66.6572438 M56.3672986,43.1872792 C56.3672986,43.1872792 56.4312796,43.1872792 56.3672986,43.1872792 L60.6540284,56.6077739 C60.6540284,56.6077739 60.6540284,56.6077739 60.6540284,56.6077739 L51.9526066,51.4558304 C51.9526066,51.4558304 51.9526066,51.4558304 51.9526066,51.3922261 L56.3672986,43.1872792 M36.021327,52.0282686 C35.957346,53.1095406 36.9170616,54.6360424 38.0687204,55.2720848 L42.7393365,58.0070671 C42.7393365,58.0070671 42.7393365,58.0070671 42.7393365,58.0706714 L37.1090047,68.6925795 C36.7251185,69.4558304 37.2369668,70.9187279 38.2606635,71.9363958 C38.5165877,72.1908127 38.7725118,72.3816254 39.028436,72.5088339 C39.8601896,72.9540636 40.563981,72.9540636 40.8838863,72.3816254 L47.1540284,60.6784452 C47.1540284,60.6784452 47.1540284,60.6784452 47.1540284,60.6784452 L65.5805687,71.6183746 C65.5805687,71.6183746 65.5805687,71.6183746 65.5805687,71.6183746 L71.5947867,90.5088339 C71.9146919,91.4628975 72.6824645,92.4169611 73.514218,92.9257951 C73.7701422,93.0530035 74.0260664,93.180212 74.2180095,93.2438163 C75.2417062,93.4982332 75.7535545,92.6713781 75.3696682,91.3992933 L69.9312796,74.2897527 C69.9312796,74.2897527 69.9312796,74.2897527 69.9312796,74.2897527 L74.6018957,77.0883392 C75.7535545,77.7879859 76.6492891,77.4063604 76.6492891,76.1978799 C76.5853081,75.1166078 75.6255924,73.7173145 74.4739336,73.0176678 L68.3317536,69.3922261 C68.3317536,69.3922261 68.3317536,69.3922261 68.3317536,69.3922261 L66.6682464,64.2402827 C66.6682464,64.2402827 66.6682464,64.2402827 66.6682464,64.2402827 L70.6350711,66.5936396 C71.7867299,67.2932862 72.6824645,66.9116608 72.6824645,65.7031802 C72.6184834,64.6219081 71.6587678,63.2226148 70.507109,62.5229682 L65.0687204,59.2791519 C65.0687204,59.2791519 65.0687204,59.2791519 65.0687204,59.2791519 L58.2867299,38.1625442 C57.9668246,37.2084806 57.2630332,36.254417 56.4312796,35.8091873 C55.5995261,35.3003534 54.8317536,35.3639576 54.5118483,35.9363958 L47.6018957,48.9116608 C47.6018957,48.9116608 47.6018957,48.9116608 47.6018957,48.9116608 L42.035545,45.6042403 C40.8838863,44.9045936 39.9881517,45.2862191 39.9881517,46.4946996 C40.0521327,47.5759717 41.0118483,48.975265 42.1635071,49.6749117 L46.0023697,51.9646643 C46.0023697,51.9646643 46.0023697,51.9646643 46.0023697,52.0282686 L44.2748815,55.2084806 C44.2748815,55.2084806 44.2748815,55.2084806 44.2748815,55.2084806 L38.1327014,51.5830389 C37.0450237,50.7561837 36.021327,50.9469965 36.021327,52.0282686" id="Fill-1_1_" stroke="#E1F2FF" fill="#E1F2FF"></path>
                        <path d="M103.969194,61.8233216 C101.154028,57.0530035 96.5473934,53.8727915 93.7322275,54.7632509 C93.0924171,54.9540636 92.5805687,55.335689 92.1966825,55.844523 L86.7582938,52.0918728 L84.9668246,52.664311 L83.1753555,49.6113074 L81.3838863,50.1837456 L79.5924171,47.130742 L76.5853081,48.0212014 L79.5924171,53.1095406 L92.2606635,61.8233216 C92.7085308,62.9045936 93.1563981,63.9222615 93.7962085,64.9399293 C96.6113744,69.7102473 101.218009,72.8904594 104.033175,72 C106.78436,71.1095406 106.78436,66.5936396 103.969194,61.8233216 Z M102.113744,63.795053 C103.137441,65.5123675 103.137441,67.1024735 102.113744,67.4204947 C101.090047,67.7385159 99.4905213,66.6572438 98.4668246,64.9399293 C97.443128,63.2226148 97.443128,61.6325088 98.4668246,61.3144876 C99.4905213,60.9964664 101.090047,62.0777385 102.113744,63.795053 Z" id="Shape" fill="url(#linearGradient-2)"></path>
                        <path d="M103.969194,115.95053 C101.154028,111.180212 96.5473934,108 93.7322275,108.890459 C93.0924171,109.081272 92.5805687,109.462898 92.1966825,109.971731 L86.7582938,106.219081 L84.9668246,106.791519 L83.1753555,103.738516 L81.3838863,104.310954 L79.5924171,101.257951 L76.5853081,102.14841 L79.5924171,107.236749 L92.2606635,115.95053 C92.7085308,117.031802 93.1563981,118.04947 93.7962085,119.067138 C96.6113744,123.837456 101.218009,127.017668 104.033175,126.127208 C106.78436,125.300353 106.78436,120.720848 103.969194,115.95053 Z M102.113744,117.985866 C103.137441,119.70318 103.137441,121.293286 102.113744,121.611307 C101.090047,121.929329 99.4905213,120.848057 98.4668246,119.130742 C97.443128,117.413428 97.443128,115.823322 98.4668246,115.5053 C99.4905213,115.187279 101.090047,116.268551 102.113744,117.985866 Z" id="Shape" fill="url(#linearGradient-3)"></path>
                        <path d="M27.4478673,72.8268551 C24.6327014,68.0565371 20.0260664,64.8763251 17.2109005,65.7667845 C16.57109,65.9575972 16.0592417,66.3392226 15.6753555,66.8480565 L10.2369668,63.0954064 L8.44549763,63.6678445 L6.65402844,60.614841 L4.86255924,61.1872792 L3.07109005,58.1342756 L0.0639810427,59.024735 L3.07109005,64.1130742 L15.7393365,72.8268551 C16.1872038,73.9081272 16.6350711,74.9257951 17.2748815,75.9434629 C20.0900474,80.7137809 24.6966825,83.8939929 27.5118483,83.0035336 C30.3270142,82.1766784 30.3270142,77.5971731 27.4478673,72.8268551 Z M25.5924171,74.8621908 C26.6161137,76.5795053 26.6161137,78.1696113 25.5924171,78.4876325 C24.5687204,78.8056537 22.9691943,77.7243816 21.9454976,76.0070671 C20.9218009,74.2897527 20.9218009,72.6996466 21.9454976,72.3816254 C22.9691943,72.0636042 24.5687204,73.1448763 25.5924171,74.8621908 Z" id="Shape" fill="url(#linearGradient-4)"></path>
                        <path d="M27.4478673,15.2014134 C24.6327014,10.4310954 20.0260664,7.25088339 17.2109005,8.14134276 C16.57109,8.33215548 16.0592417,8.71378092 15.6753555,9.22261484 L10.2369668,5.46996466 L8.44549763,6.04240283 L6.65402844,2.98939929 L4.86255924,3.56183746 L3.07109005,0.508833922 L0.0639810427,1.39929329 L3.07109005,6.48763251 L15.7393365,15.2014134 C16.1872038,16.2826855 16.6350711,17.3003534 17.2748815,18.3180212 C20.0900474,23.0883392 24.6966825,26.2685512 27.5118483,25.3780919 C30.3270142,24.5512367 30.3270142,19.9717314 27.4478673,15.2014134 Z M25.5924171,17.2367491 C26.6161137,18.9540636 26.6161137,20.5441696 25.5924171,20.8621908 C24.5687204,21.180212 22.9691943,20.0989399 21.9454976,18.3816254 C20.9218009,16.664311 20.9218009,15.0742049 21.9454976,14.7561837 C23.0331754,14.4381625 24.5687204,15.5194346 25.5924171,17.2367491 Z" id="Shape" fill="url(#linearGradient-5)"></path>
                    </g>
                </g>
            </g>
        </g>
    </g>
</svg>