<?xml version="1.0" encoding="UTF-8"?>
<svg width="135px" height="194px" viewBox="0 0 135 194" version="1.1" xmlns="http://www.w3.org/2000/svg" xmlns:xlink="http://www.w3.org/1999/xlink">
    <!-- Generator: Sketch 52.2 (67145) - http://www.bohemiancoding.com/sketch -->
    <title>v</title>
    <desc>Created with Sketch.</desc>
    <defs>
        <polygon id="path-1" points="0.000429067212 0.11385159 129.38241 0.11385159 129.38241 178.477633 0.000429067212 178.477633"></polygon>
        <polygon id="path-3" points="0.330731233 0.143827543 124.47477 0.143827543 124.47477 174.275409 0.330731233 174.275409"></polygon>
    </defs>
    <g id="v" stroke="none" stroke-width="1" fill="none" fill-rule="evenodd">
        <g id="Group-29" transform="translate(0.000000, -1.000000)">
            <g id="Group-8-Copy-3" transform="translate(68.000000, 122.000000)" stroke="#244BC0" stroke-width="2">
                <path d="M5,0 L5,63.4296764" id="Path-3"></path>
                <circle id="Oval-2" cx="4.5" cy="67.5" r="4.5"></circle>
            </g>
            <g id="Group-11" transform="translate(-0.000000, 0.377754)">
                <g id="Group-3" transform="translate(0.000000, 0.522191)">
                    <mask id="mask-2" fill="white">
                        <use xlink:href="#path-1"></use>
                    </mask>
                    <g id="Clip-2"></g>
                    <path d="M129.38241,6.30159011 L121.481491,1.77742049 C120.902693,1.35636042 118.658099,0.657985866 117.98453,0.441731449 L117.983894,0.441095406 C115.856968,-0.242650177 113.296261,0.124982332 110.54347,1.72717314 L13.2118092,58.3629329 C5.88205654,62.6282332 -0.0331378092,74.024841 0.000572438163,83.8173498 L0.267074205,162.623004 C0.287427562,168.494947 2.45060777,172.436502 5.75230389,173.748657 L14.7980989,178.477633 L21.9046007,167.799117 L110.931456,115.996007 C118.261845,111.730071 124.177039,100.334099 124.143965,90.5415901 L123.885731,14.5612367 L129.38241,6.30159011 Z" id="Fill-1" fill="#E1F2FF" mask="url(#mask-2)"></path>
                </g>
                <g id="Group-6" transform="translate(9.540636, 5.610530)">
                    <mask id="mask-4" fill="white">
                        <use xlink:href="#path-3"></use>
                    </mask>
                    <g id="Clip-5"></g>
                    <path d="M124.207124,11.7657668 C124.174049,1.97325795 118.204792,-2.50766078 110.874403,1.75763958 L13.5433781,58.3933993 C6.2129894,62.6586996 0.297795053,74.0546714 0.330869258,83.8478163 L0.59864311,162.65347 C0.631717314,172.445979 6.60097527,176.926898 13.931364,172.661597 L111.262389,116.025837 C118.592777,111.760537 124.507972,100.364565 124.474898,90.5720565 L124.207124,11.7657668 Z" id="Fill-4" fill="#1D45BA" mask="url(#mask-4)"></path>
                </g>
                <path d="M96.206629,107.543958 L57.7044382,130.351166 L57.7044382,69.5079859 L96.206629,46.7001413 L96.206629,107.543958 Z M85.7062049,48.2813428 C85.7062049,48.7450177 85.3557456,49.3289046 84.9321413,49.5801413 L68.9782898,59.0310954 C68.5515053,59.2836042 68.2054982,59.1239576 68.2054982,58.6488339 L68.2054982,58.4236749 C68.2054982,57.96 68.5546855,57.3767491 68.982106,57.1236042 L84.9321413,47.6745583 C85.3595618,47.4220495 85.7062049,47.5855124 85.7062049,48.0568198 L85.7062049,48.2813428 Z M73.4553922,127.485795 C73.4553922,125.386855 75.0232367,122.754276 76.9555336,121.609399 C78.8878304,120.465159 80.4556749,121.239859 80.4556749,123.338799 C80.4556749,125.437739 78.8878304,128.070318 76.9555336,129.215194 C75.0232367,130.359435 73.4553922,129.584735 73.4553922,127.485795 Z M92.7064876,123.056396 C92.7064876,123.056396 99.7067703,118.909399 99.7067703,111.292792 L99.7067703,42.7369611 C99.7067703,35.1203534 92.7064876,39.2667138 92.7064876,39.2667138 L61.2045795,57.9275618 C61.2045795,57.9275618 54.2042968,62.0745583 54.2042968,69.6911661 L54.2042968,138.246996 C54.2042968,145.863604 61.2045795,141.717244 61.2045795,141.717244 L92.7064876,123.056396 Z" id="Fill-7" fill="#E1F2FF"></path>
                <path d="M89.8064523,72.3936466 C88.9357102,72.1430459 87.7450389,72.8414205 87.1427067,73.9557668 L76.4317527,93.6978869 L68.8736608,90.5653781 C68.0582544,90.2250954 66.8510459,90.8369682 66.1806572,91.9265088 C65.5089965,93.0166855 65.6279364,94.1742827 66.446523,94.5107491 L75.6068057,98.3072862 C75.9515406,98.4484876 76.3802332,98.4268622 76.8203746,98.2481343 C76.9068763,98.2131519 76.9946502,98.1718092 77.0830601,98.124106 C77.6109753,97.8353428 78.0854629,97.3532226 78.3920353,96.7903251 L90.2847562,74.8653074 C90.8877244,73.7515972 90.6733781,72.6461555 89.8064523,72.3936466" id="Fill-9" fill="#E1F2FF"></path>
            </g>
        </g>
    </g>
</svg>