<?xml version="1.0" encoding="UTF-8"?>
<svg width="135px" height="194px" viewBox="0 0 135 194" version="1.1" xmlns="http://www.w3.org/2000/svg" xmlns:xlink="http://www.w3.org/1999/xlink">
    <!-- Generator: Sketch 52.6 (67491) - http://www.bohemiancoding.com/sketch -->
    <title>Ouroboros</title>
    <desc>Created with Sketch.</desc>
    <g id="Ouroboros" stroke="none" stroke-width="1" fill="none" fill-rule="evenodd">
        <g id="Group-8" transform="translate(72.000000, 120.000000)" stroke="#244BC0" stroke-width="2">
            <path d="M5,0 L5,63.4296764" id="Path-3"></path>
            <circle id="Oval-2" cx="4.5" cy="67.5" r="4.5"></circle>
        </g>
        <g id="ouroboros">
            <g id="_x36__44_">
                <g id="XMLID_301_">
                    <path d="M130.393365,6.31914894 L122.459716,1.78723404 C121.883886,1.34042553 119.64455,0.638297872 118.940758,0.446808511 C116.829384,-0.255319149 114.206161,0.127659574 111.454976,1.72340426 L13.563981,58.5319149 C6.20616114,62.8085106 0.255924171,74.2340426 0.255924171,84.0638298 L0.511848341,163.148936 C0.511848341,169.021277 2.68720379,172.978723 6.01421801,174.319149 L15.0995261,179.042553 L22.2654028,168.319149 L111.838863,116.361702 C119.196682,112.085106 125.146919,100.659574 125.146919,90.8297872 L124.890995,14.5531915 L130.393365,6.31914894 Z" id="XMLID_349_" fill="#E1F2FF"></path>
                    <path d="M134.744076,16.9148936 C134.680095,7.08510638 128.729858,2.61702128 121.308057,6.89361702 L23.4170616,63.7021277 C16.0592417,67.9787234 10.1090047,79.4042553 10.1090047,89.2340426 L10.3649289,168.319149 C10.42891,178.148936 16.3791469,182.617021 23.8009479,178.340426 L121.691943,121.531915 C129.049763,117.255319 135,105.829787 135,96 L134.744076,16.9148936 Z" id="Path" fill="#1D45BA"></path>
                </g>
            </g>
            <path d="M73.9620853,124.659574 C73.7061611,124.914894 73.6421801,125.234043 71.3388626,126.829787 C69.9952607,127.787234 68.5876777,128.489362 67.2440758,128.93617 C64.1729858,129.957447 63.0853081,129.957447 62.1255924,129.893617 C61.2938389,129.829787 60.5260664,129.638298 59.8222749,129.319149 C59.4383886,129.12766 59.1184834,129 58.6706161,128.93617 C55.8554502,128.617021 53.2962085,127.851064 51.1848341,126.446809 C49.7772512,125.553191 48.4976303,124.468085 47.4099526,123.191489 C46.3222749,121.914894 45.3625592,120.510638 44.5947867,118.851064 C43.1872038,115.531915 42.4834123,111.638298 42.5473934,107.361702 C42.6113744,98.8723404 45.8744076,88.7234043 51.7606635,79.4680851 C54.6398104,74.8723404 58.1587678,70.4680851 62.0616114,66.6382979 C64.0450237,64.7234043 66.028436,62.9361702 68.1398104,61.4042553 C70.2511848,59.8085106 72.3625592,58.4042553 74.5379147,57.2553191 C78.8246445,54.893617 83.1753555,53.3617021 87.2061611,52.787234 C91.2369668,52.212766 94.9478673,52.5957447 98.1469194,53.9361702 C101.281991,55.212766 103.841232,57.5106383 105.632701,60.4468085 C107.424171,63.3829787 108.447867,67.1489362 108.703791,71.2978723 C108.959716,75.4468085 108.319905,80.106383 106.78436,84.893617 C105.248815,89.6808511 102.817536,94.5957447 99.8104265,99.0638298 C96.8033175,103.595745 93.2203791,107.808511 89.4454976,111.446809 C85.6066351,115.085106 81.5118483,118.212766 77.4170616,120.638298 L77.3530806,119.87234 C81.3199052,117.191489 85.2227488,113.93617 88.7417062,110.297872 C92.3246445,106.659574 95.5236967,102.574468 98.1469194,98.2978723 C99.4905213,96.1276596 100.64218,93.9574468 101.665877,91.787234 C102.689573,89.6170213 103.521327,87.3829787 104.097156,85.2765957 C104.736967,83.106383 105.184834,81 105.376777,78.9574468 C105.632701,76.9148936 105.632701,75 105.440758,73.1489362 C104.864929,65.6808511 101.281991,60.1276596 95.6516588,57.8297872 C92.8364929,56.6808511 89.5094787,56.2978723 85.9265403,56.7446809 C82.3436019,57.2553191 78.4407583,58.5957447 74.6018957,60.7021277 C70.7630332,62.8085106 66.9241706,65.6170213 63.3412322,69 C59.7582938,72.3829787 56.4952607,76.2765957 53.8080569,80.4893617 C51.056872,84.7021277 48.8815166,89.106383 47.3459716,93.5106383 C46.5781991,95.6808511 46.0023697,97.9148936 45.6184834,100.021277 C45.2345972,102.12766 45.042654,104.234043 44.978673,106.212766 C44.9146919,108.191489 45.1706161,110.042553 45.5545024,111.702128 C46.0023697,113.361702 46.6421801,114.893617 47.4099526,116.234043 C48.2417062,117.574468 49.2014218,118.787234 50.2890995,119.744681 C51.4407583,120.765957 52.9123223,122.170213 56.2393365,122.617021 C60.9099526,123.382979 61.9336493,123.382979 63.4052133,123.12766 C65.1327014,123 69.6753555,122.425532 69.8672986,122.361702 C70.3151659,122.297872 70.443128,123.446809 70.8909953,123.382979 C75.9454976,121.085106 75.5616114,122.361702 75.5616114,122.425532 L73.9620853,124.659574 Z" id="Path" fill="#E1F2FF"></path>
        </g>
    </g>
</svg>