<?xml version="1.0" encoding="UTF-8"?>
<svg width="135px" height="194px" viewBox="0 0 135 194" version="1.1" xmlns="http://www.w3.org/2000/svg" xmlns:xlink="http://www.w3.org/1999/xlink">
    <!-- Generator: Sketch 52.6 (67491) - http://www.bohemiancoding.com/sketch -->
    <title>paper wallet</title>
    <desc>Created with Sketch.</desc>
    <defs>
        <linearGradient x1="94.0513209%" y1="-3.02848365%" x2="5.98612479%" y2="102.868758%" id="linearGradient-1">
            <stop stop-color="#17D1AA" offset="0%"></stop>
            <stop stop-color="#1AC2AE" offset="6.594372%"></stop>
            <stop stop-color="#229BB8" offset="26.51%"></stop>
            <stop stop-color="#297CC0" offset="46.16%"></stop>
            <stop stop-color="#2D66C6" offset="65.25%"></stop>
            <stop stop-color="#3059CA" offset="83.49%"></stop>
            <stop stop-color="#3154CB" offset="100%"></stop>
        </linearGradient>
        <linearGradient x1="144.81436%" y1="11.0099279%" x2="-44.6936753%" y2="88.8404707%" id="linearGradient-2">
            <stop stop-color="#17D1AA" offset="0%"></stop>
            <stop stop-color="#1AC2AE" offset="6.594372%"></stop>
            <stop stop-color="#229BB8" offset="26.51%"></stop>
            <stop stop-color="#297CC0" offset="46.16%"></stop>
            <stop stop-color="#2D66C6" offset="65.25%"></stop>
            <stop stop-color="#3059CA" offset="83.49%"></stop>
            <stop stop-color="#3154CB" offset="100%"></stop>
        </linearGradient>
        <linearGradient x1="144.898289%" y1="10.9832666%" x2="-44.6088538%" y2="88.813675%" id="linearGradient-3">
            <stop stop-color="#17D1AA" offset="0%"></stop>
            <stop stop-color="#1AC2AE" offset="6.594372%"></stop>
            <stop stop-color="#229BB8" offset="26.51%"></stop>
            <stop stop-color="#297CC0" offset="46.16%"></stop>
            <stop stop-color="#2D66C6" offset="65.25%"></stop>
            <stop stop-color="#3059CA" offset="83.49%"></stop>
            <stop stop-color="#3154CB" offset="100%"></stop>
        </linearGradient>
        <linearGradient x1="87.4914723%" y1="-7.09063552%" x2="12.2085929%" y2="107.249778%" id="linearGradient-4">
            <stop stop-color="#17D1AA" offset="0%"></stop>
            <stop stop-color="#1AC2AE" offset="6.594372%"></stop>
            <stop stop-color="#229BB8" offset="26.51%"></stop>
            <stop stop-color="#297CC0" offset="46.16%"></stop>
            <stop stop-color="#2D66C6" offset="65.25%"></stop>
            <stop stop-color="#3059CA" offset="83.49%"></stop>
            <stop stop-color="#3154CB" offset="100%"></stop>
        </linearGradient>
        <linearGradient x1="80.7260706%" y1="-14.6317798%" x2="19.2788347%" y2="114.413951%" id="linearGradient-5">
            <stop stop-color="#17D1AA" offset="0%"></stop>
            <stop stop-color="#1AC2AE" offset="6.594372%"></stop>
            <stop stop-color="#229BB8" offset="26.51%"></stop>
            <stop stop-color="#297CC0" offset="46.16%"></stop>
            <stop stop-color="#2D66C6" offset="65.25%"></stop>
            <stop stop-color="#3059CA" offset="83.49%"></stop>
            <stop stop-color="#3154CB" offset="100%"></stop>
        </linearGradient>
        <linearGradient x1="80.7260706%" y1="-14.5779466%" x2="19.2788347%" y2="114.467785%" id="linearGradient-6">
            <stop stop-color="#17D1AA" offset="0%"></stop>
            <stop stop-color="#1AC2AE" offset="6.594372%"></stop>
            <stop stop-color="#229BB8" offset="26.51%"></stop>
            <stop stop-color="#297CC0" offset="46.16%"></stop>
            <stop stop-color="#2D66C6" offset="65.25%"></stop>
            <stop stop-color="#3059CA" offset="83.49%"></stop>
            <stop stop-color="#3154CB" offset="100%"></stop>
        </linearGradient>
    </defs>
    <g id="paper-wallet" stroke="none" stroke-width="1" fill="none" fill-rule="evenodd">
        <g id="Group">
            <g id="roadmap:native-mobile-apps" transform="translate(68.000000, 120.000000)" stroke="#244BC0" stroke-width="2">
                <g id="Group-8-Copy-3">
                    <path d="M5,0 L5,63.4296764" id="Path-3"></path>
                    <circle id="Oval-2" cx="4.5" cy="67.5" r="4.5"></circle>
                </g>
            </g>
            <g id="roadmap_Paper-wallets">
                <g id="_x36__25_">
                    <g id="XMLID_309_">
                        <path d="M130.393365,6.31914894 L122.459716,1.78723404 C121.883886,1.34042553 119.64455,0.638297872 118.940758,0.446808511 C116.829384,-0.255319149 114.206161,0.127659574 111.454976,1.72340426 L13.563981,58.5319149 C6.20616114,62.8085106 0.255924171,74.2340426 0.255924171,84.0638298 L0.511848341,163.148936 C0.511848341,169.021277 2.68720379,172.978723 6.01421801,174.319149 L15.0995261,179.042553 L22.2654028,168.319149 L111.838863,116.361702 C119.196682,112.085106 125.146919,100.659574 125.146919,90.8297872 L124.890995,14.5531915 L130.393365,6.31914894 Z" id="XMLID_310_" fill="#E1F2FF"></path>
                        <path d="M134.744076,16.9148936 C134.680095,7.08510638 128.729858,2.61702128 121.308057,6.89361702 L23.4170616,63.7021277 C16.0592417,67.9787234 10.1090047,79.4042553 10.1090047,89.2340426 L10.3649289,168.319149 C10.42891,178.148936 16.3791469,182.617021 23.8009479,178.340426 L121.691943,121.531915 C129.049763,117.255319 135,105.829787 135,96 L134.744076,16.9148936 Z" id="Path" fill="#1D45BA"></path>
                    </g>
                </g>
                <g id="XMLID_327_" transform="translate(53.744076, 38.297872)" fill="#E1F2FF">
                    <path d="M47.7298578,4.78723404 C47.7298578,1.0212766 45.4265403,-0.70212766 42.6113744,0.957446809 L5.11848341,22.7234043 C2.30331754,24.3829787 0,28.7234043 0,32.4893617 L0.127962085,103.851064 C0.127962085,107.617021 2.43127962,109.340426 5.2464455,107.680851 L42.7393365,85.9148936 C45.5545024,84.2553191 47.8578199,79.9148936 47.8578199,76.1489362 L47.7298578,4.78723404 Z" id="Path"></path>
                </g>
                <path d="M97.57109,91.0851064 L59.950237,114.702128 C59.4383886,115.021277 58.7985782,114.638298 58.7985782,114.06383 L58.7985782,95.8723404 C58.7985782,95.6170213 58.9265403,95.3617021 59.1824645,95.2340426 L96.8033175,71.6170213 C97.3151659,71.2978723 97.9549763,71.6808511 97.9549763,72.2553191 L97.9549763,90.4468085 C97.9549763,90.7021277 97.8270142,90.9574468 97.57109,91.0851064 Z" id="Path" fill="url(#linearGradient-1)"></path>
                <path d="M65.5805687,88.5319149 L59.950237,92.0425532 C59.4383886,92.3617021 58.7985782,91.9787234 58.7985782,91.4042553 L58.7985782,73.212766 C58.7985782,72.9574468 58.9265403,72.7021277 59.1824645,72.5744681 L64.8127962,69.0638298 C65.3246445,68.7446809 65.964455,69.1276596 65.964455,69.7021277 L65.964455,87.893617 C65.964455,88.1489362 65.8364929,88.4042553 65.5805687,88.5319149 Z" id="Path" fill="url(#linearGradient-2)"></path>
                <path d="M97.57109,68.4255319 L91.9407583,71.9361702 C91.42891,72.2553191 90.7890995,71.8723404 90.7890995,71.2978723 L90.7890995,53.106383 C90.7890995,52.8510638 90.9170616,52.5957447 91.1729858,52.4680851 L96.8033175,48.9574468 C97.3151659,48.6382979 97.9549763,49.0212766 97.9549763,49.5957447 L97.9549763,67.787234 C97.9549763,68.0425532 97.8270142,68.2978723 97.57109,68.4255319 Z" id="Path" fill="url(#linearGradient-3)"></path>
                <path d="M86.2464455,68.1702128 L71.3388626,77.5531915 C70.8270142,77.8723404 70.1872038,77.4893617 70.1872038,76.9148936 L70.1872038,73.4042553 C70.1872038,73.1489362 70.3151659,72.893617 70.57109,72.7659574 L85.478673,63.3829787 C85.9905213,63.0638298 86.6303318,63.4468085 86.6303318,64.0212766 L86.6303318,67.5319149 C86.6303318,67.787234 86.4383886,68.0425532 86.2464455,68.1702128 Z" id="Path" fill="url(#linearGradient-4)"></path>
                <path d="M97.3791469,100.148936 L60.1421801,123.255319 C59.6943128,123.510638 59.1184834,123.191489 59.1184834,122.680851 L59.1184834,120.319149 C59.1184834,120.06383 59.2464455,119.87234 59.4383886,119.744681 L96.6113744,96.6382979 C97.0592417,96.3829787 97.6350711,96.7021277 97.6350711,97.212766 L97.6350711,99.5744681 C97.6990521,99.7659574 97.57109,100.021277 97.3791469,100.148936 Z" id="Path" fill="url(#linearGradient-5)"></path>
                <path d="M97.3791469,108.829787 L60.1421801,131.93617 C59.6943128,132.191489 59.1184834,131.87234 59.1184834,131.361702 L59.1184834,129 C59.1184834,128.744681 59.2464455,128.553191 59.4383886,128.425532 L96.6113744,105.319149 C97.0592417,105.06383 97.6350711,105.382979 97.6350711,105.893617 L97.6350711,108.255319 C97.6990521,108.446809 97.57109,108.702128 97.3791469,108.829787 Z" id="Path" fill="url(#linearGradient-6)"></path>
            </g>
        </g>
    </g>
</svg>