<?xml version="1.0" encoding="UTF-8"?>
<svg width="135px" height="194px" viewBox="0 0 135 194" version="1.1" xmlns="http://www.w3.org/2000/svg" xmlns:xlink="http://www.w3.org/1999/xlink">
    <!-- Generator: Sketch 52.6 (67491) - http://www.bohemiancoding.com/sketch -->
    <title>perfomance improvement</title>
    <desc>Created with Sketch.</desc>
    <g id="perfomance-improvement" stroke="none" stroke-width="1" fill="none" fill-rule="evenodd">
        <g id="Group-2">
            <g id="roadmap:native-mobile-apps" transform="translate(68.000000, 120.000000)" stroke="#244BC0" stroke-width="2">
                <g id="Group-8-Copy-3">
                    <path d="M5,0 L5,63.4296764" id="Path-3"></path>
                    <circle id="Oval-2" cx="4.5" cy="67.5" r="4.5"></circle>
                </g>
            </g>
            <g id="perfomance-improvement">
                <g id="add_wallet">
                    <g id="_x36__30_">
                        <g id="XMLID_321_">
                            <path d="M130.393365,6.31914894 L122.459716,1.78723404 C121.883886,1.34042553 119.64455,0.638297872 118.940758,0.446808511 C116.829384,-0.255319149 114.206161,0.127659574 111.454976,1.72340426 L13.563981,58.5319149 C6.20616114,62.8085106 0.255924171,74.2340426 0.255924171,84.0638298 L0.511848341,163.148936 C0.511848341,169.021277 2.68720379,172.978723 6.01421801,174.319149 L15.0995261,179.042553 L22.2654028,168.319149 L111.838863,116.361702 C119.196682,112.085106 125.146919,100.659574 125.146919,90.8297872 L124.890995,14.5531915 L130.393365,6.31914894 Z" id="XMLID_324_" fill="#E1F2FF"></path>
                            <path d="M134.744076,16.9148936 C134.680095,7.08510638 128.729858,2.61702128 121.308057,6.89361702 L23.4170616,63.7021277 C16.0592417,67.9787234 10.1090047,79.4042553 10.1090047,89.2340426 L10.3649289,168.319149 C10.42891,178.148936 16.3791469,182.617021 23.8009479,178.340426 L121.691943,121.531915 C129.049763,117.255319 135,105.829787 135,96 L134.744076,16.9148936 Z" id="Path" fill="#1D45BA"></path>
                        </g>
                    </g>
                </g>
                <g id="Layer_7" transform="translate(46.706161, 32.553191)" fill="#E1F2FF">
                    <g id="Group">
                        <g transform="translate(0.639810, 86.170213)">
                            <path d="M9.72511848,22.5319149 L1.91943128,26.8085106 C1.21563981,27.1914894 0.639810427,26.9361702 0.639810427,26.2340426 L0.639810427,6.95744681 C0.639810427,6.25531915 1.21563981,5.36170213 1.91943128,4.9787234 L9.72511848,0.70212766 C10.42891,0.319148936 11.0047393,0.574468085 11.0047393,1.27659574 L11.0047393,20.5531915 C11.0047393,21.2553191 10.42891,22.1489362 9.72511848,22.5319149 Z" id="Path"></path>
                            <path d="M1.66350711,27.1914894 C0.95971564,27.5744681 0.383886256,27.3191489 0.383886256,26.6170213 L0.383886256,6.76595745 C0.383886256,6.06382979 0.95971564,5.23404255 1.66350711,4.85106383 L10.0450237,0.255319149 C10.3649289,0.0638297872 10.6848341,4.98212582e-15 10.9407583,0.127659574 C11.1966825,0.255319149 11.3246445,0.446808511 11.3246445,0.829787234 L11.3246445,20.6808511 C11.3246445,21 11.1966825,21.3829787 10.9407583,21.7659574 C10.6848341,22.1489362 10.3649289,22.4042553 10.0450237,22.5957447 L1.66350711,27.1914894 C1.66350711,27.1914894 1.66350711,27.1914894 1.66350711,27.1914894 Z M10.0450237,0.829787234 C10.0450237,0.829787234 10.0450237,0.829787234 10.0450237,0.829787234 L1.66350711,5.42553191 C1.47156398,5.55319149 1.27962085,5.74468085 1.15165877,5.93617021 C1.02369668,6.12765957 0.95971564,6.38297872 0.95971564,6.57446809 L0.95971564,26.4255319 C0.95971564,26.8085106 1.27962085,27 1.72748815,26.7446809 C1.72748815,26.7446809 1.72748815,26.7446809 1.72748815,26.7446809 L10.1090047,22.1489362 C10.3009479,22.0212766 10.492891,21.8297872 10.6208531,21.6382979 C10.7488152,21.4468085 10.8127962,21.1914894 10.8127962,21 L10.8127962,1.14893617 C10.8127962,0.957446809 10.7488152,0.829787234 10.6208531,0.765957447 C10.42891,0.70212766 10.2369668,0.70212766 10.0450237,0.829787234 Z" id="Shape" fill-rule="nonzero"></path>
                        </g>
                        <g transform="translate(17.914692, 67.021277)">
                            <path d="M9.5971564,32.3617021 L1.79146919,36.6382979 C1.08767773,37.0212766 0.511848341,36.7659574 0.511848341,36.0638298 L0.511848341,7.27659574 C0.511848341,6.57446809 1.08767773,5.68085106 1.79146919,5.29787234 L9.5971564,1.0212766 C10.3009479,0.638297872 10.8767773,0.893617021 10.8767773,1.59574468 L10.8767773,30.3829787 C10.8767773,31.0851064 10.3009479,31.9787234 9.5971564,32.3617021 Z" id="Path"></path>
                            <path d="M1.47156398,37.0212766 C0.767772512,37.4042553 0.191943128,37.1489362 0.191943128,36.4468085 L0.191943128,7.08510638 C0.191943128,6.76595745 0.319905213,6.38297872 0.575829384,6 C0.831753555,5.61702128 1.15165877,5.36170213 1.47156398,5.17021277 L9.85308057,0.574468085 C9.85308057,0.574468085 9.85308057,0.574468085 9.85308057,0.574468085 C10.556872,0.191489362 11.1327014,0.446808511 11.1327014,1.14893617 L11.1327014,30.5106383 C11.1327014,31.212766 10.556872,32.0425532 9.85308057,32.4255319 L1.47156398,37.0212766 C1.47156398,37.0212766 1.47156398,37.0212766 1.47156398,37.0212766 Z M9.85308057,1.08510638 C9.85308057,1.08510638 9.85308057,1.08510638 9.85308057,1.08510638 L1.47156398,5.68085106 C1.27962085,5.80851064 1.08767773,6 0.95971564,6.19148936 C0.831753555,6.38297872 0.767772512,6.63829787 0.767772512,6.82978723 L0.767772512,36.1914894 C0.767772512,36.5744681 1.08767773,36.7659574 1.53554502,36.5106383 C1.53554502,36.5106383 1.53554502,36.5106383 1.53554502,36.5106383 L9.91706161,31.9148936 C10.3009479,31.6595745 10.6848341,31.1489362 10.6848341,30.7659574 L10.6848341,1.40425532 C10.6208531,1.0212766 10.2369668,0.893617021 9.85308057,1.08510638 Z" id="Shape" fill-rule="nonzero"></path>
                        </g>
                        <g transform="translate(33.270142, 44.680851)">
                            <path d="M9.91706161,46.0851064 L2.11137441,50.3617021 C1.40758294,50.7446809 0.831753555,50.4893617 0.831753555,49.787234 L0.831753555,6.89361702 C0.831753555,6.19148936 1.40758294,5.29787234 2.11137441,4.91489362 L9.91706161,0.638297872 C10.6208531,0.255319149 11.1966825,0.510638298 11.1966825,1.21276596 L11.1966825,44.106383 C11.1966825,44.8085106 10.6208531,45.7021277 9.91706161,46.0851064 Z" id="Path"></path>
                            <path d="M1.85545024,50.7446809 C1.53554502,50.9361702 1.21563981,51 0.95971564,50.8723404 C0.703791469,50.7446809 0.575829384,50.5531915 0.575829384,50.1702128 L0.575829384,6.70212766 C0.575829384,6 1.15165877,5.17021277 1.85545024,4.78723404 L10.2369668,0.191489362 C10.2369668,0.191489362 10.2369668,0.191489362 10.2369668,0.191489362 C10.9407583,-0.191489362 11.5165877,0.0638297872 11.5165877,0.765957447 L11.5165877,44.2340426 C11.5165877,44.9361702 10.9407583,45.7659574 10.2369668,46.1489362 L1.85545024,50.7446809 C1.85545024,50.7446809 1.85545024,50.7446809 1.85545024,50.7446809 Z M10.1729858,0.765957447 C10.1729858,0.765957447 10.1729858,0.765957447 10.1729858,0.765957447 L1.79146919,5.36170213 C1.40758294,5.61702128 1.02369668,6.12765957 1.02369668,6.5106383 L1.02369668,49.9787234 C1.02369668,50.1702128 1.08767773,50.2978723 1.21563981,50.3617021 C1.3436019,50.4255319 1.53554502,50.4255319 1.72748815,50.2978723 C1.72748815,50.2978723 1.72748815,50.2978723 1.72748815,50.2978723 L10.1090047,45.7021277 C10.492891,45.4468085 10.8767773,44.9361702 10.8767773,44.5531915 L10.8767773,1.08510638 C10.9407583,0.70212766 10.6208531,0.510638298 10.1729858,0.765957447 Z" id="Shape" fill-rule="nonzero"></path>
                        </g>
                        <g transform="translate(49.265403, 21.702128)">
                            <path d="M9.66113744,60.5106383 L1.85545024,64.787234 C1.15165877,65.1702128 0.575829384,64.9148936 0.575829384,64.212766 L0.575829384,7.14893617 C0.575829384,6.44680851 1.15165877,5.55319149 1.85545024,5.17021277 L9.66113744,0.893617021 C10.3649289,0.510638298 10.9407583,0.765957447 10.9407583,1.46808511 L10.9407583,58.5319149 C10.9407583,59.2340426 10.3649289,60.1276596 9.66113744,60.5106383 Z" id="Path"></path>
                            <path d="M9.91706161,60.5744681 L1.53554502,65.1702128 C0.831753555,65.5531915 0.255924171,65.2978723 0.255924171,64.5957447 L0.255924171,7.0212766 C0.255924171,6.31914894 0.831753555,5.4893617 1.53554502,5.10638298 L9.91706161,0.510638298 C10.6208531,0.127659574 11.1966825,0.382978723 11.1966825,1.08510638 L11.1966825,58.7234043 C11.1966825,59.3617021 10.6208531,60.2553191 9.91706161,60.5744681 Z M1.53554502,5.55319149 C1.15165877,5.80851064 0.767772512,6.31914894 0.767772512,6.70212766 L0.767772512,64.3404255 C0.767772512,64.7234043 1.08767773,64.9148936 1.53554502,64.6595745 L9.91706161,60.0638298 C10.3009479,59.8085106 10.6848341,59.2978723 10.6848341,58.9148936 L10.6848341,1.27659574 C10.6848341,0.893617021 10.3649289,0.70212766 9.91706161,0.957446809 L1.53554502,5.55319149 Z" id="Shape" fill-rule="nonzero"></path>
                        </g>
                        <path d="M1.98341232,80.0425532 C1.27962085,80.4255319 0.703791469,80.2978723 0.511848341,79.6595745 C0.319905213,78.9574468 0.831753555,77.8723404 1.66350711,77.2340426 C1.91943128,77.0425532 29.6872038,55.212766 48.5616114,14.5531915 C49.0094787,13.5957447 49.9052133,12.893617 50.6090047,12.9574468 C51.3127962,13.0212766 51.5047393,13.787234 51.1208531,14.7446809 C40.8838863,36.7659574 28.2156398,53.2340426 19.3862559,63.1914894 C9.78909953,74.0425532 2.62322275,79.5957447 2.36729858,79.787234 C2.17535545,79.9148936 2.11137441,79.9787234 1.98341232,80.0425532 Z" id="Path"></path>
                        <path d="M39.9241706,19.4042553 L55.2156398,19.6595745 C55.7274882,19.6595745 56.3672986,18.9574468 56.3672986,18.3829787 L56.4952607,0.574468085 C56.4952607,1.38777878e-17 55.8554502,-0.0638297872 55.3436019,0.510638298 L39.9241706,18 C39.4123223,18.7021277 39.4123223,19.4042553 39.9241706,19.4042553 Z" id="Path"></path>
                    </g>
                </g>
            </g>
        </g>
    </g>
</svg>