<?xml version="1.0" encoding="UTF-8"?>
<svg width="135px" height="194px" viewBox="0 0 135 194" version="1.1" xmlns="http://www.w3.org/2000/svg" xmlns:xlink="http://www.w3.org/1999/xlink">
    <!-- Generator: Sketch 52.6 (67491) - http://www.bohemiancoding.com/sketch -->
    <title>send all</title>
    <desc>Created with Sketch.</desc>
    <defs>
        <linearGradient x1="99.9643113%" y1="50.0078193%" x2="0.0245263697%" y2="50.0078193%" id="linearGradient-1">
            <stop stop-color="#17D1AA" offset="0%"></stop>
            <stop stop-color="#1AC2AE" offset="6.594372%"></stop>
            <stop stop-color="#229BB8" offset="26.51%"></stop>
            <stop stop-color="#297CC0" offset="46.16%"></stop>
            <stop stop-color="#2D66C6" offset="65.25%"></stop>
            <stop stop-color="#3059CA" offset="83.49%"></stop>
            <stop stop-color="#3154CB" offset="100%"></stop>
        </linearGradient>
        <linearGradient x1="0.0311004785%" y1="50.0198864%" x2="99.9722488%" y2="50.0198864%" id="linearGradient-2">
            <stop stop-color="#17D1AA" offset="0%"></stop>
            <stop stop-color="#1AC2AE" offset="6.594372%"></stop>
            <stop stop-color="#229BB8" offset="26.51%"></stop>
            <stop stop-color="#297CC0" offset="46.16%"></stop>
            <stop stop-color="#2D66C6" offset="65.25%"></stop>
            <stop stop-color="#3059CA" offset="83.49%"></stop>
            <stop stop-color="#3154CB" offset="100%"></stop>
        </linearGradient>
    </defs>
    <g id="send-all" stroke="none" stroke-width="1" fill="none" fill-rule="evenodd">
        <g>
            <g id="Group-8" transform="translate(56.000000, 120.000000)" stroke="#244BC0" stroke-width="2">
                <path d="M5,0 L5,63.4296764" id="Path-3"></path>
                <circle id="Oval-2" cx="4.5" cy="67.5" r="4.5"></circle>
            </g>
            <g>
                <g id="_x36__14_">
                    <g id="XMLID_325_">
                        <path d="M4.86255924,6.48763251 L12.7962085,1.97173145 C13.3720379,1.52650177 15.6113744,0.826855124 16.3151659,0.636042403 C18.4265403,-0.0636042403 21.049763,0.318021201 23.8009479,1.90812721 L121.691943,58.5159011 C129.049763,62.7773852 135,74.1625442 135,83.9575972 L134.744076,162.826855 C134.744076,168.678445 132.56872,172.621908 129.241706,173.957597 L120.156398,178.664311 L112.990521,167.978799 L23.4170616,116.204947 C16.0592417,111.943463 10.1090047,100.558304 10.1090047,90.7632509 L10.3649289,14.7561837 L4.86255924,6.48763251 Z" id="XMLID_326_" fill="#E1F2FF"></path>
                        <path d="M0.511848341,17.0459364 C0.575829384,7.25088339 6.52606635,2.79858657 13.9478673,7.06007067 L111.838863,63.6678445 C119.196682,67.9293286 125.146919,79.3144876 125.146919,89.1095406 L124.827014,167.915194 C124.763033,177.710247 118.812796,182.162544 111.390995,177.90106 L13.5,121.293286 C6.14218009,117.031802 0.191943128,105.646643 0.191943128,95.8515901 L0.511848341,17.0459364 Z" id="Path" fill="url(#linearGradient-1)"></path>
                    </g>
                </g>
                <path d="M46.2582938,120.275618 C46.5781991,120.402827 46.8981043,120.402827 47.1540284,120.212014 L58.2227488,111.498233 L67.436019,117.095406 C68.0118483,117.413428 68.6516588,117.60424 69.2914692,117.60424 C70.57109,117.60424 71.7227488,116.968198 72.3625592,115.823322 L93.0924171,81.795053 C93.8601896,80.5229682 93.7962085,78.869258 92.9004739,77.6607774 C92.1966825,76.7067138 91.1090047,76.1342756 89.957346,76.1342756 C89.6374408,76.1342756 89.3815166,76.1978799 89.0616114,76.2614841 L34.9336493,90.0636042 C33.5260664,90.4452297 32.4383886,91.590106 32.2464455,93.1166078 C32.0545024,94.5795053 32.6943128,96.0424028 33.9739336,96.8056537 L45.7464455,103.929329 L45.7464455,119.512367 C45.8104265,119.830389 46.0023697,120.14841 46.2582938,120.275618 Z M36.2772512,93.6890459 L89.7654028,80.0777385 L69.2914692,113.724382 L54.5758294,104.819788 L68.3317536,92.7985866 L47.9218009,100.749117 L36.2772512,93.6890459 Z" id="Shape" fill="#E1F2FF" fill-rule="nonzero"></path>
                <polygon id="Path" fill="url(#linearGradient-2)" points="36.2772512 93.6890459 89.7654028 80.0777385 69.2914692 113.660777 54.5758294 104.756184 68.3317536 92.7349823 47.9218009 100.749117"></polygon>
            </g>
        </g>
    </g>
</svg>