<?xml version="1.0" encoding="UTF-8"?>
<svg width="135px" height="194px" viewBox="0 0 135 194" version="1.1" xmlns="http://www.w3.org/2000/svg" xmlns:xlink="http://www.w3.org/1999/xlink">
    <!-- Generator: Sketch 52.6 (67491) - http://www.bohemiancoding.com/sketch -->
    <title> Shelley support</title>
    <desc>Created with Sketch.</desc>
    <defs>
        <linearGradient x1="19.4492416%" y1="100.15183%" x2="121.790913%" y2="-60.563863%" id="linearGradient-1">
            <stop stop-color="#17D1AA" offset="0%"></stop>
            <stop stop-color="#2689BD" offset="55.44%"></stop>
            <stop stop-color="#3154CB" offset="100%"></stop>
        </linearGradient>
    </defs>
    <g id="-Shelley-support" stroke="none" stroke-width="1" fill="none" fill-rule="evenodd">
        <g id="Group-8" transform="translate(72.000000, 120.000000)" stroke="#244BC0" stroke-width="2">
            <path d="M5,0 L5,63.4296764" id="Path-3"></path>
            <circle id="Oval-2" cx="4.5" cy="67.5" r="4.5"></circle>
        </g>
        <g>
            <g id="add_wallet">
                <g id="_x36__31_">
                    <g id="XMLID_308_">
                        <path d="M130.393365,6.48763251 L122.459716,1.97173145 C121.883886,1.52650177 119.64455,0.826855124 118.940758,0.636042403 C116.829384,-0.0636042403 114.206161,0.318021201 111.454976,1.90812721 L13.563981,58.5159011 C6.20616114,62.7773852 0.255924171,74.1625442 0.255924171,83.9575972 L0.511848341,162.826855 C0.511848341,168.678445 2.68720379,172.621908 6.01421801,173.957597 L15.0995261,178.664311 L22.2654028,167.978799 L111.838863,116.204947 C119.196682,111.943463 125.146919,100.558304 125.146919,90.7632509 L124.890995,14.7561837 L130.393365,6.48763251 Z" id="XMLID_311_" fill="#E1F2FF"></path>
                        <path d="M134.744076,17.0459364 C134.680095,7.25088339 128.729858,2.79858657 121.308057,7.06007067 L23.4170616,63.6678445 C16.0592417,67.9293286 10.1090047,79.3144876 10.1090047,89.1095406 L10.3649289,167.915194 C10.42891,177.710247 16.3791469,182.162544 23.8009479,177.90106 L121.691943,121.293286 C129.049763,117.031802 135,105.646643 135,95.8515901 L134.744076,17.0459364 Z" id="Path" fill="#1D45BA"></path>
                    </g>
                </g>
            </g>
            <g id="Layer_9" transform="translate(44.786730, 54.699647)">
                <g id="Group-2_1_" transform="translate(22.393365, 19.717314)" fill="#E1F2FF">
                    <g id="user-copy_1_" transform="translate(0.393730, 0.097853)">
                        <ellipse id="Oval_4_" transform="translate(9.062352, 8.604025) rotate(-52.075768) translate(-9.062352, -8.604025) " cx="9.06235166" cy="8.60402544" rx="7.33064301" ry="4.46862248"></ellipse>
                        <path d="M0.127962085,27.3498233 C1.47156398,21.5618375 4.54265403,17.4911661 9.34123223,15.0742049 C14.1398104,12.6572438 17.3388626,13.5477032 19.0663507,17.745583 C19.3862559,18.5724382 18.8744076,19.9081272 17.9146919,20.6713781 C17.7227488,20.8621908 17.5308057,20.9893993 17.3388626,21.0530035 L1.98341232,28.7491166 C0.95971564,29.2579505 0.127962085,28.8763251 0.127962085,27.795053 C0.0639810427,27.6678445 0.127962085,27.4770318 0.127962085,27.3498233 Z" id="Path-3_4_"></path>
                    </g>
                </g>
                <path d="M56.1753555,3.87985866 C56.0473934,3.9434629 55.9194313,4.00706714 55.7914692,4.07067138 C55.1516588,4.38869258 54.5758294,4.77031802 54,5.2155477 C50.0331754,2.60777385 44.6587678,1.97173145 38.5165877,3.56183746 C38.1327014,0.508833922 35.5094787,-0.699646643 32.1824645,0.763250883 C32.0545024,0.826855124 31.9265403,0.890459364 31.7985782,0.954063604 C28.4075829,2.67137809 25.528436,6.55123675 25.0805687,10.1130742 C18.6824645,14.6925795 12.9881517,20.9893993 8.89336493,27.8586572 C8.44549763,27.9858657 7.93364929,28.1130742 7.42180095,28.3674912 C7.29383886,28.4310954 7.16587678,28.4946996 7.03791469,28.5583039 C3.4549763,30.3392226 0.447867299,34.6007067 0.255924171,38.2897527 C0.127962085,40.5159011 1.08767773,42.0424028 2.62322275,42.5512367 C1.98341232,45.3498233 1.59952607,48.1484099 1.59952607,50.819788 C1.59952607,54.3180212 2.23933649,57.3074205 3.32701422,59.8515901 C2.04739336,61.6325088 1.21563981,63.7314488 1.08767773,65.5759717 C0.895734597,69.3922261 3.77488152,71.1095406 7.48578199,69.4558304 C7.61374408,69.3922261 7.74170616,69.3286219 7.86966825,69.2650177 C8.82938389,68.819788 9.72511848,68.1201413 10.492891,67.4204947 C14.4597156,69.3286219 19.450237,69.5830389 25.0805687,67.9293286 C25.6563981,70.664311 28.1516588,71.6819788 31.3507109,70.2826855 C31.478673,70.2190813 31.6066351,70.155477 31.7345972,70.0918728 C35.0616114,68.4381625 37.9407583,64.5583039 38.3886256,61.0600707 C43.8270142,57.0530035 48.6895735,51.7738516 52.464455,46.04947 C53.2962085,46.04947 54.2559242,45.8586572 55.2796209,45.4134276 C55.4075829,45.3498233 55.535545,45.2862191 55.6635071,45.2226148 C59.2464455,43.4416961 62.2535545,39.180212 62.4454976,35.4911661 C62.5734597,33.0106007 61.4218009,31.4204947 59.5663507,31.0388693 C60.5900474,27.6042403 61.1018957,24.1060071 61.1018957,20.8621908 C61.1018957,18.1908127 60.7180095,15.7738516 60.0781991,13.6113074 C61.4218009,11.7667845 62.3175355,9.66784452 62.4454976,7.69611307 C62.7654028,3.9434629 59.8862559,2.22614841 56.1753555,3.87985866 Z M28.7914692,7.69611307 C29.3672986,6.29681979 30.5189573,4.96113074 31.8625592,4.2614841 C31.9265403,4.2614841 31.9905213,4.19787986 32.0545024,4.19787986 C33.3341232,3.6254417 34.4218009,3.87985866 34.9336493,4.70671378 C35.1255924,5.08833922 35.2535545,5.5335689 35.2535545,6.10600707 C35.1895735,6.80565371 34.9976303,7.50530035 34.6137441,8.204947 C33.9739336,9.34982332 33.014218,10.4310954 31.8625592,11.0035336 C31.7985782,11.0035336 31.7345972,11.0671378 31.6706161,11.0671378 C30.7748815,11.4487633 29.943128,11.5123675 29.3033175,11.130742 C29.1753555,11.0671378 29.1113744,11.0035336 29.0473934,10.8763251 C28.6635071,10.4946996 28.4075829,9.85865724 28.471564,9.09540636 C28.471564,8.71378092 28.5995261,8.204947 28.7914692,7.69611307 Z M4.03080569,38.0989399 C3.83886256,37.7173145 3.71090047,37.2720848 3.71090047,36.6996466 C3.77488152,35.0459364 4.99052133,33.2014134 6.52606635,32.1837456 C6.71800948,32.0565371 6.90995261,31.9293286 7.10189573,31.8657244 C7.16587678,31.8657244 7.22985782,31.8021201 7.29383886,31.8021201 C8.31753555,31.3568905 9.1492891,31.4204947 9.78909953,31.8657244 C10.3009479,32.2473498 10.556872,32.8833922 10.556872,33.7738516 C10.42891,35.6183746 8.95734597,37.7809187 7.16587678,38.6713781 C7.10189573,38.6713781 7.03791469,38.7349823 6.97393365,38.7349823 C6.97393365,38.7349823 6.90995261,38.7349823 6.90995261,38.7349823 C6.01421801,39.1166078 5.2464455,39.1166078 4.67061611,38.7985866 C4.3507109,38.6077739 4.15876777,38.3533569 4.03080569,38.0989399 Z M10.9407583,62.6501767 C10.3649289,63.9858657 9.27725118,65.2579505 8.06161137,65.8939929 C7.99763033,65.8939929 7.99763033,65.9575972 7.93364929,65.9575972 C7.86966825,65.9575972 7.8056872,66.0212014 7.74170616,66.0212014 C5.88625592,66.8480565 4.41469194,65.9575972 4.54265403,64.04947 C4.54265403,63.540636 4.67061611,63.0318021 4.92654028,62.5229682 C5.43838863,61.1872792 6.52606635,59.9151943 7.8056872,59.2791519 C7.86966825,59.2791519 7.93364929,59.2155477 7.99763033,59.1519435 C8.06161137,59.1519435 8.12559242,59.0883392 8.18957346,59.0883392 C9.08530806,58.7067138 9.91706161,58.6431095 10.556872,59.024735 C11.1327014,59.4063604 11.4526066,60.1060071 11.3886256,61.0600707 C11.2606635,61.5689046 11.1327014,62.0777385 10.9407583,62.6501767 Z M34.7417062,63.6678445 C34.1658768,64.9399293 33.0781991,66.1484099 31.8625592,66.7844523 C31.7985782,66.7844523 31.7345972,66.8480565 31.6706161,66.8480565 C30.7748815,67.229682 29.943128,67.2932862 29.3033175,66.9116608 C29.1753555,66.8480565 29.0473934,66.7208481 28.9194313,66.5936396 C28.535545,66.2120141 28.4075829,65.639576 28.4075829,64.8763251 C28.4075829,64.3674912 28.5995261,63.795053 28.7914692,63.2226148 C29.3672986,61.8869258 30.4549763,60.614841 31.7345972,59.9787986 C31.7985782,59.9787986 31.8625592,59.9151943 31.9265403,59.9151943 C33.1421801,59.4063604 34.1018957,59.5335689 34.6777251,60.2332155 C34.9976303,60.614841 35.1895735,61.1872792 35.1255924,61.8869258 C35.1895735,62.459364 34.9976303,63.0318021 34.7417062,63.6678445 Z M38.1966825,57.8798587 C37.3649289,56.0989399 35.5094787,55.3992933 33.1421801,56.1625442 L33.1421801,51.6466431 C33.1421801,51.1378092 32.6943128,50.6925795 32.1824645,50.6925795 C31.6706161,50.6925795 31.2227488,51.1378092 31.2227488,51.6466431 L31.2227488,56.9893993 C28.535545,58.5795053 26.2962085,61.5053004 25.4004739,64.4310954 C20.7938389,65.639576 16.6350711,65.4487633 13.2440758,63.9858657 C14.0758294,62.5229682 14.5876777,60.9964664 14.6516588,59.5335689 C14.7156398,58.6431095 14.5876777,57.8162544 14.3317536,57.180212 L17.9146919,53.2367491 C18.2985782,52.8551237 18.2345972,52.2190813 17.8507109,51.9010601 C17.4668246,51.5194346 16.8270142,51.5830389 16.507109,51.9646643 L13.1800948,55.6537102 C12.028436,54.8268551 10.3009479,54.7632509 8.31753555,55.6537102 C8.18957346,55.7173145 8.06161137,55.7809187 7.93364929,55.844523 C7.42180095,56.0989399 6.90995261,56.4169611 6.46208531,56.7349823 C5.56635071,54.5724382 5.05450237,51.9646643 5.05450237,49.0388693 C5.05450237,46.8763251 5.31042654,44.6501767 5.82227488,42.4240283 C6.14218009,42.360424 6.39810427,42.2332155 6.71800948,42.1060071 C6.84597156,42.0424028 6.97393365,41.9787986 7.10189573,41.9151943 C9.34123223,40.770318 11.3246445,38.6713781 12.6042654,36.3816254 L17.1469194,36.7632509 C17.1469194,36.7632509 17.2109005,36.7632509 17.2109005,36.7632509 C17.7227488,36.7632509 18.1066351,36.3816254 18.1706161,35.8727915 C18.2345972,35.3639576 17.7867299,34.9187279 17.2748815,34.8551237 L13.3720379,34.5371025 C13.6279621,33.7738516 13.8199052,32.9469965 13.8199052,32.1837456 C13.9478673,30.1484099 13.1800948,28.6855124 11.8364929,28.04947 C15.4194313,22.3250883 20.1540284,17.1731449 25.464455,13.229682 C26.3601896,15.0742049 28.535545,15.7102473 31.1587678,14.6289753 L31.1587678,17.6183746 C31.1587678,18.1272085 31.6066351,18.5724382 32.1184834,18.5724382 C32.6303318,18.5724382 33.0781991,18.1272085 33.0781991,17.6183746 L33.0781991,13.5477032 C35.3175355,12.0212014 37.1090047,9.54063604 38.0047393,7.06007067 C43.0592417,5.85159011 47.5379147,6.36042403 50.992891,8.39575972 C49.8412322,10.1130742 49.0734597,12.0212014 49.0094787,13.8021201 C48.9454976,14.565371 49.0734597,15.2014134 49.2014218,15.7738516 L44.7867299,20.6077739 C44.4028436,20.9893993 44.4668246,21.6254417 44.8507109,21.9434629 C45.042654,22.1342756 45.2345972,22.1978799 45.4905213,22.1978799 C45.7464455,22.1978799 46.0023697,22.0706714 46.1943128,21.8798587 L50.2251185,17.4275618 C51.3767773,18.4452297 53.2322275,18.5724382 55.3436019,17.6183746 C55.471564,17.5547703 55.5995261,17.4911661 55.7274882,17.4275618 C56.1753555,17.1731449 56.6232227,16.9187279 57.007109,16.664311 C57.5189573,18.4452297 57.7748815,20.3533569 57.7748815,22.5159011 C57.7748815,25.3780919 57.3270142,28.3674912 56.4312796,31.4204947 C56.3033175,31.4840989 56.1753555,31.4840989 56.0473934,31.5477032 C55.9194313,31.6113074 55.7914692,31.6749117 55.6635071,31.7385159 C53.4241706,32.8833922 51.4407583,34.9823322 50.1611374,37.2720848 L45.7464455,36.9540636 C45.2345972,36.8904594 44.7867299,37.335689 44.7227488,37.844523 C44.6587678,38.3533569 45.1066351,38.7985866 45.6184834,38.8621908 L49.3933649,39.180212 C49.1374408,39.9434629 48.9454976,40.770318 48.9454976,41.5335689 C48.8815166,43.0600707 49.2654028,44.204947 50.0331754,45.0318021 C46.8341232,49.9293286 42.7393365,54.3816254 38.1966825,57.8798587 Z M55.7914692,41.9151943 C55.7274882,41.9151943 55.6635071,41.9787986 55.5995261,41.9787986 C55.3436019,42.1060071 55.1516588,42.1696113 54.9597156,42.2332155 C53.7440758,42.5512367 52.8483412,42.0424028 52.528436,41.0883392 C52.464455,40.770318 52.4004739,40.4522968 52.4004739,40.0706714 C52.464455,38.4805654 53.6161137,36.6360424 55.1516588,35.5547703 C55.3436019,35.4275618 55.5995261,35.3003534 55.7914692,35.1731449 C55.8554502,35.1731449 55.9194313,35.1095406 55.9834123,35.1095406 C56.943128,34.664311 57.7748815,34.7279152 58.3507109,35.1095406 C58.9265403,35.4911661 59.2464455,36.1272085 59.1824645,37.0812721 C59.1184834,38.9257951 57.5829384,41.024735 55.7914692,41.9151943 Z M58.9265403,10.5583039 C58.4146919,11.9575972 57.3909953,13.229682 56.1113744,13.9929329 C56.0473934,14.0565371 55.9194313,14.1201413 55.8554502,14.1837456 C55.7914692,14.1837456 55.7274882,14.2473498 55.6635071,14.2473498 C53.8080569,15.0742049 52.3364929,14.1837456 52.464455,12.2756184 C52.528436,11.5123675 52.7843602,10.7491166 53.2322275,9.98586572 C53.8720379,8.90459364 54.8317536,7.95053004 55.8554502,7.37809187 C55.9194313,7.37809187 55.9834123,7.31448763 56.0473934,7.31448763 C56.1753555,7.25088339 56.3672986,7.18727915 56.4952607,7.18727915 C57.1990521,6.93286219 57.9028436,6.99646643 58.4146919,7.25088339 C58.9905213,7.63250883 59.3104265,8.33215548 59.2464455,9.28621908 C59.1824645,9.73144876 59.0545024,10.1130742 58.9265403,10.5583039 Z" id="Shape" fill="url(#linearGradient-1)" fill-rule="nonzero"></path>
            </g>
        </g>
    </g>
</svg>