<?xml version="1.0" encoding="UTF-8"?>
<svg width="135px" height="194px" viewBox="0 0 135 194" version="1.1" xmlns="http://www.w3.org/2000/svg" xmlns:xlink="http://www.w3.org/1999/xlink">
    <!-- Generator: Sketch 52.2 (67145) - http://www.bohemiancoding.com/sketch -->
    <title>v</title>
    <desc>Created with Sketch.</desc>
    <defs>
        <path d="M0.268723404,11.807234 L0,90.8929787 L0,91.0551064 C0.0319148936,100.845957 5.94382979,112.180851 13.2593617,116.43766 L110.93617,173.274255 C112.808936,174.36383 114.59234,174.884681 116.21234,174.893617 L116.291489,174.893617 C120.992553,174.870638 124.291277,170.515532 124.31617,163.23 L124.584255,84.1448936 C124.617447,74.3176596 118.681277,62.8806383 111.324894,58.6008511 L13.6487234,1.76361702 C11.7593617,0.664468085 9.9612766,0.144255319 8.32978723,0.144255319 C3.60957447,0.144893617 0.293617021,4.50382979 0.268723404,11.807234" id="path-1"></path>
        <linearGradient x1="100.00008%" y1="49.9999745%" x2="0%" y2="49.9999745%" id="linearGradient-3">
            <stop stop-color="#3154CA" offset="0%"></stop>
            <stop stop-color="#17D1AA" offset="100%"></stop>
        </linearGradient>
        <polygon id="path-4" points="0.555957447 18.042766 64.086383 56.562766 64.086383 38.7746809 0.555957447 0.254042553"></polygon>
        <linearGradient x1="0.000113331525%" y1="50.0003981%" x2="100.000709%" y2="50.0003981%" id="linearGradient-6">
            <stop stop-color="#3154CA" offset="0%"></stop>
            <stop stop-color="#17D1AA" offset="100%"></stop>
        </linearGradient>
        <path d="M0.352978723,8.96234043 C0.352978723,17.3834043 7.17957447,28.3487234 15.6,33.4551064 C24.0210638,38.5608511 30.8476596,35.873617 30.8476596,27.4519149 C30.8476596,19.0314894 24.0210638,8.06617021 15.6,2.96042553 C12.7097872,1.20765957 10.0091489,0.373404255 7.70617021,0.373404255 C3.2987234,0.374042553 0.352978723,3.43148936 0.352978723,8.96234043" id="path-7"></path>
        <linearGradient x1="-8.42046928%" y1="-34.9866986%" x2="107.569419%" y2="133.750591%" id="linearGradient-9">
            <stop stop-color="#3154CA" offset="0%"></stop>
            <stop stop-color="#17D1AA" offset="100%"></stop>
        </linearGradient>
    </defs>
    <g id="v" stroke="none" stroke-width="1" fill="none" fill-rule="evenodd">
        <g id="Group">
            <g id="Group-8-Copy" transform="translate(58.000000, 121.000000)" stroke="#244BC0" stroke-width="2">
                <path d="M5,0 L5,63.4296764" id="Path-3"></path>
                <circle id="Oval-2" cx="4.5" cy="67.5" r="4.5"></circle>
            </g>
            <g id="Group-23" transform="translate(-0.000000, 0.000000)">
                <path d="M4.64968085,6.20955319 L12.578617,1.66934043 C13.1594681,1.24678723 15.4120213,0.54593617 16.0873404,0.328914894 L16.088617,0.328276596 C18.2230851,-0.357255319 20.7928723,0.0116808511 23.5554255,1.61891489 L121.232234,58.4555106 C128.587979,62.7359362 134.524149,74.1729574 134.490319,84.0001915 L134.222234,163.085298 C134.202447,168.978064 132.030957,172.933596 128.718191,174.250404 L119.640319,178.996787 L112.508617,168.279766 L23.1660638,116.292957 C15.8096809,112.012532 9.87351064,100.575511 9.90670213,90.7482766 L10.1658511,14.4984894 L4.64968085,6.20955319 Z" id="Fill-1" fill="#E1F2FF"></path>
                <g id="Group-5" transform="translate(0.000000, 4.992128)">
                    <mask id="mask-2" fill="white">
                        <use xlink:href="#path-1"></use>
                    </mask>
                    <g id="Clip-4"></g>
                    <path d="M0.268723404,11.807234 L0,90.8929787 L0,91.0551064 C0.0319148936,100.845957 5.94382979,112.180851 13.2593617,116.43766 L110.93617,173.274255 C112.808936,174.36383 114.59234,174.884681 116.21234,174.893617 L116.291489,174.893617 C120.992553,174.870638 124.291277,170.515532 124.31617,163.23 L124.584255,84.1448936 C124.617447,74.3176596 118.681277,62.8806383 111.324894,58.6008511 L13.6487234,1.76361702 C11.7593617,0.664468085 9.9612766,0.144255319 8.32978723,0.144255319 C3.60957447,0.144893617 0.293617021,4.50382979 0.268723404,11.807234" id="Fill-3" fill="url(#linearGradient-3)" mask="url(#mask-2)"></path>
                </g>
                <polygon id="Fill-6" fill="#E1F2FF" points="29.2792979 56.8647447 92.8103617 95.3847447 92.8103617 139.856234 29.2792979 101.336234"></polygon>
                <g id="Group-10" transform="translate(28.723404, 38.821915)">
                    <mask id="mask-5" fill="white">
                        <use xlink:href="#path-4"></use>
                    </mask>
                    <g id="Clip-9"></g>
                    <polygon id="Fill-8" fill="url(#linearGradient-6)" mask="url(#mask-5)" points="0.555957447 18.042766 64.086383 56.562766 64.086383 38.7746809 0.555957447 0.254042553"></polygon>
                </g>
                <g id="Group-17" transform="translate(33.829787, 48.396383)" fill="#E1F2FF">
                    <path d="M4.34393617,1.15506383 C6.44904255,2.43165957 8.15585106,5.17251064 8.15585106,7.27825532 C8.15585106,9.3833617 6.44904255,10.0548511 4.34393617,8.77889362 C2.23882979,7.50229787 0.532021277,4.76080851 0.532021277,2.65570213 C0.532021277,0.550595745 2.23882979,-0.121531915 4.34393617,1.15506383" id="Fill-11"></path>
                    <path d="M15.7793617,8.08876596 C17.8844681,9.3653617 19.5912766,12.1062128 19.5912766,14.2119574 C19.5912766,16.3170638 17.8844681,16.9885532 15.7793617,15.7125957 C13.6742553,14.436 11.9674468,11.6945106 11.9674468,9.58940426 C11.9674468,7.48429787 13.6742553,6.81217021 15.7793617,8.08876596" id="Fill-13"></path>
                    <path d="M27.2151064,15.0224681 C29.3202128,16.2990638 31.0270213,19.0399149 31.0270213,21.1456596 C31.0270213,23.250766 29.3202128,23.9222553 27.2151064,22.6456596 C25.11,21.3697021 23.4031915,18.6282128 23.4031915,16.5231064 C23.4031915,14.418 25.11,13.7458723 27.2151064,15.0224681" id="Fill-15"></path>
                </g>
                <g id="Group-20" transform="translate(72.127660, 109.672979)">
                    <mask id="mask-8" fill="white">
                        <use xlink:href="#path-7"></use>
                    </mask>
                    <g id="Clip-19"></g>
                    <path d="M0.352978723,8.96234043 C0.352978723,17.3834043 7.17957447,28.3487234 15.6,33.4551064 C24.0210638,38.5608511 30.8476596,35.873617 30.8476596,27.4519149 C30.8476596,19.0314894 24.0210638,8.06617021 15.6,2.96042553 C12.7097872,1.20765957 10.0091489,0.373404255 7.70617021,0.373404255 C3.2987234,0.374042553 0.352978723,3.43148936 0.352978723,8.96234043" id="Fill-18" fill="url(#linearGradient-9)" mask="url(#mask-8)"></path>
                </g>
                <path d="M96.0771064,125.546617 C95.4988085,124.794702 94.7085957,124.457681 94.308383,124.791511 L87.1977447,130.696404 L82.1800851,123.534702 C81.6388085,122.760447 80.8371064,122.354489 80.3922128,122.627043 C79.9466809,122.899596 80.0251915,123.747894 80.5690213,124.522149 L86.6500851,133.201723 C86.879234,133.526617 87.1639149,133.801085 87.455617,133.978532 C87.5130638,134.013 87.5711489,134.044277 87.6298723,134.072362 C87.9802979,134.235766 88.295617,134.234489 88.4985957,134.067255 L96.3949787,127.509383 C96.7951915,127.174915 96.6522128,126.297255 96.0771064,125.546617" id="Fill-21" fill="#E1F2FF"></path>
            </g>
        </g>
    </g>
</svg>