<?xml version="1.0" encoding="UTF-8"?>
<svg width="135px" height="194px" viewBox="0 0 135 194" version="1.1" xmlns="http://www.w3.org/2000/svg" xmlns:xlink="http://www.w3.org/1999/xlink">
    <!-- Generator: Sketch 52.6 (67491) - http://www.bohemiancoding.com/sketch -->
    <title>trezor integration </title>
    <desc>Created with Sketch.</desc>
    <defs>
        <path d="M0.268723404,11.807234 L0,90.8929787 L0,91.0551064 C0.0319148936,100.845957 5.94382979,112.180851 13.2593617,116.43766 L110.93617,173.274255 C112.808936,174.36383 114.59234,174.884681 116.21234,174.893617 L116.291489,174.893617 C120.992553,174.870638 124.291277,170.515532 124.31617,163.23 L124.584255,84.1448936 C124.617447,74.3176596 118.681277,62.8806383 111.324894,58.6008511 L13.6487234,1.76361702 C11.7593617,0.664468085 9.9612766,0.144255319 8.32978723,0.144255319 C3.60957447,0.144893617 0.293617021,4.50382979 0.268723404,11.807234" id="path-1"></path>
        <linearGradient x1="100.00008%" y1="49.9999745%" x2="0%" y2="49.9999745%" id="linearGradient-3">
            <stop stop-color="#3154CA" offset="0%"></stop>
            <stop stop-color="#17D1AA" offset="100%"></stop>
        </linearGradient>
        <path d="M1.14893617,1.99468085 L0.566170213,19.9838298 C0.538723404,20.6610638 0.892978723,21.2968085 1.48404255,21.6293617 L32.3457447,38.987234 C33.5431915,39.6606383 35.0234043,38.8008511 35.0329787,37.427234 L35.1842553,19.517234 C35.1880851,18.8668085 34.8421277,18.2642553 34.2778723,17.9406383 L3.84574468,0.504893617 C3.55787234,0.339574468 3.25148936,0.263617021 2.95276596,0.263617021 C2.03617021,0.264255319 1.19106383,0.975957447 1.14893617,1.99468085" id="path-4"></path>
        <linearGradient x1="0.00100565158%" y1="50.0003456%" x2="99.9996309%" y2="50.0003456%" id="linearGradient-6">
            <stop stop-color="#3154CA" offset="0%"></stop>
            <stop stop-color="#17D1AA" offset="100%"></stop>
        </linearGradient>
        <path d="M0.347234043,1.05765957 L0.176808511,7.69787234 C0.169148936,7.88234043 0.264893617,8.05531915 0.425744681,8.14595745 L14.8378723,16.3187234 C15.1634043,16.5012766 15.5655319,16.2676596 15.5680851,15.893617 L15.6210638,9.27510638 C15.6223404,9.09829787 15.5285106,8.93425532 15.3746809,8.84617021 L1.0806383,0.652340426 C1.00212766,0.607021277 0.919148936,0.586595745 0.837446809,0.586595745 C0.588510638,0.586595745 0.358723404,0.780638298 0.347234043,1.05765957" id="path-7"></path>
        <linearGradient x1="-99.1896324%" y1="14.5532074%" x2="331.209303%" y2="116.554797%" id="linearGradient-9">
            <stop stop-color="#3154CA" offset="0%"></stop>
            <stop stop-color="#17D1AA" offset="100%"></stop>
        </linearGradient>
        <path d="M0.19212766,0.717446809 L0.0223404255,7.35893617 C0.0140425532,7.54276596 0.110425532,7.71574468 0.271276596,7.80638298 L14.6834043,15.9785106 C15.0082979,16.1617021 15.4110638,15.9280851 15.413617,15.5546809 L15.4665957,8.93553191 C15.4678723,8.75808511 15.3734043,8.59404255 15.2195745,8.50659574 L0.925531915,0.312765957 C0.847659574,0.268085106 0.764042553,0.247021277 0.682978723,0.247021277 C0.434042553,0.247021277 0.203617021,0.440425532 0.19212766,0.717446809" id="path-10"></path>
        <linearGradient x1="-222.175566%" y1="-14.5939723%" x2="208.221467%" y2="87.4093828%" id="linearGradient-12">
            <stop stop-color="#3154CA" offset="0%"></stop>
            <stop stop-color="#17D1AA" offset="100%"></stop>
        </linearGradient>
    </defs>
    <g id="trezor-integration-" stroke="none" stroke-width="1" fill="none" fill-rule="evenodd">
        <g id="roadmap:A-hardware-wallet-integration-">
            <g id="Group-8" transform="translate(56.000000, 120.000000)" stroke="#244BC0" stroke-width="2">
                <path d="M5,0 L5,63.4296764" id="Path-3"></path>
                <circle id="Oval-2" cx="4.5" cy="67.5" r="4.5"></circle>
            </g>
            <g id="Group-19" transform="translate(0.000000, 0.377754)">
                <path d="M4.64968085,6.20955319 L12.578617,1.66934043 C13.1594681,1.24678723 15.4120213,0.54593617 16.0873404,0.328914894 L16.088617,0.328276596 C18.2230851,-0.357255319 20.7928723,0.0116808511 23.5554255,1.61891489 L121.232234,58.4555106 C128.587979,62.7359362 134.524149,74.1729574 134.490319,84.0001915 L134.222234,163.085298 C134.202447,168.978064 132.030957,172.933596 128.718191,174.250404 L119.640319,178.996787 L112.508617,168.279766 L23.1660638,116.292957 C15.8096809,112.012532 9.87351064,100.575511 9.90670213,90.7482766 L10.1658511,14.4984894 L4.64968085,6.20955319 Z" id="Fill-1" fill="#E1F2FF"></path>
                <g id="Group-5" transform="translate(0.000000, 4.992128)">
                    <g id="Fill-3-Clipped">
                        <mask id="mask-2" fill="white">
                            <use xlink:href="#path-1"></use>
                        </mask>
                        <g id="path-1"></g>
                        <path d="M0.268723404,11.807234 L0,90.8929787 L0,91.0551064 C0.0319148936,100.845957 5.94382979,112.180851 13.2593617,116.43766 L110.93617,173.274255 C112.808936,174.36383 114.59234,174.884681 116.21234,174.893617 L116.291489,174.893617 C120.992553,174.870638 124.291277,170.515532 124.31617,163.23 L124.584255,84.1448936 C124.617447,74.3176596 118.681277,62.8806383 111.324894,58.6008511 L13.6487234,1.76361702 C11.7593617,0.664468085 9.9612766,0.144255319 8.32978723,0.144255319 C3.60957447,0.144893617 0.293617021,4.50382979 0.268723404,11.807234" id="Fill-3" fill="url(#linearGradient-3)" mask="url(#mask-2)"></path>
                    </g>
                </g>
                <path d="M71.4693191,128.060553 L78.7931489,117.823532 C80.2369787,115.699277 81.1069787,114.066511 81.1254894,111.988213 L81.4318723,66.6862979 C81.4484681,64.8020426 79.1971915,61.9322553 76.4288936,60.3097021 L44.1750638,41.4077872 C41.406766,39.7858723 38.8261277,42.3799149 38.8095319,44.2641702 L38.8101702,86.5967234 C38.7929362,88.5320426 39.3259149,91.5333191 40.2508085,94.5231064 L45.9278298,113.09183 C45.9278298,113.09183 47.5542128,117.489064 50.9308085,119.468426 L66.4050638,128.537362 C69.5850638,130.400553 71.4693191,128.060553 71.4693191,128.060553" id="Fill-6" fill="#E1F2FF"></path>
                <g id="Group-10" transform="translate(41.489362, 50.311277)">
                    <g id="Fill-8-Clipped">
                        <mask id="mask-5" fill="white">
                            <use xlink:href="#path-4"></use>
                        </mask>
                        <g id="path-4"></g>
                        <path d="M1.14893617,1.99468085 L0.566170213,19.9838298 C0.538723404,20.6610638 0.892978723,21.2968085 1.48404255,21.6293617 L32.3457447,38.987234 C33.5431915,39.6606383 35.0234043,38.8008511 35.0329787,37.427234 L35.1842553,19.517234 C35.1880851,18.8668085 34.8421277,18.2642553 34.2778723,17.9406383 L3.84574468,0.504893617 C3.55787234,0.339574468 3.25148936,0.263617021 2.95276596,0.263617021 C2.03617021,0.264255319 1.19106383,0.975957447 1.14893617,1.99468085" id="Fill-8" fill="url(#linearGradient-6)" mask="url(#mask-5)"></path>
                    </g>
                </g>
                <g id="Group-13" transform="translate(42.127660, 75.204894)">
                    <g id="Fill-11-Clipped">
                        <mask id="mask-8" fill="white">
                            <use xlink:href="#path-7"></use>
                        </mask>
                        <g id="path-7"></g>
                        <path d="M0.347234043,1.05765957 L0.176808511,7.69787234 C0.169148936,7.88234043 0.264893617,8.05531915 0.425744681,8.14595745 L14.8378723,16.3187234 C15.1634043,16.5012766 15.5655319,16.2676596 15.5680851,15.893617 L15.6210638,9.27510638 C15.6223404,9.09829787 15.5285106,8.93425532 15.3746809,8.84617021 L1.0806383,0.652340426 C1.00212766,0.607021277 0.919148936,0.586595745 0.837446809,0.586595745 C0.588510638,0.586595745 0.358723404,0.780638298 0.347234043,1.05765957" id="Fill-11" fill="url(#linearGradient-9)" mask="url(#mask-8)"></path>
                    </g>
                </g>
                <g id="Group-16" transform="translate(60.000000, 85.417660)">
                    <g id="Fill-14-Clipped">
                        <mask id="mask-11" fill="white">
                            <use xlink:href="#path-10"></use>
                        </mask>
                        <g id="path-10"></g>
                        <path d="M0.19212766,0.717446809 L0.0223404255,7.35893617 C0.0140425532,7.54276596 0.110425532,7.71574468 0.271276596,7.80638298 L14.6834043,15.9785106 C15.0082979,16.1617021 15.4110638,15.9280851 15.413617,15.5546809 L15.4665957,8.93553191 C15.4678723,8.75808511 15.3734043,8.59404255 15.2195745,8.50659574 L0.925531915,0.312765957 C0.847659574,0.268085106 0.764042553,0.247021277 0.682978723,0.247021277 C0.434042553,0.247021277 0.203617021,0.440425532 0.19212766,0.717446809" id="Fill-14" fill="url(#linearGradient-12)" mask="url(#mask-11)"></path>
                    </g>
                </g>
                <path d="M58.5201064,65.2165532 C58.5762766,64.4288936 59.2279787,64.1186809 59.9728723,64.5252766 C60.7184043,64.931234 61.2788298,65.9020851 61.2226596,66.6897447 L61.1032979,68.3684681 L58.4007447,66.8959149 L58.5201064,65.2165532 Z M58.257766,70.5571915 C58.3094681,69.834 58.9056383,69.5505957 59.5892553,69.9233617 C60.2735106,70.2961277 60.7860638,71.184 60.735,71.9065532 C60.692234,72.504 60.2754255,72.7944255 59.7469149,72.6693191 L59.6179787,74.4808085 C59.6039362,74.6780426 59.4398936,74.7559149 59.2528723,74.6544255 C59.0664894,74.5522979 58.9254255,74.3078298 58.9394681,74.1105957 L59.067766,72.2991064 C58.5609574,71.8605957 58.2156383,71.1546383 58.257766,70.5571915 Z M55.3554255,66.9271915 L54.9437234,72.7191064 C54.8798936,73.6178298 55.5175532,74.7220851 56.3684043,75.1854894 L61.8501064,78.1727234 C62.7003191,78.6361277 63.4420213,78.2831489 63.5058511,77.3844255 L63.9175532,71.5925106 C63.9724468,70.8157021 63.5032979,69.8863404 62.8260638,69.3488936 L62.948617,67.6293191 C63.0762766,65.8369787 61.7996809,63.6259149 60.1024468,62.7016596 C58.4058511,61.776766 56.9224468,62.4833617 56.7947872,64.2763404 L56.672234,65.9959149 C55.9720213,65.7827234 55.4109574,66.150383 55.3554255,66.9271915 Z" id="Fill-17" fill="#E1F2FF" fill-rule="nonzero"></path>
            </g>
        </g>
    </g>
</svg>