<?xml version="1.0" encoding="UTF-8"?>
<svg width="135px" height="194px" viewBox="0 0 135 194" version="1.1" xmlns="http://www.w3.org/2000/svg" xmlns:xlink="http://www.w3.org/1999/xlink">
    <!-- Generator: Sketch 52.6 (67491) - http://www.bohemiancoding.com/sketch -->
    <title>url scheme</title>
    <desc>Created with Sketch.</desc>
    <defs>
        <linearGradient x1="99.9643113%" y1="50.0078193%" x2="0.0245263697%" y2="50.0078193%" id="linearGradient-1">
            <stop stop-color="#17D1AA" offset="0%"></stop>
            <stop stop-color="#1AC2AE" offset="6.594372%"></stop>
            <stop stop-color="#229BB8" offset="26.51%"></stop>
            <stop stop-color="#297CC0" offset="46.16%"></stop>
            <stop stop-color="#2D66C6" offset="65.25%"></stop>
            <stop stop-color="#3059CA" offset="83.49%"></stop>
            <stop stop-color="#3154CB" offset="100%"></stop>
        </linearGradient>
    </defs>
    <g id="url-scheme" stroke="none" stroke-width="1" fill="none" fill-rule="evenodd">
        <g id="Group-8" transform="translate(56.000000, 120.000000)" stroke="#244BC0" stroke-width="2">
            <path d="M5,0 L5,63.4296764" id="Path-3"></path>
            <circle id="Oval-2" cx="4.5" cy="67.5" r="4.5"></circle>
        </g>
        <g id="roadmap_URL-scheme">
            <g id="_x36__30_">
                <g id="XMLID_320_">
                    <path d="M4.86255924,6.48763251 L12.7962085,1.97173145 C13.3720379,1.52650177 15.6113744,0.826855124 16.3151659,0.636042403 C18.4265403,-0.0636042403 21.049763,0.318021201 23.8009479,1.90812721 L121.691943,58.5159011 C129.049763,62.7773852 135,74.1625442 135,83.9575972 L134.744076,162.826855 C134.744076,168.678445 132.56872,172.621908 129.241706,173.957597 L120.156398,178.664311 L112.990521,167.978799 L23.4170616,116.204947 C16.0592417,111.943463 10.1090047,100.558304 10.1090047,90.7632509 L10.3649289,14.7561837 L4.86255924,6.48763251 Z" id="XMLID_321_" fill="#E1F2FF"></path>
                    <path d="M0.511848341,17.0459364 C0.575829384,7.25088339 6.52606635,2.79858657 13.9478673,7.06007067 L111.838863,63.6678445 C119.196682,67.9293286 125.146919,79.3144876 125.146919,89.1095406 L124.827014,167.915194 C124.763033,177.710247 118.812796,182.162544 111.390995,177.90106 L13.5,121.293286 C6.14218009,117.031802 0.191943128,105.646643 0.191943128,95.8515901 L0.511848341,17.0459364 Z" id="Path" fill="url(#linearGradient-1)"></path>
                </g>
            </g>
            <path d="M52.2984542,95.934935 C51.0142687,96.2515587 49.3448276,95.8716102 47.4827586,94.731765 L37.5945303,88.5259409 C33.6135553,85.9929515 30.3388823,80.8003232 30.3388823,76.8108648 C30.3388823,72.8847312 33.6135553,71.744886 37.5945303,74.2145507 L47.4827586,80.4203748 C49.5374554,81.6868695 51.3353151,83.713261 52.6837099,85.866302 C53.2615933,85.9929515 53.8394768,86.2462504 54.4173603,86.6261988 L58.6551724,89.2858377 C56.6646849,83.9032352 52.3626635,78.3939832 47.4827586,75.2910712 L37.5945303,69.0852471 C30.7241379,64.7791651 25.137931,66.7422319 25.137931,73.5179786 C25.137931,80.2937253 30.7241379,89.2858377 37.5945303,93.5919198 L47.4827586,99.7977438 C52.4268728,102.900656 56.6646849,102.710682 58.6551724,99.8610686 L52.3626635,95.8716102 C52.2984542,95.934935 52.2984542,95.934935 52.2984542,95.934935 Z" id="Path" fill="#E1F2FF"></path>
            <path d="M59.5591074,91.7510397 C59.5556434,91.7353075 59.5521554,91.719575 59.5486435,91.7038425 L69.5297625,98.0502343 C71.2040147,99.1400187 72.6206897,101.383693 72.6206897,103.114527 C72.6206897,104.268416 72.0411408,104.845361 71.1396204,104.845361 C70.6244659,104.845361 70.1093113,104.653046 69.4653682,104.268416 L59.4842492,97.9220244 L53.9463381,94.3962512 L53.3667892,94.0116214 C51.692537,92.9218369 50.2758621,90.6781631 50.2758621,88.947329 C50.2758621,87.7934396 50.8554109,87.2164948 51.692537,87.2164948 C52.2076915,87.2164948 52.7228461,87.4088097 53.3667892,87.7934396 L53.9463381,88.1780694 L59.4842492,91.7038425 L59.5591074,91.7510397 Z" id="Combined-Shape" fill="#E1F2FF"></path>
            <path d="M84.4348508,99.388448 L74.5467842,93.1951047 C69.6027509,90.0984331 65.365008,90.2880253 63.3103448,93.06871 L69.6027509,97.0501449 C69.6027509,97.0501449 69.6669591,97.1133423 69.6669591,97.1133423 C70.9511236,96.7973554 72.6205374,97.1765397 74.4825759,98.3140925 L84.3706426,104.507436 C88.3515525,107.035331 91.626172,112.217516 91.626172,116.198951 C91.626172,120.117189 88.3515525,121.317939 84.3706426,118.790044 L74.4825759,112.5967 C72.4279127,111.332753 70.6300825,109.310437 69.2817097,107.161726 C68.7038357,107.035331 68.1259617,106.782541 67.5480877,106.403357 L63.3103448,103.749067 C65.3007998,109.120844 69.6027509,114.619016 74.4825759,117.715688 L84.3706426,123.909031 C91.2409226,128.206453 96.8270382,126.247334 96.8270382,119.485215 C96.8912464,112.659898 91.3051308,103.68587 84.4348508,99.388448 Z" id="Path" fill="#E1F2FF"></path>
            <path d="M61.4482759,80.5392004 C60.9469496,80.2045496 60.5172414,79.6021783 60.5172414,79.1336673 L60.5172414,72.8422334 C60.5172414,72.3737223 60.9469496,72.239862 61.4482759,72.5075826 C61.9496021,72.8422334 62.3793103,73.4446047 62.3793103,73.9131157 L62.3793103,80.2045496 C62.3793103,80.7399908 61.9496021,80.8738511 61.4482759,80.5392004 Z" id="Path" fill="#E1F2FF"></path>
            <path d="M65.5457494,85.6445139 C65.1309321,85.1289933 65.0617958,84.5490328 65.3383407,84.3557126 L69.140833,81.7136699 C69.4173779,81.5203497 69.9704677,81.77811 70.3852851,82.2936305 C70.8001024,82.809151 70.8692386,83.3891116 70.5926938,83.5824318 L66.7902014,86.2244744 C66.5136565,86.4177946 65.8914305,86.1600344 65.5457494,85.6445139 Z" id="Path" fill="#E1F2FF"></path>
            <path d="M56.4197678,79.7876372 C56.8345852,79.7227968 56.9037214,79.2689142 56.6271765,78.7501912 L52.8246842,71.4880695 C52.5481393,70.9045062 51.9950495,70.5154639 51.5802322,70.5154639 C51.1654148,70.5803043 51.0962786,71.0341869 51.3728235,71.5529099 L55.1753158,78.8150316 C55.4518607,79.3985949 56.0049505,79.8524775 56.4197678,79.7876372 Z" id="Path" fill="#E1F2FF"></path>
            <path d="M61.4482759,112.45049 C61.9496021,112.785141 62.3793103,113.387512 62.3793103,113.856023 L62.3793103,120.147457 C62.3793103,120.615968 61.9496021,120.749829 61.4482759,120.482108 C60.9469496,120.147457 60.5172414,119.545086 60.5172414,119.076575 L60.5172414,112.785141 C60.5172414,112.2497 60.9469496,112.11584 61.4482759,112.45049 Z" id="Path" fill="#E1F2FF"></path>
            <path d="M56.4197678,107.323078 C56.8345852,107.84145 56.9037214,108.424619 56.6271765,108.619008 L52.8246842,111.275666 C52.5481393,111.470055 51.9950495,111.210869 51.5802322,110.692497 C51.1654148,110.174125 51.0962786,109.590956 51.3728235,109.396566 L55.1753158,106.739909 C55.4518607,106.610316 56.0049505,106.804705 56.4197678,107.323078 Z" id="Path" fill="#E1F2FF"></path>
            <path d="M65.5457494,113.195876 C65.1309321,113.26076 65.0617958,113.714945 65.3383407,114.234013 L69.140833,121.500973 C69.4173779,122.084925 69.9704677,122.474227 70.3852851,122.474227 C70.8001024,122.409343 70.8692386,121.955158 70.5926938,121.43609 L66.7902014,114.16913 C66.5136565,113.585178 65.8914305,113.195876 65.5457494,113.195876 Z" id="Path" fill="#E1F2FF"></path>
        </g>
    </g>
</svg>