<?xml version="1.0" encoding="UTF-8"?>
<svg width="44px" height="44px" viewBox="0 0 44 44" version="1.1" xmlns="http://www.w3.org/2000/svg" xmlns:xlink="http://www.w3.org/1999/xlink">
    <!-- Generator: Sketch 52.6 (67491) - http://www.bohemiancoding.com/sketch -->
    <title>page icon/about</title>
    <desc>Created with Sketch.</desc>
    <defs>
        <linearGradient x1="0%" y1="98.2523503%" x2="53.8596176%" y2="70.9764888%" id="linearGradient-1">
            <stop stop-color="#1A44B7" offset="0%"></stop>
            <stop stop-color="#4760FF" offset="100%"></stop>
        </linearGradient>
    </defs>
    <g id="page-icon/about" stroke="none" stroke-width="1" fill="none" fill-rule="evenodd">
        <g id="information-button" transform="translate(13.000000, 4.000000)" fill="url(#linearGradient-1)" fill-rule="nonzero">
            <path d="M16.1179005,33.9516773 C14.5795793,34.5405083 13.3549947,34.9870386 12.4365563,35.2961749 C11.520648,35.6053112 10.4554618,35.7598793 9.24352786,35.7598793 C7.38134963,35.7598793 5.93158315,35.318256 4.8992887,34.4374629 C3.86699424,33.5566698 3.35337715,32.4403442 3.35337715,31.0835793 C3.35337715,30.5560848 3.39132915,30.016323 3.46723316,29.4667474 C3.54566729,28.9171717 3.66964383,28.2988991 3.83916278,27.6045691 L5.76459434,21.0096612 C5.93411329,20.3766679 6.08086103,19.7755695 6.19724717,19.21618 C6.31363331,18.6518835 6.36929624,18.1342029 6.36929624,17.663138 C6.36929624,16.8240538 6.18965677,16.2352227 5.83290795,15.9040052 C5.47109886,15.5727878 4.79049296,15.4108592 3.77590944,15.4108592 C3.28000328,15.4108592 2.76891632,15.4820097 2.24517869,15.6316709 C1.72650133,15.786239 1.27613758,15.9260864 0.906738089,16.0634803 L1.41529492,14.0320132 C2.67530138,13.5339602 3.88217505,13.1070577 5.03338577,12.7537591 C6.1845965,12.3955535 7.27255389,12.2189042 8.29725794,12.2189042 C10.1467855,12.2189042 11.5737808,12.6556206 12.5782438,13.5192395 C13.5776465,14.3853118 14.081143,15.5114512 14.081143,16.8952042 C14.081143,17.1822593 14.0457212,17.6876727 13.9774076,18.4089907 C13.909094,19.1327622 13.7800572,19.7927437 13.5928273,20.398749 L11.6775163,26.9740292 C11.520648,27.5015237 11.3814906,28.1050755 11.254984,28.7797778 C11.1310074,29.45448 11.0702842,29.9697072 11.0702842,30.3156455 C11.0702842,31.1890782 11.2701648,31.7852697 11.6749861,32.1017664 C12.0747472,32.4182631 12.7755942,32.5777381 13.7674065,32.5777381 C14.2354812,32.5777381 14.7592188,32.4967739 15.35127,32.3397522 C15.938261,32.1827306 16.3633234,32.0428833 16.6315176,31.9226636 L16.1179005,33.9516773 Z M15.7788626,7.26290943 C14.8857255,8.06764521 13.8104188,8.4700131 12.5529424,8.4700131 C11.2979962,8.4700131 10.2150991,8.06764521 9.3143716,7.26290943 C8.41870435,6.45817364 7.96581046,5.479242 7.96581046,4.33592836 C7.96581046,3.19506818 8.42123448,2.21368308 9.3143716,1.4015869 C10.2150991,0.587037269 11.2979962,0.182215914 12.5529424,0.182215914 C13.8104188,0.182215914 14.8882556,0.587037269 15.7788626,1.4015869 C16.6719997,2.21368308 17.1198333,3.19506818 17.1198333,4.33592836 C17.1198333,5.48169546 16.6719997,6.45817364 15.7788626,7.26290943 Z" id="Shape"></path>
        </g>
    </g>
</svg>