<?xml version="1.0" encoding="UTF-8"?>
<svg width="24px" height="24px" viewBox="0 0 24 24" version="1.1" xmlns="http://www.w3.org/2000/svg" xmlns:xlink="http://www.w3.org/1999/xlink">
    <!-- Generator: Sketch 52.6 (67491) - http://www.bohemiancoding.com/sketch -->
    <title>icon/apple</title>
    <desc>Created with Sketch.</desc>
    <g id="icon/apple" stroke="none" stroke-width="1" fill="none" fill-rule="evenodd">
        <rect id="Rectangle" x="0" y="0" width="24" height="24"></rect>
        <path d="M14.3102029,6.43518707 C13.7976548,7.11189904 12.9144056,7.63624237 12.0609497,7.60913051 C11.9051287,6.73667093 12.3053592,5.83899732 12.7899598,5.23386065 C13.3238641,4.56718007 14.2384884,4.05557931 15.0204934,4 C15.1523217,4.91177178 14.7887394,5.80348078 14.3102029,6.43518707 Z M18.5384615,15.0047031 C18.1957081,15.7857957 18.0317138,16.1341831 17.5903529,16.8241799 C16.9749787,17.7877353 16.1072853,18.9871639 15.032358,18.9977375 C14.0766033,19.0066844 13.8314028,18.3581688 12.5347403,18.365489 C11.2383415,18.3730803 10.9675664,19.0088534 10.0120754,18.9999065 C8.93688433,18.9898751 8.11453984,17.9064852 7.49890201,16.9432009 C5.77722535,14.2490956 5.59741164,11.0873108 6.6591562,9.40637557 C7.41374098,8.21182711 8.60388623,7.51288342 9.72310789,7.51288342 C10.8628948,7.51288342 11.5792493,8.15516333 12.5212939,8.15516333 C13.4353908,8.15516333 13.9922332,7.51179894 15.3097246,7.51179894 C16.305555,7.51179894 17.3607081,8.06948986 18.1126564,9.03304528 C15.6490504,10.4211724 16.0492809,14.0376231 18.5384615,15.0047031 Z" id="Icon---Apple-Copy" fill="#FFFFFF"></path>
    </g>
</svg>