<?xml version="1.0" encoding="utf-8"?>
<!-- Generator: Adobe Illustrator 22.1.0, SVG Export Plug-In . SVG Version: 6.00 Build 0)  -->
<svg version="1.1" id="Layer_1" xmlns="http://www.w3.org/2000/svg" xmlns:xlink="http://www.w3.org/1999/xlink" x="0px" y="0px"
	 viewBox="0 0 178.1 161.6" style="enable-background:new 0 0 178.1 161.6;" xml:space="preserve">
<style type="text/css">
	.st0{fill:#091A26;}
	.st1{fill:#FFFFFF;}
</style>
<g>
	<g id="Layer_2_3_">
		<g id="Layer_1-2_3_">
			<g id="cardano_3_">
				<path id="Shape_3_" class="st0" d="M74.9,68.5c-4.5,0-8.6-2.5-10.7-6.5c-2.9-5.8-0.6-12.8,5.1-15.7c0.1,0,0.1-0.1,0.2-0.1
					c1.7-0.8,3.5-1.2,5.4-1.3c4.5,0,8.6,2.5,10.7,6.5c2.9,5.8,0.6,12.8-5.1,15.7c-0.1,0-0.1,0.1-0.2,0.1
					C78.6,68,76.7,68.5,74.9,68.5 M60.8,92.6h-0.7c-6.6-0.2-11.9-5.7-11.7-12.4s5.7-11.9,12.4-11.7s11.9,5.7,11.7,12.4
					C72.3,87.3,67.2,92.4,60.8,92.6 M75,116.6c-2.3,0-4.6-0.7-6.6-1.9c-2.7-1.7-4.5-4.4-5.2-7.5c-0.7-3.1,0-6.3,1.7-8.9
					c3.7-5.5,11.1-7,16.6-3.4c2.7,1.7,4.5,4.4,5.2,7.5c0.7,3.1,0,6.3-1.7,8.9C82.8,114.6,79,116.6,75,116.6 M103.2,116.5
					c-4.5,0-8.6-2.5-10.7-6.5c-1.4-2.8-1.7-6-0.7-9c1-3,3.2-5.4,6-6.8c1.7-0.8,3.5-1.3,5.4-1.3c4.5,0,8.6,2.5,10.7,6.5
					c2.9,5.8,0.6,12.8-5.1,15.7c-0.1,0-0.1,0.1-0.2,0.1C106.9,116.1,105.1,116.5,103.2,116.5 M117.3,92.4h-0.7
					c-6.5-0.5-11.4-6.1-10.9-12.6c0.5-6.5,6.1-11.4,12.6-10.9c3,0.2,5.9,1.6,7.9,3.9c2.1,2.3,3.2,5.4,3,8.5
					C128.8,87.6,123.6,92.5,117.3,92.4 M103.1,68.4c-2.3,0-4.6-0.7-6.6-1.9c-5.4-3.5-7-10.7-3.6-16.1c0-0.1,0.1-0.1,0.1-0.2
					c2.2-3.3,6-5.3,10-5.3c2.3,0,4.6,0.7,6.6,1.9c5.4,3.5,7,10.7,3.6,16.1c0,0.1-0.1,0.1-0.1,0.2C110.9,66.4,107.1,68.4,103.1,68.4
					 M62.9,24.7c1.5,2.9,0.4,6.4-2.5,7.9c0,0-0.1,0.1-0.2,0.1c-2.9,1.5-6.5,0.3-8-2.6c-1.5-2.9-0.3-6.4,2.5-7.9c0,0,0.1,0,0.1-0.1
					C57.8,20.6,61.4,21.8,62.9,24.7 M26.6,75c3.2,0.3,5.7,3.1,5.4,6.3c-0.3,3.2-3.1,5.7-6.3,5.4c-3.2-0.3-5.6-3-5.4-6.2
					C20.4,77.3,23.2,74.8,26.6,75C26.5,75,26.6,75,26.6,75 M52.8,131c1.8-2.7,5.5-3.5,8.3-1.7c2.7,1.7,3.5,5.3,1.8,8
					c0,0,0,0.1-0.1,0.1c-1.8,2.7-5.5,3.5-8.3,1.7c-2.7-1.7-3.5-5.3-1.8-8C52.7,131.1,52.8,131.1,52.8,131 M115.2,136.8
					c-1.5-2.9-0.4-6.4,2.5-7.9c0,0,0.1,0,0.1-0.1c2.9-1.5,6.5-0.3,8.1,2.6c1.5,2.9,0.3,6.4-2.5,7.9c0,0-0.1,0-0.1,0.1
					C120.3,140.8,116.8,139.7,115.2,136.8 M151.5,86.5c-3.2-0.3-5.7-3.1-5.4-6.3c0.3-3.2,3.1-5.7,6.3-5.4c3.2,0.3,5.6,3,5.4,6.2
					C157.7,84.2,154.9,86.7,151.5,86.5C151.6,86.5,151.5,86.5,151.5,86.5 M125.3,30.4c-1.8,2.7-5.5,3.5-8.3,1.7
					c-2.7-1.7-3.5-5.3-1.8-8c0,0,0-0.1,0.1-0.1c1.8-2.7,5.5-3.5,8.3-1.7c2.7,1.7,3.5,5.3,1.8,8C125.4,30.3,125.4,30.4,125.3,30.4
					 M49.8,6.6c1,1.9,0.2,4.1-1.6,5.1c0,0-0.1,0-0.1,0.1c-1.9,0.9-4.2,0.2-5.2-1.7c-0.9-1.9-0.2-4.1,1.7-5.1c0,0,0,0,0.1,0
					C46.5,4,48.8,4.7,49.8,6.6 M4.1,77.1c2.1,0.1,3.8,1.8,3.7,3.9c-0.1,2.1-1.8,3.8-3.9,3.7c-0.1,0-0.2,0-0.2,0
					c-2.1-0.1-3.8-1.8-3.7-3.9s1.8-3.8,3.9-3.7C4,77.1,4.1,77.1,4.1,77.1 M43.4,151.2c1.2-1.8,3.6-2.3,5.4-1.1
					c1.8,1.1,2.3,3.4,1.2,5.2c0,0-0.1,0.1-0.1,0.1c-1.2,1.8-3.6,2.2-5.4,1.1C42.8,155.4,42.3,153,43.4,151.2
					C43.4,151.3,43.4,151.2,43.4,151.2 M128.3,154.8c-0.9-1.9-0.2-4.1,1.7-5.1c0,0,0,0,0.1,0c1.9-0.9,4.2-0.2,5.2,1.7
					c0.9,1.9,0.2,4.1-1.6,5.1c0,0,0,0-0.1,0C131.6,157.5,129.3,156.7,128.3,154.8 M174,84.4c-2.1-0.2-3.7-2-3.5-4.1s2-3.7,4.1-3.5
					c2.1,0.2,3.6,1.9,3.5,4C177.9,82.9,176.1,84.5,174,84.4 M134.7,10.2c-1.2,1.8-3.6,2.3-5.4,1.1c-1.8-1.1-2.3-3.4-1.2-5.2
					c0,0,0,0,0-0.1c1.2-1.8,3.6-2.3,5.4-1.1C135.3,6.1,135.9,8.4,134.7,10.2C134.7,10.2,134.7,10.2,134.7,10.2 M50.9,51.2
					c3.2,2,4.1,6.2,2.1,9.4c0,0.1-0.1,0.1-0.1,0.1c-2.2,3.2-6.5,4.1-9.8,2c-3.2-2-4.1-6.3-2.1-9.4c0,0,0.1-0.1,0.1-0.1
					C43.4,50,47.7,49.2,50.9,51.2 M44,98.4c3.5-1.7,7.7-0.4,9.5,3c1.7,3.4,0.4,7.5-3,9.3c0,0-0.1,0-0.1,0.1
					c-3.5,1.7-7.7,0.3-9.5-3.1c-1.7-3.4-0.4-7.5,3-9.2C43.9,98.4,44,98.4,44,98.4 M81.6,127.9c0.2-3.9,3.4-6.9,7.3-6.8
					s6.9,3.4,6.8,7.3c-0.2,3.9-3.4,6.9-7.3,6.8c0,0-0.1,0-0.1,0C84.4,135,81.4,131.7,81.6,127.9 M127.1,110.2
					c-3.2-2-4.1-6.3-2.1-9.5c0,0,0.1-0.1,0.1-0.1c2.2-3.2,6.5-4.1,9.8-2c3.2,2,4.1,6.3,2.1,9.4c0,0-0.1,0.1-0.1,0.1
					C134.7,111.4,130.4,112.3,127.1,110.2 M134.1,63c-3.5,1.7-7.6,0.4-9.4-3c-1.7-3.4-0.4-7.5,3-9.2c0,0,0.1,0,0.1-0.1
					c3.5-1.7,7.7-0.3,9.5,3.1c1.7,3.4,0.4,7.5-3,9.2C134.1,63,134.1,63,134.1,63 M96,33.6c-0.2,3.9-3.4,6.9-7.3,6.8
					c-3.9-0.2-6.9-3.4-6.8-7.3c0.2-3.9,3.4-6.9,7.3-6.8c0,0,0.1,0,0.1,0C93.2,26.4,96.2,29.7,96,33.6 M24.7,38.8
					c2.2,1.4,2.9,4.3,1.5,6.6c0,0-0.1,0.1-0.1,0.1c-1.5,2.2-4.6,2.9-6.8,1.4c-2.2-1.4-2.9-4.3-1.5-6.6c0,0,0.1-0.1,0.1-0.1
					C19.4,38,22.4,37.3,24.7,38.8 M20,114.5c2.4-1.2,5.4-0.3,6.6,2.2c1.2,2.4,0.3,5.3-2.1,6.5c0,0-0.1,0-0.1,0
					c-2.4,1.2-5.4,0.3-6.6-2.1C16.6,118.7,17.5,115.8,20,114.5C19.9,114.6,19.9,114.5,20,114.5 M83.8,156.4c0.1-2.7,2.4-4.8,5.1-4.7
					c2.7,0.1,4.8,2.4,4.7,5.1c-0.1,2.7-2.4,4.8-5.1,4.7c0,0-0.1,0-0.1,0C85.7,161.4,83.7,159.1,83.8,156.4 M153.4,122.6
					c-2.2-1.4-2.9-4.3-1.5-6.6c0,0,0.1-0.1,0.1-0.1c1.5-2.2,4.6-2.9,6.8-1.4c2.2,1.4,2.9,4.3,1.5,6.6c0,0.1-0.1,0.1-0.1,0.2
					C158.7,123.5,155.7,124.1,153.4,122.6 M158.1,46.9c-2.4,1.2-5.4,0.3-6.6-2.2c-1.2-2.4-0.3-5.3,2.1-6.5c0,0,0.1,0,0.1,0
					c2.4-1.2,5.4-0.3,6.6,2.1C161.5,42.8,160.6,45.7,158.1,46.9C158.2,46.9,158.2,46.9,158.1,46.9 M93.8,5c-0.3,2.7-2.7,4.7-5.4,4.4
					c-2.6-0.2-4.5-2.4-4.5-5c0.3-2.7,2.7-4.7,5.4-4.4C91.9,0.3,93.8,2.4,93.8,5"/>
			</g>
		</g>
	</g>
</g>
</svg>
