<?xml version="1.0" encoding="UTF-8"?>
<svg width="208px" height="56px" viewBox="0 0 208 56" version="1.1" xmlns="http://www.w3.org/2000/svg" xmlns:xlink="http://www.w3.org/1999/xlink">
    <!-- Generator: Sketch 52.6 (67491) - http://www.bohemiancoding.com/sketch -->
    <title>cardano-default</title>
    <desc>Created with Sketch.</desc>
    <defs>
        <path d="M80.3985519,16.6802479 C82.743854,16.6802479 84.5637475,17.298087 85.8582871,18.5337838 C87.1528266,19.7694807 87.8715374,21.1732784 88.0144411,22.7452193 L85.568278,22.7452193 C85.2908767,21.551553 84.7381839,20.6058808 83.9101829,19.9081744 C83.082182,19.2104681 81.920056,18.8616201 80.4237701,18.8616201 C78.5996462,18.8616201 77.1264992,19.5025757 76.0042847,20.7845061 C74.8820703,22.0664364 74.3209715,24.031333 74.3209715,26.6792547 C74.3209715,28.8480287 74.8274315,30.6069789 75.8403666,31.9561581 C76.8533017,33.3053372 78.3642757,33.9799167 80.3733337,33.9799167 C82.2226759,33.9799167 83.6306767,33.2696118 84.5973782,31.8489808 C85.1101504,31.1008379 85.4926222,30.1173388 85.7448053,28.8984542 L88.1909683,28.8984542 C87.9724097,30.8486696 87.2494959,32.4836317 86.0222052,33.8033895 C84.5511376,35.3921425 82.5673276,36.1865071 80.0707156,36.1865071 C77.9187539,36.1865071 76.1114693,35.5350441 74.6488078,34.2320985 C72.7238107,32.5088478 71.7613266,29.8483568 71.7613266,26.2505457 C71.7613266,23.518563 72.4842404,21.2783708 73.9300898,19.5299018 C75.4936245,17.630123 77.649757,16.6802479 80.3985519,16.6802479 Z M100.74962,28.1166908 L97.9377934,19.9333926 L94.9494395,28.1166908 L100.74962,28.1166908 Z M96.6264482,17.1846114 L99.4634931,17.1846114 L106.184137,35.7073618 L103.435356,35.7073618 L101.556602,30.159363 L94.2307215,30.159363 L92.2258765,35.7073618 L89.6536226,35.7073618 L96.6264482,17.1846114 Z M117.078389,25.6705277 C118.255243,25.6705277 119.186205,25.4351604 119.871302,24.9644188 C120.556399,24.4936771 120.898943,23.6446737 120.898943,22.417383 C120.898943,21.0976252 120.419802,20.1981859 119.461507,19.7190381 C118.948735,19.4668551 118.263648,19.3407655 117.406225,19.3407655 L111.278209,19.3407655 L111.278209,25.6705277 L117.078389,25.6705277 Z M108.769,17.1846114 L117.34318,17.1846114 C118.755405,17.1846114 119.919632,17.3905578 120.835897,17.8024567 C122.57596,18.5926302 123.445979,20.0510668 123.445979,22.1778103 C123.445979,23.2874156 123.216916,24.1952609 122.758783,24.9013733 C122.300651,25.6074858 121.659695,26.1748891 120.835897,26.6036002 C121.558822,26.8978137 122.103109,27.2844886 122.468774,27.7636363 C122.83444,28.242784 123.038284,29.0203367 123.080315,30.0963176 L123.168579,32.5803079 C123.193797,33.2864204 123.252639,33.8117938 123.345106,34.1564439 C123.496416,34.744871 123.765407,35.1231398 124.152087,35.2912619 L124.152087,35.7073618 L121.07547,35.7073618 C120.991409,35.5476459 120.924161,35.3416995 120.873725,35.0895165 C120.823288,34.8373334 120.781258,34.3497869 120.747634,33.6268622 L120.596325,30.5376357 C120.537482,29.3271572 120.087762,28.5159806 119.247152,28.1040817 C118.768004,27.877117 118.01567,27.7636363 116.990125,27.7636363 L111.278209,27.7636363 L111.278209,35.7073618 L108.769,35.7073618 L108.769,17.1846114 Z M134.226749,33.5638168 C135.075765,33.5638168 135.773461,33.4755541 136.319857,33.299026 C137.294965,32.971188 138.093533,32.3407399 138.715584,31.4076627 C139.211544,30.6595198 139.568798,29.7012387 139.787357,28.5327907 C139.913448,27.8350843 139.976493,27.1878243 139.976493,26.5909911 C139.976493,24.2961256 139.520469,22.514059 138.608407,21.2447378 C137.696345,19.9754166 136.227401,19.3407655 134.201531,19.3407655 L129.750523,19.3407655 L129.750523,33.5638168 L134.226749,33.5638168 Z M127.228705,17.1846114 L134.731112,17.1846114 C137.278161,17.1846114 139.253565,18.0882537 140.657384,19.8955654 C141.909893,21.5263489 142.536138,23.6152336 142.536138,26.1622821 C142.536138,28.1293097 142.166275,29.9071733 141.426538,31.4959264 C140.123592,34.303564 137.8834,35.7073618 134.705894,35.7073618 L127.228705,35.7073618 L127.228705,17.1846114 Z M155.271317,28.1166908 L152.45949,19.9333926 L149.471136,28.1166908 L155.271317,28.1166908 Z M151.148145,17.1846114 L153.98519,17.1846114 L160.705834,35.7073618 L157.957053,35.7073618 L156.078298,30.159363 L148.752418,30.159363 L146.747573,35.7073618 L144.175319,35.7073618 L151.148145,17.1846114 Z M162.988079,17.1846114 L165.951214,17.1846114 L175.307158,32.1894262 L175.307158,17.1846114 L177.690275,17.1846114 L177.690275,35.7073618 L174.878449,35.7073618 L165.383805,20.7151561 L165.383805,35.7073618 L162.988079,35.7073618 L162.988079,17.1846114 Z M189.631082,16.6802479 C192.901055,16.6802479 195.321976,17.7309947 196.893916,19.8325199 C198.121207,21.4717096 198.734843,23.5690002 198.734843,26.1244549 C198.734843,28.890062 198.032944,31.1890961 196.629126,33.021626 C194.98153,35.1735878 192.63206,36.2495526 189.580645,36.2495526 C186.730977,36.2495526 184.490785,35.3080834 182.860001,33.4251168 C181.405746,31.6093991 180.678629,29.314568 180.678629,26.5405548 C180.678629,24.0355367 181.300671,21.8920132 182.544774,20.1099199 C184.141933,17.8234605 186.504012,16.6802479 189.631082,16.6802479 Z M189.883263,34.0051349 C192.094068,34.0051349 193.693305,33.2128718 194.681021,31.6283218 C195.668738,30.0437718 196.162589,28.2217768 196.162589,26.1622821 C196.162589,23.985102 195.593085,22.2324563 194.454058,20.9042924 C193.315031,19.5761285 191.757824,18.9120565 189.782391,18.9120565 C187.8658,18.9120565 186.302288,19.569824 185.09181,20.8853788 C183.881331,22.2009335 183.276101,24.1406122 183.276101,26.7044729 C183.276101,28.7555615 183.79517,30.4850908 184.833324,31.8931126 C185.871477,33.3011345 187.554774,34.0051349 189.883263,34.0051349 Z" id="path-1"></path>
    </defs>
    <g id="cardano-default" stroke="none" stroke-width="1" fill="none" fill-rule="evenodd">
        <g id="Cardano_Vector_Logo_Cardano-logo" transform="translate(4.000000, 2.000000)">
            <g id="CARDANO">
                <use fill="#000000" xlink:href="#path-1"></use>
                <use fill="#94A1B5" xlink:href="#path-1"></use>
            </g>
            <g id="Layer_2_3_" fill="#94A1B5" fill-rule="nonzero">
                <g id="Layer_1-2_3_">
                    <g id="cardano_3_">
                        <path d="M23.9810427,21.9589258 C22.5592417,21.9589258 21.2638231,21.1690363 20.600316,19.9052133 C19.6840442,18.0726698 20.4107425,15.8609795 22.2116904,14.9447077 C22.2432859,14.9447077 22.2432859,14.9131122 22.2748815,14.9131122 C22.8120063,14.6603476 23.3807267,14.5339652 23.9810427,14.5023697 C25.4028436,14.5023697 26.6982622,15.2922591 27.3617694,16.5560821 C28.2780411,18.3886256 27.5513428,20.600316 25.7503949,21.5165877 C25.7187994,21.5165877 25.7187994,21.5481833 25.6872038,21.5481833 C25.150079,21.8009479 24.549763,21.9589258 23.9810427,21.9589258 M19.5260664,29.5734597 L19.3048973,29.5734597 C17.2195893,29.5102686 15.5450237,27.7725118 15.6082148,25.6556082 C15.671406,23.5387046 17.4091627,21.8957346 19.5260664,21.9589258 C21.64297,22.0221169 23.28594,23.7598736 23.2227488,25.8767773 C23.1595577,27.8988942 21.5481833,29.5102686 19.5260664,29.5734597 M24.0126382,37.1563981 C23.28594,37.1563981 22.5592417,36.9352291 21.9273302,36.5560821 C21.0742496,36.0189573 20.5055292,35.1658768 20.2843602,34.1864139 C20.0631912,33.206951 20.2843602,32.1958926 20.821485,31.3744076 C21.9905213,29.6366509 24.328594,29.1627172 26.0663507,30.300158 C26.9194313,30.8372828 27.4881517,31.6903633 27.7093207,32.6698262 C27.9304897,33.6492891 27.7093207,34.6603476 27.1721959,35.4818325 C26.4770932,36.5244866 25.2764613,37.1563981 24.0126382,37.1563981 M32.9225908,37.1248025 C31.5007899,37.1248025 30.2053712,36.3349131 29.5418641,35.07109 C29.0995261,34.1864139 29.0047393,33.1753555 29.3206951,32.2274882 C29.6366509,31.2796209 30.3317536,30.521327 31.2164297,30.0789889 C31.7535545,29.8262243 32.3222749,29.6682464 32.9225908,29.6682464 C34.3443918,29.6682464 35.6398104,30.4581359 36.3033175,31.7219589 C37.2195893,33.5545024 36.492891,35.7661927 34.6919431,36.6824645 C34.6603476,36.6824645 34.6603476,36.71406 34.628752,36.71406 C34.0916272,36.9984202 33.5229068,37.1248025 32.9225908,37.1248025 M37.3775671,29.5102686 L37.1563981,29.5102686 C35.1026856,29.3522907 33.5545024,27.5829384 33.7124803,25.5292259 C33.8704581,23.4755134 35.6398104,21.9273302 37.6935229,22.0853081 C38.6413902,22.1484992 39.5576619,22.5908373 40.1895735,23.3175355 C40.8530806,24.0442338 41.2006319,25.0236967 41.1374408,26.0031596 C41.0110585,27.9936809 39.3680885,29.5418641 37.3775671,29.5102686 M32.8909953,21.9273302 C32.164297,21.9273302 31.4375987,21.7061611 30.8056872,21.3270142 C29.0995261,20.221169 28.5939968,17.9462875 29.6682464,16.2401264 C29.6682464,16.2085308 29.699842,16.2085308 29.699842,16.1769352 C30.3949447,15.1342812 31.5955766,14.5023697 32.8593997,14.5023697 C33.5860979,14.5023697 34.3127962,14.7235387 34.9447077,15.1026856 C36.6508689,16.2085308 37.1563981,18.4834123 36.0821485,20.1895735 C36.0821485,20.221169 36.0505529,20.221169 36.0505529,20.2527646 C35.3554502,21.2954186 34.1548183,21.9273302 32.8909953,21.9273302 M20.1895735,8.12006319 C20.6635071,9.03633491 20.3159558,10.1421801 19.399684,10.6161137 C19.399684,10.6161137 19.3680885,10.6477093 19.3364929,10.6477093 C18.4202212,11.121643 17.2827804,10.7424961 16.8088468,9.82622433 C16.3349131,8.90995261 16.71406,7.80410742 17.5987362,7.33017378 C17.5987362,7.33017378 17.6303318,7.33017378 17.6303318,7.2985782 C18.5781991,6.82464455 19.7156398,7.20379147 20.1895735,8.12006319 M8.72037915,24.0126382 C9.7314376,24.107425 10.521327,24.9921011 10.4265403,26.0031596 C10.3317536,27.014218 9.44707741,27.8041074 8.43601896,27.7093207 C7.42496051,27.614534 6.66666667,26.7614534 6.72985782,25.7503949 C6.7614534,24.7393365 7.64612954,23.9494471 8.72037915,24.0126382 C8.68878357,24.0126382 8.72037915,24.0126382 8.72037915,24.0126382 M16.9984202,41.7061611 C17.5671406,40.8530806 18.7361769,40.600316 19.6208531,41.1690363 C20.4739336,41.7061611 20.7266983,42.8436019 20.1895735,43.6966825 C20.1895735,43.6966825 20.1895735,43.728278 20.1579779,43.728278 C19.5892575,44.5813586 18.4202212,44.8341232 17.535545,44.2654028 C16.6824645,43.728278 16.4296998,42.5908373 16.9668246,41.7377567 C16.9668246,41.7377567 16.9984202,41.7377567 16.9984202,41.7061611 M36.71406,43.5387046 C36.2401264,42.6224329 36.5876777,41.5165877 37.5039494,41.042654 C37.5039494,41.042654 37.535545,41.042654 37.535545,41.0110585 C38.4518167,40.5371248 39.5892575,40.9162717 40.0947867,41.8325434 C40.5687204,42.7488152 40.1895735,43.8546603 39.3048973,44.328594 C39.3048973,44.328594 39.2733017,44.328594 39.2733017,44.3601896 C38.3254344,44.8025276 37.2195893,44.4549763 36.71406,43.5387046 M48.1832543,27.6461295 C47.1721959,27.5513428 46.3823065,26.6666667 46.4770932,25.6556082 C46.5718799,24.6445498 47.4565561,23.8546603 48.4676145,23.9494471 C49.478673,24.0442338 50.2369668,24.8973144 50.1737757,25.9083728 C50.1421801,26.9194313 49.2575039,27.7093207 48.1832543,27.6461295 C48.2148499,27.6461295 48.1832543,27.6461295 48.1832543,27.6461295 M39.9052133,9.92101106 C39.3364929,10.7740916 38.1674566,11.0268562 37.2827804,10.4581359 C36.4296998,9.92101106 36.1769352,8.7835703 36.71406,7.93048973 C36.71406,7.93048973 36.71406,7.89889415 36.7456556,7.89889415 C37.314376,7.04581359 38.4834123,6.79304897 39.3680885,7.36176935 C40.221169,7.89889415 40.4739336,9.03633491 39.9368088,9.88941548 C39.9368088,9.88941548 39.9368088,9.92101106 39.9052133,9.92101106 M16.0505529,2.40126382 C16.3665087,3.00157978 16.1137441,3.69668246 15.5450237,4.01263823 C15.5450237,4.01263823 15.5134281,4.01263823 15.5134281,4.04423381 C14.9131122,4.328594 14.1864139,4.10742496 13.8704581,3.507109 C13.5860979,2.90679305 13.807267,2.21169036 14.4075829,1.8957346 C14.4075829,1.8957346 14.4075829,1.8957346 14.4391785,1.8957346 C15.0078989,1.57977883 15.7345972,1.80094787 16.0505529,2.40126382 M1.61137441,24.6761453 C2.27488152,24.7077409 2.81200632,25.2448657 2.78041074,25.9083728 C2.74881517,26.5718799 2.21169036,27.1090047 1.54818325,27.0774092 C1.51658768,27.0774092 1.4849921,27.0774092 1.4849921,27.0774092 C0.821484992,27.0458136 0.28436019,26.5086888 0.315955766,25.8451817 C0.347551343,25.1816746 0.884676145,24.6445498 1.54818325,24.6761453 C1.57977883,24.6761453 1.61137441,24.6761453 1.61137441,24.6761453 M14.028436,48.0884676 C14.4075829,47.5197472 15.1658768,47.3617694 15.7345972,47.7409163 C16.3033175,48.0884676 16.4612954,48.8151659 16.1137441,49.3838863 C16.1137441,49.3838863 16.0821485,49.4154818 16.0821485,49.4154818 C15.7030016,49.9842022 14.9447077,50.1105845 14.3759874,49.7630332 C13.8388626,49.4154818 13.6808847,48.657188 14.028436,48.0884676 C14.028436,48.1200632 14.028436,48.0884676 14.028436,48.0884676 M40.8530806,49.2259084 C40.5687204,48.6255924 40.7898894,47.9304897 41.3902054,47.614534 C41.3902054,47.614534 41.3902054,47.614534 41.4218009,47.614534 C42.0221169,47.3301738 42.7488152,47.5513428 43.0647709,48.1516588 C43.3491311,48.7519747 43.1279621,49.4470774 42.5592417,49.7630332 C42.5592417,49.7630332 42.5592417,49.7630332 42.5276461,49.7630332 C41.8957346,50.0789889 41.1690363,49.8262243 40.8530806,49.2259084 M55.2922591,26.9826224 C54.628752,26.9194313 54.1232227,26.3507109 54.1864139,25.6872038 C54.2496051,25.0236967 54.8183254,24.5181675 55.4818325,24.5813586 C56.1453397,24.6445498 56.6192733,25.1816746 56.5876777,25.8451817 C56.5244866,26.5086888 55.9557662,27.014218 55.2922591,26.9826224 M42.8751975,3.53870458 C42.4960506,4.10742496 41.7377567,4.26540284 41.1690363,3.88625592 C40.600316,3.53870458 40.4423381,2.81200632 40.7898894,2.24328594 C40.7898894,2.24328594 40.7898894,2.24328594 40.7898894,2.21169036 C41.1690363,1.64296998 41.9273302,1.4849921 42.4960506,1.86413902 C43.0647709,2.24328594 43.2543444,2.9699842 42.8751975,3.53870458 C42.8751975,3.53870458 42.8751975,3.53870458 42.8751975,3.53870458 M16.3981043,16.492891 C17.4091627,17.1248025 17.6935229,18.4518167 17.0616114,19.4628752 C17.0616114,19.4944708 17.0300158,19.4944708 17.0300158,19.4944708 C16.3349131,20.5055292 14.9763033,20.7898894 13.9336493,20.1263823 C12.9225908,19.4944708 12.6382306,18.135861 13.2701422,17.1563981 C13.2701422,17.1563981 13.3017378,17.1248025 13.3017378,17.1248025 C14.028436,16.1137441 15.3870458,15.8609795 16.3981043,16.492891 M14.2180095,31.4060032 C15.3238547,30.8688784 16.6508689,31.2796209 17.2195893,32.3538705 C17.7567141,33.4281201 17.3459716,34.7235387 16.271722,35.2922591 C16.271722,35.2922591 16.2401264,35.2922591 16.2401264,35.3238547 C15.1342812,35.8609795 13.807267,35.4186414 13.2385466,34.3443918 C12.7014218,33.2701422 13.1121643,31.9747235 14.1864139,31.4375987 C14.1864139,31.4060032 14.2180095,31.4060032 14.2180095,31.4060032 M26.0979463,40.7266983 C26.1611374,39.4944708 27.1721959,38.5466035 28.4044234,38.5781991 C29.6366509,38.6097946 30.5845182,39.6524487 30.5529226,40.8846761 C30.4897314,42.1169036 29.478673,43.0647709 28.2464455,43.0331754 C28.2464455,43.0331754 28.2148499,43.0331754 28.2148499,43.0331754 C26.9826224,42.9699842 26.0347551,41.9273302 26.0979463,40.7266983 M40.4739336,35.1342812 C39.4628752,34.5023697 39.178515,33.1437599 39.8104265,32.1327014 C39.8104265,32.1327014 39.8420221,32.1011058 39.8420221,32.1011058 C40.5371248,31.0900474 41.8957346,30.8056872 42.9383886,31.4691943 C43.9494471,32.1011058 44.2338073,33.4597156 43.6018957,34.4391785 C43.6018957,34.4391785 43.5703002,34.4707741 43.5703002,34.4707741 C42.8751975,35.5134281 41.5165877,35.7977883 40.4739336,35.1342812 M42.685624,20.221169 C41.5797788,20.7582938 40.2843602,20.3475513 39.7156398,19.2733017 C39.178515,18.1990521 39.5892575,16.9036335 40.6635071,16.3665087 C40.6635071,16.3665087 40.6951027,16.3665087 40.6951027,16.3349131 C41.8009479,15.7977883 43.1279621,16.2401264 43.6966825,17.314376 C44.2338073,18.3886256 43.8230648,19.6840442 42.7488152,20.221169 C42.685624,20.221169 42.685624,20.221169 42.685624,20.221169 M30.6477093,10.9320695 C30.5845182,12.164297 29.5734597,13.1121643 28.3412322,13.0805687 C27.1090047,13.0173776 26.1611374,12.0063191 26.192733,10.7740916 C26.2559242,9.54186414 27.2669826,8.59399684 28.4992101,8.62559242 C28.4992101,8.62559242 28.5308057,8.62559242 28.5308057,8.62559242 C29.7630332,8.65718799 30.7109005,9.69984202 30.6477093,10.9320695 M8.12006319,12.5750395 C8.81516588,13.0173776 9.03633491,13.9336493 8.59399684,14.6603476 C8.59399684,14.6603476 8.56240126,14.6919431 8.56240126,14.6919431 C8.08846761,15.3870458 7.10900474,15.6082148 6.41390205,15.1342812 C5.71879937,14.6919431 5.49763033,13.7756714 5.9399684,13.0489731 C5.9399684,13.0489731 5.97156398,13.0173776 5.97156398,13.0173776 C6.44549763,12.3222749 7.39336493,12.1011058 8.12006319,12.5750395 M6.63507109,36.492891 C7.39336493,36.1137441 8.34123223,36.3981043 8.72037915,37.1879937 C9.09952607,37.9462875 8.81516588,38.8625592 8.05687204,39.2417062 C8.05687204,39.2417062 8.02527646,39.2417062 8.02527646,39.2417062 C7.26698262,39.6208531 6.31911532,39.3364929 5.9399684,38.5781991 C5.56082148,37.8199052 5.84518167,36.9036335 6.63507109,36.492891 C6.60347551,36.5244866 6.60347551,36.492891 6.63507109,36.492891 M26.793049,49.7314376 C26.8246445,48.878357 27.5513428,48.2148499 28.4044234,48.2464455 C29.2575039,48.2780411 29.9210111,49.0047393 29.8894155,49.8578199 C29.8578199,50.7109005 29.1311216,51.3744076 28.2780411,51.342812 C28.2780411,51.342812 28.2464455,51.342812 28.2464455,51.342812 C27.3933649,51.3112164 26.7614534,50.5845182 26.793049,49.7314376 M48.7835703,39.0521327 C48.0884676,38.6097946 47.8672986,37.6935229 48.3096367,36.9668246 C48.3096367,36.9668246 48.3412322,36.9352291 48.3412322,36.9352291 C48.8151659,36.2401264 49.7946288,36.0189573 50.4897314,36.492891 C51.1848341,36.9352291 51.4060032,37.8515008 50.9636651,38.5781991 C50.9636651,38.6097946 50.9320695,38.6097946 50.9320695,38.6413902 C50.4581359,39.3364929 49.5102686,39.5260664 48.7835703,39.0521327 M50.2685624,15.1342812 C49.5102686,15.5134281 48.5624013,15.2290679 48.1832543,14.4391785 C47.8041074,13.6808847 48.0884676,12.764613 48.8467615,12.385466 C48.8467615,12.385466 48.878357,12.385466 48.878357,12.385466 C49.6366509,12.0063191 50.5845182,12.2906793 50.9636651,13.0489731 C51.342812,13.8388626 51.0584518,14.7551343 50.2685624,15.1342812 C50.300158,15.1342812 50.300158,15.1342812 50.2685624,15.1342812 M29.9526066,1.8957346 C29.8578199,2.74881517 29.0995261,3.3807267 28.2464455,3.28593997 C27.4249605,3.22274882 26.8246445,2.52764613 26.8246445,1.70616114 C26.9194313,0.853080569 27.6777251,0.221169036 28.5308057,0.315955766 C29.3522907,0.410742496 29.9526066,1.07424961 29.9526066,1.8957346" id="Shape_3_"></path>
                    </g>
                </g>
            </g>
        </g>
    </g>
</svg>