<?xml version="1.0" encoding="UTF-8"?>
<svg width="11px" height="10px" viewBox="0 0 11 10" version="1.1" xmlns="http://www.w3.org/2000/svg" xmlns:xlink="http://www.w3.org/1999/xlink">
    <!-- Generator: Sketch 50.2 (55047) - http://www.bohemiancoding.com/sketch -->
    <title>ion-checkmark - Ionicons</title>
    <desc>Created with Sketch.</desc>
    <defs></defs>
    <g id="Page-1" stroke="none" stroke-width="1" fill="none" fill-rule="evenodd">
        <g id="home-mobile" transform="translate(-192.000000, -197.000000)" fill="#FFFFFF">
            <g id="Group-5" transform="translate(26.000000, 189.000000)">
                <g id="Group-3" transform="translate(166.880000, 0.000000)">
                    <path d="M9.66,10.0333333 C9.69111127,10.0955559 9.70666667,10.1422221 9.70666667,10.1733333 C9.70666667,10.2044446 9.69111127,10.2511108 9.66,10.3133333 L3.85,17.78 C3.7566662,17.8733338 3.6866669,17.92 3.64,17.92 C3.56222183,17.92 3.48444483,17.8811115 3.40666667,17.8033333 L0.116666667,14.63 L0.0466666667,14.56 C0.0155554,14.4977775 0,14.4511113 0,14.42 C0,14.4044444 0.0155554,14.3655559 0.0466666667,14.3033333 L0.0933333333,14.2566667 C0.528891067,13.7899977 0.871109867,13.4322235 1.12,13.1833333 C1.2133338,13.0899995 1.2755554,13.0433333 1.30666667,13.0433333 C1.3688892,13.0433333 1.4466662,13.0899995 1.54,13.1833333 L3.40666667,15.0033333 L8.07333333,9.00666667 C8.1044446,8.9755554 8.1511108,8.96 8.21333333,8.96 C8.26000023,8.96 8.31444413,8.9755554 8.37666667,9.00666667 L9.66,10.0333333 Z" id="ion-checkmark---Ionicons"></path>
                </g>
            </g>
        </g>
    </g>
</svg>