<?xml version="1.0" encoding="UTF-8"?>
<svg width="12px" height="11px" viewBox="0 0 12 11" version="1.1" xmlns="http://www.w3.org/2000/svg" xmlns:xlink="http://www.w3.org/1999/xlink">
    <!-- Generator: Sketch 50.2 (55047) - http://www.bohemiancoding.com/sketch -->
    <title>ion-checkmark - Ionicons</title>
    <desc>Created with Sketch.</desc>
    <defs></defs>
    <g id="Page-1" stroke="none" stroke-width="1" fill="none" fill-rule="evenodd">
        <g id="Home@2x" transform="translate(-998.000000, -2298.000000)" fill="#17D1AA">
            <g id="Group-12" transform="translate(457.000000, 2136.000000)">
                <g id="Group-15" transform="translate(520.000000, 54.000000)">
                    <path d="M32.3203125,109.257812 C32.356771,109.33073 32.375,109.385416 32.375,109.421875 C32.375,109.458334 32.356771,109.51302 32.3203125,109.585938 L25.5117188,118.335938 C25.4023432,118.445313 25.3203128,118.5 25.265625,118.5 C25.1744787,118.5 25.0833338,118.454428 24.9921875,118.363281 L21.1367188,114.644531 L21.0546875,114.5625 C21.018229,114.489583 21,114.434896 21,114.398438 C21,114.380208 21.018229,114.334636 21.0546875,114.261719 L21.109375,114.207031 C21.6197942,113.660154 22.0208319,113.240887 22.3125,112.949219 C22.4218755,112.839843 22.4947915,112.785156 22.53125,112.785156 C22.604167,112.785156 22.695312,112.839843 22.8046875,112.949219 L24.9921875,115.082031 L30.4609375,108.054688 C30.497396,108.018229 30.552083,108 30.625,108 C30.6796878,108 30.7434892,108.018229 30.8164062,108.054688 L32.3203125,109.257812 Z" id="ion-checkmark---Ionicons"></path>
                </g>
            </g>
        </g>
    </g>
</svg>