<?xml version="1.0" encoding="UTF-8"?>
<svg width="26px" height="26px" viewBox="0 0 26 26" version="1.1" xmlns="http://www.w3.org/2000/svg" xmlns:xlink="http://www.w3.org/1999/xlink">
    <!-- Generator: Sketch 50.2 (55047) - http://www.bohemiancoding.com/sketch -->
    <title>chrome</title>
    <desc>Created with Sketch.</desc>
    <defs></defs>
    <g id="Symbols" stroke="none" stroke-width="1" fill="none" fill-rule="evenodd">
        <g id="footer" transform="translate(-1280.000000, -54.000000)" fill="#FFFFFF" fill-rule="nonzero">
            <g id="Group-13" transform="translate(1268.000000, 42.000000)">
                <g id="chrome" transform="translate(12.000000, 12.000000)">
                    <path d="M6.55785265,11.3387999 L2.83730632,4.89414274 C5.21940863,1.91144282 8.88622829,0 13.0000254,0 C17.7591011,0 21.9199725,2.55793485 24.18543,6.37350746 L13.5779679,6.37350746 C13.3874363,6.35700236 13.1947719,6.348115 13.0000254,6.348115 C9.90556232,6.348115 7.29783847,8.47204192 6.55785265,11.3387999 Z M17.6542376,8.2525495 L25.105385,8.2525495 C25.6828197,9.72353471 26,11.3251387 26,13.0009395 C26,20.1318025 20.2591177,25.9207247 13.1475452,26 L18.4642001,16.7907134 C19.2128188,15.7146317 19.6523821,14.4081897 19.6523821,13.0009395 C19.6523821,11.1429732 18.8864978,9.46072275 17.6542376,8.2525495 Z M8.27735992,13.0009395 C8.27735992,10.3966888 10.3959578,8.27794196 13.0000254,8.27794196 C15.6040422,8.27794196 17.7226909,10.3966888 17.7226909,13.0009395 C17.7226909,15.6051394 15.6040422,17.7239371 13.0000254,17.7239371 C10.3959578,17.7239371 8.27735992,15.6051394 8.27735992,13.0009395 Z M14.7819937,19.4110121 L11.0602794,25.8575991 C4.80066563,24.9210236 0,19.5218248 0,13.0009395 C0,10.6846901 0.606430872,8.51038454 1.66806576,6.62682264 L6.97547847,15.8202644 C8.03853523,18.0829865 10.3391335,19.6537133 13.0000254,19.6537133 C13.6170188,19.653764 14.2146137,19.5689532 14.7819937,19.4110121 Z" id="Shape"></path>
                </g>
            </g>
        </g>
    </g>
</svg>