<?xml version="1.0" encoding="UTF-8"?>
<svg width="208px" height="56px" viewBox="0 0 208 56" version="1.1" xmlns="http://www.w3.org/2000/svg" xmlns:xlink="http://www.w3.org/1999/xlink">
    <!-- Generator: Sketch 52.6 (67491) - http://www.bohemiancoding.com/sketch -->
    <title>emurgo-hover</title>
    <desc>Created with Sketch.</desc>
    <defs>
        <path d="M4.72591171,8.95820849 C2.1915547,8.95857915 0.136852207,6.97519691 0.13646833,4.52812355 C0.136084453,2.08105019 2.19021113,0.0971119691 4.72456814,0.0967413127 C7.25892514,0.0963706564 9.31362764,2.0797529 9.31401152,4.52682625 C9.31439539,6.97371429 7.26026871,8.95783784 4.72591171,8.95820849" id="path-1"></path>
        <linearGradient x1="-295.737948%" y1="395.737739%" x2="91.696957%" y2="8.30283384%" id="linearGradient-3">
            <stop stop-color="#FACC69" offset="0%"></stop>
            <stop stop-color="#DA2950" offset="100%"></stop>
        </linearGradient>
        <path d="M4.30479846,8.24691892 C1.98234165,8.24728958 0.0992322457,6.42977606 0.0990403071,4.18711969 C0.0986564299,1.94483398 1.98119002,0.126393822 4.30364683,0.126208494 C6.62610365,0.125837838 8.50921305,1.94353668 8.50959693,4.18600772 C8.50998081,6.42847876 6.62744722,8.24673359 4.30479846,8.24691892" id="path-4"></path>
        <linearGradient x1="-311.797389%" y1="411.805646%" x2="110.968985%" y2="-10.9703766%" id="linearGradient-6">
            <stop stop-color="#FACC69" offset="0%"></stop>
            <stop stop-color="#DA2950" offset="100%"></stop>
        </linearGradient>
        <path d="M3.92072937,7.40311969 C1.80998081,7.40349035 0.0988483685,5.7514749 0.0984644914,3.71360618 C0.0982725528,1.67555212 1.80902111,0.0231660232 3.91976967,0.022980695 C6.0303263,0.0226100386 7.74165067,1.67462548 7.74184261,3.71249421 C7.74222649,5.75054826 6.03147793,7.40274903 3.92072937,7.40311969" id="path-7"></path>
        <linearGradient x1="-262.917983%" y1="362.917478%" x2="202.282154%" y2="-102.282655%" id="linearGradient-9">
            <stop stop-color="#FACC69" offset="0%"></stop>
            <stop stop-color="#DA2950" offset="100%"></stop>
        </linearGradient>
        <path d="M3.57389635,6.69164479 C1.67504798,6.69183012 0.135508637,5.2056834 0.13512476,3.37241699 C0.134932821,1.53877992 1.67389635,0.0524478764 3.57293666,0.0520772201 C5.47178503,0.0518918919 7.01132438,1.53785328 7.01151631,3.37130502 C7.01190019,5.20475676 5.47255278,6.69127413 3.57389635,6.69164479" id="path-10"></path>
        <linearGradient x1="-169.648019%" y1="269.647742%" x2="347.440124%" y2="-247.440406%" id="linearGradient-12">
            <stop stop-color="#FACC69" offset="0%"></stop>
            <stop stop-color="#DA2950" offset="100%"></stop>
        </linearGradient>
        <path d="M2.93329218,5.91938224 C1.37140535,5.78875436 0.145863068,4.52339989 0.145681382,2.98155985 C0.145489443,1.3525251 1.51285988,0.0318764479 3.19980806,0.0316911197 C4.88675624,0.0315057915 6.25451056,1.35178378 6.25489443,2.9806332 C6.25507616,4.52298638 5.02936052,5.78873287 3.46718487,5.91938224 L2.93329218,5.91938224 Z" id="path-13"></path>
        <linearGradient x1="7.54022911%" y1="107.833224%" x2="25.3288042%" y2="36.1162944%" id="linearGradient-15">
            <stop stop-color="#FACC69" offset="0%"></stop>
            <stop stop-color="#DA2950" offset="100%"></stop>
        </linearGradient>
        <path d="M2.82763916,5.21050193 C1.35239923,5.21068726 0.156429942,4.05609266 0.156046065,2.63184556 C0.155854127,1.20741313 1.35163148,0.0526332046 2.82667946,0.0524478764 C4.30191939,0.0522625483 5.49788868,1.20667181 5.49808061,2.63110425 C5.49846449,4.05535135 4.30268714,5.2103166 2.82763916,5.21050193" id="path-16"></path>
        <linearGradient x1="-0.996694435%" y1="100.99885%" x2="664.611227%" y2="-564.609083%" id="linearGradient-18">
            <stop stop-color="#FACC69" offset="0%"></stop>
            <stop stop-color="#DA2950" offset="100%"></stop>
        </linearGradient>
        <path d="M0.0115163148,2.45476176 L0.0115163148,2.00873637 C0.127300702,0.893775436 1.10188272,0.0231545687 2.28714012,0.022980695 C3.55047985,0.022980695 4.57466411,1.01152124 4.57485605,2.23153668 C4.57504798,3.4513668 3.55105566,4.44027799 2.28771593,4.44046332 C1.10239662,4.44063723 0.127331684,3.57000861 0.0115163148,2.45476176 Z" id="path-19"></path>
        <linearGradient x1="-0.874794749%" y1="73.3150091%" x2="16.9137804%" y2="1.59807983%" id="linearGradient-21">
            <stop stop-color="#FACC69" offset="0%"></stop>
            <stop stop-color="#DA2950" offset="100%"></stop>
        </linearGradient>
        <path d="M2.09462572,3.80237838 C1.04299424,3.80256371 0.19059501,2.97970656 0.190403071,1.96447876 C0.190211132,0.949250965 1.04241843,0.126023166 2.0940499,0.125837838 C3.14548944,0.12565251 3.99808061,0.948694981 3.99808061,1.96392278 C3.99827255,2.97915058 3.14606526,3.80237838 2.09462572,3.80237838" id="path-22"></path>
        <linearGradient x1="-226.686153%" y1="326.691194%" x2="707.137805%" y2="-607.132764%" id="linearGradient-24">
            <stop stop-color="#FACC69" offset="0%"></stop>
            <stop stop-color="#DA2950" offset="100%"></stop>
        </linearGradient>
        <path d="M1.67255278,3.0312278 C0.833013436,3.0312278 0.152207294,2.37423938 0.152015355,1.56342857 C0.151823417,0.752617761 0.83243762,0.0954440154 1.67216891,0.0952586873 C2.51170825,0.0950733591 3.1925144,0.752247104 3.19270633,1.56305792 C3.19289827,2.3736834 2.51228407,3.03104247 1.67255278,3.0312278" id="path-25"></path>
        <linearGradient x1="-586.333779%" y1="686.333788%" x2="583.038744%" y2="-483.03875%" id="linearGradient-27">
            <stop stop-color="#FACC69" offset="0%"></stop>
            <stop stop-color="#DA2950" offset="100%"></stop>
        </linearGradient>
        <path d="M5.12111324,9.71916602 C2.37485605,9.71953668 0.148368522,7.57010039 0.147984645,4.91842471 C0.147600768,2.26693436 2.37351248,0.117127413 5.11957774,0.116756757 C7.86583493,0.1163861 10.0923225,2.26563707 10.0927063,4.91731274 C10.0930902,7.56880309 7.86737044,9.71861004 5.12111324,9.71916602" id="path-28"></path>
        <linearGradient x1="-226.816375%" y1="326.809874%" x2="130.73014%" y2="-30.7297396%" id="linearGradient-30">
            <stop stop-color="#FACC69" offset="0%"></stop>
            <stop stop-color="#DA2950" offset="100%"></stop>
        </linearGradient>
        <path d="M2.69923225,4.97309653 C1.29462572,4.97328185 0.156046065,3.87428571 0.155854127,2.51805405 C0.155662188,1.16200772 1.2940499,0.0624555985 2.69846449,0.0622702703 C4.10287908,0.0620849421 5.24165067,1.16126641 5.24184261,2.51731274 C5.24203455,3.8735444 4.10364683,4.9729112 2.69923225,4.97309653" id="path-31"></path>
        <linearGradient x1="-431.252925%" y1="531.255189%" x2="267.86399%" y2="-167.861725%" id="linearGradient-33">
            <stop stop-color="#FACC69" offset="0%"></stop>
            <stop stop-color="#DA2950" offset="100%"></stop>
        </linearGradient>
        <path d="M2.41247601,4.66804633 C1.12533589,4.66823166 0.0817658349,3.66078764 0.0815738964,2.41797683 C0.0813819578,1.17535135 1.12476008,0.167722008 2.41170825,0.16753668 C3.69884837,0.167351351 4.74241843,1.17461004 4.74261036,2.41742085 C4.7428023,3.66004633 3.69942418,4.667861 2.41247601,4.66804633" id="path-34"></path>
        <linearGradient x1="-459.66027%" y1="559.660682%" x2="303.195931%" y2="-203.19552%" id="linearGradient-36">
            <stop stop-color="#FACC69" offset="0%"></stop>
            <stop stop-color="#DA2950" offset="100%"></stop>
        </linearGradient>
        <path d="M2.22034549,4.26440154 C1.05067179,4.26458687 0.102303263,3.34925097 0.102111324,2.219861 C0.101919386,1.09047104 1.04990403,0.174764479 2.21976967,0.174579151 C3.38944338,0.174393822 4.3378119,1.08972973 4.33800384,2.21930502 C4.33819578,3.34869498 3.39001919,4.26421622 2.22034549,4.26440154" id="path-37"></path>
        <linearGradient x1="-425.623266%" y1="525.643459%" x2="413.798536%" y2="-313.816381%" id="linearGradient-39">
            <stop stop-color="#FACC69" offset="0%"></stop>
            <stop stop-color="#DA2950" offset="100%"></stop>
        </linearGradient>
        <path d="M1.93128599,3.77383784 C0.878886756,3.77402317 0.0257197697,2.95023938 0.0257197697,1.93427027 C0.0255278311,0.918301158 0.87831094,0.0945173745 1.93071017,0.0943320463 C2.98291747,0.0941467181 3.83608445,0.917745174 3.83627639,1.93371429 C3.83646833,2.9496834 2.98349328,3.77365251 1.93128599,3.77383784" id="path-40"></path>
        <linearGradient x1="-350.533414%" y1="450.513744%" x2="582.584991%" y2="-482.557662%" id="linearGradient-42">
            <stop stop-color="#FACC69" offset="0%"></stop>
            <stop stop-color="#DA2950" offset="100%"></stop>
        </linearGradient>
        <path d="M1.84740883,3.30495753 C0.912667946,3.30495753 0.154510557,2.57346718 0.154318618,1.67073359 C0.154318618,0.768 0.912092131,0.0361389961 1.84702495,0.0361389961 C2.78176583,0.035953668 3.53992322,0.767629344 3.53992322,1.67017761 C3.54011516,2.5729112 2.78234165,3.3047722 1.84740883,3.30495753" id="path-43"></path>
        <linearGradient x1="-266.955607%" y1="366.974711%" x2="783.285325%" y2="-683.325765%" id="linearGradient-45">
            <stop stop-color="#FACC69" offset="0%"></stop>
            <stop stop-color="#DA2950" offset="100%"></stop>
        </linearGradient>
        <path d="M1.57178503,2.99323552 C0.754318618,2.99323552 0.0913627639,2.35348263 0.0913627639,1.56416988 C0.0911708253,0.774857143 0.753742802,0.134733591 1.57140115,0.134733591 C2.38886756,0.134548263 3.05163148,0.774301158 3.05182342,1.56379923 C3.05182342,2.35311197 2.38925144,2.99305019 1.57178503,2.99323552" id="path-46"></path>
        <linearGradient x1="-233.810291%" y1="333.804457%" x2="967.25297%" y2="-867.258804%" id="linearGradient-48">
            <stop stop-color="#FACC69" offset="0%"></stop>
            <stop stop-color="#DA2950" offset="100%"></stop>
        </linearGradient>
        <path d="M1.28214971,2.5176834 C0.582149712,2.5176834 0.0143953935,1.96985328 0.0143953935,1.29396139 C0.0142034549,0.61788417 0.581765835,0.0696833977 1.28176583,0.0696833977 C1.98195777,0.0694980695 2.54952015,0.617513514 2.54971209,1.29359073 C2.54971209,1.96948263 1.98214971,2.51749807 1.28214971,2.5176834" id="path-49"></path>
        <linearGradient x1="-309.823597%" y1="409.819057%" x2="1092.64439%" y2="-992.64893%" id="linearGradient-51">
            <stop stop-color="#FACC69" offset="0%"></stop>
            <stop stop-color="#DA2950" offset="100%"></stop>
        </linearGradient>
        <path d="M1.08963532,2.13998456 C0.50671785,2.13998456 0.0343570058,1.68407722 0.0343570058,1.12142085 C0.0341650672,0.558764479 0.506525912,0.102671815 1.08925144,0.102486486 C1.67197697,0.102486486 2.14433781,0.558393822 2.14452975,1.12105019 C2.14452975,1.68370656 1.67216891,2.13998456 1.08963532,2.13998456" id="path-52"></path>
        <linearGradient x1="-553.30815%" y1="653.301801%" x2="1131.72%" y2="-1031.7264%" id="linearGradient-54">
            <stop stop-color="#FACC69" offset="0%"></stop>
            <stop stop-color="#DA2950" offset="100%"></stop>
        </linearGradient>
        <path d="M0.994241843,1.66387645 C0.528790787,1.66387645 0.151439539,1.29970656 0.151439539,0.850471042 C0.151439539,0.401050193 0.528598848,0.0368803089 0.993857965,0.0368803089 C1.45911708,0.0368803089 1.83646833,0.401050193 1.83646833,0.850100386 C1.83666027,1.29952124 1.45950096,1.66387645 0.994241843,1.66387645" id="path-55"></path>
        <linearGradient x1="-995.383258%" y1="1095.38672%" x2="1114.78865%" y2="-1014.78528%" id="linearGradient-57">
            <stop stop-color="#FACC69" offset="0%"></stop>
            <stop stop-color="#DA2950" offset="100%"></stop>
        </linearGradient>
        <path d="M2.80767754,5.44197683 C1.28579655,5.44216216 0.0520153551,4.25105792 0.0516314779,2.78159073 C0.0514395393,1.31212355 1.28502879,0.120648649 2.80690979,0.12046332 C4.32879079,0.120277992 5.56276392,1.31138224 5.56295585,2.78066409 C5.56314779,4.2503166 4.32955854,5.44160618 2.80767754,5.44197683" id="path-58"></path>
        <linearGradient x1="-351.863551%" y1="451.863203%" x2="293.299088%" y2="-193.299436%" id="linearGradient-60">
            <stop stop-color="#FACC69" offset="0%"></stop>
            <stop stop-color="#DA2950" offset="100%"></stop>
        </linearGradient>
        <path d="M1.14683301,2.3605251 C0.513627639,2.3605251 0.00019193858,1.86495753 0.00019193858,1.25355985 C0,0.642162162 0.513243762,0.146594595 1.14644914,0.146594595 C1.77965451,0.146409266 2.29309021,0.641791506 2.29309021,1.25318919 C2.29328215,1.8647722 1.78003839,2.36033977 1.14683301,2.3605251" id="path-61"></path>
        <linearGradient x1="-819.927131%" y1="919.922968%" x2="730.817815%" y2="-630.822015%" id="linearGradient-63">
            <stop stop-color="#FACC69" offset="0%"></stop>
            <stop stop-color="#DA2950" offset="100%"></stop>
        </linearGradient>
        <path d="M1.08829175,2.13498069 C0.50806142,2.13498069 0.0376199616,1.68092664 0.0376199616,1.12049421 C0.037428023,0.560247104 0.507869482,0.106007722 1.08809981,0.106007722 C1.66833013,0.105822394 2.13877159,0.560061776 2.13896353,1.12012355 C2.13896353,1.68055598 1.66871401,2.13479537 1.08829175,2.13498069" id="path-64"></path>
        <linearGradient x1="-883.760477%" y1="983.750432%" x2="808.347624%" y2="-708.357668%" id="linearGradient-66">
            <stop stop-color="#FACC69" offset="0%"></stop>
            <stop stop-color="#DA2950" offset="100%"></stop>
        </linearGradient>
        <path d="M1.08829175,1.87570656 C0.561036468,1.87589189 0.133397313,1.46298069 0.133397313,0.95388417 C0.133205374,0.444602317 0.560652591,0.0316911197 1.08809981,0.0316911197 C1.61535509,0.0316911197 2.04299424,0.444416988 2.04299424,0.953513514 C2.04299424,1.46279537 1.61573896,1.87570656 1.08829175,1.87570656" id="path-67"></path>
        <linearGradient x1="-892.322813%" y1="992.231122%" x2="969.693407%" y2="-869.597961%" id="linearGradient-69">
            <stop stop-color="#FACC69" offset="0%"></stop>
            <stop stop-color="#DA2950" offset="100%"></stop>
        </linearGradient>
        <path d="M0.954702495,1.83530502 C0.480422265,1.83549035 0.0955854127,1.46409266 0.0955854127,1.00596139 C0.0955854127,0.548015444 0.480038388,0.176617761 0.954510557,0.176617761 C1.42898273,0.176432432 1.81362764,0.547830116 1.81362764,1.00577606 C1.81362764,1.46390734 1.42917466,1.83530502 0.954702495,1.83530502" id="path-70"></path>
        <linearGradient x1="-869.213496%" y1="969.318359%" x2="1200.41001%" y2="-1100.53622%" id="linearGradient-72">
            <stop stop-color="#FACC69" offset="0%"></stop>
            <stop stop-color="#DA2950" offset="100%"></stop>
        </linearGradient>
        <path d="M0.767370441,1.59827027 C0.345873321,1.59827027 0.00422264875,1.2683861 0.00403071017,0.861405405 C0.00403071017,0.45442471 0.345681382,0.124355212 0.767178503,0.124355212 C1.18867562,0.124355212 1.5303263,0.454239382 1.5303263,0.861220077 C1.53051823,1.26820077 1.18886756,1.59827027 0.767370441,1.59827027" id="path-73"></path>
        <linearGradient x1="-850.833707%" y1="950.722998%" x2="1478.79394%" y2="-1378.61184%" id="linearGradient-75">
            <stop stop-color="#FACC69" offset="0%"></stop>
            <stop stop-color="#DA2950" offset="100%"></stop>
        </linearGradient>
        <path d="M0.771976967,1.46520463 C0.403262956,1.46520463 0.104606526,1.17683398 0.104414587,0.820818533 C0.104414587,0.464988417 0.403071017,0.176617761 0.771785029,0.176617761 C1.1403071,0.176432432 1.43915547,0.464803089 1.43915547,0.820633205 C1.43915547,1.17664865 1.14049904,1.46520463 0.771976967,1.46520463" id="path-76"></path>
        <linearGradient x1="-901.45384%" y1="1001.58199%" x2="1762.50935%" y2="-1662.76415%" id="linearGradient-78">
            <stop stop-color="#FACC69" offset="0%"></stop>
            <stop stop-color="#DA2950" offset="100%"></stop>
        </linearGradient>
        <path d="M0.638195777,1.13513514 C0.322456814,1.13513514 0.0666026871,0.888277992 0.0666026871,0.583598456 C0.0666026871,0.278733591 0.322456814,0.0315057915 0.638003839,0.0315057915 C0.953742802,0.0315057915 1.20959693,0.278548263 1.20959693,0.583413127 C1.20959693,0.888092664 0.953742802,1.13513514 0.638195777,1.13513514" id="path-79"></path>
        <linearGradient x1="-1089.4979%" y1="1189.50462%" x2="2021.36692%" y2="-1921.3602%" id="linearGradient-81">
            <stop stop-color="#FACC69" offset="0%"></stop>
            <stop stop-color="#DA2950" offset="100%"></stop>
        </linearGradient>
        <path d="M0.6378119,1.02412355 C0.375047985,1.02412355 0.1621881,0.818409266 0.1621881,0.564880309 C0.161996161,0.311166023 0.374856046,0.105637066 0.6378119,0.105451737 C0.900383877,0.105451737 1.1134357,0.310980695 1.1134357,0.564694981 C1.1134357,0.818409266 0.900575816,1.02412355 0.6378119,1.02412355" id="path-82"></path>
        <linearGradient x1="-1490.19954%" y1="1589.89308%" x2="2247.73377%" y2="-2147.28667%" id="linearGradient-84">
            <stop stop-color="#FACC69" offset="0%"></stop>
            <stop stop-color="#DA2950" offset="100%"></stop>
        </linearGradient>
        <path d="M0.387140115,0.879196911 C0.177543186,0.879196911 0.00729366603,0.714996139 0.00729366603,0.512432432 C0.00729366603,0.309868726 0.177351248,0.145667954 0.387140115,0.145667954 C0.596928983,0.145667954 0.766986564,0.309683398 0.766986564,0.512247104 C0.766986564,0.714996139 0.597120921,0.879196911 0.387140115,0.879196911" id="path-85"></path>
        <linearGradient x1="-2168.40323%" y1="2268.39313%" x2="2512.04144%" y2="-2412.05154%" id="linearGradient-87">
            <stop stop-color="#FACC69" offset="0%"></stop>
            <stop stop-color="#DA2950" offset="100%"></stop>
        </linearGradient>
        <path d="M1.34337812,2.41223166 C0.657389635,2.41223166 0.100959693,1.87533591 0.100959693,1.21278764 C0.100767754,0.550239382 0.657005758,0.0133436293 1.34299424,0.0131583012 C2.02917466,0.012972973 2.58541267,0.549868726 2.58560461,1.21241699 C2.58560461,1.87496525 2.02955854,2.41204633 1.34337812,2.41223166" id="path-88"></path>
        <linearGradient x1="-710.543051%" y1="810.536873%" x2="720.526832%" y2="-620.53301%" id="linearGradient-90">
            <stop stop-color="#FACC69" offset="0%"></stop>
            <stop stop-color="#DA2950" offset="100%"></stop>
        </linearGradient>
    </defs>
    <g id="emurgo-hover" stroke="none" stroke-width="1" fill="none" fill-rule="evenodd">
        <g id="Emurgo_Logo_RGB" transform="translate(4.000000, 4.000000)">
            <path d="M61.4740883,30.3352587 L61.4740883,26.7469344 L70.5036468,26.7469344 L70.5036468,22.5976216 L61.4740883,22.5976216 L61.4740883,19.2895135 L71.7232246,19.2895135 L71.7232246,15.000278 L55.7833013,15.000278 L55.7833013,34.6246795 L72.1007678,34.6246795 L72.1007678,30.3352587 L61.4740883,30.3352587 Z M100.717083,34.6246795 L100.717083,15.000278 L95.984261,15.000278 L89.0161228,26.3262394 L81.8735125,15.000278 L77.1408829,15.000278 L77.1408829,34.6246795 L82.4543186,34.6246795 L82.4543186,24.5040927 L87.6514395,32.6900386 L90.206334,32.6900386 L95.4326296,24.2236911 L95.4326296,34.6246795 L100.717083,34.6246795 Z M115.89904,35.0170193 C118.918618,35.0170193 121.265451,34.222888 122.939923,32.6340695 C124.614012,31.0456216 125.45144,28.7935135 125.45144,25.8775598 L125.45144,15.000278 L119.789635,15.000278 L119.789635,25.7096525 C119.789635,28.8492973 118.512092,30.4193977 115.957198,30.4193977 C113.382534,30.4193977 112.095585,28.8492973 112.095585,25.7096525 L112.095585,15.000278 L106.346641,15.000278 L106.346641,25.8775598 C106.346641,28.7935135 107.183685,31.0456216 108.858157,32.6340695 C110.532054,34.222888 112.879463,35.0170193 115.89904,35.0170193 Z M143.650096,34.6246795 L149.805566,34.6246795 L145.421113,28.4567722 C146.698848,27.8589035 147.680998,27.0319691 148.36833,25.9757838 C149.055278,24.9201544 149.39904,23.6819768 149.39904,22.2614363 C149.39904,20.785112 149.031094,19.499861 148.295585,18.4064247 C147.559885,17.3131737 146.514587,16.4721544 145.159885,15.8833668 C143.804798,15.2947645 142.208061,15.000278 140.369098,15.000278 L131.078119,15.000278 L131.078119,34.6246795 L136.827063,34.6246795 L136.827063,29.4101004 L139.962764,29.4101004 L143.650096,34.6246795 Z M143.592131,22.2614363 C143.592131,23.1771429 143.291747,23.8830579 142.691939,24.3778842 C142.091747,24.8730811 141.201152,25.1206795 140.020921,25.1206795 L136.827063,25.1206795 L136.827063,19.3738378 L140.020921,19.3738378 C141.201152,19.3738378 142.091747,19.6258842 142.691939,20.1307181 C143.291747,20.6351815 143.592131,21.3457297 143.592131,22.2614363 Z M167.98714,29.7746409 C167.019194,30.2046023 165.983877,30.4193977 164.880422,30.4193977 C163.757582,30.4193977 162.760845,30.1808803 161.889827,29.7044015 C161.01881,29.2277375 160.341267,28.5646332 159.85739,27.7141622 C159.373512,26.8638764 159.13167,25.8964633 159.13167,24.8122934 C159.13167,23.111722 159.663724,21.7523398 160.728407,20.7334054 C161.792898,19.7148417 163.196545,19.2053745 164.93858,19.2053745 C166.854702,19.2053745 168.5,19.9344556 169.874664,21.3920618 L173.53263,18.1962625 C172.526104,17.0375907 171.267946,16.1496834 169.758349,15.5330965 C168.24856,14.916139 166.544914,14.6079382 164.648177,14.6079382 C162.480038,14.6079382 160.534741,15.0421622 158.812284,15.9115367 C157.089251,16.7803552 155.744146,17.9909189 154.776392,19.5419305 C153.808445,21.0934981 153.32476,22.8498533 153.32476,24.8122934 C153.32476,26.7747336 153.808445,28.5318301 154.776392,30.0828417 C155.744146,31.6344093 157.079655,32.8442317 158.783109,33.7134208 C160.486372,34.5824247 162.402687,35.0170193 164.532246,35.0170193 C166.041843,35.0170193 167.551631,34.8020386 169.06142,34.3720772 C170.571401,33.9424865 171.90691,33.3257143 173.06833,32.5219459 L173.06833,24.3917838 L167.98714,24.3917838 L167.98714,29.7746409 Z M188.604798,35.0170193 C190.753167,35.0170193 192.683301,34.5781622 194.397313,33.6993359 C196.109405,32.8210656 197.454894,31.6062394 198.431862,30.0548571 C199.410749,28.5036602 199.898273,26.7563861 199.898273,24.8122934 C199.898273,22.8687568 199.410749,21.1214826 198.431862,19.5699151 C197.454894,18.0189035 196.109405,16.8040772 194.397313,15.9254363 C192.683301,15.047166 190.753167,14.6079382 188.604798,14.6079382 C186.455854,14.6079382 184.525144,15.047166 182.812284,15.9254363 C181.099232,16.8040772 179.753551,18.0189035 178.776583,19.5699151 C177.798848,21.1214826 177.310173,22.8687568 177.310173,24.8122934 C177.310173,26.7563861 177.798848,28.5036602 178.776583,30.0548571 C179.753551,31.6062394 181.099232,32.8210656 182.812284,33.6993359 C184.525144,34.5781622 186.455854,35.0170193 188.604798,35.0170193 Z M188.604798,30.4193977 C187.578311,30.4193977 186.649328,30.1856988 185.817274,29.7183012 C184.984645,29.2514595 184.326679,28.5928031 183.842802,27.7419614 C183.359117,26.891861 183.117083,25.9151815 183.117083,24.8122934 C183.117083,23.7097761 183.359117,22.7334672 183.842802,21.8829961 C184.326679,21.0325251 184.984645,20.3736834 185.817274,19.9062857 C186.649328,19.439444 187.578311,19.2053745 188.604798,19.2053745 C189.630134,19.2053745 190.559501,19.439444 191.391939,19.9062857 C192.224568,20.3736834 192.882917,21.0325251 193.366603,21.8829961 C193.850288,22.7334672 194.092131,23.7097761 194.092131,24.8122934 C194.092131,25.9151815 193.850288,26.891861 193.366603,27.7419614 C192.882917,28.5928031 192.224568,29.2514595 191.391939,29.7183012 C190.559501,30.1856988 189.630134,30.4193977 188.604798,30.4193977 Z" id="Fill-1" fill="#082027"></path>
            <g id="Group-4" transform="translate(29.558541, 4.262548)">
                <mask id="mask-2" fill="white">
                    <use xlink:href="#path-1"></use>
                </mask>
                <g id="Clip-3"></g>
                <path d="M4.72591171,8.95820849 C2.1915547,8.95857915 0.136852207,6.97519691 0.13646833,4.52812355 C0.136084453,2.08105019 2.19021113,0.0971119691 4.72456814,0.0967413127 C7.25892514,0.0963706564 9.31362764,2.0797529 9.31401152,4.52682625 C9.31439539,6.97371429 7.26026871,8.95783784 4.72591171,8.95820849" id="Fill-2" fill="url(#linearGradient-3)" mask="url(#mask-2)"></path>
            </g>
            <g id="Group-7" transform="translate(37.428023, 14.455598)">
                <mask id="mask-5" fill="white">
                    <use xlink:href="#path-4"></use>
                </mask>
                <g id="Clip-6"></g>
                <path d="M4.30479846,8.24691892 C1.98234165,8.24728958 0.0992322457,6.42977606 0.0990403071,4.18711969 C0.0986564299,1.94483398 1.98119002,0.126393822 4.30364683,0.126208494 C6.62610365,0.125837838 8.50921305,1.94353668 8.50959693,4.18600772 C8.50998081,6.42847876 6.62744722,8.24673359 4.30479846,8.24691892" id="Fill-5" fill="url(#linearGradient-6)" mask="url(#mask-5)"></path>
            </g>
            <g id="Group-10" transform="translate(37.811900, 27.613900)">
                <mask id="mask-8" fill="white">
                    <use xlink:href="#path-7"></use>
                </mask>
                <g id="Clip-9"></g>
                <path d="M3.92072937,7.40311969 C1.80998081,7.40349035 0.0988483685,5.7514749 0.0984644914,3.71360618 C0.0982725528,1.67555212 1.80902111,0.0231660232 3.91976967,0.022980695 C6.0303263,0.0226100386 7.74165067,1.67462548 7.74184261,3.71249421 C7.74222649,5.75054826 6.03147793,7.40274903 3.92072937,7.40311969" id="Fill-8" fill="url(#linearGradient-9)" mask="url(#mask-8)"></path>
            </g>
            <g id="Group-13" transform="translate(30.710173, 37.806950)">
                <mask id="mask-11" fill="white">
                    <use xlink:href="#path-10"></use>
                </mask>
                <g id="Clip-12"></g>
                <path d="M3.57389635,6.69164479 C1.67504798,6.69183012 0.135508637,5.2056834 0.13512476,3.37241699 C0.134932821,1.53877992 1.67389635,0.0524478764 3.57293666,0.0520772201 C5.47178503,0.0518918919 7.01132438,1.53785328 7.01151631,3.37130502 C7.01190019,5.20475676 5.47255278,6.69127413 3.57389635,6.69164479" id="Fill-11" fill="url(#linearGradient-12)" mask="url(#mask-11)"></path>
            </g>
            <g id="Group-16" transform="translate(18.809981, 42.069498)">
                <mask id="mask-14" fill="white">
                    <use xlink:href="#path-13"></use>
                </mask>
                <g id="Clip-15"></g>
                <polygon id="Fill-14" fill="url(#linearGradient-15)" mask="url(#mask-14)" points="-18.7984645 5.91938224 181.088292 5.91938224 181.088292 -41.9527413 -18.7984645 -41.9527413"></polygon>
            </g>
            <g id="Group-19" transform="translate(6.909789, 38.548263)">
                <mask id="mask-17" fill="white">
                    <use xlink:href="#path-16"></use>
                </mask>
                <g id="Clip-18"></g>
                <path d="M2.82763916,5.21050193 C1.35239923,5.21068726 0.156429942,4.05609266 0.156046065,2.63184556 C0.155854127,1.20741313 1.35163148,0.0526332046 2.82667946,0.0524478764 C4.30191939,0.0522625483 5.49788868,1.20667181 5.49808061,2.63110425 C5.49846449,4.05535135 4.30268714,5.2103166 2.82763916,5.21050193" id="Fill-17" fill="url(#linearGradient-18)" mask="url(#mask-17)"></path>
            </g>
            <g id="Group-22" transform="translate(0.000000, 29.096525)">
                <mask id="mask-20" fill="white">
                    <use xlink:href="#path-19"></use>
                </mask>
                <g id="Clip-21"></g>
                <polygon id="Fill-20" fill="url(#linearGradient-21)" mask="url(#mask-20)" points="0.0115163148 18.8923552 199.898273 18.8923552 199.898273 -28.9797683 0.0115163148 -28.9797683"></polygon>
            </g>
            <g id="Group-25" transform="translate(0.191939, 16.679537)">
                <mask id="mask-23" fill="white">
                    <use xlink:href="#path-22"></use>
                </mask>
                <g id="Clip-24"></g>
                <path d="M2.09462572,3.80237838 C1.04299424,3.80256371 0.19059501,2.97970656 0.190403071,1.96447876 C0.190211132,0.949250965 1.04241843,0.126023166 2.0940499,0.125837838 C3.14548944,0.12565251 3.99808061,0.948694981 3.99808061,1.96392278 C3.99827255,2.97915058 3.14606526,3.80237838 2.09462572,3.80237838" id="Fill-23" fill="url(#linearGradient-24)" mask="url(#mask-23)"></path>
            </g>
            <g id="Group-28" transform="translate(8.061420, 7.227799)">
                <mask id="mask-26" fill="white">
                    <use xlink:href="#path-25"></use>
                </mask>
                <g id="Clip-27"></g>
                <path d="M1.67255278,3.0312278 C0.833013436,3.0312278 0.152207294,2.37423938 0.152015355,1.56342857 C0.151823417,0.752617761 0.83243762,0.0954440154 1.67216891,0.0952586873 C2.51170825,0.0950733591 3.1925144,0.752247104 3.19270633,1.56305792 C3.19289827,2.3736834 2.51228407,3.03104247 1.67255278,3.0312278" id="Fill-26" fill="url(#linearGradient-27)" mask="url(#mask-26)"></path>
            </g>
            <g id="Group-31" transform="translate(16.890595, 0.000000)">
                <mask id="mask-29" fill="white">
                    <use xlink:href="#path-28"></use>
                </mask>
                <g id="Clip-30"></g>
                <path d="M5.12111324,9.71916602 C2.37485605,9.71953668 0.148368522,7.57010039 0.147984645,4.91842471 C0.147600768,2.26693436 2.37351248,0.117127413 5.11957774,0.116756757 C7.86583493,0.1163861 10.0923225,2.26563707 10.0927063,4.91731274 C10.0930902,7.56880309 7.86737044,9.71861004 5.12111324,9.71916602" id="Fill-29" fill="url(#linearGradient-30)" mask="url(#mask-29)"></path>
            </g>
            <g id="Group-34" transform="translate(25.719770, 14.640927)">
                <mask id="mask-32" fill="white">
                    <use xlink:href="#path-31"></use>
                </mask>
                <g id="Clip-33"></g>
                <path d="M2.69923225,4.97309653 C1.29462572,4.97328185 0.156046065,3.87428571 0.155854127,2.51805405 C0.155662188,1.16200772 1.2940499,0.0624555985 2.69846449,0.0622702703 C4.10287908,0.0620849421 5.24165067,1.16126641 5.24184261,2.51731274 C5.24203455,3.8735444 4.10364683,4.9729112 2.69923225,4.97309653" id="Fill-32" fill="url(#linearGradient-33)" mask="url(#mask-32)"></path>
            </g>
            <g id="Group-37" transform="translate(30.134357, 20.200772)">
                <mask id="mask-35" fill="white">
                    <use xlink:href="#path-34"></use>
                </mask>
                <g id="Clip-36"></g>
                <path d="M2.41247601,4.66804633 C1.12533589,4.66823166 0.0817658349,3.66078764 0.0815738964,2.41797683 C0.0813819578,1.17535135 1.12476008,0.167722008 2.41170825,0.16753668 C3.69884837,0.167351351 4.74241843,1.17461004 4.74261036,2.41742085 C4.7428023,3.66004633 3.69942418,4.667861 2.41247601,4.66804633" id="Fill-35" fill="url(#linearGradient-36)" mask="url(#mask-35)"></path>
            </g>
            <g id="Group-40" transform="translate(30.326296, 27.428571)">
                <mask id="mask-38" fill="white">
                    <use xlink:href="#path-37"></use>
                </mask>
                <g id="Clip-39"></g>
                <path d="M2.22034549,4.26440154 C1.05067179,4.26458687 0.102303263,3.34925097 0.102111324,2.219861 C0.101919386,1.09047104 1.04990403,0.174764479 2.21976967,0.174579151 C3.38944338,0.174393822 4.3378119,1.08972973 4.33800384,2.21930502 C4.33819578,3.34869498 3.39001919,4.26421622 2.22034549,4.26440154" id="Fill-38" fill="url(#linearGradient-39)" mask="url(#mask-38)"></path>
            </g>
            <g id="Group-43" transform="translate(26.487524, 33.173745)">
                <mask id="mask-41" fill="white">
                    <use xlink:href="#path-40"></use>
                </mask>
                <g id="Clip-42"></g>
                <path d="M1.93128599,3.77383784 C0.878886756,3.77402317 0.0257197697,2.95023938 0.0257197697,1.93427027 C0.0255278311,0.918301158 0.87831094,0.0945173745 1.93071017,0.0943320463 C2.98291747,0.0941467181 3.83608445,0.917745174 3.83627639,1.93371429 C3.83646833,2.9496834 2.98349328,3.77365251 1.93128599,3.77383784" id="Fill-41" fill="url(#linearGradient-42)" mask="url(#mask-41)"></path>
            </g>
            <g id="Group-46" transform="translate(19.769674, 35.583012)">
                <mask id="mask-44" fill="white">
                    <use xlink:href="#path-43"></use>
                </mask>
                <g id="Clip-45"></g>
                <path d="M1.84740883,3.30495753 C0.912667946,3.30495753 0.154510557,2.57346718 0.154318618,1.67073359 C0.154318618,0.768 0.912092131,0.0361389961 1.84702495,0.0361389961 C2.78176583,0.035953668 3.53992322,0.767629344 3.53992322,1.67017761 C3.54011516,2.5729112 2.78234165,3.3047722 1.84740883,3.30495753" id="Fill-44" fill="url(#linearGradient-45)" mask="url(#mask-44)"></path>
            </g>
            <g id="Group-49" transform="translate(13.243762, 33.544402)">
                <mask id="mask-47" fill="white">
                    <use xlink:href="#path-46"></use>
                </mask>
                <g id="Clip-48"></g>
                <path d="M1.57178503,2.99323552 C0.754318618,2.99323552 0.0913627639,2.35348263 0.0913627639,1.56416988 C0.0911708253,0.774857143 0.753742802,0.134733591 1.57140115,0.134733591 C2.38886756,0.134548263 3.05163148,0.774301158 3.05182342,1.56379923 C3.05182342,2.35311197 2.38925144,2.99305019 1.57178503,2.99323552" id="Fill-47" fill="url(#linearGradient-48)" mask="url(#mask-47)"></path>
            </g>
            <g id="Group-52" transform="translate(9.404990, 28.355212)">
                <mask id="mask-50" fill="white">
                    <use xlink:href="#path-49"></use>
                </mask>
                <g id="Clip-51"></g>
                <path d="M1.28214971,2.5176834 C0.582149712,2.5176834 0.0143953935,1.96985328 0.0143953935,1.29396139 C0.0142034549,0.61788417 0.581765835,0.0696833977 1.28176583,0.0696833977 C1.98195777,0.0694980695 2.54952015,0.617513514 2.54971209,1.29359073 C2.54971209,1.96948263 1.98214971,2.51749807 1.28214971,2.5176834" id="Fill-50" fill="url(#linearGradient-51)" mask="url(#mask-50)"></path>
            </g>
            <g id="Group-55" transform="translate(9.596929, 21.498069)">
                <mask id="mask-53" fill="white">
                    <use xlink:href="#path-52"></use>
                </mask>
                <g id="Clip-54"></g>
                <path d="M1.08963532,2.13998456 C0.50671785,2.13998456 0.0343570058,1.68407722 0.0343570058,1.12142085 C0.0341650672,0.558764479 0.506525912,0.102671815 1.08925144,0.102486486 C1.67197697,0.102486486 2.14433781,0.558393822 2.14452975,1.12105019 C2.14452975,1.68370656 1.67216891,2.13998456 1.08963532,2.13998456" id="Fill-53" fill="url(#linearGradient-54)" mask="url(#mask-53)"></path>
            </g>
            <g id="Group-58" transform="translate(13.819578, 16.308880)">
                <mask id="mask-56" fill="white">
                    <use xlink:href="#path-55"></use>
                </mask>
                <g id="Clip-57"></g>
                <path d="M0.994241843,1.66387645 C0.528790787,1.66387645 0.151439539,1.29970656 0.151439539,0.850471042 C0.151439539,0.401050193 0.528598848,0.0368803089 0.993857965,0.0368803089 C1.45911708,0.0368803089 1.83646833,0.401050193 1.83646833,0.850100386 C1.83666027,1.29952124 1.45950096,1.66387645 0.994241843,1.66387645" id="Fill-56" fill="url(#linearGradient-57)" mask="url(#mask-56)"></path>
            </g>
            <g id="Group-61" transform="translate(18.809981, 12.231660)">
                <mask id="mask-59" fill="white">
                    <use xlink:href="#path-58"></use>
                </mask>
                <g id="Clip-60"></g>
                <path d="M2.80767754,5.44197683 C1.28579655,5.44216216 0.0520153551,4.25105792 0.0516314779,2.78159073 C0.0514395393,1.31212355 1.28502879,0.120648649 2.80690979,0.12046332 C4.32879079,0.120277992 5.56276392,1.31138224 5.56295585,2.78066409 C5.56314779,4.2503166 4.32955854,5.44160618 2.80767754,5.44197683" id="Fill-59" fill="url(#linearGradient-60)" mask="url(#mask-59)"></path>
            </g>
            <g id="Group-64" transform="translate(23.416507, 20.942085)">
                <mask id="mask-62" fill="white">
                    <use xlink:href="#path-61"></use>
                </mask>
                <g id="Clip-63"></g>
                <path d="M1.14683301,2.3605251 C0.513627639,2.3605251 0.00019193858,1.86495753 0.00019193858,1.25355985 C0,0.642162162 0.513243762,0.146594595 1.14644914,0.146594595 C1.77965451,0.146409266 2.29309021,0.641791506 2.29309021,1.25318919 C2.29328215,1.8647722 1.78003839,2.36033977 1.14683301,2.3605251" id="Fill-62" fill="url(#linearGradient-63)" mask="url(#mask-62)"></path>
            </g>
            <g id="Group-67" transform="translate(25.335893, 23.536680)">
                <mask id="mask-65" fill="white">
                    <use xlink:href="#path-64"></use>
                </mask>
                <g id="Clip-66"></g>
                <path d="M1.08829175,2.13498069 C0.50806142,2.13498069 0.0376199616,1.68092664 0.0376199616,1.12049421 C0.037428023,0.560247104 0.507869482,0.106007722 1.08809981,0.106007722 C1.66833013,0.105822394 2.13877159,0.560061776 2.13896353,1.12012355 C2.13896353,1.68055598 1.66871401,2.13479537 1.08829175,2.13498069" id="Fill-65" fill="url(#linearGradient-66)" mask="url(#mask-65)"></path>
            </g>
            <g id="Group-70" transform="translate(25.335893, 26.872587)">
                <mask id="mask-68" fill="white">
                    <use xlink:href="#path-67"></use>
                </mask>
                <g id="Clip-69"></g>
                <path d="M1.08829175,1.87570656 C0.561036468,1.87589189 0.133397313,1.46298069 0.133397313,0.95388417 C0.133205374,0.444602317 0.560652591,0.0316911197 1.08809981,0.0316911197 C1.61535509,0.0316911197 2.04299424,0.444416988 2.04299424,0.953513514 C2.04299424,1.46279537 1.61573896,1.87570656 1.08829175,1.87570656" id="Fill-68" fill="url(#linearGradient-69)" mask="url(#mask-68)"></path>
            </g>
            <g id="Group-73" transform="translate(23.608445, 29.281853)">
                <mask id="mask-71" fill="white">
                    <use xlink:href="#path-70"></use>
                </mask>
                <g id="Clip-72"></g>
                <path d="M0.954702495,1.83530502 C0.480422265,1.83549035 0.0955854127,1.46409266 0.0955854127,1.00596139 C0.0955854127,0.548015444 0.480038388,0.176617761 0.954510557,0.176617761 C1.42898273,0.176432432 1.81362764,0.547830116 1.81362764,1.00577606 C1.81362764,1.46390734 1.42917466,1.83530502 0.954702495,1.83530502" id="Fill-71" fill="url(#linearGradient-72)" mask="url(#mask-71)"></path>
            </g>
            <g id="Group-76" transform="translate(20.729367, 30.393822)">
                <mask id="mask-74" fill="white">
                    <use xlink:href="#path-73"></use>
                </mask>
                <g id="Clip-75"></g>
                <path d="M0.767370441,1.59827027 C0.345873321,1.59827027 0.00422264875,1.2683861 0.00403071017,0.861405405 C0.00403071017,0.45442471 0.345681382,0.124355212 0.767178503,0.124355212 C1.18867562,0.124355212 1.5303263,0.454239382 1.5303263,0.861220077 C1.53051823,1.26820077 1.18886756,1.59827027 0.767370441,1.59827027" id="Fill-74" fill="url(#linearGradient-75)" mask="url(#mask-74)"></path>
            </g>
            <g id="Group-79" transform="translate(17.658349, 29.467181)">
                <mask id="mask-77" fill="white">
                    <use xlink:href="#path-76"></use>
                </mask>
                <g id="Clip-78"></g>
                <path d="M0.771976967,1.46520463 C0.403262956,1.46520463 0.104606526,1.17683398 0.104414587,0.820818533 C0.104414587,0.464988417 0.403071017,0.176617761 0.771785029,0.176617761 C1.1403071,0.176432432 1.43915547,0.464803089 1.43915547,0.820633205 C1.43915547,1.17664865 1.14049904,1.46520463 0.771976967,1.46520463" id="Fill-77" fill="url(#linearGradient-78)" mask="url(#mask-77)"></path>
            </g>
            <g id="Group-82" transform="translate(15.930902, 27.243243)">
                <mask id="mask-80" fill="white">
                    <use xlink:href="#path-79"></use>
                </mask>
                <g id="Clip-81"></g>
                <path d="M0.638195777,1.13513514 C0.322456814,1.13513514 0.0666026871,0.888277992 0.0666026871,0.583598456 C0.0666026871,0.278733591 0.322456814,0.0315057915 0.638003839,0.0315057915 C0.953742802,0.0315057915 1.20959693,0.278548263 1.20959693,0.583413127 C1.20959693,0.888092664 0.953742802,1.13513514 0.638195777,1.13513514" id="Fill-80" fill="url(#linearGradient-81)" mask="url(#mask-80)"></path>
            </g>
            <g id="Group-85" transform="translate(15.930902, 24.092664)">
                <mask id="mask-83" fill="white">
                    <use xlink:href="#path-82"></use>
                </mask>
                <g id="Clip-84"></g>
                <path d="M0.6378119,1.02412355 C0.375047985,1.02412355 0.1621881,0.818409266 0.1621881,0.564880309 C0.161996161,0.311166023 0.374856046,0.105637066 0.6378119,0.105451737 C0.900383877,0.105451737 1.1134357,0.310980695 1.1134357,0.564694981 C1.1134357,0.818409266 0.900575816,1.02412355 0.6378119,1.02412355" id="Fill-83" fill="url(#linearGradient-84)" mask="url(#mask-83)"></path>
            </g>
            <g id="Group-88" transform="translate(18.042226, 21.683398)">
                <mask id="mask-86" fill="white">
                    <use xlink:href="#path-85"></use>
                </mask>
                <g id="Clip-87"></g>
                <path d="M0.387140115,0.879196911 C0.177543186,0.879196911 0.00729366603,0.714996139 0.00729366603,0.512432432 C0.00729366603,0.309868726 0.177351248,0.145667954 0.387140115,0.145667954 C0.596928983,0.145667954 0.766986564,0.309683398 0.766986564,0.512247104 C0.766986564,0.714996139 0.597120921,0.879196911 0.387140115,0.879196911" id="Fill-86" fill="url(#linearGradient-87)" mask="url(#mask-86)"></path>
            </g>
            <g id="Group-91" transform="translate(20.153551, 20.015444)">
                <mask id="mask-89" fill="white">
                    <use xlink:href="#path-88"></use>
                </mask>
                <g id="Clip-90"></g>
                <path d="M1.34337812,2.41223166 C0.657389635,2.41223166 0.100959693,1.87533591 0.100959693,1.21278764 C0.100767754,0.550239382 0.657005758,0.0133436293 1.34299424,0.0131583012 C2.02917466,0.012972973 2.58541267,0.549868726 2.58560461,1.21241699 C2.58560461,1.87496525 2.02955854,2.41204633 1.34337812,2.41223166" id="Fill-89" fill="url(#linearGradient-90)" mask="url(#mask-89)"></path>
            </g>
        </g>
    </g>
</svg>