<?xml version="1.0" encoding="UTF-8"?>
<svg width="208px" height="56px" viewBox="0 0 208 56" version="1.1" xmlns="http://www.w3.org/2000/svg" xmlns:xlink="http://www.w3.org/1999/xlink">
    <!-- Generator: Sketch 52.6 (67491) - http://www.bohemiancoding.com/sketch -->
    <title>emurgo-dafault</title>
    <desc>Created with Sketch.</desc>
    <defs>
        <polygon id="path-1" points="0 0 200 0 200 47.7849676 0 47.7849676"></polygon>
    </defs>
    <g id="emurgo-dafault" stroke="none" stroke-width="1" fill="none" fill-rule="evenodd">
        <g id="Group-3" transform="translate(4.000000, 4.000000)">
            <mask id="mask-2" fill="white">
                <use xlink:href="#path-1"></use>
            </mask>
            <g id="Clip-2"></g>
            <path d="M21.5079137,22.264976 C20.8216819,22.264976 20.2648929,21.7293329 20.2648929,21.0678317 C20.2648929,20.4069269 20.8210626,19.8706873 21.5079137,19.8706873 C22.1941454,19.8706873 22.7503151,20.4063304 22.7509344,21.0678317 C22.7509344,21.7287365 22.1941454,22.264976 21.5079137,22.264976 Z M18.4384513,21.667895 C18.6484084,21.667895 18.8187277,21.8313318 18.8187277,22.03354 C18.8187277,22.2357483 18.6490278,22.3997815 18.4390706,22.3997815 C18.2291134,22.3997815 18.0587942,22.2357483 18.0587942,22.03354 C18.0587942,21.8313318 18.2291134,21.667895 18.4384513,21.667895 Z M16.1016713,24.4898631 C16.101052,24.2369537 16.3141058,24.031763 16.5773265,24.031763 C16.8399278,24.031763 17.0529817,24.2369537 17.0529817,24.4898631 C17.0529817,24.743369 16.8399278,24.9485596 16.5773265,24.9485596 C16.3141058,24.9485596 16.1016713,24.743369 16.1016713,24.4898631 Z M17.1489798,27.6530202 C17.1489798,27.9566308 16.8931913,28.2035754 16.5779458,28.2035754 C16.2614617,28.2035754 16.0056732,27.9566308 16.0056732,27.6530202 C16.0056732,27.3488132 16.2614617,27.1018686 16.5773265,27.1018686 C16.8931913,27.1018686 17.1489798,27.3482167 17.1489798,27.6530202 Z M19.1073414,30.1087468 C19.1073414,30.4642516 18.8088182,30.7523536 18.43969,30.7523536 C18.0711811,30.7523536 17.7720385,30.4642516 17.7720385,30.1093433 C17.7720385,29.7538385 18.0705617,29.466333 18.43969,29.466333 C18.8081989,29.466333 19.1073414,29.7538385 19.1073414,30.1087468 Z M21.5079137,30.3389898 C21.9290667,30.3389898 22.2709438,30.6676528 22.2709438,31.0744552 C22.2709438,31.4800646 21.929686,31.809324 21.5079137,31.809324 C21.0861413,31.809324 20.7442641,31.4806611 20.7442641,31.0744552 C20.7442641,30.6682492 21.0855219,30.3389898 21.5079137,30.3389898 Z M25.4351657,30.1087468 C25.4351657,30.5662504 25.0505538,30.9366673 24.575518,30.9366673 C24.1011015,30.9366673 23.7158703,30.5662504 23.7158703,30.1087468 C23.7158703,29.6518397 24.1011015,29.2814228 24.575518,29.2814228 C25.0499345,29.2808264 25.4351657,29.6518397 25.4351657,30.1087468 Z M26.4372621,28.5727993 C25.9102015,28.5727993 25.4822357,28.1606285 25.4822357,27.6524238 C25.4822357,27.144219 25.9095822,26.7326447 26.4372621,26.7326447 C26.9649421,26.7326447 27.3929079,27.144219 27.3929079,27.6524238 C27.3929079,28.1606285 26.9655614,28.5727993 26.4372621,28.5727993 Z M25.3862376,24.4898631 C25.3862376,23.9303606 25.856938,23.4776289 26.4372621,23.4776289 C27.0175862,23.4770325 27.488906,23.9303606 27.488906,24.4892666 C27.488906,25.048769 27.0182056,25.5020972 26.4378815,25.5020972 C25.856938,25.5020972 25.3862376,25.048769 25.3862376,24.4898631 Z M23.4284953,22.03354 C23.4284953,21.4233364 23.9419304,20.9288508 24.575518,20.9282543 C25.2091056,20.9282543 25.7225407,21.4227399 25.7225407,22.0329435 C25.72316,22.6431472 25.2097249,23.1376328 24.5761373,23.1376328 C23.9425498,23.1382293 23.4284953,22.6437436 23.4284953,22.03354 Z M21.6286855,17.5205385 C20.1063411,17.5205385 18.8713718,16.3323414 18.8713718,14.8655861 C18.8713718,13.3994273 20.1051025,12.2106337 21.6280661,12.2100373 C23.1504105,12.2100373 24.3853798,13.3982343 24.3853798,14.8649896 C24.3853798,16.3311485 23.1516492,17.519942 21.6286855,17.5205385 Z M13.9779452,17.0075619 C13.9779452,16.5590055 14.3557442,16.1957465 14.8208706,16.1957465 C15.2866163,16.19515 15.663796,16.5590055 15.663796,17.0075619 C15.663796,17.4555217 15.2872357,17.8187808 14.82149,17.8187808 C14.3557442,17.8193772 13.9779452,17.4555217 13.9779452,17.0075619 Z M10.6917129,21.4394415 C11.2745144,21.4394415 11.7476922,21.8945591 11.7476922,22.455851 C11.7476922,23.0177394 11.2751337,23.4728571 10.6923322,23.4728571 C10.1089114,23.4728571 9.63635294,23.0177394 9.63635294,22.4564475 C9.63635294,21.8945591 10.1089114,21.4394415 10.6917129,21.4394415 Z M11.9607461,29.4711049 C11.9607461,30.1457288 11.3928088,30.6927051 10.6929516,30.6927051 C9.99247499,30.6927051 9.42453774,30.1457288 9.4239184,29.4717014 C9.4239184,28.7970775 9.99185564,28.2501012 10.6923322,28.2501012 C11.3928088,28.2501012 11.9607461,28.796481 11.9607461,29.4711049 Z M16.3041964,34.9193941 C16.3041964,35.7073501 15.6408803,36.3455884 14.823348,36.3455884 C14.0051963,36.3461849 13.3418803,35.7073501 13.3418803,34.9199906 C13.3418803,34.1320346 14.0045769,33.4931997 14.8227286,33.4931997 C15.640261,33.4931997 16.303577,34.1320346 16.3041964,34.9193941 Z M19.9341639,37.0607733 C19.9341639,36.1594853 20.6922393,35.4293883 21.6274468,35.4293883 C22.5632736,35.4287918 23.3213491,36.1588888 23.3213491,37.0601768 C23.3219684,37.9608684 22.5638929,38.6915619 21.6280661,38.6915619 C20.6928587,38.6915619 19.9341639,37.9614649 19.9341639,37.0607733 Z M30.3391211,34.9187976 C30.3391211,35.9328212 29.4862862,36.7547768 28.4334036,36.7547768 C27.3805211,36.7547768 26.5270668,35.9334177 26.5270668,34.9193941 C26.5264475,33.9053705 27.3799017,33.0834149 28.4327843,33.0828184 C29.4856669,33.0828184 30.3391211,33.904774 30.3391211,34.9187976 Z M30.44379,29.4711049 C30.44379,28.3437493 31.3920037,27.429935 32.5625614,27.429935 C33.733119,27.429935 34.681952,28.3431528 34.681952,29.4705084 C34.681952,30.5972676 33.7337384,31.5110818 32.5631807,31.5110818 C31.392623,31.5110818 30.44379,30.5978641 30.44379,29.4711049 Z M34.8943866,22.4552546 C34.8950059,23.6953458 33.8507942,24.7004221 32.5631807,24.7010186 C31.2755672,24.7010186 30.2313555,23.6959423 30.2313555,22.455851 C30.2307361,21.2157598 31.2749479,20.210087 32.5625614,20.210087 C33.8501748,20.2094905 34.8943866,21.2151633 34.8943866,22.4552546 Z M28.4327843,14.5566072 C29.8380729,14.5560107 30.9770441,15.6529456 30.9776634,17.0063689 C30.9776634,18.3597922 29.8386922,19.4567271 28.4334036,19.4567271 C27.0281151,19.4573236 25.8891439,18.3603887 25.8885245,17.0069654 C25.8885245,15.6541386 27.0274957,14.5566072 28.4327843,14.5566072 Z M17.0474076,4.79215637 C17.0467882,2.14555477 19.2739446,1.24375657e-07 22.0213487,1.24375657e-07 C24.7693723,-0.000596360096 26.9965286,2.1443618 26.9971479,4.79036692 C26.9977673,7.43637203 24.770611,9.58192668 22.0232068,9.58252316 C19.2751832,9.58252316 17.0474076,7.43816149 17.0474076,4.79215637 Z M8.21805817,8.65677926 C8.21805817,7.84734984 8.89871579,7.19121692 9.73854448,7.19121692 C10.5789925,7.19121692 11.2596501,7.84734984 11.2602695,8.65618278 C11.2602695,9.46501572 10.5789925,10.1211486 9.73916383,10.1211486 C8.89933514,10.1211486 8.21805817,9.46561221 8.21805817,8.65677926 Z M0.382753783,18.4886328 C0.382753783,17.4758022 1.23558867,16.6544431 2.28723256,16.6544431 C3.33949579,16.6538466 4.19233068,17.4752057 4.19233068,18.4880363 C4.19233068,19.5014634 3.34011514,20.323419 2.2878519,20.323419 C1.23558867,20.323419 0.382753783,19.5020599 0.382753783,18.4886328 Z M4.57756183,31.1472263 C4.57756183,32.3646511 3.55316902,33.3512364 2.28909059,33.3512364 C1.02501215,33.3512364 0,32.3652476 0,31.1478228 C0,29.930398 1.02439281,28.9432162 2.28847125,28.9432162 C3.55254968,28.9432162 4.57756183,29.9298015 4.57756183,31.1472263 Z M12.4141049,40.9784833 C12.4147243,42.3993093 11.2181542,43.5523138 9.74226054,43.5523138 C8.2663669,43.5523138 7.06979682,42.4005023 7.06979682,40.9790798 C7.06979682,39.5576573 8.26574756,38.4052493 9.7416412,38.4046528 C11.2175348,38.4046528 12.4141049,39.5564644 12.4141049,40.9784833 Z M25.0778049,44.8413168 C25.0778049,46.466737 23.7096769,47.7843712 22.0219681,47.7849676 C20.3336399,47.7849676 18.9655119,46.4673334 18.9655119,44.8419133 C18.9655119,43.2164931 20.3330206,41.8982624 22.0213487,41.8982624 C23.7090576,41.8982624 25.0771856,43.2158966 25.0778049,44.8413168 Z M37.7408856,40.9772904 C37.7408856,42.8067082 36.2011997,44.2901651 34.3016756,44.2901651 C32.4015323,44.2907616 30.861227,42.8073047 30.861227,40.9778869 C30.8606076,39.148469 32.4002936,37.6650121 34.3004369,37.6644156 C36.2005803,37.6644156 37.7402663,39.147276 37.7408856,40.9772904 Z M45.5768093,31.1454368 C45.5774287,33.1788524 43.8655655,34.8281319 41.7536069,34.8281319 C39.6422677,34.8287284 37.9297851,33.1800454 37.9297851,31.1466298 C37.9291658,29.1126177 39.641029,27.4633382 41.7529876,27.4633382 C43.8643268,27.4627417 45.5768093,29.1114248 45.5768093,31.1454368 Z M45.9608018,18.4868434 C45.9614211,20.7242566 44.078,22.5387624 41.7542262,22.5393589 C39.4304525,22.5393589 37.546412,20.7254496 37.546412,18.4874398 C37.5457927,16.2500266 39.4292138,14.4355208 41.7529876,14.4355208 C44.076142,14.4349243 45.9601825,16.2488336 45.9608018,18.4868434 Z M29.7098689,8.65618278 C29.7098689,6.21357887 31.764848,4.23384691 34.3004369,4.23384691 C36.8360259,4.23325042 38.8922437,6.2123859 38.8922437,8.65439333 C38.892863,11.0964008 36.8372646,13.0767292 34.3016756,13.0767292 C31.7660867,13.0773257 29.7104883,11.0981902 29.7098689,8.65618278 Z M119.850243,14.85306 L125.514751,14.85306 L125.514751,25.7078844 C125.514751,28.6175356 124.6774,30.8650891 123.002078,32.4505448 C121.326756,34.0360006 118.978828,34.8281319 115.957674,34.8281319 C112.93652,34.8281319 110.587973,34.0360006 108.91327,32.4505448 C107.237948,30.8650891 106.400597,28.6175356 106.400597,25.7078844 L106.400597,14.85306 L112.151813,14.85306 L112.151813,25.5402722 C112.151813,28.6736052 113.440046,30.2405699 116.015892,30.2405699 C118.57192,30.2405699 119.850243,28.6736052 119.850243,25.5402722 L119.850243,14.85306 Z M142.764064,24.2113048 C142.163302,24.705194 141.272687,24.9521385 140.091601,24.9521385 L136.896412,24.9521385 L136.896412,19.2175368 L140.091601,19.2175368 C141.272687,19.2175368 142.163302,19.4692533 142.764064,19.9726862 C143.364208,20.4761191 143.664589,21.1853391 143.664589,22.0991533 C143.664589,23.0129675 143.364208,23.7174157 142.764064,24.2113048 Z M148.443437,25.8057078 C149.130907,24.7523163 149.474643,23.5164004 149.474643,22.0991533 C149.474643,20.6252402 149.106134,19.3433951 148.370355,18.2518285 C147.634575,17.1608584 146.588506,16.3216047 145.233384,15.7340675 C143.877643,15.1465303 142.279739,14.85306 140.440291,14.85306 L131.144576,14.85306 L131.144576,34.4368381 L136.896412,34.4368381 L136.896412,29.2331076 L140.033383,29.2331076 L143.722807,34.4368381 L149.880931,34.4368381 L145.494746,28.2817149 C146.77307,27.6846339 147.755347,26.8596959 148.443437,25.8057078 Z M160.809853,20.5739425 C159.744583,21.5909486 159.211948,22.9479507 159.211948,24.644949 C159.211948,25.7263754 159.453492,26.6920838 159.938437,27.5402847 C160.422144,28.3896786 161.100324,29.0511798 161.971739,29.526578 C162.843155,30.0025726 163.840296,30.2405699 164.963784,30.2405699 C166.068072,30.2405699 167.103613,30.0258355 168.072265,29.5969631 L168.072265,24.225024 L173.15583,24.225024 L173.15583,32.3384058 C171.993943,33.1406774 170.657401,33.7562494 169.146824,34.1851217 C167.636248,34.613994 166.125671,34.8281319 164.615094,34.8281319 C162.484555,34.8281319 160.56707,34.3944877 158.863258,33.5271993 C157.158827,32.6599109 155.822905,31.4526263 154.854873,29.9041526 C153.886221,28.3562754 153.401895,26.6032076 153.401895,24.644949 C153.401895,22.6866905 153.886221,20.9336227 154.854873,19.385149 C155.822905,17.8372718 157.168737,16.6293907 158.892368,15.7621023 C160.615998,14.8948139 162.562592,14.4611697 164.73153,14.4611697 C166.629196,14.4611697 168.333628,14.7689556 169.844204,15.3845276 C171.354781,16.0000996 172.613286,16.885879 173.620337,18.0418659 L169.960021,21.2318649 C168.585081,19.7770393 166.938868,19.0493282 165.022002,19.0493282 C163.279172,19.0493282 161.874503,19.557533 160.809853,20.5739425 Z M61.5050647,30.1558691 L72.1373207,30.1558691 L72.1373207,34.4368381 L55.8114473,34.4368381 L55.8114473,14.85306 L71.7595216,14.85306 L71.7595216,19.1334325 L61.5050647,19.1334325 L61.5050647,22.4343776 L70.5394165,22.4343776 L70.5394165,26.5751728 L61.5050647,26.5751728 L61.5050647,30.1558691 Z M100.768295,14.85306 L100.768295,34.4368381 L95.4809661,34.4368381 L95.4809661,24.0574118 L90.252475,32.5060179 L87.6958284,32.5060179 L82.4958272,24.3371631 L82.4958272,34.4368381 L77.1800089,34.4368381 L77.1800089,14.85306 L81.9148837,14.85306 L89.0608597,26.1552477 L96.0328004,14.85306 L100.768295,14.85306 Z M193.464077,27.5683194 C192.979751,28.4171168 192.32077,29.0750392 191.488373,29.5408936 C190.655357,30.006748 189.725724,30.2405699 188.700093,30.2405699 C187.673222,30.2405699 186.743589,30.006748 185.911192,29.5408936 C185.078177,29.0750392 184.419815,28.4171168 183.935489,27.5683194 C183.451783,26.7201185 183.20962,25.7454629 183.20962,24.644949 C183.20962,23.5444352 183.451783,22.5697796 183.935489,21.7209822 C184.419815,20.8727812 185.078177,20.2148589 185.911192,19.7490045 C186.743589,19.2825536 187.673222,19.0493282 188.700093,19.0493282 C189.725724,19.0493282 190.655357,19.2825536 191.488373,19.7490045 C192.32077,20.2148589 192.979751,20.8727812 193.464077,21.7209822 C193.947783,22.5697796 194.189946,23.5444352 194.189946,24.644949 C194.189946,25.7454629 193.947783,26.7201185 193.464077,27.5683194 Z M198.533397,19.4131837 C197.554835,17.8653065 196.209003,16.6526536 194.495282,15.7764179 C192.781561,14.8995857 190.849212,14.4611697 188.700093,14.4611697 C186.550354,14.4611697 184.618624,14.8995857 182.904903,15.7764179 C181.190562,16.6526536 179.844731,17.8653065 178.866789,19.4131837 C177.888847,20.9610609 177.400185,22.7051815 177.400185,24.644949 C177.400185,26.5847165 177.888847,28.3288371 178.866789,29.8767143 C179.844731,31.4245916 181.190562,32.6372445 182.904903,33.5134802 C184.618624,34.3903123 186.550354,34.8281319 188.700093,34.8281319 C190.849212,34.8281319 192.781561,34.3903123 194.495282,33.5134802 C196.209003,32.6372445 197.554835,31.4245916 198.533397,29.8767143 C199.510719,28.3288371 200,26.5847165 200,24.644949 C200,22.7051815 199.510719,20.9610609 198.533397,19.4131837 Z" id="Fill-1" fill="#94A1B5" mask="url(#mask-2)"></path>
        </g>
    </g>
</svg>