<?xml version="1.0" encoding="UTF-8"?>
<svg width="21px" height="21px" viewBox="0 0 21 21" version="1.1" xmlns="http://www.w3.org/2000/svg" xmlns:xlink="http://www.w3.org/1999/xlink">
    <!-- Generator: Sketch 50.2 (55047) - http://www.bohemiancoding.com/sketch -->
    <title>facebook</title>
    <desc>Created with Sketch.</desc>
    <defs></defs>
    <g id="Symbols" stroke="none" stroke-width="1" fill="none" fill-rule="evenodd">
        <g id="footer" transform="translate(-449.000000, -176.000000)" fill="#FFFFFF" fill-rule="nonzero">
            <g id="Group-2" transform="translate(449.000000, 174.000000)">
                <g id="facebook" transform="translate(0.000000, 2.190476)">
                    <path d="M18.2950913,0 L2.61358447,0 C1.17219264,0 0,1.16663393 0,2.60119048 L0,18.2083333 C0,19.6428899 1.17219264,20.8095238 2.61358447,20.8095238 L10.4543379,20.8095238 L10.4543379,13.65625 L7.84075342,13.65625 L7.84075342,10.4047619 L10.4543379,10.4047619 L10.4543379,7.80357143 C10.4543379,5.64848512 12.2093599,3.90178571 14.3747146,3.90178571 L16.9882991,3.90178571 L16.9882991,7.15327381 L15.6815068,7.15327381 C14.9601575,7.15327381 14.3747146,7.08564286 14.3747146,7.80357143 L14.3747146,10.4047619 L17.6416952,10.4047619 L16.334903,13.65625 L14.3747146,13.65625 L14.3747146,20.8095238 L18.2950913,20.8095238 C19.7364832,20.8095238 20.9086758,19.6428899 20.9086758,18.2083333 L20.9086758,2.60119048 C20.9086758,1.16663393 19.7364832,0 18.2950913,0 Z" id="Shape"></path>
                </g>
            </g>
        </g>
    </g>
</svg>