<?xml version="1.0" encoding="UTF-8"?>
<svg width="44px" height="44px" viewBox="0 0 44 44" version="1.1" xmlns="http://www.w3.org/2000/svg" xmlns:xlink="http://www.w3.org/1999/xlink">
    <!-- Generator: Sketch 52.6 (67491) - http://www.bohemiancoding.com/sketch -->
    <title>page icon/faq</title>
    <desc>Created with Sketch.</desc>
    <defs>
        <polygon id="path-1" points="0 0.0001 43.413 0.0001 43.413 39.4961 0 39.4961"></polygon>
        <linearGradient x1="0%" y1="98.2523503%" x2="53.8596176%" y2="70.9764888%" id="linearGradient-3">
            <stop stop-color="#1A44B7" offset="0%"></stop>
            <stop stop-color="#4760FF" offset="100%"></stop>
        </linearGradient>
    </defs>
    <g id="page-icon/faq" stroke="none" stroke-width="1" fill="none" fill-rule="evenodd">
        <g id="Group-3" transform="translate(0.000000, 2.000000)">
            <mask id="mask-2" fill="white">
                <use xlink:href="#path-1"></use>
            </mask>
            <g id="Clip-2"></g>
            <path d="M31.4758,11.7511 C30.8978,12.2361 30.6568,12.4761 30.6578,12.7041 C30.6598,12.9251 30.5758,13.1321 30.4208,13.2881 C30.2638,13.4461 30.0538,13.5331 29.8188,13.5331 C29.3518,13.5331 28.9838,13.1741 28.9798,12.7171 C28.9708,11.6721 29.7328,11.0331 30.4338,10.4451 C31.0478,9.9281 31.4208,9.5861 31.4208,9.1841 C31.4208,8.4521 30.8258,7.8571 30.0938,7.8571 C29.3618,7.8571 28.7658,8.4521 28.7658,9.1841 C28.7658,9.6471 28.3898,10.0221 27.9278,10.0221 C27.4648,10.0221 27.0888,9.6471 27.0888,9.1841 C27.0888,7.5271 28.4368,6.1791 30.0928,6.1791 C31.7498,6.1791 33.0978,7.5251 33.0978,9.1801 C33.0978,10.3911 32.2208,11.1271 31.4758,11.7511 M8.8318,23.4611 C8.8318,23.9231 8.4558,24.2991 7.9938,24.2991 L7.9028,24.2991 C7.4408,24.2991 7.0648,23.9231 7.0648,23.4611 C7.0648,22.9991 7.4408,22.6221 7.9028,22.6221 L7.9938,22.6221 C8.4558,22.6221 8.8318,22.9991 8.8318,23.4611 M29.0338,15.8761 C29.0338,15.4061 29.3918,15.0381 29.8488,15.0381 C30.3118,15.0381 30.6878,15.4141 30.6878,15.8761 C30.6878,16.3411 30.3118,16.7201 29.8488,16.7201 C29.3918,16.7201 29.0338,16.3531 29.0338,15.8761 M12.6168,23.4611 C12.6168,23.9231 12.2408,24.2991 11.7778,24.2991 L11.6868,24.2991 C11.2238,24.2991 10.8478,23.9231 10.8478,23.4611 C10.8478,22.9991 11.2238,22.6221 11.6868,22.6221 L11.7778,22.6221 C12.2408,22.6221 12.6168,22.9991 12.6168,23.4611 M23.6628,20.5611 C22.4388,20.5361 22.2428,20.6481 21.2778,21.5361 C21.2348,21.5761 21.1818,21.6201 21.1258,21.6661 C21.0778,21.7061 21.0268,21.7471 20.9788,21.7911 L18.3718,24.1471 L18.3718,4.9821 C18.3718,3.1601 19.8888,1.6781 21.7518,1.6781 L38.4358,1.6781 C40.2868,1.6781 41.7368,3.1291 41.7368,4.9821 L41.7368,17.2371 C41.7368,19.0721 40.2558,20.5651 38.4358,20.5651 L24.3158,20.5651 C24.0558,20.5651 23.8418,20.5641 23.6628,20.5611 M43.4138,17.2371 L43.4138,4.9821 C43.4138,2.2351 41.1798,0.0001 38.4358,0.0001 L21.7518,0.0001 C18.9628,0.0001 16.6948,2.2351 16.6948,4.9821 L16.6948,12.5811 L5.0388,12.5811 C2.2608,12.5811 -0.0002,14.8341 -0.0002,17.6041 L-0.0002,29.8581 C-0.0002,32.5971 2.2608,34.8241 5.0388,34.8241 L20.4868,34.8241 L25.3308,39.2701 C25.5908,39.5071 25.9628,39.5501 26.2258,39.4351 C26.5308,39.3011 26.7188,39.0091 26.7188,38.6731 L26.7188,25.8571 C26.7188,25.3951 26.3428,25.0191 25.8798,25.0191 C25.4178,25.0191 25.0418,25.3951 25.0418,25.8571 L25.0418,36.7751 L21.3678,33.3881 C21.1978,33.2321 20.9988,33.1471 20.8108,33.1471 L5.0388,33.1471 C3.1858,33.1471 1.6778,31.6711 1.6778,29.8581 L1.6778,17.6041 C1.6778,15.7591 3.1858,14.2591 5.0388,14.2591 L16.6948,14.2591 L16.6948,26.0521 C16.6948,26.3731 16.9048,26.6811 17.2168,26.8191 C17.5208,26.9521 17.8888,26.8941 18.1318,26.6711 L22.4118,22.7711 C22.6758,22.5281 22.8708,22.3521 22.9728,22.2831 L23.0848,22.2431 C23.1778,22.2321 23.4128,22.2331 23.6268,22.2371 C23.8168,22.2411 24.0418,22.2431 24.3158,22.2431 L38.4358,22.2431 C41.1798,22.2431 43.4138,19.9981 43.4138,17.2371" id="Fill-1" fill="url(#linearGradient-3)" mask="url(#mask-2)"></path>
        </g>
    </g>
</svg>