<?xml version="1.0" encoding="UTF-8"?>
<svg width="138px" height="138px" viewBox="0 0 138 138" version="1.1" xmlns="http://www.w3.org/2000/svg" xmlns:xlink="http://www.w3.org/1999/xlink">
    <!-- Generator: Sketch 50.2 (55047) - http://www.bohemiancoding.com/sketch -->
    <title>electricity</title>
    <desc>Created with Sketch.</desc>
    <defs>
        <filter x="-39.9%" y="-39.9%" width="179.7%" height="182.4%" filterUnits="objectBoundingBox" id="filter-1">
            <feOffset dx="0" dy="2" in="SourceAlpha" result="shadowOffsetOuter1"></feOffset>
            <feGaussianBlur stdDeviation="20" in="shadowOffsetOuter1" result="shadowBlurOuter1"></feGaussianBlur>
            <feColorMatrix values="0 0 0 0 0.635655825   0 0 0 0 0.602323021   0 0 0 0 0.602323021  0 0 0 0.5 0" type="matrix" in="shadowBlurOuter1" result="shadowMatrixOuter1"></feColorMatrix>
            <feMerge>
                <feMergeNode in="shadowMatrixOuter1"></feMergeNode>
                <feMergeNode in="SourceGraphic"></feMergeNode>
            </feMerge>
        </filter>
    </defs>
    <g id="Page-1" stroke="none" stroke-width="1" fill="none" fill-rule="evenodd">
        <g id="Home@2x" transform="translate(-419.000000, -711.000000)" fill="#FFFFFF" fill-rule="nonzero">
            <g id="Rectangle-Copy-5" transform="translate(411.000000, 704.000000)">
                <g id="Oval" filter="url(#filter-1)">
                    <g id="Group-9">
                        <g id="electricity" transform="translate(40.000000, 36.000000)">
                            <path d="M37,4 C37.5522169,4 38,3.51992553 38,2.92756633 L38,1.07243367 C38,0.480074475 37.5522169,0 37,0 C36.4477831,0 36,0.480074475 36,1.07243367 L36,2.92756633 C36,3.51992553 36.4477831,4 37,4 Z" id="Shape"></path>
                            <path d="M37,9 C37.5522169,9 38,8.45204882 38,7.77593723 L38,7.22406277 C38,6.54795118 37.5523504,6 37,6 C36.4476496,6 36,6.54795118 36,7.22406277 L36,7.77593723 C36,8.45204882 36.4477831,9 37,9 Z" id="Shape"></path>
                            <path d="M37,65 C37.5522169,65 38,64.4855222 38,63.85037 L38,61.14963 C38,60.5146314 37.5523504,60 37,60 C36.4476496,60 36,60.5146314 36,61.14963 L36,63.85037 C36,64.4853686 36.4477831,65 37,65 Z" id="Shape"></path>
                            <path d="M36.94404,68.0006342 C36.4033341,68.0220959 35.9809239,68.5157156 36.0006835,69.1029995 C36.0538119,70.6793705 36.0538119,72.3370402 36.0006835,73.8964977 C35.9806622,74.4837815 36.4029415,74.9775434 36.9436475,74.9992893 C36.9559481,74.9997157 36.9681179,75 36.9804186,75 C37.5047673,75 37.9394781,74.5490195 37.958976,73.9749538 C38.0136747,72.3644714 38.0136747,70.652792 37.958976,69.0253961 C37.9392164,68.4379702 37.4861854,67.9805938 36.94404,68.0006342 Z" id="Shape"></path>
                            <path d="M18.7634136,7.8717156 C19.2272451,8.73456027 19.6652245,9.54962871 20.0699656,10.3964472 C20.2535285,10.7806225 20.6087542,11 20.9764271,11 C21.1376944,11 21.3014238,10.9578178 21.4539369,10.8686154 C21.9541526,10.5766664 22.1453754,9.89177301 21.8812472,9.33886904 C21.4525691,8.4418553 20.9806674,7.56419395 20.5244958,6.71525881 C20.3198683,6.33456092 20.1141466,5.95189755 19.9100662,5.56348893 C19.6259677,5.0228314 18.9989541,4.83943722 18.5099546,5.15330887 C18.0208183,5.46733172 17.8546268,6.16023817 18.1387253,6.70089571 C18.3462252,7.09565432 18.5555033,7.48481889 18.7634136,7.8717156 Z" id="Shape"></path>
                            <path d="M22.1448393,13.6391872 C22.7909908,14.7944761 23.372435,15.9254567 23.9346775,17.0193277 L24.1569441,17.4514104 C24.3377823,17.8025135 24.6718399,18 25.0158928,18 C25.1796336,18 25.3454787,17.9554109 25.4983035,17.8610546 C25.9721654,17.569068 26.1399833,16.9123139 25.8731318,16.3940736 L25.6515228,15.9634294 C25.0804685,14.8527296 24.490081,13.7042009 23.8249909,12.5152545 C23.541305,12.0078019 22.9351353,11.8480004 22.4710057,12.1583979 C22.0071392,12.4689394 21.8610219,13.1318784 22.1448393,13.6391872 Z" id="Shape"></path>
                            <path d="M49.885334,57.5438332 C49.6063176,57.0238107 48.9883801,56.8456294 48.5053635,57.1457931 C48.022077,57.446102 47.8565291,58.1110511 48.1355454,58.6310735 L49.114666,60.456162 C49.3018013,60.8049734 49.6412621,61 49.9904373,61 C50.1619217,61 50.3355648,60.9529497 50.4946365,60.854202 C50.977923,60.5538931 51.1434709,59.888944 50.8644546,59.3689216 L49.885334,57.5438332 Z" id="Shape"></path>
                            <path d="M53.8480401,64.542474 C53.5745387,64.0237512 52.9689475,63.8460152 52.4953457,64.1454287 C52.021744,64.4449872 51.859336,65.1081296 52.1328374,65.6269973 L54.1519599,69.4575211 C54.3353963,69.8054608 54.6681474,70 55.0104209,70 C55.1783835,70 55.3487267,69.9530672 55.5046543,69.8545664 C55.978256,69.555008 56.140664,68.8918655 55.8671626,68.3729979 L53.8480401,64.542474 Z" id="Shape"></path>
                            <path d="M5.56319509,20.1510597 C6.74828316,20.8232733 7.92094658,21.5860591 9.16257378,22.3937505 C9.90316658,22.8753818 10.6688879,23.3734531 11.4376804,23.8506699 C11.6008761,23.9518978 11.7784508,24 11.9537919,24 C12.3173176,24 12.6705127,23.7929777 12.8630249,23.4238387 C13.1485126,22.8767518 12.9733111,22.1807916 12.4715787,21.8693448 C11.7213533,21.4038491 10.9649854,20.9118667 10.2334668,20.4360198 C9.02087695,19.647204 7.76696471,18.8314448 6.52785036,18.1287868 C6.01578733,17.8384989 5.38464312,18.0554156 5.1181414,18.6139192 C4.85177928,19.1724227 5.05099246,19.8606196 5.56319509,20.1510597 Z" id="Shape"></path>
                            <path d="M14.597383,26.0149384 L16.2077996,26.8552186 C16.3960591,26.9532777 16.6013896,27 16.8040079,27 C17.2169025,27 17.6184696,26.8064774 17.8397543,26.4599538 C18.1696871,25.943413 17.9737696,25.2831001 17.4024498,24.9850292 L15.7923523,24.1447491 C15.220873,23.8468224 14.4903304,24.023473 14.1603976,24.5398697 C13.8303053,25.0562663 14.0260633,25.7165791 14.597383,26.0149384 Z" id="Shape"></path>
                            <path d="M62.4900322,50.8010981 L58.5292892,48.1579466 C58.0417356,47.8326671 57.4181681,48.0259149 57.1367458,48.5896068 C56.8551874,49.1532986 57.0223797,49.873729 57.5100694,50.1991658 L61.4705401,52.8420026 C61.6310611,52.9490128 61.8064225,53 61.9793331,53 C62.3315534,53 62.6742433,52.7888123 62.8632196,52.4106572 C63.1447781,51.8471226 62.9777219,51.126535 62.4900322,50.8010981 Z" id="Shape"></path>
                            <path d="M69.4743886,54.1600962 L67.5766717,53.1323677 C67.0738518,52.8599308 66.4312194,53.0214968 66.1409258,53.4934223 C65.8507727,53.9649528 66.0230116,54.5678956 66.5258315,54.8400692 L68.4231273,55.8677976 C68.5887686,55.9573371 68.7694301,56 68.9478455,56 C69.3109932,56 69.6643147,55.8232913 69.8588731,55.5070064 C70.149307,55.0354759 69.9770681,54.4325331 69.4743886,54.1600962 Z" id="Shape"></path>
                            <path d="M2.78756477,36 L1.21243523,36 C0.542746114,36 0,36.4476496 0,37 C0,37.5523504 0.542746114,38 1.21243523,38 L2.78756477,38 C3.45709197,38 4,37.5523504 4,37 C4,36.4476496 3.45709197,36 2.78756477,36 Z" id="Shape"></path>
                            <path d="M6.12943423,38 C6.13350755,38 6.13758087,38 6.14165419,37.9998676 C7.04170726,37.99126 7.96092001,37.9856982 8.87394735,37.9830497 C9.49791978,37.9811958 10.0019555,37.5359862 9.9999943,36.9882805 C9.99803307,36.4417665 9.49263954,36 8.87047749,36 C8.86927058,36 8.86806367,36 8.86685676,36 C7.94809659,36.0026485 7.02300015,36.0083427 6.11736513,36.0168179 C5.49354357,36.0227769 4.99327942,36.4715619 5.00006829,37.0191353 C5.00685716,37.5631332 5.51119463,38 6.12943423,38 Z" id="Shape"></path>
                            <path d="M12.1959763,37.9884477 C12.7250625,37.991369 13.2539879,37.9952198 13.783074,38 C13.7875755,38 13.792077,38 13.7965785,38 C14.4552434,38 14.9928502,37.561944 14.999924,37.0167308 C15.0073193,36.467667 14.4742139,36.0176603 13.8094399,36.0115523 C13.2768169,36.006772 12.7441938,36.0027885 12.2117316,36 C12.2089985,36 12.2064262,36 12.2036932,36 C11.5424561,36 11.0043669,36.4409773 11.0000262,36.9877838 C10.9956855,37.5368477 11.5312023,37.9848626 12.1959763,37.9884477 Z" id="Shape"></path>
                            <path d="M65.9998293,37.027187 C66.0100173,36.4800509 65.5629682,36.0285809 65.0012703,36.018657 C63.5802494,35.9936489 62.3456007,35.9939135 60.9977975,36.018657 C60.4360996,36.0291102 59.989458,36.4809771 60.0001894,37.0281132 C60.0106491,37.5687658 60.4639467,37.9999911 61.0166792,37.9999911 C61.0231995,37.9999911 61.0298557,37.9999911 61.036376,37.9998588 C62.358098,37.9753799 63.569518,37.9753799 64.9645936,37.9998588 C65.5227596,38.0089887 65.9896413,37.5743231 65.9998293,37.027187 Z" id="Shape"></path>
                            <path d="M73.9248718,36.0186066 C72.3847397,35.993864 70.75353,35.9937317 69.0767085,36.0186066 C68.472351,36.0276039 67.99021,36.4783957 68.000151,37.0255117 C68.0099459,37.5670705 68.4980808,38 69.0942515,38 C69.1003916,38 69.1065316,38 69.1125255,37.9997354 C70.7647868,37.9752574 72.3707053,37.9752574 73.8858385,37.9997354 C74.483325,38.0087327 74.9890029,37.5739508 74.9998211,37.0268348 C75.0106393,36.4798512 74.5293755,36.0283978 73.9248718,36.0186066 Z" id="Shape"></path>
                            <path d="M8.41933615,53.1985489 C7.93217969,53.5699147 7.42069882,53.8563519 6.87941387,54.1598321 C6.40562247,54.4253594 5.915793,54.6999094 5.44627842,55.0348977 C4.98611939,55.3631547 4.86155702,56.0288347 5.16788421,56.5217931 C5.36060839,56.8321478 5.67816222,57 6.00173034,57 C6.19218245,57 6.38490663,56.9418533 6.55531115,56.8202607 C6.93701728,56.5480021 7.35948685,56.3111186 7.80694907,56.0603428 C8.38405239,55.7369552 8.98066869,55.4025398 9.57915611,54.9465318 C10.0295586,54.6032369 10.135009,53.9336899 9.81478212,53.4511865 C9.49455527,52.9681102 8.86960504,52.8553972 8.41933615,53.1985489 Z" id="Shape"></path>
                            <path d="M16.3186979,48.1246085 C15.5676243,48.5032289 14.8501138,48.9491629 14.1562678,49.3804635 C13.3666815,49.871222 12.5501828,50.3787705 11.6563495,50.8069904 C11.0798974,51.0831768 10.8375308,51.7723336 11.114698,52.3462715 C11.3140666,52.7590878 11.728116,53 12.1591791,53 C12.3274592,53 12.4985233,52.9631854 12.660462,52.8858594 C13.6687505,52.4026486 14.5400021,51.8612123 15.3826399,51.3373361 C16.0631844,50.9141994 16.7059896,50.5147842 17.364571,50.1826827 C17.9353004,49.8950976 18.1637468,49.2010117 17.8749794,48.6327731 C17.5860573,48.0643805 16.8889632,47.8368694 16.3186979,48.1246085 Z" id="Shape"></path>
                            <path d="M58.067116,27 C58.2160615,27 58.3675702,26.9683121 58.5116743,26.9010474 C59.3758717,26.4990434 60.1624637,25.9813787 60.9231397,25.4805662 C61.7373564,24.9444649 62.5064337,24.438035 63.3543981,24.0695914 C63.8955005,23.8345249 64.1455467,23.2001912 63.9131575,22.6529992 C63.6807683,22.1059512 63.0533743,21.8525922 62.5126991,22.0879467 C61.4965658,22.5294164 60.6137146,23.110601 59.759912,23.6727727 C59.0315598,24.152412 58.3435054,24.6054046 57.6211337,24.9412961 C57.0861544,25.19019 56.8517716,25.8304292 57.0976884,26.3717158 C57.2772489,26.7670941 57.6634251,27 58.067116,27 Z" id="Shape"></path>
                            <path d="M66.116176,22 C66.3054465,22 66.4970996,21.9496014 66.6726699,21.8438266 L69.4423323,20.1735176 C69.9757444,19.8516821 70.1583136,19.139413 69.8503583,18.5823841 C69.5424029,18.0255107 68.8606719,17.8346494 68.3272599,18.1561738 L65.5577463,19.8264828 C65.0244832,20.1481627 64.8416161,20.8604318 65.1495714,21.4174607 C65.356116,21.7910947 65.7307851,22 66.116176,22 Z" id="Shape"></path>
                            <path d="M22.3807161,64.1373461 C21.8120061,63.8332797 21.106295,64.050985 20.8044257,64.6235389 C19.9779046,66.1905782 19.0157837,67.8008764 18.1669999,69.2213681 C17.8350837,69.7768379 18.0133408,70.4979769 18.5650814,70.8319798 C18.7529907,70.9457696 18.9602048,71 19.1647723,71 C19.5602071,71 19.9459896,70.7971846 20.1650356,70.4313644 C21.0289206,68.9854816 22.008011,67.3466576 22.8636448,65.724134 C23.1655142,65.1517368 22.9494261,64.4414126 22.3807161,64.1373461 Z" id="Shape"></path>
                            <path d="M48.5146684,17.8504318 C48.6766689,17.951733 48.8536466,18 49.028151,18 C49.3836179,18 49.7294664,17.7999302 49.9200473,17.4420987 L50.8619589,15.6733506 C51.1461126,15.1398808 50.9775165,14.4577366 50.4853316,14.1496619 C49.9931467,13.8415872 49.363969,14.0243762 49.0799527,14.557995 L48.1380411,16.3267431 C47.8538874,16.8602129 48.0224835,17.5423571 48.5146684,17.8504318 Z" id="Shape"></path>
                            <path d="M54.3273628,11.4157538 C54.4864508,11.1416595 54.6619396,10.8543253 54.8487451,10.561498 C55.1746295,10.0506346 54.9564985,9.4097667 54.3618045,9.12989756 C53.7667825,8.85002842 53.0205449,9.03735905 52.6946605,9.5480815 C52.4927663,9.86443082 52.3025167,10.1759912 52.129324,10.4743117 C51.8267288,10.9954571 52.0732332,11.6287191 52.6800638,11.8887284 C52.8562086,11.9643649 53.0431781,12 53.2273593,12 C53.6782181,12 54.1123479,11.7859079 54.3273628,11.4157538 Z" id="Shape"></path>
                            <path d="M56.4526742,5.15888824 C55.9331059,4.82803923 55.271311,5.03061963 54.9751383,5.61105933 C54.6844636,6.18099844 54.3842397,6.7418909 54.155346,7.16676047 C53.8467303,7.7391228 54.0122513,8.48240223 54.5250194,8.82682122 C54.6998003,8.94410461 54.8923777,9 55.0824955,9 C55.4499985,9 55.808531,8.79111925 56.0119599,8.41390615 C56.247075,7.97756671 56.5558355,7.40068106 56.8577956,6.80877151 C57.1539684,6.22817027 56.9725318,5.48941416 56.4526742,5.15888824 Z" id="Shape"></path>
                            <path d="M43.5883413,43.3013088 C43.1215587,42.9310051 42.4470465,43.0142472 42.0813332,43.4871145 L33.7742952,54.2360924 L37.5990163,44.0462746 C37.8121937,43.4785433 37.7363559,42.8410804 37.3960175,42.3410469 C37.0556791,41.840868 36.4947086,41.5423297 35.8953173,41.5423297 L25.3878352,41.5423297 L28.7639807,35.6328688 C29.0610241,35.1129326 28.8859807,34.4475771 28.3728926,34.1464239 C27.8596611,33.8457064 27.2029256,34.0229409 26.9060255,34.542877 L23.2483196,40.945253 C22.9178731,41.5232988 22.9171563,42.2142226 23.2465992,42.79314 C23.5760422,43.3722026 24.1664017,43.7178098 24.8258611,43.7178098 L35.4253808,43.7178098 L31.0080063,55.4870479 C30.6799969,56.3611624 31.0121638,57.2925148 31.8157007,57.7523074 C32.1075832,57.9192274 32.4196795,58.0001451 32.7264715,57.9999998 C33.2640743,57.9999998 33.7844738,57.7514358 34.1467464,57.2827814 L43.7716997,44.8284305 C44.1371262,44.3555632 44.0551239,43.6719031 43.5883413,43.3013088 Z" id="Shape"></path>
                            <path d="M50.14939,32.3150496 L38.2784308,32.3150496 L39.9766081,19.132126 C40.0927663,18.2304282 39.5836475,17.3961428 38.7387021,17.1035281 C37.893466,16.8101725 36.9913865,17.1558283 36.5441993,17.9431472 L31.1466963,27.444607 C30.8454701,27.9748693 31.0229784,28.6534392 31.5432915,28.9605735 C32.0636045,29.2674116 32.7295878,29.086509 33.030814,28.5562467 L37.6038701,20.5058596 L36.0711345,32.404686 C36.0017885,32.9425045 36.1633051,33.4846196 36.5142511,33.892206 C36.8651971,34.2999406 37.3716991,34.5337361 37.9039333,34.5337361 L49.4745386,34.5337361 L47.4206177,37.2066791 C47.0500454,37.6889378 47.1332025,38.3861758 47.606558,38.7641303 C47.8057278,38.9229571 48.0421148,39 48.2769026,39 C48.6000812,39 48.9200613,38.854063 49.1347868,38.5746345 L51.6047837,35.3603171 C52.0442658,34.7882738 52.1233522,34.0270311 51.8112225,33.3739446 C51.4990928,32.7208581 50.8623308,32.3150496 50.14939,32.3150496 Z" id="Shape"></path>
                        </g>
                    </g>
                </g>
            </g>
        </g>
    </g>
</svg>