<?xml version="1.0" encoding="UTF-8"?>
<svg width="24px" height="24px" viewBox="0 0 24 24" version="1.1" xmlns="http://www.w3.org/2000/svg" xmlns:xlink="http://www.w3.org/1999/xlink">
    <!-- Generator: Sketch 52.6 (67491) - http://www.bohemiancoding.com/sketch -->
    <title>icon/firefox</title>
    <desc>Created with Sketch.</desc>
    <g id="icon/firefox" stroke="none" stroke-width="1" fill="none" fill-rule="evenodd">
        <g id="firefox">
            <rect id="Rectangle" x="0" y="0" width="24" height="24"></rect>
            <path d="M15.0150521,5 C16.5439583,6.02914271 17.4246875,8.74313905 17.4246875,10.7955436 C17.4246875,11.3199164 17.3554167,11.8315473 17.2317187,12.3088735 C17.1208854,11.1160481 16.5014062,10.0663225 15.5791146,9.38414794 C16.08875,10.0653424 16.3915625,10.9043387 16.3915625,11.8178254 C16.3915625,14.0750784 14.5400521,15.9089127 12.2610417,15.9089127 C11.33875,15.9089127 10.8845312,15.7315081 10.1957812,15.2267381 C11.5930729,15.2267381 12.4530208,13.8633691 13.6375521,13.8633691 C13.6375521,13.8633691 13.4663542,13.1811945 12.6054167,13.1811945 C11.7444792,13.1811945 12.1511979,13.8633691 10.5401562,13.8633691 C8.92911458,13.8633691 8.13052083,12.9018557 8.13052083,12.1589127 C8.13052083,11.4159697 9.24578125,10.8768949 9.50703125,11.1366309 C9.7415625,10.9043387 9.50703125,10.4544564 9.50703125,10.4544564 L11.5732812,9.0910873 C11.5732812,9.0910873 11.2289062,9.0910873 10.8845312,9.0910873 C7.82770833,9.0910873 9.58322917,6.97007318 10.1957812,6.36336905 C9.10130208,6.36336905 8.41255208,7.36604809 8.12953125,7.72673811 C7.95734375,7.64538683 6.75302083,7.64538683 6.40864583,7.72673811 C6.25723958,7.76104286 6.04447917,7.49542603 5.84458333,7.12689493 C5.5971875,6.66329064 5.37651042,6.04286461 5.37651042,5.68119446 C4.50270833,6.54763461 4.65411458,7.84337428 4.99848958,8.35402509 C4.98463542,8.36774699 4.97078125,8.38832985 4.96385417,8.4089127 C4.35130208,9.52038683 4,10.8024046 4,12.1589127 C4,16.488173 7.54567708,20 11.9166667,20 C16.2876562,20 19.8333333,16.8292603 19.8333333,12.5 C19.8333333,12.4245295 19.8333333,11.8932959 19.8333333,11.8178254 C19.8333333,7.76986409 17.2178646,5.65375065 15.0150521,5 Z" id="Shape" fill="#FFFFFF" fill-rule="nonzero"></path>
        </g>
    </g>
</svg>