<?xml version="1.0" encoding="UTF-8"?>
<svg width="100px" height="112px" viewBox="0 0 100 112" version="1.1" xmlns="http://www.w3.org/2000/svg" xmlns:xlink="http://www.w3.org/1999/xlink">
    <!-- Generator: Sketch 52.6 (67491) - http://www.bohemiancoding.com/sketch -->
    <title>icon/forum</title>
    <desc>Created with Sketch.</desc>
    <defs>
        <polygon id="path-1" points="0 0 97.084699 0 97.084699 107.516893 0 107.516893"></polygon>
    </defs>
    <g id="icon/forum" stroke="none" stroke-width="1" fill="none" fill-rule="evenodd">
        <g id="Group-3-Copy" transform="translate(1.000000, 2.000000)">
            <mask id="mask-2" fill="white">
                <use xlink:href="#path-1"></use>
            </mask>
            <g id="Clip-2"></g>
            <path d="M57.2630175,67.8616071 C57.2611146,72.7206429 53.3582408,76.6742143 48.5648039,76.6742143 L48.5619495,76.6742143 C46.2384932,76.67325 44.054901,75.7562143 42.4126874,74.0899286 C40.7704738,72.4246071 39.8665903,70.2106071 39.8675417,67.8567857 C39.8684932,65.502 40.7733282,63.288 42.4164932,61.6236429 C44.0587068,59.96025 46.242299,59.0432143 48.5638524,59.0432143 L48.5667068,59.0432143 C50.8911146,59.0441786 53.0747068,59.9612143 54.7159689,61.6265357 C56.3372505,63.2658214 57.2658718,65.5386429 57.2630175,67.8616071 Z M48.5571922,56.6922857 C45.6590563,56.6922857 42.824668,57.8870357 40.7818913,59.9708571 C38.7077165,62.07975 37.5688233,64.8800357 37.5735806,67.85775 C37.5792893,70.8345 38.7276971,73.6309286 40.8075806,75.7330714 C45.1043573,80.0723571 52.0823379,80.0578929 56.3600854,75.7051071 C58.4333087,73.5971786 59.5731534,70.7959286 59.5683961,67.8191786 C59.5626874,64.8424286 58.4142796,62.0450357 56.3334447,59.9438571 C54.2583184,57.8475 51.5009981,56.6922857 48.5705126,56.6922857 C48.5648039,56.6922857 48.5609981,56.6922857 48.5571922,56.6922857 Z M35.3405126,21.7041429 C35.3405126,20.9394643 35.9542019,20.3165357 36.7096583,20.3165357 C37.4641631,20.3165357 38.0788039,20.9394643 38.0788039,21.7041429 C38.0788039,22.4688214 37.4641631,23.09175 36.7096583,23.09175 C35.9542019,23.09175 35.3405126,22.4688214 35.3405126,21.7041429 Z M76.1208816,52.81875 L76.121833,52.81875 C78.4452893,52.81875 80.6288816,53.7357857 82.2710951,55.4001429 C83.9152117,57.0645 84.8200466,59.2785 84.8200466,61.6332857 C84.8209981,63.9871071 83.9171146,66.2011071 82.2739495,67.8664286 C80.6317359,69.53175 78.4481437,70.4487857 76.1237359,70.44975 L76.121833,70.44975 C73.7993282,70.44975 71.6157359,69.5327143 69.9725709,67.8683571 C68.3303573,66.2049643 67.4255223,63.9919286 67.4245709,61.6361786 C67.4217165,59.3141786 68.3493864,57.0413571 69.970668,55.4020714 C71.613833,53.73675 73.7974252,52.8197143 76.1208816,52.81875 Z M65.1134835,61.6275 C65.1106291,64.6052143 66.2514252,67.4064643 68.3275029,69.5153571 C70.3702796,71.5991786 73.204668,72.7939286 76.1028039,72.7939286 L76.111367,72.7939286 L76.1199301,72.7939286 C79.0580272,72.7939286 81.8201049,71.6358214 83.8980854,69.5327143 C85.9798718,67.4276786 87.1273282,64.6273929 87.1301825,61.6467857 C87.1330369,58.6661786 85.9893864,55.8639643 83.9123573,53.7550714 C81.8343767,51.6461786 79.0713476,50.48325 76.1313476,50.4803571 L76.1208816,50.4803571 C73.1837359,50.4803571 70.4226097,51.6375 68.3436777,53.7406071 C66.2637942,55.8466071 65.1163379,58.6468929 65.1134835,61.6275 Z M31.0465903,8.18389286 C36.0522019,4.32385714 42.2214447,2.26414286 48.540066,2.37889286 C54.8406097,2.27185714 61.0098524,4.32385714 66.0059495,8.17617857 C70.5244155,11.79225 73.1114252,16.84125 73.1114252,22.0348929 C73.1114252,27.2690357 70.6033864,32.1917143 66.048765,35.8965 L66.0402019,35.9042143 C61.0441049,39.7565357 54.855833,41.8085357 48.5571922,41.7024643 C46.9711146,41.7236786 45.404066,41.5838571 43.8474835,41.34375 C42.3051728,41.1094286 40.766668,40.7468571 39.2766874,40.2666429 C38.9674641,40.1682857 38.6335029,40.2068571 38.3556777,40.3707857 L31.0741825,44.7274286 L32.1559883,37.4547857 C32.2197359,37.0208571 32.0389592,36.5907857 31.6859689,36.3342857 C29.3377748,34.6130357 27.3463767,32.3517857 25.9239495,29.7954643 C24.6375806,27.4223571 23.9553864,24.7416429 23.9506291,22.0358571 C23.9506291,16.8132857 26.4710369,11.8935 31.0465903,8.18389286 Z M29.5480466,37.6167857 L29.7640272,37.7903571 L28.429134,46.7871429 C28.3834641,47.0937857 28.4586291,47.3994643 28.6394058,47.6492143 C28.8192311,47.898 29.0865903,48.0619286 29.3882019,48.1082143 C29.6479495,48.14775 29.9124544,48.0966429 30.1360466,47.9626071 L39.1120854,42.6590357 L39.3090369,42.7188214 C40.6781825,43.1315357 42.0882408,43.4526429 43.4973476,43.6734643 C45.1690563,43.9347857 46.8712117,44.0668929 48.5590951,44.0668929 L48.5762214,44.0668929 C55.433367,44.1671786 62.1040272,41.8953214 67.497833,37.692 C72.6261825,33.5166429 75.4548621,27.9546429 75.4548621,22.0348929 C75.4548621,16.1016429 72.6242796,10.5406071 67.4826097,6.37489286 C62.0897553,2.17253571 55.3772311,-0.0935357143 48.5714641,0.00289285714 C48.4373087,0.000964285714 48.3012505,-7.29573194e-16 48.1661437,-7.29573194e-16 C41.4888233,-7.29573194e-16 34.930435,2.25642857 29.6441437,6.37778571 C24.5072311,10.5377143 21.6747456,16.0997143 21.6747456,22.0348929 C21.6814058,25.1341071 22.4654058,28.2072857 23.9430175,30.92175 C25.3673476,33.5166429 27.253134,35.7692143 29.5480466,37.6167857 Z M59.1859107,21.7041429 C59.1859107,20.9394643 59.8005515,20.3165357 60.5550563,20.3165357 C61.3105126,20.3165357 61.9242019,20.9394643 61.9242019,21.7041429 C61.9242019,22.4688214 61.3105126,23.09175 60.5550563,23.09175 C59.8005515,23.09175 59.1859107,22.4688214 59.1859107,21.7041429 Z M14.8566097,55.4068929 C16.4988233,53.7415714 18.6824155,52.8245357 21.0068233,52.8235714 L21.0077748,52.8235714 C23.3302796,52.8235714 25.5138718,53.7396429 27.1560854,55.4049643 C28.8002019,57.0693214 29.7050369,59.2833214 29.7050369,61.6371429 C29.7088427,63.9591429 28.7802214,66.2319643 27.1589398,67.8722143 C25.4634447,69.5905714 23.235134,70.4507143 21.0087262,70.4507143 C18.781367,70.4507143 16.5540078,69.5915357 14.8585126,67.8741429 C11.4665709,64.4374286 11.4656194,58.8445714 14.8566097,55.4068929 Z M20.9877942,72.8045357 L20.9982602,72.8045357 C27.0637942,72.8055 31.9999495,67.8066429 32.0056583,61.6583571 C32.0085126,58.6806429 30.8677165,55.8784286 28.7916388,53.7695357 C26.7479107,51.6857143 23.9125709,50.4909643 21.0134835,50.4909643 L20.9982602,50.4909643 C18.0601631,50.4909643 15.2990369,51.6490714 13.2201049,53.7521786 C11.1392699,55.8572143 9.99181359,58.6584643 9.98895922,61.6381071 C9.98705631,64.6187143 11.1297553,67.4209286 13.205833,69.5298214 C15.2838136,71.6387143 18.0468427,72.8026071 20.9877942,72.8045357 Z M47.2632117,21.7041429 C47.2632117,20.9394643 47.8778524,20.3165357 48.6323573,20.3165357 C49.3878136,20.3165357 50.0015029,20.9394643 50.0015029,21.7041429 C50.0015029,22.4688214 49.3878136,23.09175 48.6323573,23.09175 C47.8778524,23.09175 47.2632117,22.4688214 47.2632117,21.7041429 Z M94.8198524,98.9742857 L69.5729592,98.9742857 L69.5729592,93.7700357 L69.4939883,93.2020714 L69.4939883,92.9446071 L69.3645903,92.5791429 C67.954532,88.7798571 65.0307068,85.6767857 61.3457165,84.0702857 L60.8167068,83.8398214 L61.1392505,83.3567143 C61.8442796,82.2998571 62.6977359,81.3596786 63.675833,80.56125 C65.5816,79.4619643 67.672901,78.9036429 69.7879883,78.9036429 L69.8022602,78.9036429 L82.4204738,78.9036429 C89.2386097,78.9229286 94.7998718,84.5591786 94.8198524,91.4682857 L94.8198524,98.9742857 Z M67.2399883,105.187179 L29.8563184,105.187179 L29.8705903,94.97925 L30.1341437,94.0014643 C31.8077553,88.8579643 36.486066,85.3855714 41.8047068,85.3113214 L42.1329592,85.1281071 L54.8748621,85.1281071 C61.0745515,85.15125 66.3589398,89.8646786 67.1686291,96.0920357 C67.172435,96.3793929 67.172435,96.5915357 67.2238136,96.7795714 L67.2399883,96.9078214 L67.2399883,105.187179 Z M27.6689204,96.2251071 L27.6689204,98.9627143 L2.30975534,98.9627143 L2.30975534,91.46925 C2.32973592,84.5591786 7.8900466,78.9229286 14.7072311,78.9036429 L27.317833,78.9036429 L27.3321049,78.9036429 C29.4471922,78.9036429 31.5375417,79.461 33.3776583,80.5168929 C34.6202602,81.2285357 35.724901,82.1417143 36.6639883,83.2294286 L37.0911922,83.727 L36.4946291,83.9892857 C31.5898718,86.1473571 28.2093476,90.8337857 27.6689204,96.2251071 Z M82.4204738,76.5623571 L69.8117748,76.5623571 L69.8022602,76.5623571 C67.2866097,76.5623571 64.8014058,77.22675 62.6111534,78.4832143 C60.7558136,79.5497143 59.1164544,81.0433929 57.8709981,82.80225 L57.6959301,83.0481429 L57.4019301,82.9960714 C56.5722602,82.8485357 55.7159495,82.7646429 54.8748621,82.77525 L42.2556971,82.77525 C41.4222214,82.8051429 40.5592505,82.8485357 39.7267262,82.9960714 L39.4327262,83.0481429 L39.2586097,82.80225 C38.0141049,81.0424286 36.3747456,79.5497143 34.5184544,78.4832143 C32.3291534,77.22675 29.8439495,76.5623571 27.328299,76.5623571 L27.317833,76.5623571 L14.7081825,76.5623571 C6.61699806,76.5806786 0.0176970874,83.2689643 -0.000380582524,91.4702143 L-0.000380582524,100.144929 C0.00437669903,100.782321 0.522920388,101.304 1.15468738,101.304 L27.5014641,101.304 L27.5014641,106.34625 C27.5014641,106.991357 28.0200078,107.516893 28.656532,107.516893 L68.4283573,107.516893 C69.0648816,107.516893 69.5834252,106.991357 69.5834252,106.34625 L69.5834252,101.304 L95.9302019,101.304 C96.5667262,101.304 97.0852699,100.778464 97.0852699,100.133357 L97.0852699,91.46925 C97.0671922,83.2930714 90.4888233,76.60575 82.4204738,76.5623571 Z" id="Fill-1" fill="#1D45BA" mask="url(#mask-2)"></path>
        </g>
    </g>
</svg>