<?xml version="1.0" encoding="UTF-8"?>
<svg width="24px" height="24px" viewBox="0 0 24 24" version="1.1" xmlns="http://www.w3.org/2000/svg" xmlns:xlink="http://www.w3.org/1999/xlink">
    <!-- Generator: Sketch 52.6 (67491) - http://www.bohemiancoding.com/sketch -->
    <title>icon/google-play</title>
    <desc>Created with Sketch.</desc>
    <g id="icon/google-play" stroke="none" stroke-width="1" fill="none" fill-rule="evenodd">
        <g id="google-play">
            <rect id="Rectangle" x="0" y="0" width="24" height="24"></rect>
            <path d="M7.98091294,4.25118161 L15.6666667,8.45327969 L13.2398473,10.8571429 L6.01587302,4.25608946 C6.63223955,3.91941119 7.36058264,3.91155864 7.98091294,4.25118161 Z M5.28099754,5.01587302 L12.6190476,11.7092428 L5.26192985,18.984127 C5.09333133,18.7013085 5,18.3778039 5,18.0384218 L5,5.98539448 C5,5.63509655 5.10236339,5.30464553 5.28099754,5.01587302 Z M18.7461701,10.3675124 C19.3620197,10.7142829 19.7291796,11.3378701 19.7301587,12.0354084 C19.7301587,12.7329467 19.3620197,13.3565339 18.7471492,13.7043037 L17.0386316,14.6666667 L13.8888889,11.7016293 L16.4590085,9.07936508 L18.7461701,10.3675124 Z M13.409261,12.3809524 L16.4285714,15.1463401 L8.04349786,19.7413379 C7.72869301,19.9141122 7.38472094,20 7.0427604,20 C6.68873066,20 6.33671246,19.9041252 6.01587302,19.7223627 L13.409261,12.3809524 Z" id="Combined-Shape" fill="#FFFFFF" fill-rule="nonzero"></path>
        </g>
    </g>
</svg>