<?xml version="1.0" encoding="UTF-8"?>
<svg width="30px" height="31px" viewBox="0 0 30 31" version="1.1" xmlns="http://www.w3.org/2000/svg" xmlns:xlink="http://www.w3.org/1999/xlink">
    <!-- Generator: Sketch 50.2 (55047) - http://www.bohemiancoding.com/sketch -->
    <title>Shape</title>
    <desc>Created with Sketch.</desc>
    <defs></defs>
    <g id="Page-1" stroke="none" stroke-width="1" fill="none" fill-rule="evenodd">
        <g id="Home@2x" transform="translate(-1126.000000, -1543.000000)" fill="#415FF2" fill-rule="nonzero" stroke="#FFFFFF" stroke-width="0.5">
            <g id="download-to-hard-drive" transform="translate(1127.000000, 1544.000000)">
                <path d="M14.7350944,0 L13.3033871,0 C11.7663032,0 10.5158222,1.26317405 10.5158222,2.81586011 L10.5158222,5.42093044 L6.25874608,5.42093044 C4.98081973,5.42093044 3.86151482,6.2929381 3.53681765,7.5415412 L0.0358677106,21.0055859 L0.0340283408,21.0126758 C0.0314144996,21.0226995 0.0294299164,21.032772 0.0271065019,21.0428445 C0.0251219188,21.051548 0.0228953132,21.0601047 0.0211527524,21.0688082 C0.0171351816,21.0886599 0.0136984644,21.1086094 0.0107941963,21.1286078 C0.0102617472,21.1323238 0.00987451142,21.1360399 0.00943887121,21.139756 C0.0075026925,21.1543758 0.0058569406,21.1689957 0.0045016155,21.1835666 C0.00387235742,21.1903631 0.00343671721,21.1971597 0.00295267253,21.2040051 C0.00212979658,21.2156912 0.0015005385,21.2273773 0.00101649382,21.2390145 C0.000726067016,21.2471801 0.000532449145,21.2552968 0.000387235742,21.2635113 C0.000338831274,21.2685964 0,21.2736327 0,21.2787667 L0,26.1571494 C0,27.7246998 1.26248533,29 2.81423575,29 L25.1857642,29 C26.7375147,29 28,27.7246998 28,26.1571494 L28,21.2787667 C28,21.2736327 27.9997096,21.2685964 27.9996128,21.2635113 C27.9994676,21.2553457 27.9992739,21.2471801 27.9989835,21.2390145 C27.9984995,21.2273773 27.9978702,21.2156912 27.9970473,21.2040051 C27.9965633,21.1971597 27.9960792,21.1903631 27.9954984,21.1835666 C27.9941915,21.1689468 27.9924973,21.1543269 27.9905611,21.139756 C27.9900771,21.1360399 27.9896898,21.1323238 27.9892058,21.1286078 C27.9863015,21.1086583 27.9828648,21.0887088 27.9788472,21.0688082 C27.9771047,21.0601047 27.9748781,21.0515969 27.9729419,21.0430401 C27.9706185,21.0329187 27.9685855,21.0227972 27.9659233,21.0127247 L27.9641323,21.0056348 L24.4631339,7.5415412 C24.1384852,6.29298699 23.0191803,5.42097933 21.7412539,5.42097933 L17.5227077,5.42097933 L17.5227077,2.81586011 C17.5227077,1.26317405 16.2721783,0 14.7350944,0 Z M15.4490119,7.51562642 L15.4490119,10.3910905 C15.4490119,10.7893957 15.768675,11.1122546 16.1629778,11.1122546 L17.1975749,11.1122546 C17.798226,11.1122546 18.1304258,11.8159141 17.7523385,12.2873673 L14.415867,16.4481064 C14.4025074,16.4648287 14.3888573,16.4813555 14.3736099,16.4962198 C14.2750584,16.5927891 14.1471254,16.6410003 14.0192408,16.6410003 C13.8906785,16.6410003 13.7621646,16.5923001 13.6634195,16.4948508 C13.6491886,16.4807688 13.636313,16.4653177 13.6236795,16.4497688 L10.2501785,12.2904478 C9.86831565,11.819679 10.1998862,11.1122057 10.8024251,11.1122057 L11.8755037,11.1122057 C12.2698065,11.1122057 12.5894212,10.7892979 12.5894212,10.3910416 L12.5894212,7.51557753 L12.5894212,5.42088154 L12.5894212,2.81586011 C12.5894212,2.41755494 12.9090843,2.09469599 13.3033387,2.09469599 L14.7350944,2.09469599 C15.1293972,2.09469599 15.4490119,2.41760384 15.4490119,2.81586011 L15.4490119,5.42093044 L15.4490119,7.51562642 Z M25.9263526,26.1571494 C25.9263526,26.5696833 25.5941043,26.9052551 25.1857642,26.9052551 L2.81423575,26.9052551 C2.40584726,26.9052551 2.0736474,26.5696833 2.0736474,26.1571494 L2.0736474,22.3260658 L25.9263526,22.3260658 L25.9263526,26.1571494 Z M21.7412539,7.51562642 C22.0775682,7.51562642 22.3721093,7.7450944 22.4575916,8.07362527 L25.6188874,20.2313699 L2.38116098,20.2313699 L5.54245677,8.07367417 C5.62789065,7.7450944 5.92248024,7.51562642 6.25874608,7.51562642 L10.5158222,7.51562642 L10.5158222,9.03222739 C10.0668224,9.07828723 9.63776517,9.23255347 9.26122681,9.48514917 C8.83913985,9.76825584 8.50088943,10.1635784 8.28302092,10.6284796 C8.06515241,11.0933809 7.97671745,11.6082536 8.02744533,12.1174545 C8.08223919,12.66763 8.29618694,13.1865611 8.64619964,13.6180665 L12.019749,17.7773387 C12.0614253,17.828777 12.1267713,17.9068147 12.214577,17.9934092 C12.699493,18.4720013 13.3405133,18.735843 14.0193376,18.735843 C14.6943379,18.735843 15.3328896,18.4745927 15.8171763,18.0002057 C15.9130172,17.9062769 15.9832036,17.821736 16.0277358,17.7661904 L19.3638201,13.6059403 C19.7104445,13.1737015 19.9213911,12.6551126 19.9738132,12.1062084 C20.0224113,11.5980344 19.9324758,11.0845796 19.7138812,10.6214875 C19.4951898,10.1582976 19.1568426,9.76458865 18.7353849,9.48280217 C18.3704636,9.23890993 17.9564118,9.08713737 17.522853,9.03653022 L17.522853,7.51572421 L21.7412539,7.51572421 L21.7412539,7.51562642 Z" id="Shape"></path>
            </g>
        </g>
    </g>
</svg>