<svg xmlns="http://www.w3.org/2000/svg" xmlns:xlink="http://www.w3.org/1999/xlink" viewBox="0 0 455.18 450.14"><defs><style>.cls-1{fill:url(#linear-gradient);}.cls-2{fill:#52fcff;}.cls-3{fill:url(#linear-gradient-2);}.cls-4{fill:url(#linear-gradient-3);}.cls-5{fill:url(#linear-gradient-4);}.cls-6{fill:url(#linear-gradient-5);}.cls-7{fill:url(#linear-gradient-6);}.cls-8{fill:url(#linear-gradient-7);}.cls-9{fill:url(#linear-gradient-8);}.cls-10{fill:url(#linear-gradient-9);}.cls-11{fill:url(#linear-gradient-10);}.cls-12{fill:url(#linear-gradient-11);}.cls-13{fill:url(#linear-gradient-12);}.cls-14{fill:url(#linear-gradient-13);}.cls-15{fill:url(#linear-gradient-14);}.cls-16{fill:url(#linear-gradient-15);}.cls-17{fill:url(#linear-gradient-16);}.cls-18{fill:url(#linear-gradient-17);}.cls-19{fill:url(#linear-gradient-18);}.cls-20{opacity:0.25;}.cls-21{fill:url(#linear-gradient-19);}</style><linearGradient id="linear-gradient" x1="20.28" y1="297.63" x2="432.7" y2="297.63" gradientUnits="userSpaceOnUse"><stop offset="0" stop-color="#17d1aa"/><stop offset="0.23" stop-color="#1cb9b0"/><stop offset="0.7" stop-color="#297dc0"/><stop offset="1" stop-color="#3154cb"/></linearGradient><linearGradient id="linear-gradient-2" x1="102.71" y1="125.18" x2="326.5" y2="251.21" xlink:href="#linear-gradient"/><linearGradient id="linear-gradient-3" x1="118.53" y1="257.64" x2="350.59" y2="122.34" gradientUnits="userSpaceOnUse"><stop offset="0" stop-color="#17d1aa"/><stop offset="0.07" stop-color="#1ac2ae"/><stop offset="0.27" stop-color="#229bb8"/><stop offset="0.46" stop-color="#297cc0"/><stop offset="0.65" stop-color="#2d66c6"/><stop offset="0.83" stop-color="#3059ca"/><stop offset="1" stop-color="#3154cb"/></linearGradient><linearGradient id="linear-gradient-4" x1="252.59" y1="118.01" x2="234.57" y2="79.98" gradientUnits="userSpaceOnUse"><stop offset="0" stop-color="#17d1aa"/><stop offset="0.41" stop-color="#2398b9"/><stop offset="0.8" stop-color="#2d67c6"/><stop offset="1" stop-color="#3154cb"/></linearGradient><linearGradient id="linear-gradient-5" x1="236.87" y1="64.02" x2="187.65" y2="117.37" xlink:href="#linear-gradient-3"/><linearGradient id="linear-gradient-6" x1="206.9" y1="57.26" x2="270.07" y2="74.61" xlink:href="#linear-gradient-3"/><linearGradient id="linear-gradient-7" x1="187.56" y1="208.89" x2="221.59" y2="208.89" gradientUnits="userSpaceOnUse"><stop offset="0" stop-color="#3154cb"/><stop offset="0.17" stop-color="#3059ca"/><stop offset="0.35" stop-color="#2d66c6"/><stop offset="0.54" stop-color="#297cc0"/><stop offset="0.73" stop-color="#229bb8"/><stop offset="0.93" stop-color="#1ac2ae"/><stop offset="1" stop-color="#17d1aa"/></linearGradient><linearGradient id="linear-gradient-8" x1="185.56" y1="208.89" x2="223.59" y2="208.89" xlink:href="#linear-gradient-7"/><linearGradient id="linear-gradient-9" x1="134.47" y1="235.48" x2="293.62" y2="321.04" xlink:href="#linear-gradient"/><linearGradient id="linear-gradient-10" x1="133.57" y1="237.14" x2="292.73" y2="322.7" xlink:href="#linear-gradient"/><linearGradient id="linear-gradient-11" x1="130.01" y1="243.77" x2="289.16" y2="329.34" xlink:href="#linear-gradient"/><linearGradient id="linear-gradient-12" x1="144.22" y1="217.34" x2="303.37" y2="302.9" xlink:href="#linear-gradient"/><linearGradient id="linear-gradient-13" x1="165.81" y1="189.11" x2="293.73" y2="263.55" xlink:href="#linear-gradient"/><linearGradient id="linear-gradient-14" x1="346.44" y1="138.81" x2="505.59" y2="224.38" gradientTransform="matrix(-0.98, 0.19, -0.19, -0.98, 628.06, 241.23)" xlink:href="#linear-gradient"/><linearGradient id="linear-gradient-15" x1="345.55" y1="140.47" x2="504.7" y2="226.04" gradientTransform="matrix(-0.98, 0.19, -0.19, -0.98, 628.06, 241.23)" xlink:href="#linear-gradient"/><linearGradient id="linear-gradient-16" x1="341.98" y1="147.11" x2="501.13" y2="232.67" gradientTransform="matrix(-0.98, 0.19, -0.19, -0.98, 628.06, 241.23)" xlink:href="#linear-gradient"/><linearGradient id="linear-gradient-17" x1="356.2" y1="120.67" x2="515.35" y2="206.24" gradientTransform="matrix(-0.98, 0.19, -0.19, -0.98, 628.06, 241.23)" xlink:href="#linear-gradient"/><linearGradient id="linear-gradient-18" x1="377.78" y1="92.45" x2="505.7" y2="166.89" gradientTransform="matrix(-0.98, 0.19, -0.19, -0.98, 628.06, 241.23)" xlink:href="#linear-gradient"/><linearGradient id="linear-gradient-19" x1="85.63" y1="240.97" x2="268.87" y2="240.97" xlink:href="#linear-gradient"/></defs><title>fast-25</title><g id="add_wallet" data-name="add wallet"><path class="cls-1" d="M216.35,422.88a54.39,54.39,0,0,1-27.18-7.26L30.49,324a20.43,20.43,0,0,1,0-35.36L226.34,175.13a20.49,20.49,0,0,1,20.45,0L422.48,276.55a20.41,20.41,0,0,1,0,35.35L243.63,415.56A54.33,54.33,0,0,1,216.35,422.88Zm20.23-248.5a18.46,18.46,0,0,0-9.24,2.48L31.46,290.38a18.42,18.42,0,0,0,0,31.89l158.68,91.61a52.47,52.47,0,0,0,52.45-.05l178.9-103.66a18.42,18.42,0,0,0,0-31.89L245.79,176.85A18.41,18.41,0,0,0,236.58,174.38Z"/><path class="cls-2" d="M199.45,107.07c49.78,28.74,90,98.41,89.84,155.58s-40.65,80.27-90.43,51.53-90-98.39-89.81-155.59S149.69,78.34,199.45,107.07Z"/><path class="cls-3" d="M327.74,255c0-1.6,0-3.2-.05-4.82,0-1-.12-2-.18-2.94-.08-1.49-.14-3-.27-4.48-.09-1.06-.23-2.13-.34-3.19-.14-1.35-.26-2.69-.43-4.05a2.74,2.74,0,0,0-.05-.28c-.11-.88-.26-1.76-.39-2.64-.24-1.6-.47-3.2-.75-4.81-.18-1-.4-2-.59-3.06-.24-1.23-.45-2.46-.71-3.69-.07-.28-.14-.57-.2-.85-.15-.67-.31-1.33-.46-2-.39-1.72-.81-3.43-1.25-5.16-.19-.75-.39-1.5-.59-2.25-.14-.53-.27-1.06-.42-1.6s-.36-1.13-.52-1.7l0,0c-2-6-8.72-26.4-14.08-36.89-.73-1.43-1.48-2.86-2.07-4.31a13.12,13.12,0,0,0-1.09-2c-.5-.8-.86-1.65-1.3-2.47s-.76-1.32-1.1-2a38.73,38.73,0,0,0-2.11-3.85c-.61-.93-1.1-1.93-1.65-2.88a12.68,12.68,0,0,1-1.11-2,12.58,12.58,0,0,0-2.26-3.72,26.83,26.83,0,0,1-2-3l-.55-.86q-2.64-4.08-5.42-8.05c-.24-.34-.5-.66-.73-1-.72-1-1.44-2-2.21-3-1.35-1.72-2.58-3.55-3.92-5.28-.55-.7-1.1-1.41-1.66-2.11-1.91-2.41-3.89-4.77-5.88-7.09-.25-.29-.49-.59-.73-.88s-.76-.83-1.13-1.25q-1.57-1.78-3.18-3.52c-.69-.75-1.38-1.5-2.08-2.24q-1.68-1.76-3.38-3.47c-.48-.48-.95-1-1.43-1.47-.26-.25-.53-.49-.78-.75-.46-.48-.92-1-1.41-1.39-1.24-1.1-2.44-2.28-3.66-3.4s-2.15-1.92-3.24-2.86c-.71-.62-1.42-1.26-2.14-1.87-1.21-1-2.43-2-3.66-3-.61-.49-1.21-1-1.83-1.48q-2.78-2.16-5.6-4.2c-1.5-1.07-3-2.12-4.54-3.13q-4-2.69-8-5-4.41-2.55-8.73-4.62-2.82-1.35-5.59-2.5l-.28-.12c-.44-.19-.87-.32-1.32-.5-1.37-.55-2.74-1.08-4.1-1.55-.69-.24-1.38-.46-2.06-.68-1.19-.39-2.37-.76-3.55-1.09l-1-.3c-.52-.14-1-.24-1.54-.37-.7-.18-1.39-.35-2.09-.5-.91-.21-1.82-.39-2.73-.56l-.77-.15a93.59,93.59,0,0,0-16.67-.8c-2.82.13-6.12.47-6.13.48l-.51.11q-2.44.45-4.8,1.11c-.16,0-.34.07-.5.12l-.59.17a49.58,49.58,0,0,0-4.88,1.76l-.29.14c-.89.38-1.74.84-2.6,1.27s-1.56.71-2.31,1.13l-.57.32L123.54,86c2.11-1.22,22.08,3.58,24,4.78,7.88,4.84,23.32-4.26,31.49.11,18.19,9.74,46.85,26.88,62.14,40.29,14.31,12.56,39.7,63,52,89.58l-1.95-1.18c6.44,27.12,6.42,54.1-1.75,74.33-4.66,11.52-5.56,8.75-6.26,21.1-.11,1.84-9.86,21.12-11.59,22.12,9.13-5.29,25.92-15.07,25.92-15.07a50.31,50.31,0,0,0,11.42-9.11c10.25-10.92,16.86-27.21,18.39-48.28q.26-3.54.32-7.16C327.77,256.68,327.74,255.85,327.74,255Z"/><path class="cls-4" d="M295.33,222l-13.74-36-10.68,3.85,9.32,23.09v0c5.58,16.71,8.68,33.61,8.64,49.53-.17,56.93-40.45,79.89-90,51.29s-89.54-97.92-89.38-154.85,40.45-79.86,90-51.27c30,17.3,56.16,48.89,72.38,84.22h0l9.76-5.82a241.76,241.76,0,0,0-15.54-27.83c-4.35-6.73-9-13.25-13.94-19.47A203,203,0,0,0,212,99.81c-1.5-1.07-3-2.12-4.54-3.14-2.69-1.78-5.36-3.45-8-5q-4.39-2.53-8.72-4.61c-14.19-6.82-27.66-9.88-39.76-9.47A56.42,56.42,0,0,0,136.49,80c-22.57,6.85-38,28.31-40.46,62C91.48,204.88,134,286.64,190.89,324.57q4.05,2.7,8.06,5c53.52,30.9,99,9.67,103.33-50.27,1.31-18.05-1.25-37.65-6.91-57.32Z"/><polygon class="cls-5" points="228.23 113.05 252.97 98.15 252.99 72.4 228.25 87.3 228.23 113.05"/><path class="cls-6" d="M205.33,60.11c0-2.81,2-4,4.46-2.54l21.78,12.58A9.71,9.71,0,0,1,236,77.8l0,8.84c0,2.81-2,4-4.44,2.54l-3.27-1.88,0,25.75c-1-.75-2.11-1.49-3.17-2.2q-2.82-1.87-5.61-3.48c-2-1.19-4.09-2.26-6.11-3.23l0-25.44-3.63-2.1a9.74,9.74,0,0,1-4.42-7.66Z"/><path class="cls-7" d="M234.59,41a3.68,3.68,0,0,1,1.1-.26,4.42,4.42,0,0,1,2.3.64c6,3.3,11.86,6.9,17.78,10.32,2.75,1.59,5.52,2.91,7.07,5.86,1.27,2.41,1.09,4.73,1.09,7.33,0,1.82,0,3.65,0,5.47a3.11,3.11,0,0,1-1.29,2.85l-28,16.29a3.12,3.12,0,0,0,1.3-2.85l0-8.84a7,7,0,0,0-.08-1l0-.16a8.46,8.46,0,0,0-.22-1l0-.09a8.93,8.93,0,0,0-.39-1,9.17,9.17,0,0,0-.52-1l0,0a10.18,10.18,0,0,0-.62-.94l-.06-.09c-.2-.27-.42-.53-.64-.78l-.15-.15a4.11,4.11,0,0,0-.31-.29,7.21,7.21,0,0,0-1.34-1L209.79,57.57a4.86,4.86,0,0,0-.82-.37l-.16-.06a4,4,0,0,0-.73-.16H208a2.76,2.76,0,0,0-.71,0h0a2,2,0,0,0-.64.25c5.78-3.37,24-14,25.41-14.77A21.1,21.1,0,0,1,234.59,41Z"/><path class="cls-8" d="M221.5,212.11a.72.72,0,0,0,0-.64h0a1.06,1.06,0,0,0-.44-.59l-15.93-8.65,8.39-20.37a.84.84,0,0,0-.05-.63,1,1,0,0,0-.4-.51L192.25,169.4c-.23-.13-.42,0-.46.26l-4.23,34.4a1,1,0,0,0,.12.58,1,1,0,0,0,.37.43l12.86,7-11.15,35.22a1.09,1.09,0,0,0,.23.9c.2.26.47.33.6.17Zm-19.46.15a.92.92,0,0,0-.06-.62,1.12,1.12,0,0,0-.4-.49l-13-7,4.09-33.22,19.7,10.69L204,202a.89.89,0,0,0,0,.63,1,1,0,0,0,.41.51l15.69,8.52L191.69,245Z"/><path class="cls-9" d="M190.41,250.43h-.06a2.55,2.55,0,0,1-1.94-1,3,3,0,0,1-.56-2.72L198.51,213l-11.41-6.19a2.86,2.86,0,0,1-1.22-1.32,3,3,0,0,1-.3-1.68l4.23-34.41a2.28,2.28,0,0,1,3.39-1.78L214.06,179a2.94,2.94,0,0,1,1.31,1.52,2.84,2.84,0,0,1,0,2.14l-7.71,18.71,14.35,7.79a3,3,0,0,1,1.39,1.73,2.63,2.63,0,0,1-.42,2.56h0l-30.91,36.23A2.25,2.25,0,0,1,190.41,250.43Zm.33-47.43,11.79,6.4a2.94,2.94,0,0,1,1.28,1.45,2.88,2.88,0,0,1,.14,2h0l-7.37,23.28,20.44-24-13.53-7.34a3,3,0,0,1-1.31-1.53,2.86,2.86,0,0,1,0-2.13l7.71-18.71L194.3,174Z"/><path class="cls-10" d="M169.12,244.14c-1.66-1-3.29-.89-4.18.37l-4.56,6.38c-1.34,1.88-.54,5.74,1.75,8.59a8.84,8.84,0,0,0,2.41,2.13c1.66,1,3.29.91,4.18-.35l4.56-6.39c1.34-1.88.54-5.73-1.75-8.59A9.06,9.06,0,0,0,169.12,244.14Z"/><path class="cls-11" d="M227,277.24a4.27,4.27,0,0,0-2.41-.65c-2.3.19-3.12,3.12-1.8,6.53l4.51,11.63a10.46,10.46,0,0,0,4.17,5.18,4.1,4.1,0,0,0,2.41.64c2.3-.19,3.12-3.12,1.8-6.53l-4.51-11.63A10.43,10.43,0,0,0,227,277.24Z"/><path class="cls-12" d="M194.31,286.93c-.19-.39-.37-.78-.52-1.18-.07-.2-.14-.4-.2-.6a7.52,7.52,0,0,1-.22-.91c0-.2-.08-.39-.1-.59a6.53,6.53,0,0,1-.05-.87l0-10.41a3.26,3.26,0,0,1,1.59-3.18,2.6,2.6,0,0,1,.36-.13,2.45,2.45,0,0,1,.39-.08l.2,0a4.25,4.25,0,0,1,2.29.66,8.1,8.1,0,0,1,1.89,1.52q.21.23.42.48c.14.16.27.33.4.51s.37.53.54.81a6.32,6.32,0,0,1,.33.56c.11.2.2.39.3.59.18.39.34.79.48,1.19s.19.6.26.9.08.4.11.6a6.77,6.77,0,0,1,.1,1.17l0,10.41a5.1,5.1,0,0,1-.06.8,3.74,3.74,0,0,1-.33,1.13,3.11,3.11,0,0,1-.32.53,3.58,3.58,0,0,1-.26.29,2.38,2.38,0,0,1-1.38.63,3.38,3.38,0,0,1-1.53-.19l-.24-.09a7.15,7.15,0,0,1-.74-.36A10.17,10.17,0,0,1,194.31,286.93Z"/><path class="cls-13" d="M248.19,264.92c-1.67-1-3.31-.9-4.2.36-1.33,1.88-.54,5.73,1.76,8.59l7.83,9.74a8.44,8.44,0,0,0,2.37,2.1c1.67,1,3.31.92,4.21-.35,1.33-1.86.56-5.72-1.74-8.58l-7.82-9.71A8.94,8.94,0,0,0,248.19,264.92Z"/><path class="cls-14" d="M255.89,236c-2.65-1.53-4.83-.29-4.84,2.76a10.63,10.63,0,0,0,4.8,8.32l9.06,5.23c2.65,1.53,4.83.29,4.84-2.76a10.67,10.67,0,0,0-4.81-8.32Z"/><path class="cls-15" d="M226.06,167.84c1.82.63,3.4.26,4-1.14l3.29-7.13c1-2.1-.55-5.74-3.34-8.11a8.88,8.88,0,0,0-2.76-1.64c-1.82-.63-3.4-.27-4,1.13L220,158.08c-1,2.1.55,5.74,3.34,8.11A8.73,8.73,0,0,0,226.06,167.84Z"/><path class="cls-16" d="M163,146.19a4.23,4.23,0,0,0,2.48.19c2.23-.62,2.48-3.65.55-6.76l-6.62-10.57a10.41,10.41,0,0,0-5.06-4.31,4.17,4.17,0,0,0-2.49-.18c-2.22.63-2.47,3.66-.54,6.76l6.61,10.57A10.45,10.45,0,0,0,163,146.19Z"/><path class="cls-17" d="M193.29,130.53a10.76,10.76,0,0,1,.74,1.07c.11.18.21.37.31.55s.27.56.39.85.14.37.2.56a7.1,7.1,0,0,1,.22.85l1.92,10.23a3.25,3.25,0,0,1-1,3.42,2.63,2.63,0,0,1-.33.2,1.94,1.94,0,0,1-.36.15l-.2.05a4.18,4.18,0,0,1-2.37-.21,8.54,8.54,0,0,1-2.14-1.14l-.5-.39-.49-.43q-.36-.33-.69-.69l-.43-.5c-.13-.17-.27-.34-.39-.51a11.79,11.79,0,0,1-.7-1.09,6.58,6.58,0,0,1-.42-.84,5.48,5.48,0,0,1-.23-.56,7.12,7.12,0,0,1-.32-1.13l-1.92-10.23a5.94,5.94,0,0,1-.09-.8,4,4,0,0,1,.11-1.17,2.89,2.89,0,0,1,.22-.58,2.63,2.63,0,0,1,.2-.33,2.35,2.35,0,0,1,1.23-.88,3.41,3.41,0,0,1,1.55-.1l.25,0a5.24,5.24,0,0,1,.79.22A10.14,10.14,0,0,1,193.29,130.53Z"/><path class="cls-18" d="M144.5,162.26c1.83.63,3.42.27,4.06-1.14.95-2.1-.55-5.74-3.34-8.11l-9.51-8.1a8.87,8.87,0,0,0-2.73-1.62c-1.82-.63-3.43-.27-4.07,1.14-1,2.07.52,5.73,3.31,8.1l9.51,8.07A9,9,0,0,0,144.5,162.26Z"/><path class="cls-19" d="M142.37,192.11c2.89,1,4.79-.63,4.23-3.62a10.61,10.61,0,0,0-6.28-7.27l-9.88-3.44c-2.89-1-4.79.62-4.23,3.62a10.63,10.63,0,0,0,6.28,7.27Z"/><g class="cls-20"><path class="cls-21" d="M217.39,358.42c-12.67,0-26.69-4.23-41.19-12.6-50.1-28.93-90.73-99.31-90.57-156.9.08-28.11,9.74-49.13,27.2-59.18s40.82-7.85,65.45,6.37C228.4,165,269,235.42,268.87,293c-.08,28.13-9.74,49.15-27.2,59.2A48.08,48.08,0,0,1,217.39,358.42Zm-80.27-231.9a45.1,45.1,0,0,0-22.79,5.82c-16.5,9.49-25.62,29.59-25.7,56.59-.16,56.63,39.8,125.84,89.07,154.29,23.67,13.67,45.86,15.93,62.48,6.37S265.8,320,265.87,293c.16-56.61-39.8-125.82-89.09-154.27C162.76,130.61,149.25,126.52,137.12,126.52Z"/></g></g></svg>