<svg xmlns="http://www.w3.org/2000/svg" xmlns:xlink="http://www.w3.org/1999/xlink" viewBox="0 0 455.18 450.14"><defs><style>.cls-1{fill:url(#linear-gradient);}.cls-2{fill:url(#linear-gradient-2);}.cls-3{fill:url(#linear-gradient-3);}.cls-4{fill:url(#linear-gradient-4);}.cls-5{fill:url(#linear-gradient-5);}.cls-6{opacity:0.25;}.cls-7{fill:url(#linear-gradient-6);}.cls-8{fill:#52fcff;}</style><linearGradient id="linear-gradient" x1="20.28" y1="292.87" x2="432.7" y2="292.87" gradientUnits="userSpaceOnUse"><stop offset="0" stop-color="#17d1aa"/><stop offset="0.23" stop-color="#1cb9b0"/><stop offset="0.7" stop-color="#297dc0"/><stop offset="1" stop-color="#3154cb"/></linearGradient><linearGradient id="linear-gradient-2" x1="250" y1="217.99" x2="323.58" y2="217.99" gradientUnits="userSpaceOnUse"><stop offset="0" stop-color="#17d1aa"/><stop offset="0.07" stop-color="#1ac2ae"/><stop offset="0.27" stop-color="#229bb8"/><stop offset="0.46" stop-color="#297cc0"/><stop offset="0.65" stop-color="#2d66c6"/><stop offset="0.83" stop-color="#3059ca"/><stop offset="1" stop-color="#3154cb"/></linearGradient><linearGradient id="linear-gradient-3" x1="119.65" y1="172.26" x2="304.27" y2="172.26" xlink:href="#linear-gradient-2"/><linearGradient id="linear-gradient-4" x1="211.21" y1="103.59" x2="321.57" y2="103.59" xlink:href="#linear-gradient-2"/><linearGradient id="linear-gradient-5" x1="116.99" y1="182.8" x2="305.44" y2="182.8" gradientUnits="userSpaceOnUse"><stop offset="0" stop-color="#1d45ba"/><stop offset="1" stop-color="#2a94f3"/></linearGradient><linearGradient id="linear-gradient-6" x1="56.1" y1="134.4" x2="295.89" y2="272.85" xlink:href="#linear-gradient"/></defs><title>secure</title><g id="add_wallet" data-name="add wallet"><path class="cls-1" d="M216.35,418.12a54.39,54.39,0,0,1-27.18-7.26L30.49,319.24a20.43,20.43,0,0,1,0-35.36L226.34,170.37a20.51,20.51,0,0,1,20.46,0L422.48,271.79a20.41,20.41,0,0,1,0,35.35L243.63,410.8A54.33,54.33,0,0,1,216.35,418.12Zm20.23-248.49a18.45,18.45,0,0,0-9.24,2.47L31.46,285.61a18.43,18.43,0,0,0,0,31.9l158.68,91.61a52.47,52.47,0,0,0,52.45-.05l178.9-103.66a18.42,18.42,0,0,0,0-31.89L245.8,172.09A18.36,18.36,0,0,0,236.58,169.63Z"/><path class="cls-2" d="M304.27,121.67l12.54,11c4.3,3.78,7.16,10.14,6.72,15L313.27,262.28c-1.72,19.25-9.48,33.42-21.59,40.57h.08L272,314.3l.41-6-7.32.82c-1.51-18.47-7.68-35.52-12.84-53.59C240.49,204.16,277.79,164.73,304.27,121.67Z"/><path class="cls-3" d="M137.72,32.05a5.27,5.27,0,0,1,4.17-.37L229.35,56l74.92,65.68c-26.48,43.06-63.78,82.49-52,133.84,5.16,18.07,11.33,35.12,12.84,53.59l-35.72,4-47.28-59.89c-20.69-26.2-34.28-58.79-36.64-87.83l-9.58-118-16.2-4.78Z"/><path class="cls-4" d="M321.57,139l-19.81,12.16L211.21,66.53,229.35,56l87.46,76.68A20.62,20.62,0,0,1,321.57,139Z"/><path class="cls-5" d="M211.21,66.53l87.46,76.68c4.31,3.77,7.16,10.14,6.73,15L295.13,272.82c-2.35,26.32-15.95,43.22-36.63,45.53l-47.29,5.29-47.28-59.89c-20.68-26.2-34.28-58.79-36.63-87.83L117,49.46c-.43-5.37,2.42-8.44,6.73-7.24Z"/><g class="cls-6"><path class="cls-7" d="M144.21,282.61c-20.75-26.28-34.56-59.38-36.92-88.56L97,67.59c-.27-3.37.62-6.09,2.51-7.65a6.38,6.38,0,0,1,5.94-1l87.76,24.39,87.69,76.88c4.64,4.07,7.66,10.86,7.19,16.16L277.84,291c-2.41,26.89-16.55,44.38-37.84,46.76l-48,5.37Zm-39.47-221a3.78,3.78,0,0,0-3.47.48c-1.17,1-1.72,2.91-1.53,5.33L110,193.84c2.32,28.65,15.91,61.21,36.34,87.08l46.82,59.3L239.7,335c19.89-2.22,33.14-18.78,35.42-44.29l10.27-114.61c.39-4.42-2.3-10.37-6.27-13.85L191.9,85.79Z"/></g><path class="cls-8" d="M209.38,168.82c5.87,3.39,10.65,12.51,10.65,20.34V239c0,.95-.58,1.4-1.3,1a3.1,3.1,0,0,1-1.3-2.48V187.66c0-5.92-3.61-12.82-8.05-15.38s-8,.17-8,6.09c0,.95-.58,1.39-1.3,1a3.13,3.13,0,0,1-1.3-2.48C198.73,169,203.51,165.43,209.38,168.82Z"/><path class="cls-8" d="M219.25,240.66a1.61,1.61,0,0,1-.77-.22,3.64,3.64,0,0,1-1.55-2.92V187.66c0-5.76-3.5-12.46-7.8-14.94-1.77-1-3.46-1.18-4.76-.43-1.61.94-2.54,3.15-2.54,6.08a1.62,1.62,0,0,1-.7,1.48,1.32,1.32,0,0,1-1.35-.07,3.6,3.6,0,0,1-1.55-2.91c0-4.3,1.44-7.6,3.94-9,2.1-1.21,4.75-1,7.46.55h0c6,3.47,10.9,12.79,10.9,20.78V239a1.62,1.62,0,0,1-.7,1.48A1.1,1.1,0,0,1,219.25,240.66Zm-13.06-69.84a7,7,0,0,1,3.44,1c4.58,2.64,8.3,9.73,8.3,15.81v49.86a2.64,2.64,0,0,0,1,2c.07,0,.24.13.35.07s.2-.27.2-.62V189.16c0-7.67-4.67-16.6-10.4-19.91h0c-2.39-1.38-4.69-1.58-6.46-.56-2.19,1.26-3.44,4.24-3.44,8.18a2.67,2.67,0,0,0,1.05,2c.07,0,.25.12.35.06s.2-.27.2-.61c0-3.3,1.11-5.83,3-6.94A4.55,4.55,0,0,1,206.19,170.82Z"/><path class="cls-8" d="M209.38,181.28a3.12,3.12,0,0,1,1.3,2.48v28.05c0,.95-.58,1.4-1.3,1a3.13,3.13,0,0,1-1.3-2.48V182.26C208.08,181.31,208.67,180.87,209.38,181.28Z"/><path class="cls-8" d="M209.9,213.45a1.64,1.64,0,0,1-.77-.22,3.64,3.64,0,0,1-1.55-2.92V182.26a1.65,1.65,0,0,1,.7-1.48,1.32,1.32,0,0,1,1.35.07,3.6,3.6,0,0,1,1.55,2.91v28.05a1.6,1.6,0,0,1-.7,1.48A1.1,1.1,0,0,1,209.9,213.45Zm-1-31.82a.15.15,0,0,0-.09,0c-.1,0-.2.27-.2.61v28.05a2.64,2.64,0,0,0,1,2.05c.07,0,.25.13.35.07s.2-.27.2-.62V183.76a2.66,2.66,0,0,0-1.05-2h0A.57.57,0,0,0,208.87,181.63Z"/><path class="cls-8" d="M209.38,221.79a3.1,3.1,0,0,1,1.3,2.48v15.58c0,1-.58,1.4-1.3,1a3.15,3.15,0,0,1-1.3-2.49V222.77C208.08,221.82,208.67,221.38,209.38,221.79Z"/><path class="cls-8" d="M209.9,241.49a1.53,1.53,0,0,1-.77-.22,3.61,3.61,0,0,1-1.55-2.92V222.77a1.65,1.65,0,0,1,.7-1.48,1.32,1.32,0,0,1,1.35.07h0a3.6,3.6,0,0,1,1.55,2.91v15.59a1.62,1.62,0,0,1-.7,1.48A1.19,1.19,0,0,1,209.9,241.49Zm-1-19.35a.15.15,0,0,0-.09,0c-.1.05-.2.27-.2.61v15.58a2.64,2.64,0,0,0,1,2.05c.07,0,.25.13.35.07s.2-.27.2-.61V224.27a2.66,2.66,0,0,0-1.05-2.05h0A.57.57,0,0,0,208.87,222.14Z"/><path class="cls-8" d="M200,188.35a3.1,3.1,0,0,1,1.3,2.48v37.4c0,1-.58,1.39-1.3,1a3.15,3.15,0,0,1-1.3-2.49V189.33C198.73,188.38,199.32,187.93,200,188.35Z"/><path class="cls-8" d="M200.55,229.86a1.53,1.53,0,0,1-.77-.22,3.61,3.61,0,0,1-1.55-2.92V189.33a1.63,1.63,0,0,1,.7-1.48,1.32,1.32,0,0,1,1.35.07h0a3.6,3.6,0,0,1,1.55,2.91v37.4a1.62,1.62,0,0,1-.7,1.48A1.14,1.14,0,0,1,200.55,229.86Zm-1-41.17-.09,0c-.1.06-.2.27-.2.62v37.39a2.64,2.64,0,0,0,1.05,2.05c.07,0,.24.13.35.07s.2-.27.2-.61v-37.4a2.64,2.64,0,0,0-1.05-2.05h0A.57.57,0,0,0,199.52,188.69Z"/><path class="cls-8" d="M228.08,210.77a3.15,3.15,0,0,1,1.3,2.49v21.81c0,1-.59,1.39-1.3,1a3.1,3.1,0,0,1-1.3-2.48V211.76C226.78,210.8,227.36,210.36,228.08,210.77Z"/><path class="cls-8" d="M228.59,236.71a1.52,1.52,0,0,1-.76-.23,3.6,3.6,0,0,1-1.55-2.91V211.76a1.63,1.63,0,0,1,.7-1.49,1.34,1.34,0,0,1,1.35.07h0a3.61,3.61,0,0,1,1.55,2.92v21.81a1.65,1.65,0,0,1-.7,1.48A1.21,1.21,0,0,1,228.59,236.71Zm-1-25.59a.11.11,0,0,0-.08,0c-.1.05-.2.27-.2.62v21.81a2.64,2.64,0,0,0,1.05,2.05c.07,0,.24.13.35.07s.2-.27.2-.62V213.26a2.64,2.64,0,0,0-1-2A.54.54,0,0,0,227.56,211.12Z"/><path class="cls-8" d="M181.34,177.55a3.15,3.15,0,0,1,1.3,2.49v15.58c0,.95-.59,1.39-1.3,1a3.1,3.1,0,0,1-1.3-2.48V178.54C180,177.58,180.62,177.14,181.34,177.55Z"/><path class="cls-8" d="M181.85,197.25a1.47,1.47,0,0,1-.76-.22,3.6,3.6,0,0,1-1.55-2.91V178.54a1.63,1.63,0,0,1,.7-1.49,1.34,1.34,0,0,1,1.35.07h0a3.63,3.63,0,0,1,1.55,2.92v15.58a1.65,1.65,0,0,1-.7,1.48A1.2,1.2,0,0,1,181.85,197.25Zm-1-19.35a.11.11,0,0,0-.08,0c-.1.06-.2.27-.2.62v15.58a2.66,2.66,0,0,0,1.05,2,.41.41,0,0,0,.35.06c.1,0,.2-.27.2-.61V180a2.67,2.67,0,0,0-1-2h0A.66.66,0,0,0,180.82,177.9Z"/><path class="cls-8" d="M192.53,162.34a3,3,0,0,1,.72,2.67,23,23,0,0,0-1.27,8v40.51c0,1-.58,1.4-1.3,1a3.13,3.13,0,0,1-1.3-2.48V171.47a26.34,26.34,0,0,1,1.46-9.15C191.1,161.59,191.86,161.59,192.53,162.34Z"/><path class="cls-8" d="M191.2,215.12a1.64,1.64,0,0,1-.77-.22,3.65,3.65,0,0,1-1.54-2.92V171.47a27,27,0,0,1,1.48-9.33,1.23,1.23,0,0,1,.93-.84,1.75,1.75,0,0,1,1.6.7h0a3.5,3.5,0,0,1,.82,3.18,22.54,22.54,0,0,0-1.24,7.79v40.51a1.6,1.6,0,0,1-.7,1.48A1.06,1.06,0,0,1,191.2,215.12Zm.32-52.85h0c-.07,0-.13.08-.17.21a25.88,25.88,0,0,0-1.42,9V212a2.66,2.66,0,0,0,1,2.05c.07,0,.25.13.35.07s.2-.27.2-.62V173a23.6,23.6,0,0,1,1.3-8.14,2.52,2.52,0,0,0-.62-2.16A1,1,0,0,0,191.52,162.27Z"/><path class="cls-8" d="M209.38,156.35c11,6.37,20,23.51,20,38.21v6.23c0,1-.59,1.4-1.3,1a3.09,3.09,0,0,1-1.3-2.48v-6.23c0-12.79-7.81-27.7-17.4-33.24-4-2.32-7.77-2.72-10.88-1.19-.56.28-1.38-.32-1.83-1.32s-.36-2,.2-2.32C200.4,153.25,204.84,153.73,209.38,156.35Z"/><path class="cls-8" d="M228.59,202.43a1.57,1.57,0,0,1-.76-.22,3.62,3.62,0,0,1-1.55-2.92v-6.23c0-12.63-7.69-27.35-17.15-32.81-3.85-2.22-7.45-2.63-10.41-1.17a1.24,1.24,0,0,1-1,0,2.92,2.92,0,0,1-1.51-1.59c-.57-1.29-.38-2.57.44-3,3.68-1.82,8.29-1.33,13,1.38,11.17,6.44,20.25,23.78,20.25,38.64v6.23a1.62,1.62,0,0,1-.7,1.48A1.11,1.11,0,0,1,228.59,202.43Zm-26.11-45.21a14.42,14.42,0,0,1,7.15,2.16c9.73,5.62,17.65,20.73,17.65,33.68v6.23a2.64,2.64,0,0,0,1.05,2.05c.07,0,.24.13.35.07s.2-.27.2-.62v-6.23c0-14.54-8.86-31.49-19.75-37.77h0c-4.39-2.54-8.66-3-12-1.35-.23.11-.33.84,0,1.67a1.92,1.92,0,0,0,.93,1.06.34.34,0,0,0,.22,0A9.47,9.47,0,0,1,202.48,157.22Z"/><path class="cls-8" d="M220.08,156.5a42.39,42.39,0,0,0-10.7-9.15c-14.75-8.51-26.74.56-26.74,20.22,0,1-.59,1.4-1.3,1a3.09,3.09,0,0,1-1.3-2.48c0-21.57,13.16-31.52,29.34-22.18a46.4,46.4,0,0,1,11.75,10,2.93,2.93,0,0,1,.67,2.67C221.51,157.3,220.75,157.26,220.08,156.5Z"/><path class="cls-8" d="M181.85,169.21a1.57,1.57,0,0,1-.76-.22,3.64,3.64,0,0,1-1.55-2.92c0-11.53,3.79-20.33,10.4-24.15,5.49-3.17,12.49-2.63,19.69,1.53a47.08,47.08,0,0,1,11.88,10.15,3.44,3.44,0,0,1,.75,3.19,1.23,1.23,0,0,1-.93.8,1.83,1.83,0,0,1-1.62-.76h0a42,42,0,0,0-10.58-9c-6.25-3.62-12.29-4.11-17-1.4-5.72,3.3-9,11-9,21.18a1.62,1.62,0,0,1-.7,1.48A1.11,1.11,0,0,1,181.85,169.21Zm15.89-28.32a14.43,14.43,0,0,0-7.3,1.9c-6.29,3.63-9.9,12.12-9.9,23.28a2.64,2.64,0,0,0,1.05,2.05c.06,0,.24.13.35.07s.2-.27.2-.62c0-10.52,3.46-18.56,9.5-22,5-2.89,11.41-2.4,18,1.4a42.81,42.81,0,0,1,10.83,9.25c.28.33.55.45.7.43s.11,0,.18-.19a2.49,2.49,0,0,0-.59-2.15,46,46,0,0,0-11.62-9.94A23,23,0,0,0,197.74,140.89Z"/><path class="cls-8" d="M230.28,168.42a2.6,2.6,0,0,1,1,1.14c4.82,10,7.48,20.76,7.48,30.4v28c0,1-.59,1.4-1.3,1a3.09,3.09,0,0,1-1.3-2.48v-28a65.42,65.42,0,0,0-6.81-27.71c-.48-1-.44-2.06.1-2.39A.82.82,0,0,1,230.28,168.42Z"/><path class="cls-8" d="M237.94,229.64a1.57,1.57,0,0,1-.76-.22,3.64,3.64,0,0,1-1.55-2.92v-28A64.85,64.85,0,0,0,228.87,171c-.61-1.26-.48-2.56.29-3a1.29,1.29,0,0,1,1.37.05h0a3,3,0,0,1,1.17,1.35c4.86,10,7.53,20.9,7.53,30.62v28a1.62,1.62,0,0,1-.7,1.48A1.11,1.11,0,0,1,237.94,229.64Zm-8.17-60.87a.15.15,0,0,0-.09,0c-.23.14-.32.91.09,1.74a66,66,0,0,1,6.86,27.93v28a2.64,2.64,0,0,0,1.05,2.05c.07,0,.24.13.35.07s.2-.27.2-.62V200c0-9.57-2.64-20.29-7.43-30.18a2.15,2.15,0,0,0-.77-.93h0A.57.57,0,0,0,229.77,168.77Z"/></g></svg>