<svg xmlns="http://www.w3.org/2000/svg" xmlns:xlink="http://www.w3.org/1999/xlink" viewBox="0 0 455.18 450.14"><defs><style>.cls-1{fill:url(#linear-gradient);}.cls-2{fill:url(#linear-gradient-2);}.cls-3{fill:#52fcff;}.cls-4{fill:url(#linear-gradient-3);}.cls-5{opacity:0.25;}.cls-6{fill:url(#linear-gradient-4);}.cls-7{fill:url(#linear-gradient-5);}.cls-8{fill:url(#linear-gradient-6);}.cls-9{fill:url(#linear-gradient-7);}</style><linearGradient id="linear-gradient" x1="20.28" y1="292.87" x2="432.7" y2="292.87" gradientUnits="userSpaceOnUse"><stop offset="0" stop-color="#17d1aa"/><stop offset="0.23" stop-color="#1cb9b0"/><stop offset="0.7" stop-color="#297dc0"/><stop offset="1" stop-color="#3154cb"/></linearGradient><linearGradient id="linear-gradient-2" x1="121.62" y1="47.64" x2="348.46" y2="301.65" gradientUnits="userSpaceOnUse"><stop offset="0" stop-color="#17d1aa"/><stop offset="0.07" stop-color="#1ac2ae"/><stop offset="0.27" stop-color="#229bb8"/><stop offset="0.46" stop-color="#297cc0"/><stop offset="0.65" stop-color="#2d66c6"/><stop offset="0.83" stop-color="#3059ca"/><stop offset="1" stop-color="#3154cb"/></linearGradient><linearGradient id="linear-gradient-3" x1="196.51" y1="80.17" x2="235.97" y2="338.96" xlink:href="#linear-gradient"/><linearGradient id="linear-gradient-4" x1="90.85" y1="193.42" x2="289.03" y2="193.42" xlink:href="#linear-gradient"/><linearGradient id="linear-gradient-5" x1="238.96" y1="106.26" x2="146.04" y2="161.01" gradientTransform="matrix(1, 0.56, 0, 1, 0, -88.71)" xlink:href="#linear-gradient-2"/><linearGradient id="linear-gradient-6" x1="250.47" y1="127.5" x2="157.23" y2="182.43" gradientTransform="matrix(1, 0.56, 0, 1, 0, -88.71)" xlink:href="#linear-gradient-2"/><linearGradient id="linear-gradient-7" x1="263.08" y1="147.19" x2="169.89" y2="202.1" gradientTransform="matrix(1, 0.56, 0, 1, 0, -88.71)" xlink:href="#linear-gradient-2"/></defs><title>simple</title><g id="add_wallet" data-name="add wallet"><path class="cls-1" d="M216.35,418.12a54.39,54.39,0,0,1-27.18-7.26L30.49,319.24a20.43,20.43,0,0,1,0-35.36L226.34,170.37a20.49,20.49,0,0,1,20.45,0L422.48,271.79a20.41,20.41,0,0,1,0,35.35L243.63,410.8A54.33,54.33,0,0,1,216.35,418.12ZM31.49,317.51l158.68,91.61a52.47,52.47,0,0,0,52.45-.05l178.9-103.66a18.42,18.42,0,0,0,0-31.89L245.79,172.09a18.45,18.45,0,0,0-18.45,0L31.46,285.61a18.43,18.43,0,0,0,0,31.9Z"/><path id="_Path_" data-name="&lt;Path&gt;" class="cls-2" d="M120.32,37.53l12.42-7.12a32.85,32.85,0,0,1,5.5-2.1h0c3.34-1.07,7.37-.49,11.7,2l153,89c11.53,6.71,20.83,24.62,20.78,40l-.43,123.9c0,9.23-3.43,15.43-8.62,17.49l-14.22,7.44L289.3,291.44,149.33,210c-11.53-6.7-20.83-24.62-20.78-40L129,50.51Z"/><path class="cls-3" d="M113.45,54.12c.06-15.4,9.44-22.44,21-15.74l153,89.05c11.53,6.7,20.83,24.62,20.78,40l-.43,123.9c-.05,15.39-9.43,22.44-21,15.73l-153-89C122.28,211.33,113,193.42,113,178Z"/><path class="cls-4" d="M128.54,52.32,279.9,140.39c3.05,1.78,6.4,5.78,9,10.7a37,37,0,0,1,4.36,16.31l-.43,123.9c0,.69,0,1.31-.08,1.85L141.35,205.07c-3.06-1.77-6.4-5.77-9-10.69A37,37,0,0,1,128,178.07l.42-123.9c0-.69,0-1.31.09-1.85m-2.46-16.47c-7.39,0-12.59,6.83-12.63,18.27L113,178c0,15.4,9.25,33.31,20.78,40l153,89a16.66,16.66,0,0,0,8.34,2.54c7.39,0,12.59-6.83,12.62-18.27l.43-123.9c0-15.4-9.25-33.32-20.78-40l-153-89.05a16.75,16.75,0,0,0-8.34-2.53Z"/><g class="cls-5"><path class="cls-6" d="M274.49,331.8a18.28,18.28,0,0,1-9.1-2.73l-153-89c-11.92-6.93-21.58-25.47-21.52-41.32l.42-123.9c0-8.64,3-15.27,8-18.18,4.28-2.46,9.67-2,15.18,1.15l153,89c11.92,6.93,21.57,25.47,21.52,41.32L288.61,312c0,8.64-3,15.27-8,18.18A12.07,12.07,0,0,1,274.49,331.8ZM105.39,58a9.07,9.07,0,0,0-4.59,1.18c-4.13,2.36-6.51,8-6.53,15.59l-.42,123.9c0,14.89,8.93,32.26,20,38.72l153,89c4.53,2.64,8.86,3,12.18,1.15,4.12-2.37,6.5-8.05,6.53-15.59l.42-123.9c.05-14.9-8.93-32.27-20-38.72l-153-89A15.3,15.3,0,0,0,105.39,58Z"/></g><path class="cls-7" d="M225.47,146.38v27.2a1,1,0,0,1-1.42.83l-26.92-15.14a1,1,0,0,1-.48-.83V131.8a1,1,0,0,1,1.42-.83l27.4,15.41m5.26-2.3L192.8,122.75a.94.94,0,0,0-1.41.83v37.16a.94.94,0,0,0,.48.83l37.45,21.06a.94.94,0,0,0,1.41-.83V144.08Z"/><path class="cls-8" d="M186,165.71c8.63,4.86,15.66,15.84,15.66,24.47s-7,11.72-15.66,6.86-15.67-15.84-15.67-24.48,7-11.71,15.67-6.85m0-5.26C174.39,153.94,165,158,165,169.6s9.37,26.2,20.93,32.7,20.92,2.4,20.92-9.16S197.5,167,186,160.45Z"/><path class="cls-9" d="M225.5,193,238,224.52a0,0,0,0,1,0,0l-25-14.05s0,0,0,0L225.5,193m0-11.59-21.12,29.52a0,0,0,0,0,0,.05l38.93,21.9a1.36,1.36,0,0,0,1.92-1.68L225.5,181.37Z"/></g></svg>