<?xml version="1.0" encoding="UTF-8"?>
<svg width="30px" height="27px" viewBox="0 0 30 27" version="1.1" xmlns="http://www.w3.org/2000/svg" xmlns:xlink="http://www.w3.org/1999/xlink">
    <!-- Generator: Sketch 50.2 (55047) - http://www.bohemiancoding.com/sketch -->
    <title>import</title>
    <desc>Created with Sketch.</desc>
    <defs></defs>
    <g id="Page-1" stroke="none" stroke-width="1" fill="none" fill-rule="evenodd">
        <g id="Home@2x" transform="translate(-1124.000000, -1605.000000)" fill="#FFFFFF" fill-rule="nonzero">
            <g id="import" transform="translate(1124.000000, 1605.000000)">
                <path d="M0.568588469,16.9754227 C0.631070719,16.9938557 0.699801193,17 0.762283442,17 C1.03095711,17 1.28713434,16.8586806 1.43084351,16.6190519 C4.36750923,11.5315518 7.42913945,11.1874696 10.9218972,11.1628924 L10.9218972,14.210477 C10.9218972,14.4931159 11.084351,14.7511775 11.3405283,14.8802083 C11.5967055,15.0092391 11.9028685,14.9846618 12.1340528,14.8249094 L21.6813405,8.07844178 C21.8812837,7.93712233 22,7.70978235 22,7.4640094 C22,7.21823644 21.8812837,6.99089646 21.6813405,6.84957701 L12.1340528,0.139975378 C11.9028685,-0.0259213662 11.5967055,-0.0443543377 11.3405283,0.0846764629 C11.084351,0.213707264 10.9281454,0.471768865 10.9281454,0.754407762 L10.9281454,3.85114698 C6.54189151,4.21980641 3.42402726,5.90335114 1.66827606,8.85877091 C0.174950298,11.365655 0,14.2780645 0,16.2503925 C-1.10990771e-15,16.5883303 0.237432548,16.8894022 0.568588469,16.9754227 Z M11.7279182,5.30735173 C12.1340528,5.28891876 12.4527123,4.95712527 12.4527123,4.55774422 L12.4527123,2.22290116 L19.9193411,7.47629804 L12.4527123,12.7481279 L12.4527123,10.4132848 C12.4527123,10.2166665 12.3714854,10.0200481 12.2277762,9.87872867 C12.084067,9.73740922 11.8903721,9.65753301 11.6841806,9.65753301 C8.32263561,9.65753301 4.86736723,9.65753301 1.69326896,13.5346014 C2.24311275,9.65138868 4.35501278,5.66986684 11.7279182,5.30735173 Z" id="Shape"></path>
                <path d="M24.7253414,8.44876325 L28.5128983,8.44876325 L28.5128983,25.5512367 L7.48710167,25.5512367 L7.48710167,15.1919906 C7.48710167,14.7915194 7.15326252,14.467609 6.74051593,14.467609 C6.32776935,14.467609 6,14.7974087 6,15.1919906 L6,26.2756184 C6,26.6760895 6.33383915,27 6.74658574,27 L29.2534143,27 C29.6661608,27 30,26.6760895 30,26.2756184 L30,7.72438163 C30,7.32391048 29.6661608,7 29.2534143,7 L24.7192716,7 C24.306525,7 23.9726859,7.32391048 23.9726859,7.72438163 C23.9787557,8.12485277 24.3125948,8.44876325 24.7253414,8.44876325 Z" id="Shape"></path>
            </g>
        </g>
    </g>
</svg>