<?xml version="1.0" encoding="UTF-8"?>
<svg width="24px" height="24px" viewBox="0 0 24 24" version="1.1" xmlns="http://www.w3.org/2000/svg" xmlns:xlink="http://www.w3.org/1999/xlink">
    <!-- Generator: Sketch 52.6 (67491) - http://www.bohemiancoding.com/sketch -->
    <title>icon/linkedin</title>
    <desc>Created with Sketch.</desc>
    <g id="icon/linkedin" stroke="none" stroke-width="1" fill="none" fill-rule="evenodd">
        <polygon id="Fill-22" fill-opacity="0" fill="#FFFFFF" opacity="0" points="9.9475983e-14 24 24 24 24 3.55271368e-15 9.9475983e-14 3.55271368e-15"></polygon>
        <path d="M18.7894737,17.2631579 L15.7845742,17.2631579 L15.7845742,12.4772773 C15.7845742,11.1278087 15.2817225,10.4530744 14.2760191,10.4530744 C13.8941627,10.4530744 13.5722488,10.5576417 13.3124976,10.7689777 C13.0516364,10.9792131 12.8562679,11.2345774 12.7275024,11.5361716 C12.6653397,11.6913715 12.6364785,11.9313259 12.6364785,12.2582363 L12.6364785,17.2631579 L9.63157895,17.2631579 C9.65711005,11.863082 9.65711005,8.87906123 9.63157895,8.31109565 L12.6364785,8.31109565 L12.6364785,9.57470901 C13.2669856,8.59507844 14.1650144,8.10526316 15.3294545,8.10526316 C16.3695694,8.10526316 17.2065455,8.44428138 17.8403828,9.12341852 C18.47311,9.80365638 18.7894737,10.8053011 18.7894737,12.1283527 L18.7894737,17.2631579 Z M6.56742611,8.10526316 L6.55540393,8.10526316 C6.10857962,8.10526316 5.74791426,7.95876289 5.46940045,7.66576234 C5.19088664,7.37384699 5.05263158,7.01139447 5.05263158,6.57840477 C5.05263158,6.13781877 5.19489403,5.77319588 5.48042078,5.48562127 C5.76694937,5.19696148 6.13663137,5.05263158 6.59046862,5.05263158 C7.04430587,5.05263158 7.40797678,5.19696148 7.6824832,5.48562127 C7.95598777,5.77319588 8.09724837,6.13781877 8.10526316,6.57840477 C8.10526316,7.01139447 7.9650044,7.37384699 7.68348505,7.66576234 C7.40096385,7.95876289 7.02927815,8.10526316 6.56742611,8.10526316 Z M5.05263158,17.2631579 L8.10526316,17.2631579 L8.10526316,8.31178747 L5.05263158,8.31178747 L5.05263158,17.2631579 Z M18.1228129,2 L5.72039474,2 C4.69632164,2 3.81996199,2.36377193 3.09241813,3.09131579 C2.36377193,3.81885965 2,4.6952193 2,5.72039474 L2,18.1217105 C2,19.1457836 2.36377193,20.0221433 3.09241813,20.7496871 C3.81996199,21.4783333 4.69632164,21.8421053 5.72039474,21.8421053 L18.1228129,21.8421053 C19.146886,21.8421053 20.024348,21.4783333 20.7507895,20.7496871 C21.4783333,20.0221433 21.8421053,19.1457836 21.8421053,18.1217105 L21.8421053,5.72039474 C21.8421053,4.6952193 21.4783333,3.81885965 20.7507895,3.09131579 C20.024348,2.36377193 19.1479883,2 18.1228129,2 Z" id="Fill-24" fill="#FFFFFF"></path>
    </g>
</svg>