<?xml version="1.0" encoding="UTF-8"?>
<svg width="69px" height="97px" viewBox="0 0 69 97" version="1.1" xmlns="http://www.w3.org/2000/svg" xmlns:xlink="http://www.w3.org/1999/xlink">
    <!-- Generator: Sketch 50.2 (55047) - http://www.bohemiancoding.com/sketch -->
    <title>Group</title>
    <desc>Created with Sketch.</desc>
    <defs></defs>
    <g id="Symbols" stroke="none" stroke-width="1" fill="none" fill-rule="evenodd">
        <g id="footer" transform="translate(-448.000000, -43.000000)">
            <g id="Group" transform="translate(449.000000, 43.000000)">
                <g id="Group-12" transform="translate(3.000000, 0.000000)" fill="#FFFFFF">
                    <path d="M6.77777778,13.25 L6.77777778,15.4423895 C6.77777778,16.1291622 6.77777778,16.8423491 6.77777778,17.5291218 L6.77777778,19.6686827 C6.77777778,19.7215113 6.77777778,19.77434 6.80490698,19.8007543 C18.768883,27.8307112 30.6514714,35.8606681 42.5883181,43.890625 L47.4444444,40.6152478 C33.8798458,31.5023033 20.3695056,22.4157732 6.77777778,13.25 Z" id="Shape"></path>
                    <path d="M37.1938053,9.62502012 C35.0345133,11.0914359 32.8752212,12.5045275 30.7159292,13.9709433 C30.4190265,14.1575781 30.2300885,14.1842402 29.9331858,13.9709433 C27.2880531,12.1579202 24.6159292,10.344897 21.9438053,8.53187379 C19.1637168,6.58554008 16.3836283,4.63920637 13.5765487,2.71953477 C12.2539823,1.81302318 10.9314159,0.90651159 9.60884956,0 L0,0 C0.512831858,0.346607373 0.917699115,0.639890534 1.34955752,0.933173696 C3.85973451,2.63954845 6.3699115,4.37258532 8.8800885,6.07896008 C11.3632743,7.78533484 13.8464602,9.49170959 16.329646,11.1980844 C18.650885,12.7978107 20.999115,14.4241991 23.320354,16.0239255 C25.5336283,17.5436655 27.7738938,19.0367434 29.9871681,20.5831455 C30.2300885,20.7431182 30.3920354,20.7431182 30.6349558,20.5831455 C32.4163717,19.3566887 34.2247788,18.183556 36.0331858,16.9570992 C40.4597345,13.9442812 44.8862832,10.9314633 49.3128319,7.94530747 C52.5247788,5.75901481 55.7637168,3.57272215 58.9756637,1.4130916 C59.6504425,0.959835802 60.2982301,0.506580006 61,0.0266621056 L51.3641593,0.0266621056 C46.640708,3.19945267 41.9442478,6.42556745 37.1938053,9.62502012 Z" id="Shape"></path>
                    <path d="M6.83202553,29.8125 C6.80490165,29.8935752 6.77777778,29.9206002 6.77777778,29.9476253 C6.77777778,30.4070513 6.77777778,30.8394522 6.77777778,31.2988782 L6.77777778,34.001384 C6.77777778,34.8121358 6.77777778,35.6228875 6.77777778,36.4066142 C6.77777778,36.4606643 6.80490165,36.4876894 6.80490165,36.5417395 C14.7521971,42.0278263 22.6994926,47.4868881 30.7010358,53 C30.7010358,53 30.7281597,53 30.7281597,53 L35.5833333,49.5948427 C25.9543576,42.9737034 16.4067535,36.4066142 6.83202553,29.8125 Z" id="Shape"></path>
                    <path d="M54.1951008,13.25 C48.2283833,17.3734914 42.3430301,21.4698545 36.4305556,25.5662177 C36.5119199,25.6747306 36.5661628,25.7289871 36.6204057,25.7832435 C38.112085,26.8412446 39.6308858,27.8992457 41.1225652,28.9572468 C41.1496867,28.984375 41.231051,28.984375 41.2852939,28.984375 C45.5704819,26.0273976 49.8556699,23.043292 54.1679793,20.0863147 C54.1951008,20.0591864 54.1951008,20.00493 54.2222222,19.9778017 L54.2222222,13.25 L54.1951008,13.25 Z" id="Shape"></path>
                    <path d="M54.2222222,29.8125 C52.2182902,31.2099609 50.2685185,32.5800207 48.2916667,33.9500804 C49.8623161,35.0735294 51.3788052,36.1695772 52.8952943,37.265625 L54.2222222,36.3339844 L54.2222222,29.8125 Z" id="Shape"></path>
                </g>
                <g transform="translate(0.000000, 67.000000)" fill="#FFFFFF" fill-rule="nonzero" id="Shape" stroke="#FFFFFF" stroke-width="1.01649992">
                    <polygon points="11.333709 0.207792208 12.3128342 0.207792208 6.55879729 9.5030303 6.55879729 17.2190476 5.74062421 17.2190476 5.74062421 9.5030303 0.0134126734 0.207792208 0.992537831 0.207792208 6.11617907 8.57489177 6.15641709 8.57489177"></polygon>
                    <path d="M21.2725,17.3160173 C18.8850441,17.3160173 16.9402065,16.4848485 15.4245744,14.8363636 C13.9089423,13.1878788 13.1444199,11.1376623 13.1444199,8.68571429 C13.1444199,6.26147186 13.8955296,4.21125541 15.4245744,2.56277056 C16.9402065,0.914285714 18.8850441,0.0831168831 21.2725,0.0831168831 C23.5660672,0.0831168831 25.4840794,0.886580087 27.0265369,2.49350649 C28.5689943,4.1004329 29.3469294,6.16450216 29.3469294,8.68571429 C29.3469294,11.2207792 28.5689943,13.2987013 27.0265369,14.9056277 C25.4706668,16.5125541 23.5526545,17.3160173 21.2725,17.3160173 Z M21.2859127,16.4848485 C23.3112264,16.4848485 25.0280485,15.7645022 26.4095539,14.3099567 C27.8044719,12.8554113 28.501931,10.9852814 28.501931,8.6995671 C28.501931,6.41385281 27.8044719,4.55757576 26.4095539,3.11688312 C25.0280485,1.66233766 23.324639,0.955844156 21.2859127,0.955844156 C19.1532976,0.955844156 17.3962374,1.7038961 16.0415574,3.18614719 C14.6868774,4.66839827 14.002831,6.51082251 14.002831,8.6995671 C14.002831,10.8883117 14.6868774,12.7307359 16.0415574,14.2406926 C17.4096501,15.7229437 19.1532976,16.4848485 21.2859127,16.4848485 Z"></path>
                    <path d="M43.6582519,17.2190476 L42.6388887,17.2190476 L37.7030249,10.0709957 L33.6255722,10.0709957 L33.6255722,17.2190476 L32.7939864,17.2190476 L32.7939864,0.207792208 L38.2663572,0.207792208 C39.9965921,0.207792208 41.2976214,0.651082251 42.1560325,1.53766234 C43.0144436,2.42424242 43.4436491,3.61558442 43.4436491,5.0978355 C43.4436491,6.66320346 43.0144436,7.85454545 42.1560325,8.68571429 C41.2976214,9.5030303 40.1709568,9.97402597 38.7626261,10.0571429 L38.7358008,10.1264069 L43.6582519,17.2190476 Z M33.6121595,1.05281385 L33.6121595,9.25367965 L37.904215,9.25367965 C41.0293679,9.25367965 42.585238,7.86839827 42.585238,5.08398268 C42.585238,3.74025974 42.2096832,2.72900433 41.4585735,2.06406926 C40.7074637,1.3991342 39.6612752,1.05281385 38.3200079,1.05281385 L33.6121595,1.05281385 Z"></path>
                    <path d="M54.0128358,17.3160173 C51.6253799,17.3160173 49.6805422,16.4848485 48.1649102,14.8363636 C46.6492781,13.1878788 45.8847557,11.1376623 45.8847557,8.68571429 C45.8847557,6.26147186 46.6358654,4.21125541 48.1649102,2.56277056 C49.6805422,0.914285714 51.6253799,0.0831168831 54.0128358,0.0831168831 C56.3064029,0.0831168831 58.2244152,0.886580087 59.7668726,2.49350649 C61.3093301,4.1004329 62.0872651,6.16450216 62.0872651,8.68571429 C62.0872651,11.2207792 61.3093301,13.2987013 59.7668726,14.9056277 C58.2110025,16.5125541 56.2929902,17.3160173 54.0128358,17.3160173 Z M54.0262484,16.4848485 C56.0515621,16.4848485 57.7683843,15.7645022 59.1498897,14.3099567 C60.5448077,12.8554113 61.2422667,10.9852814 61.2422667,8.6995671 C61.2422667,6.41385281 60.5448077,4.55757576 59.1498897,3.11688312 C57.7683843,1.66233766 56.0649748,0.955844156 54.0262484,0.955844156 C51.8936334,0.955844156 50.1365731,1.7038961 48.7818931,3.18614719 C47.4138004,4.66839827 46.7431668,6.51082251 46.7431668,8.6995671 C46.7431668,10.8883117 47.4272131,12.7307359 48.7818931,14.2406926 C50.1499858,15.7229437 51.8936334,16.4848485 54.0262484,16.4848485 Z"></path>
                    <polygon points="65.6818616 17.2190476 65.6818616 0.207792208 66.5000347 0.207792208 66.5000347 17.2190476"></polygon>
                </g>
                <g transform="translate(22.000000, 89.000000)" fill="#FFFFFF" fill-rule="nonzero" id="Shape" stroke="#FFFFFF" stroke-width="1.01649992">
                    <polygon points="5.57326608 2.20606061 5.87526572 2.20606061 4.42017654 6.46262626 4.11817691 6.46262626 2.93763286 2.7010101 2.9239056 2.7010101 1.75708881 6.46262626 1.45508917 6.46262626 -5.68434189e-14 2.20606061 0.315726896 2.20606061 1.59236174 5.98181818 2.75917853 2.20606061 3.08863268 2.20606061 4.26917672 5.96767677"></polygon>
                    <path d="M10.4052603,2.20606061 L10.6935327,2.20606061 L10.6935327,6.46262626 L10.4052603,6.46262626 L10.4052603,5.51515152 L10.3915331,5.51515152 C10.0346244,6.16565657 9.47180688,6.49090909 8.73053504,6.49090909 C8.15399027,6.49090909 7.6735363,6.29292929 7.27544587,5.91111111 C6.87735543,5.52929293 6.68517384,5.00606061 6.68517384,4.36969697 C6.68517384,3.73333333 6.87735543,3.21010101 7.26171861,2.8 C7.64608179,2.37575758 8.14026302,2.17777778 8.7442623,2.17777778 C9.10117096,2.17777778 9.41689786,2.26262626 9.70517024,2.44646465 C9.99344262,2.63030303 10.226806,2.87070707 10.3915331,3.18181818 L10.4052603,3.18181818 L10.4052603,2.20606061 Z M8.73053504,6.19393939 C9.21098901,6.19393939 9.60907945,6.02424242 9.92480634,5.6989899 C10.2405332,5.35959596 10.4052603,4.92121212 10.4052603,4.36969697 C10.4052603,3.83232323 10.2542605,3.37979798 9.95226085,3.01212121 C9.65026121,2.64444444 9.23844352,2.46060606 8.7442623,2.46060606 C8.25008107,2.46060606 7.83826338,2.64444444 7.49508197,2.9979798 C7.15190056,3.35151515 6.98717348,3.81818182 6.98717348,4.38383838 C6.98717348,4.90707071 7.15190056,5.34545455 7.48135471,5.68484848 C7.79708161,6.02424242 8.22262655,6.19393939 8.73053504,6.19393939 Z"></path>
                    <polygon points="12.4506215 6.44848485 12.4506215 0 12.7921655 0 12.7921655 6.44848485"></polygon>
                    <polygon points="14.5920735 6.44848485 14.5920735 0 14.9336175 0 14.9336175 6.44848485"></polygon>
                    <path d="M20.1653396,4.22828283 C20.1653396,4.32727273 20.1653396,4.38383838 20.1516123,4.41212121 L16.706071,4.41212121 C16.7335255,4.92121212 16.8982526,5.35959596 17.2002522,5.6989899 C17.5159791,6.03838384 17.9003423,6.20808081 18.367069,6.20808081 C18.9436138,6.20808081 19.4103405,5.98181818 19.7672491,5.51515152 L19.9868852,5.71313131 C19.5887948,6.23636364 19.0671591,6.50505051 18.3945235,6.50505051 C17.8179787,6.50505051 17.351252,6.30707071 16.9668888,5.91111111 C16.5962529,5.51515152 16.4040713,4.99191919 16.4040713,4.35555556 C16.4040713,3.71919192 16.5825257,3.21010101 16.9531616,2.8 C17.3237975,2.38989899 17.776797,2.19191919 18.31216,2.19191919 C18.8749775,2.19191919 19.3142497,2.38989899 19.6437038,2.77171717 C20.0006125,3.12525253 20.1653396,3.62020202 20.1653396,4.22828283 Z M18.367069,2.46060606 C17.941524,2.46060606 17.5708881,2.61616162 17.2551612,2.92727273 C16.9394343,3.23838384 16.76098,3.63434343 16.7335255,4.12929293 L19.8907945,4.12929293 C19.8633399,3.62020202 19.7123401,3.22424242 19.437795,2.91313131 C19.1495226,2.6020202 18.7926139,2.46060606 18.367069,2.46060606 Z"></path>
                    <path d="M22.704882,6.49090909 C22.3479733,6.49090909 22.0871555,6.39191919 21.9498829,6.19393939 C21.8126103,5.9959596 21.7439741,5.6989899 21.7439741,5.3030303 L21.7439741,2.48888889 L21.1674293,2.48888889 L21.1674293,2.20606061 L21.7439741,2.20606061 L21.7439741,0.692929293 L22.0185192,0.664646465 L22.0185192,2.22020202 L23.6246082,2.22020202 L23.6246082,2.5030303 L22.0185192,2.5030303 L22.0185192,5.18989899 C22.0185192,5.54343434 22.059701,5.7979798 22.1557917,5.96767677 C22.2518825,6.13737374 22.4303369,6.22222222 22.6911547,6.22222222 C22.9931544,6.22222222 23.2676995,6.13737374 23.5285174,5.95353535 L23.6108809,6.23636364 C23.3363358,6.39191919 23.0343362,6.49090909 22.704882,6.49090909 Z"></path>
                </g>
                <path d="M0,93 L18.3123581,93" id="Shape" stroke="#FFFFFF" stroke-width="2.03299985"></path>
                <path d="M48.6537858,93 L66.7218598,93" id="Shape" stroke="#FFFFFF" stroke-width="2.03299985"></path>
            </g>
        </g>
    </g>
</svg>