<?xml version="1.0" encoding="UTF-8"?>
<svg width="20px" height="15px" viewBox="0 0 20 15" version="1.1" xmlns="http://www.w3.org/2000/svg" xmlns:xlink="http://www.w3.org/1999/xlink">
    <!-- Generator: sketchtool 52.6 (67491) - http://www.bohemiancoding.com/sketch -->
    <title>652DE723-69AC-48A3-96EC-B959A6547F7E</title>
    <desc>Created with sketchtool.</desc>
    <g id="Page-1" stroke="none" stroke-width="1" fill="none" fill-rule="evenodd">
        <g id="home-page" transform="translate(-582.000000, -5498.000000)" fill="#FFFFFF" fill-rule="nonzero">
            <g id="footer-copy" transform="translate(0.000000, 5318.000000)">
                <g id="Group-2" transform="translate(407.000000, 174.000000)">
                    <g id="medium-size" transform="translate(175.192694, 6.571429)">
                        <path d="M19.8024895,2.0475085 L18.7098043,2.0475085 C18.4252863,2.0475085 17.6808001,2.34290986 17.6808001,2.59438435 L17.6808001,11.7265969 C17.6808001,11.9786973 18.4252863,12.1853844 18.7098043,12.1853844 L19.8024895,12.1853844 L19.8024895,14.2129439 L12.7301368,14.2129439 L12.7301368,12.1853844 L14.1449511,12.1853844 L14.1449511,2.72303571 L13.8987398,2.72303571 L10.4942636,14.2129048 L7.85837892,14.2129048 L4.49793909,2.72303571 L4.24341985,2.72303571 L4.24341985,12.1853452 L5.65762029,12.1853452 L5.65762029,14.2129048 L0,14.2129439 L0,12.1853452 L0.784675592,12.1853452 C1.09272614,12.1853452 1.41424137,11.9786973 1.41424137,11.7265578 L1.41424137,2.59438435 C1.41424137,2.34287075 1.09276707,2.0475085 0.784675592,2.0475085 L0,2.0475085 L0,0.0197142857 L7.33211055,0.0197142857 L9.7261221,8.13003061 L9.79053974,8.13003061 L12.2081656,0.0197142857 L19.8024895,0.0197142857 L19.8024895,2.0475085 Z" id="Shape"></path>
                    </g>
                </g>
            </g>
        </g>
    </g>
</svg>