<?xml version="1.0" encoding="UTF-8"?>
<svg width="31px" height="31px" viewBox="0 0 31 31" version="1.1" xmlns="http://www.w3.org/2000/svg" xmlns:xlink="http://www.w3.org/1999/xlink">
    <!-- Generator: Sketch 50.2 (55047) - http://www.bohemiancoding.com/sketch -->
    <title>go-back-button</title>
    <desc>Created with Sketch.</desc>
    <defs></defs>
    <g id="Page-1" stroke="none" stroke-width="1" fill="none" fill-rule="evenodd">
        <g id="Home@2x" transform="translate(-1125.000000, -1724.000000)" fill="#FFFFFF" fill-rule="nonzero" stroke="#375ACB" stroke-width="0.7">
            <g id="go-back-button" transform="translate(1126.000000, 1725.000000)">
                <path d="M18.280017,10.7050922 C17.7704795,10.1858088 17.1737029,9.74993592 16.5059853,9.41797829 C14.9280416,8.6333778 13.1410587,8.51430365 11.4744206,9.08257879 C9.80756429,9.6507807 8.46026939,10.8383732 7.68086544,12.4263947 C6.07185322,15.7047417 7.41267248,19.6893318 10.6699145,21.3088427 C11.6057522,21.7740813 12.606128,22 13.5970449,22 C15.3419726,22 17.056705,21.2985903 18.3314582,19.9675376 L16.7599901,18.4428613 C15.4236092,19.8380646 13.3647953,20.1982163 11.6366024,19.3390663 C9.45846233,18.2561214 8.5618422,15.5915993 9.6377427,13.3994194 C10.1589946,12.3374186 11.0599075,11.543298 12.1744435,11.1633739 C13.2889795,10.7833765 14.4839152,10.8631254 15.5390792,11.3876814 C16.1139551,11.6735033 16.6102503,12.0742984 17.0043178,12.5614332 L14.1912749,12.7775389 L14.3573858,14.9680345 L19.6767886,14.5594769 L21,8.46926638 L18.8676259,8 L18.280017,10.7050922 Z" id="Shape" transform="translate(14.000000, 15.000000) scale(-1, 1) translate(-14.000000, -15.000000) "></path>
                <path d="M22.9509347,0 L6.04906525,0 C2.71357037,0 0,2.72647289 0,6.07782742 L0,22.9221726 C0,26.2734529 2.71357037,29 6.04906525,29 L22.9509347,29 C26.2863558,29 29,26.2735271 29,22.9221726 L29,6.07782742 C28.9999261,2.72647289 26.2863558,0 22.9509347,0 Z M26.7840431,22.9220984 C26.7840431,25.0457312 25.0645179,26.7735066 22.9508609,26.7735066 L6.04906525,26.7735066 C3.93540828,26.7735066 2.21588304,25.0458054 2.21588304,22.9220984 L2.21588304,6.07782742 C2.21588304,3.95419462 3.93540828,2.22641915 6.04906525,2.22641915 L22.9509347,2.22641915 C25.0645179,2.22641915 26.784117,3.95412041 26.784117,6.07782742 L26.784117,22.9220984 L26.7840431,22.9220984 Z" id="Shape"></path>
            </g>
        </g>
    </g>
</svg>