<?xml version="1.0" encoding="UTF-8"?>
<svg width="22px" height="17px" viewBox="0 0 22 17" version="1.1" xmlns="http://www.w3.org/2000/svg" xmlns:xlink="http://www.w3.org/1999/xlink">
    <!-- Generator: sketchtool 52.6 (67491) - http://www.bohemiancoding.com/sketch -->
    <title>EA2DBA1A-C224-4BB7-8219-B64B30CB9E04</title>
    <desc>Created with sketchtool.</desc>
    <g id="Page-1" stroke="none" stroke-width="1" fill="none" fill-rule="evenodd">
        <g id="home-page" transform="translate(-538.000000, -5496.000000)" fill="#FFFFFF" fill-rule="nonzero">
            <g id="footer-copy" transform="translate(0.000000, 5318.000000)">
                <g id="Group-2" transform="translate(407.000000, 174.000000)">
                    <g id="reddit" transform="translate(131.394521, 4.600000)">
                        <polygon id="Shape" points="7.14548921 9.45879925 7.14548921 9.46267125 7.79507913 9.46267125"></polygon>
                        <polygon id="Shape" points="13.6413885 9.45879925 13.6413885 9.46267125 14.2909784 9.46267125"></polygon>
                        <path d="M20.8778203,7.56900137 C20.8778203,6.17844296 19.7124559,5.04758993 18.2794606,5.04758993 C17.7065223,5.04758993 17.1621659,5.22913155 16.7178464,5.55817575 C15.2679617,4.58112881 13.3685607,3.99868277 11.348336,3.8511802 L12.4383479,1.37011134 L15.609646,2.0887136 C15.710982,3.04054642 16.5320637,3.78688421 17.538928,3.78688421 C18.6133498,3.78688421 19.4876978,2.93842926 19.4876978,1.89582563 C19.4876978,0.853221994 18.6133498,0.00476704351 17.538928,0.00476704351 C16.8581578,0.00476704351 16.2592359,0.346418294 15.9110557,0.862046934 L12.2044956,0.0211562179 C11.890094,-0.0481825968 11.5821884,0.106884207 11.4574671,0.388021583 L9.95041851,3.81714114 C7.76909554,3.89026208 5.69040777,4.48657588 4.1209985,5.5253974 C3.69356833,5.2177852 3.16350295,5.04758993 2.59835971,5.04758993 C1.16536433,5.04758993 0,6.17844296 0,7.56900137 C0,8.49057725 0.518372762,9.32390373 1.31347083,9.75128297 C1.3030774,9.86222508 1.29917986,9.97568859 1.29917986,10.0904128 C1.29917986,13.5661785 5.3786046,16.3939414 10.3934388,16.3939414 C15.4069739,16.3939414 19.4876978,13.5661785 19.4876978,10.0904128 C19.4876978,9.99207777 19.4838003,9.89500343 19.4773044,9.79792909 C20.3243697,9.37937479 20.8778203,8.52587701 20.8778203,7.56900137 Z M17.538928,1.26547276 C17.8962025,1.26547276 18.188518,1.54787085 18.188518,1.89582563 C18.188518,2.2437804 17.8962025,2.52617849 17.538928,2.52617849 C17.1816536,2.52617849 16.8893381,2.2437804 16.8893381,1.89582563 C16.8893381,1.54787085 17.1816536,1.26547276 17.538928,1.26547276 Z M5.84630935,9.46005995 C5.84630935,8.7654111 6.4296411,8.19935423 7.14548921,8.19935423 C7.86133731,8.19935423 8.44466906,8.7654111 8.44466906,9.46005995 C8.44466906,10.1559695 7.86133731,10.7207657 7.14548921,10.7207657 C6.4296411,10.7207657 5.84630935,10.1559695 5.84630935,9.46005995 Z M13.3932451,13.6418208 C12.496811,14.270913 11.4444753,14.5860894 10.3934388,14.5860894 C9.34240234,14.5860894 8.29006666,14.270913 7.39363256,13.6418208 C7.10261627,13.4375865 7.03765728,13.0429856 7.24812441,12.7618482 C7.45859155,12.4807109 7.86523485,12.4176756 8.15495195,12.6206492 C9.49440638,13.559875 11.2924713,13.5623964 12.6319257,12.6206492 C12.9216428,12.4176756 13.326987,12.4781894 13.5387533,12.7618482 C13.7492204,13.0442463 13.6829622,13.4375865 13.3932451,13.6418208 Z M13.6413885,10.7207657 C12.9242412,10.7207657 12.3422086,10.1559695 12.3422086,9.46005995 C12.3422086,8.7654111 12.9242412,8.19935423 13.6413885,8.19935423 C14.3585358,8.19935423 14.9405683,8.7654111 14.9405683,9.46005995 C14.9405683,10.1559695 14.3585358,10.7207657 13.6413885,10.7207657 Z" id="Shape"></path>
                    </g>
                </g>
            </g>
        </g>
    </g>
</svg>