<?xml version="1.0" encoding="UTF-8"?>
<svg width="147px" height="139px" viewBox="0 0 147 139" version="1.1" xmlns="http://www.w3.org/2000/svg" xmlns:xlink="http://www.w3.org/1999/xlink">
    <!-- Generator: Sketch 50.2 (55047) - http://www.bohemiancoding.com/sketch -->
    <title>database</title>
    <desc>Created with Sketch.</desc>
    <defs>
        <filter x="-39.9%" y="-39.9%" width="179.7%" height="182.4%" filterUnits="objectBoundingBox" id="filter-1">
            <feOffset dx="0" dy="2" in="SourceAlpha" result="shadowOffsetOuter1"></feOffset>
            <feGaussianBlur stdDeviation="20" in="shadowOffsetOuter1" result="shadowBlurOuter1"></feGaussianBlur>
            <feColorMatrix values="0 0 0 0 0.635655825   0 0 0 0 0.602323021   0 0 0 0 0.602323021  0 0 0 0.5 0" type="matrix" in="shadowBlurOuter1" result="shadowMatrixOuter1"></feColorMatrix>
            <feMerge>
                <feMergeNode in="shadowMatrixOuter1"></feMergeNode>
                <feMergeNode in="SourceGraphic"></feMergeNode>
            </feMerge>
        </filter>
    </defs>
    <g id="Page-1" stroke="none" stroke-width="1" fill="none" fill-rule="evenodd">
        <g id="Home@2x" transform="translate(-914.000000, -541.000000)" fill="#FFFFFF" fill-rule="nonzero">
            <g id="Rectangle-Copy-4" transform="translate(909.000000, 536.000000)">
                <g id="Oval" filter="url(#filter-1)">
                    <g id="Group-8">
                        <g id="database" transform="translate(45.000000, 42.000000)">
                            <path d="M64.6,20.2497375 L49.9278047,20.2497375 C51.1884609,19.5649861 52.0173437,18.2966007 52.1332891,16.8747593 L52.1332891,7.87490524 C52.1332891,2.69998258 39.0205781,0 26.0665781,0 C13.1125781,0 0,2.69985074 0,7.87490524 L0,16.8748911 C0,18.6141914 1.42919531,20.1205391 4.233,21.3748181 C1.42919531,22.6290972 0,24.1366314 0,25.8747452 L0,34.874731 C0,36.6140313 1.42919531,38.120379 4.233,39.3746581 C1.42919531,40.6290689 0,42.1364713 0,43.8745851 L0,52.8745709 C0,58.0494936 13.1127109,60.7494762 26.0667109,60.7494762 C32.2442187,60.8370147 38.4064531,60.1153494 44.3939062,58.6029373 C46.2579297,60.2208175 48.2839844,61.6449001 50.4401953,62.8531687 C50.7873672,63.0489438 51.2127656,63.0489438 51.5599375,62.8531687 C67.813,53.6969582 68,38.6760639 68,38.040487 L68,23.6247157 C68,21.7608313 66.4778359,20.2497375 64.6,20.2497375 Z M26.0667109,2.24989759 C40.5949375,2.24989759 49.8667109,5.58097473 49.8667109,7.87490524 C49.8667109,10.1688358 40.5949375,13.4999129 26.0667109,13.4999129 C11.5384844,13.4999129 2.26671094,10.1688358 2.26671094,7.87490524 C2.26671094,5.58097473 11.5384844,2.24989759 26.0667109,2.24989759 Z M2.26671094,16.8747593 L2.26671094,11.2958939 C6.57342188,14.2309385 16.3619688,15.7496787 26.0667109,15.7496787 C35.7714531,15.7496787 45.56,14.2309385 49.8667109,11.2958939 L49.8667109,16.8747593 C49.8667109,17.6713069 48.4387109,19.0268352 44.4595156,20.2497375 L37.4,20.2497375 C36.1252656,20.2542199 34.9607656,20.9678432 34.3852891,22.0970107 C31.6743203,22.3546165 28.8852578,22.4997669 26.0665781,22.4997669 C19.9111172,22.6058942 13.7705313,21.864981 7.81986719,20.298121 C3.72074219,19.0629581 2.26671094,17.6825129 2.26671094,16.8747593 Z M7.52422656,22.5493369 C13.5778203,24.1038044 19.8144297,24.8439266 26.0667109,24.7497964 C28.7504531,24.7497964 31.4047109,24.6103148 34,24.38079 L34,31.1386565 C31.4975469,31.3737185 28.8410312,31.4997528 26.0667109,31.4997528 C11.5384844,31.4997528 2.26671094,28.1686757 2.26671094,25.8747452 C2.26671094,25.0872942 3.66628906,23.7586602 7.52422656,22.5493369 Z M2.26671094,34.874731 L2.26671094,29.2958657 C6.57342188,32.2309102 16.3619688,33.7496504 26.0667109,33.7496504 C28.8331953,33.7496504 31.4897109,33.6270438 34,33.3987054 L34,38.040487 C34.0136797,38.7316983 34.0693281,39.4214595 34.1665469,40.1059473 C31.5405781,40.3523471 28.8398359,40.4997387 26.0665781,40.4997387 C19.9111172,40.6058659 13.7705313,39.8649527 7.81986719,38.2980927 C3.72074219,37.062798 2.26671094,35.6824846 2.26671094,34.874731 Z M7.52422656,40.5491768 C13.5778203,42.1036444 19.8144297,42.8437665 26.0667109,42.7496363 C28.968,42.7496363 31.8104531,42.5943345 34.5667109,42.3311917 C35.0668828,44.57252 35.8275,46.74859 36.8334219,48.8156323 C33.2631563,49.2740229 29.6667266,49.5024931 26.0667109,49.4995927 C11.5384844,49.4995927 2.26671094,46.1685156 2.26671094,43.8745851 C2.26671094,43.0871341 3.66628906,41.7585001 7.52422656,40.5491768 Z M26.0667109,58.4995786 C11.5384844,58.4995786 2.26671094,55.1685015 2.26671094,52.8745709 L2.26671094,47.2957056 C6.57342188,50.2307501 16.3619688,51.7494903 26.0667109,51.7494903 C30.0500234,51.7562139 34.0288203,51.4837108 37.9734844,50.9338266 C39.2316172,53.0588764 40.7430234,55.0255922 42.4750313,56.791655 C37.0901484,57.9864764 31.5841406,58.5595636 26.0667109,58.4995786 Z M65.7332891,38.0393005 C65.7332891,38.6142333 65.5145469,52.0645762 51,60.5751902 C46.2627109,57.8936645 42.3388984,53.9972785 39.6394844,49.2937982 C39.6026953,49.1999316 39.552625,49.1117339 39.491,49.03171 C38.1138672,46.5358081 37.1408828,43.840308 36.6077734,41.0442176 C36.6077734,41.0307704 36.6077734,41.0183779 36.6077734,41.0047989 C36.6077734,40.9913517 36.5885156,40.9564154 36.584,40.9293892 C36.4004531,39.9763534 36.2943359,39.0102659 36.2667109,38.0403551 L36.2667109,23.6247157 C36.2667109,23.003377 36.7740547,22.4997669 37.4,22.4997669 L64.6,22.4997669 C65.2259453,22.4997669 65.7332891,23.003377 65.7332891,23.6247157 L65.7332891,38.0393005 Z" id="Shape"></path>
                            <path d="M61.6710218,25 C61.0278815,25 60.5066009,25.5040243 60.5066009,26.1258743 C60.5066009,26.7477242 61.028018,27.2517485 61.6710218,27.2517485 L61.6710218,38.2857914 C61.6640623,38.7102538 61.3740828,48.7816366 50.5352663,55.9266434 C50.1788304,56.1479128 49.9746849,56.5389934 50.0025229,56.9477545 C50.0303609,57.3565156 50.2854064,57.7184368 50.668725,57.8928661 C51.0520437,58.0672955 51.5031835,58.026525 51.8465191,57.7866516 C63.6716751,49.9952533 63.9919488,38.7924546 64,38.3014927 L64,27.2517485 C64,26.0081806 62.9573022,25 61.6710218,25 Z" id="Shape"></path>
                            <path d="M41.2857526,38.055461 L41.2857526,27.210099 L53.8571907,27.210099 C54.4883943,27.210099 55,26.7153973 55,26.1050495 C55,25.4947016 54.4883943,25 53.8571907,25 L41.2857526,25 C40.0233454,25 39,25.9895328 39,27.2102285 L39,38.0555905 C39.320892,42.5768008 40.9834766,46.9125628 43.7886027,50.5431806 C44.1590481,51.0374937 44.8739568,51.1478303 45.3851608,50.7896249 C45.8963647,50.4314195 46.0104715,49.7401322 45.6400261,49.2458191 C43.1244528,45.98817 41.6146802,42.1082588 41.2857526,38.055461 Z" id="Shape"></path>
                            <path d="M58.6580845,32.3180808 C58.2020603,31.8939731 57.4627318,31.8939731 57.0067077,32.3180808 L48.3433433,40.3775283 L46.9792398,39.1085155 C46.5210258,38.6967579 45.7925094,38.7026147 45.3420966,39.1217569 C44.8915469,39.5408991 44.8852512,40.2185039 45.3278629,40.6447761 L47.5176549,42.6819192 C47.973679,43.1060269 48.7130076,43.1060269 49.1690317,42.6819192 L58.6580845,33.8543414 C59.1139718,33.4301063 59.1139718,32.7423159 58.6580845,32.3180808 Z" id="Shape"></path>
                        </g>
                    </g>
                </g>
            </g>
        </g>
    </g>
</svg>