<?xml version="1.0" encoding="UTF-8"?>
<svg width="31px" height="29px" viewBox="0 0 31 29" version="1.1" xmlns="http://www.w3.org/2000/svg" xmlns:xlink="http://www.w3.org/1999/xlink">
    <!-- Generator: Sketch 50.2 (55047) - http://www.bohemiancoding.com/sketch -->
    <title>repeat</title>
    <desc>Created with Sketch.</desc>
    <defs></defs>
    <g id="Page-1" stroke="none" stroke-width="1" fill="none" fill-rule="evenodd">
        <g id="Home@2x" transform="translate(-1125.000000, -1666.000000)" fill="#FFFFFF" fill-rule="nonzero" stroke="#FFFFFF" stroke-width="0.3">
            <g id="repeat" transform="translate(1126.000000, 1667.000000)">
                <path d="M0.57199211,13 C0.888303748,13 1.14398422,12.7469518 1.14398422,12.4338965 C1.14398422,9.00047901 3.96676529,6.2067584 7.43589744,6.2067584 L21.1637081,6.2067584 L21.1637081,11.2813099 L29,5.64065494 L21.1637081,0 L21.1637081,5.07455147 L7.43589744,5.07455147 C3.33585799,5.07455147 0,8.37606689 0,12.4338965 C-1.65110091e-15,12.7469518 0.255680473,13 0.57199211,13 Z M22.3076923,2.22365442 L27.0552268,5.64065494 L22.3076923,9.05765546 L22.3076923,2.22365442 Z" id="Shape"></path>
                <path d="M28.4280079,14 C28.1116963,14 27.8560158,14.2530482 27.8560158,14.5661035 C27.8560158,17.999521 25.0332347,20.7932416 21.5641026,20.7932416 L7.83629191,20.7932416 L7.83629191,15.7186901 L0,21.3593451 L7.83629191,27 L7.83629191,21.9254485 L21.5641026,21.9254485 C25.664142,21.9254485 29,18.6239331 29,14.5661035 C29,14.2530482 28.7443195,14 28.4280079,14 Z M6.69230769,24.7763456 L1.94477318,21.3593451 L6.69230769,17.9423445 L6.69230769,24.7763456 Z" id="Shape"></path>
            </g>
        </g>
    </g>
</svg>