<?xml version="1.0" encoding="UTF-8"?>
<svg width="142px" height="143px" viewBox="0 0 142 143" version="1.1" xmlns="http://www.w3.org/2000/svg" xmlns:xlink="http://www.w3.org/1999/xlink">
    <!-- Generator: Sketch 50.2 (55047) - http://www.bohemiancoding.com/sketch -->
    <title>geometry</title>
    <desc>Created with Sketch.</desc>
    <defs>
        <filter x="-39.9%" y="-39.9%" width="179.7%" height="182.4%" filterUnits="objectBoundingBox" id="filter-1">
            <feOffset dx="0" dy="2" in="SourceAlpha" result="shadowOffsetOuter1"></feOffset>
            <feGaussianBlur stdDeviation="20" in="shadowOffsetOuter1" result="shadowBlurOuter1"></feGaussianBlur>
            <feColorMatrix values="0 0 0 0 0.635655825   0 0 0 0 0.602323021   0 0 0 0 0.602323021  0 0 0 0.5 0" type="matrix" in="shadowBlurOuter1" result="shadowMatrixOuter1"></feColorMatrix>
            <feMerge>
                <feMergeNode in="shadowMatrixOuter1"></feMergeNode>
                <feMergeNode in="SourceGraphic"></feMergeNode>
            </feMerge>
        </filter>
    </defs>
    <g id="Page-1" stroke="none" stroke-width="1" fill="none" fill-rule="evenodd">
        <g id="Home@2x" transform="translate(-912.000000, -902.000000)" fill="#FFFFFF" fill-rule="nonzero">
            <g id="Rectangle-Copy-6" transform="translate(905.000000, 898.000000)">
                <g id="Oval" filter="url(#filter-1)">
                    <g id="Group-10">
                        <g id="geometry" transform="translate(44.000000, 41.000000)">
                            <path d="M63.9291071,2.80508268e-08 C63.9289732,2.80508268e-08 63.9287053,2.80508268e-08 63.9285714,2.80508268e-08 L36.0714286,2.80508268e-08 C35.4798661,-0.00013390052 35.000134,0.479330384 35,1.07089288 C35,1.07102681 35,1.07129467 35,1.0714286 L35,28.9285714 C34.9998661,29.5201339 35.4793304,29.999866 36.0708929,30 C36.0710268,30 36.0712947,30 36.0714286,30 L63.9285714,30 C64.5201339,30.0001339 64.999866,29.5206696 65,28.9291071 C65,28.9289732 65,28.9287053 65,28.9285714 L65,1.0714286 C65.0001339,0.479866099 64.5206696,0.000267885193 63.9291071,2.80508268e-08 Z M62.8571428,27.8571428 L37.1428572,27.8571428 L37.1428572,2.14285717 L62.8571428,2.14285717 L62.8571428,27.8571428 Z" id="Shape"></path>
                            <path d="M31.8726655,28.4188636 L16.9391994,0.52198981 C16.6130631,0.000264622761 15.9281237,-0.156655292 15.4095858,0.171401214 C15.2687845,0.260456619 15.1497168,0.380225409 15.0610493,0.52198981 L0.127583179,28.4188636 C-0.0505517384,28.7510778 -0.0416183256,29.1531683 0.151050055,29.4772012 C0.343185097,29.8016365 0.691188192,30.0004017 1.0666582,29.9999994 L30.9335905,29.9999994 C31.5226624,29.9999994 32,29.519583 32,28.9271768 C32,28.7497366 31.9562663,28.5751129 31.8726655,28.4188636 Z M2.85267408,27.854086 L16.0001244,3.29343693 L29.1475746,27.854086 L2.85267408,27.854086 Z" id="Shape"></path>
                            <path d="M50,35 C41.7157143,35 35,41.7157143 35,50 C35,58.2842857 41.7157143,65 50,65 C58.2842857,65 65,58.2842857 65,50 C64.9907589,41.7195982 58.2804018,35.009375 50,35 Z M50,62.8571429 C42.8992411,62.8571429 37.1428571,57.1007589 37.1428571,50 C37.1428571,42.8992411 42.8992411,37.1428571 50,37.1428571 C57.1007589,37.1428571 62.8571429,42.8992411 62.8571429,50 C62.8492411,57.0975446 57.0975446,62.8492411 50,62.8571429 Z" id="Shape"></path>
                            <path d="M31.8723008,49.4925446 L24.4056808,35.5639732 C24.2198153,35.2166964 23.8591509,35.0001339 23.46662,35 L8.53338,35 C8.14084912,35.0001339 7.78018471,35.2166964 7.5943192,35.5639732 L0.127699202,49.4925446 C-0.0425664006,49.8092857 -0.0425664006,50.1908482 0.127699202,50.5074554 L7.5943192,64.4360268 C7.78018471,64.7833036 8.14084912,64.9998661 8.53338,65 L23.46662,65 C23.8591509,64.9998661 24.2198153,64.7833036 24.4056808,64.4360268 L31.8723008,50.5074554 C32.0425664,50.1908482 32.0425664,49.8092857 31.8723008,49.4925446 Z M22.8296906,62.8571429 L9.17030935,62.8571429 L2.27821909,50 L9.17030935,37.1428571 L22.8295573,37.1428571 L29.7216476,50 L22.8296906,62.8571429 Z" id="Shape"></path>
                            <rect id="Rectangle-path" x="58" y="8" width="2" height="15"></rect>
                            <rect id="Rectangle-path" transform="translate(9.500000, 46.000000) rotate(-60.953744) translate(-9.500000, -46.000000) " x="4" y="45" width="11" height="2"></rect>
                            <rect id="Rectangle-path" transform="translate(13.000000, 18.000000) rotate(-61.392284) translate(-13.000000, -18.000000) " x="6" y="17" width="14" height="2"></rect>
                            <path d="M57.8533694,43 L56,44.167491 C58.3841082,47.7142093 58.3841082,52.2857907 56,55.832509 L57.8533694,57 C60.7155435,52.7437508 60.7155435,47.2563828 57.8533694,43 Z" id="Shape"></path>
                        </g>
                    </g>
                </g>
            </g>
        </g>
    </g>
</svg>