<?xml version="1.0" encoding="UTF-8"?>
<svg width="100px" height="112px" viewBox="0 0 100 112" version="1.1" xmlns="http://www.w3.org/2000/svg" xmlns:xlink="http://www.w3.org/1999/xlink">
    <!-- Generator: Sketch 52.6 (67491) - http://www.bohemiancoding.com/sketch -->
    <title>icon/telegram</title>
    <desc>Created with Sketch.</desc>
    <defs>
        <polygon id="path-1" points="0 -5.58139535e-05 95.4410025 -5.58139535e-05 95.4410025 84.8388122 0 84.8388122"></polygon>
    </defs>
    <g id="icon/telegram" stroke="none" stroke-width="1" fill="none" fill-rule="evenodd">
        <g id="Group-3-Copy" transform="translate(2.000000, 16.000000)">
            <mask id="mask-2" fill="white">
                <use xlink:href="#path-1"></use>
            </mask>
            <g id="Clip-2"></g>
            <path d="M51.6208744,63.4629209 L39.9122233,55.5217116 L91.6752,5.71222326 L77.3421767,80.9103628 L51.6443163,63.4796651 L51.6208744,63.4629209 Z M35.8735256,73.6177116 L29.0921302,47.9243163 C28.9726884,47.4688744 28.6389209,47.0971535 28.2013395,46.9297116 L5.49510698,38.2495256 L87.5795721,5.5872 L36.5778977,54.663293 C36.3300837,54.9021767 36.1715721,55.2236651 36.1358512,55.5674791 L36.0778047,56.1178047 L36.4015256,56.5721302 C36.503107,56.7127814 36.6258977,56.8333395 36.7687814,56.9293395 L48.2463628,64.715386 L35.8735256,73.6177116 Z M95.4348279,1.59426977 C95.4426419,1.5127814 95.4426419,1.43464186 95.4370605,1.35650233 C95.4203163,1.13436279 95.3455256,0.805060465 95.0787349,0.4992 L95.0005953,0.417711628 C94.6779907,0.100688372 94.3129674,0.0169674419 94.0629209,0.00245581395 C94.007107,-0.000893023256 93.9445953,-0.000893023256 93.8843163,0.00245581395 C93.7168744,0.0125023256 93.555014,0.050455814 93.4054326,0.1152 L0.922827907,36.9155721 C0.365804651,37.1365953 -0.0048,37.6869209 -0.000334883721,38.2852465 C0.00413023256,38.8947349 0.373618605,39.4283163 0.941804651,39.6459907 L26.451014,49.4000372 L33.5829209,76.4262698 C33.7057116,76.8917581 34.0506419,77.2690605 34.5049674,77.4320372 C34.9570605,77.5927814 35.4627349,77.5235721 35.8567814,77.2411535 L50.8283163,66.4668279 L77.5419907,84.587386 C77.9460837,84.8608744 78.4729674,84.9166884 78.927293,84.7280372 C79.3827349,84.5382698 79.7109209,84.135293 79.8035721,83.6497116 L95.4058047,1.79185116 C95.4225488,1.70589767 95.4303628,1.65008372 95.4348279,1.59426977 Z" id="Fill-1" fill="#1D45BA" mask="url(#mask-2)"></path>
        </g>
    </g>
</svg>