<?xml version="1.0" encoding="UTF-8"?>
<svg width="44px" height="44px" viewBox="0 0 44 44" version="1.1" xmlns="http://www.w3.org/2000/svg" xmlns:xlink="http://www.w3.org/1999/xlink">
    <!-- Generator: Sketch 52.6 (67491) - http://www.bohemiancoding.com/sketch -->
    <title>page icon/terms and conditions</title>
    <desc>Created with Sketch.</desc>
    <defs>
        <linearGradient x1="0%" y1="98.2523503%" x2="53.8596176%" y2="70.9764888%" id="linearGradient-1">
            <stop stop-color="#1A44B7" offset="0%"></stop>
            <stop stop-color="#4760FF" offset="100%"></stop>
        </linearGradient>
        <polygon id="path-2" points="0 41.2317073 31.2258065 41.2317073 31.2258065 0 0 0"></polygon>
    </defs>
    <g id="page-icon/terms-and-conditions" stroke="none" stroke-width="1" fill="none" fill-rule="evenodd">
        <g id="Group-15" transform="translate(6.000000, 1.000000)">
            <path d="M25.9012129,34.413161 L14.2883097,34.413161 C13.7721806,34.413161 13.3530839,34.8300878 13.3530839,35.3412585 C13.3530839,35.8534537 13.7721806,36.2693561 14.2883097,36.2693561 L25.9012129,36.2693561 C26.4173419,36.2693561 26.8364387,35.8534537 26.8364387,35.3412585 C26.8364387,34.8300878 26.4173419,34.413161 25.9012129,34.413161" id="Fill-1" fill="url(#linearGradient-1)"></path>
            <path d="M5.15323871,26.5060976 L19.2879484,26.5060976 C19.8040774,26.5060976 20.2242065,26.0891707 20.2242065,25.578 C20.2242065,25.0658049 19.8040774,24.6499024 19.2879484,24.6499024 L5.15323871,24.6499024 C4.63710968,24.6499024 4.2180129,25.0658049 4.2180129,25.578 C4.2180129,26.0891707 4.63710968,26.5060976 5.15323871,26.5060976" id="Fill-3" fill="url(#linearGradient-1)"></path>
            <path d="M5.15323871,14.0213415 L26.0729806,14.0213415 C26.5891097,14.0213415 27.0082065,13.6044146 27.0082065,13.0932439 C27.0082065,12.5810488 26.5891097,12.1651463 26.0729806,12.1651463 L5.15323871,12.1651463 C4.63710968,12.1651463 4.2180129,12.5810488 4.2180129,13.0932439 C4.2180129,13.6044146 4.63710968,14.0213415 5.15323871,14.0213415" id="Fill-5" fill="url(#linearGradient-1)"></path>
            <path d="M5.15323871,17.8628049 L19.2879484,17.8628049 C19.8040774,17.8628049 20.2242065,17.445878 20.2242065,16.9347073 C20.2242065,16.4225122 19.8040774,16.0066098 19.2879484,16.0066098 L5.15323871,16.0066098 C4.63710968,16.0066098 4.2180129,16.4225122 4.2180129,16.9347073 C4.2180129,17.445878 4.63710968,17.8628049 5.15323871,17.8628049" id="Fill-7" fill="url(#linearGradient-1)"></path>
            <path d="M5.15323871,22.6646341 L26.0729806,22.6646341 C26.5891097,22.6646341 27.0082065,22.2477073 27.0082065,21.7365366 C27.0082065,21.2243415 26.5891097,20.808439 26.0729806,20.808439 L5.15323871,20.808439 C4.63710968,20.808439 4.2180129,21.2243415 4.2180129,21.7365366 C4.2180129,22.2477073 4.63710968,22.6646341 5.15323871,22.6646341" id="Fill-9" fill="url(#linearGradient-1)"></path>
            <mask id="mask-3" fill="white">
                <use xlink:href="#path-2"></use>
            </mask>
            <g id="Clip-12"></g>
            <path d="M6.01496774,34.4123415 L8.01445161,34.4123415 L8.01445161,32.4280976 L6.01496774,32.4280976 L6.01496774,34.4123415 Z M5.07974194,36.269561 L8.95070968,36.269561 C9.46683871,36.269561 9.88593548,35.8536585 9.88593548,35.3414634 L9.88593548,31.5 C9.88593548,30.9878049 9.46683871,30.5719024 8.95070968,30.5719024 L5.07974194,30.5719024 C4.5636129,30.5719024 4.14451613,30.9878049 4.14451613,31.5 L4.14451613,35.3414634 C4.14451613,35.8536585 4.5636129,36.269561 5.07974194,36.269561 Z" id="Fill-11" fill="url(#linearGradient-1)" mask="url(#mask-3)"></path>
            <path d="M25.9012129,30.5716976 L14.2883097,30.5716976 C13.7721806,30.5716976 13.3530839,30.9886244 13.3530839,31.4997951 C13.3530839,32.0119902 13.7721806,32.4278927 14.2883097,32.4278927 L25.9012129,32.4278927 C26.4173419,32.4278927 26.8364387,32.0119902 26.8364387,31.4997951 C26.8364387,30.9886244 26.4173419,30.5716976 25.9012129,30.5716976" id="Fill-13" fill="url(#linearGradient-1)" mask="url(#mask-3)"></path>
            <path d="M7.74193548,6.81106829 L7.74193548,7.33145854 C7.74193548,7.84262927 8.128,8.2595561 8.60180645,8.2595561 L22.6229677,8.2595561 C23.0967742,8.2595561 23.4818065,7.84262927 23.4818065,7.33145854 L23.4818065,6.81106829 C23.4818065,6.17799512 23.3765161,5.56336098 23.1669677,4.97843415 L27.5365161,4.97843415 C28.6234839,4.97843415 29.5070968,5.95365366 29.5070968,7.15219024 L29.5070968,37.2016537 C29.5070968,38.4001902 28.6234839,39.3754098 27.5365161,39.3754098 L3.69032258,39.3754098 C2.60232258,39.3754098 1.71870968,38.4001902 1.71870968,37.2016537 L1.71870968,7.15219024 C1.71870968,5.95365366 2.60232258,4.97843415 3.69032258,4.97843415 L8.05780645,4.97843415 C7.84825806,5.56438537 7.74193548,6.1800439 7.74193548,6.81106829 M14.3308387,2.93272683 C14.4898065,2.29965366 15.0172903,1.85711707 15.6129032,1.85711707 C16.2085161,1.85711707 16.736,2.29965366 16.8949677,2.93272683 C16.9971613,3.33633659 17.3378065,3.61701951 17.7249032,3.61701951 L18.8614194,3.61701951 C20.315871,3.61701951 21.5566452,4.82989756 21.7403871,6.40336098 L9.4843871,6.40336098 C9.66812903,4.82989756 10.9089032,3.61701951 12.3633548,3.61701951 L13.5009032,3.61701951 C13.888,3.61701951 14.2286452,3.33633659 14.3308387,2.93272683 M27.5365161,3.12121463 L22.011871,3.12121463 C21.152,2.2433122 20.0350968,1.76082439 18.8614194,1.76082439 L18.3029677,1.76082439 C17.7775484,0.688287805 16.7287742,-0.000102439024 15.6129032,-0.000102439024 C14.4970323,-0.000102439024 13.4482581,0.688287805 12.9228387,1.76082439 L12.3633548,1.76082439 C11.1896774,1.76082439 10.0727742,2.2433122 9.21290323,3.12121463 L3.69032258,3.12121463 C1.65574194,3.12121463 0,4.92926341 0,7.15219024 L0,37.2016537 C0,39.4235561 1.65574194,41.2316049 3.69032258,41.2316049 L27.5354839,41.2316049 C29.5700645,41.2316049 31.2258065,39.4235561 31.2258065,37.2016537 L31.2258065,7.15219024 C31.2258065,4.92926341 29.5700645,3.12121463 27.5365161,3.12121463" id="Fill-14" fill="url(#linearGradient-1)" mask="url(#mask-3)"></path>
        </g>
    </g>
</svg>