<?xml version="1.0" encoding="UTF-8"?>
<svg width="21px" height="17px" viewBox="0 0 21 17" version="1.1" xmlns="http://www.w3.org/2000/svg" xmlns:xlink="http://www.w3.org/1999/xlink">
    <!-- Generator: Sketch 50.2 (55047) - http://www.bohemiancoding.com/sketch -->
    <title>twitter</title>
    <desc>Created with Sketch.</desc>
    <defs></defs>
    <g id="Symbols" stroke="none" stroke-width="1" fill="none" fill-rule="evenodd">
        <g id="footer" transform="translate(-494.000000, -179.000000)" fill="#FFFFFF" fill-rule="nonzero">
            <g id="Group-2" transform="translate(449.000000, 174.000000)">
                <g id="twitter" transform="translate(44.898630, 5.257143)">
                    <path d="M20.9086758,1.94489011 C20.1311344,2.27472527 19.3026281,2.49335165 18.4388385,2.59950549 C19.3274572,2.08642857 20.0056824,1.28016484 20.3245397,0.308351648 C19.4960334,0.786043956 18.5812788,1.12346154 17.6064118,1.31175824 C16.8197229,0.501703297 15.6984951,0 14.4753376,0 C12.1022029,0 10.1916727,1.86274725 10.1916727,4.14631868 C10.1916727,4.47489011 10.2204221,4.79082418 10.2909889,5.09159341 C6.72736644,4.92351648 3.57407677,3.27181319 1.45576655,0.755714286 C1.08594435,1.37620879 0.869016838,2.08642857 0.869016838,2.85098901 C0.869016838,4.28659341 1.6334903,5.55917582 2.77301313,6.29593407 C2.08433362,6.2832967 1.40872203,6.08994505 0.836347032,5.78538462 C0.836347032,5.79802198 0.836347032,5.81445055 0.836347032,5.83087912 C0.836347032,7.84527473 2.32216981,9.51846154 4.27059703,9.9039011 C3.9216835,9.99615385 3.54140696,10.0403846 3.14675571,10.0403846 C2.87232934,10.0403846 2.59528938,10.0252198 2.33523773,9.96961538 C2.89062443,11.6112088 4.46661587,12.8180769 6.34055594,12.8572527 C4.8821758,13.9604945 3.0304512,14.6252198 1.02583191,14.6252198 C0.674304795,14.6252198 0.337152397,14.6100549 -5.68434189e-14,14.5683516 C1.89876912,15.7524725 4.14906535,16.4285714 6.57577854,16.4285714 C14.4635765,16.4285714 18.7759909,10.1098901 18.7759909,4.63285714 C18.7759909,4.44961538 18.7694569,4.27269231 18.7603094,4.09703297 C19.6110311,3.51318681 20.3258465,2.78401099 20.9086758,1.94489011 Z" id="Shape"></path>
                </g>
            </g>
        </g>
    </g>
</svg>