<?xml version="1.0" encoding="UTF-8"?>
<svg width="208px" height="56px" viewBox="0 0 208 56" version="1.1" xmlns="http://www.w3.org/2000/svg" xmlns:xlink="http://www.w3.org/1999/xlink">
    <!-- Generator: Sketch 52.6 (67491) - http://www.bohemiancoding.com/sketch -->
    <title>vacuumlabs-hover</title>
    <desc>Created with Sketch.</desc>
    <g id="vacuumlabs-hover" stroke="none" stroke-width="1" fill="none" fill-rule="evenodd">
        <g id="vacuumlabs_logo" transform="translate(4.000000, 13.000000)">
            <path d="M16.8166773,22.4718841 L12.1953074,14.4072878 C11.4528416,15.9139821 10.8857183,18.1014216 10.8665402,21.3428296 L14.8451703,28.2866529 C15.0616087,28.6642927 15.4621566,28.8972809 15.8950334,28.8972809 L17.7388689,28.8972809 C18.1717457,28.8972809 18.5711978,28.6653968 18.7876361,28.287757 C20.8796909,24.6361353 24.3153073,18.640276 27.4868142,13.1059765 C27.6506498,12.8199862 27.4451703,12.4627743 27.1174991,12.4627743 L23.0681841,12.4627743 C22.748732,12.4627743 22.4533896,12.634479 22.2939375,12.913844 L16.8166773,22.4718841 Z" id="Fill-44" fill="#20323F"></path>
            <path d="M34.9962389,0 C25.9063759,15.863078 9.46801968,0 9.46801968,18.9024154 L0.249937489,2.81518288 C-0.0717063462,2.25424431 -0.0947200448,1.54037267 0.249937489,0.93857833 C0.594595024,0.336783989 1.22034845,0 1.86308817,0 L34.9962389,0 Z" id="Fill-46" fill="#E72076"></path>
            <path d="M40.0947046,24.3314837 C40.9648416,23.5165769 41.3916909,22.3174051 41.3916909,20.764334 C41.3916909,19.211815 40.9494991,17.9971842 40.0799101,17.1204417 C39.2097732,16.2442512 38.1264855,15.7981504 36.8601841,15.7981504 C35.6086773,15.7981504 34.5555266,16.2287923 33.7166224,17.0895239 C32.8777183,17.9508075 32.450321,19.1499793 32.450321,20.6721325 C32.450321,22.2091925 32.8777183,23.4089165 33.7319648,24.2696481 C34.5862114,25.1309317 35.6541566,25.5615735 36.921006,25.5615735 C38.1725128,25.5615735 39.2251155,25.1463906 40.0947046,24.3314837 Z M45.1758005,12.4617805 C45.5730607,12.4617805 45.7708689,12.6616425 45.7708689,13.0613665 L45.7708689,28.2978053 C45.7708689,28.6975293 45.5730607,28.8973913 45.1758005,28.8973913 L42.1396361,28.8973913 C41.8497732,28.8973913 41.6514169,28.6975293 41.5445676,28.2978053 L41.3001841,26.2837267 C39.8048416,28.2823465 37.9434717,29.2816563 35.7308689,29.2816563 C33.6251155,29.2816563 31.8245676,28.4976673 30.3445676,26.9445963 C28.8640196,25.3920773 28.1166224,23.301256 28.1166224,20.6721325 C28.1166224,18.0430089 28.8640196,15.9521877 30.3599101,14.3836576 C31.8399101,12.8311388 33.6097732,12.0471498 35.6393621,12.0471498 C37.82128,12.0471498 39.7286773,12.9846239 41.3308689,14.8606763 L41.5445676,13.0613665 C41.6053896,12.6616425 41.8037457,12.4617805 42.1396361,12.4617805 L45.1758005,12.4617805 Z" id="Fill-51" fill="#20323F" fill-rule="nonzero"></path>
            <path d="M51.2221566,26.760414 C49.6506498,25.0996825 48.8725676,23.0552381 48.8725676,20.6414355 C48.8725676,18.2585507 49.6654443,16.2290132 51.2374991,14.5682816 C52.809006,12.9081021 54.8079101,12.0777364 57.2648964,12.0777364 C58.5925676,12.0777364 59.8128416,12.338882 60.9268142,12.8617253 C62.0407868,13.4000276 62.9257183,14.0763561 63.5816087,14.9221809 C63.8413348,15.2451622 63.7953073,15.5217667 63.4594169,15.7674534 L61.4303759,17.3050656 C61.1405128,17.5049276 60.8659923,17.4740097 60.6216087,17.2128641 C59.6911978,16.2748378 58.6073621,15.7983713 57.4018827,15.7983713 C56.1048964,15.7983713 55.0676361,16.2593789 54.2588689,17.1974051 C53.4495539,18.1354313 53.0533896,19.2882263 53.0533896,20.6718012 C53.0533896,22.0713872 53.4495539,23.2241822 54.2588689,24.1467494 C55.0676361,25.0693168 56.1202389,25.5303243 57.4325676,25.5303243 C58.2259923,25.5303243 58.8364032,25.3155555 59.3553073,25.1156935 C59.6599648,24.9925742 60.0572252,24.7154175 60.1947594,24.5928502 C60.2703759,24.5464734 60.3772252,24.4542719 60.5147594,24.3317046 L60.7438005,24.1467494 C61.0336635,23.9159697 61.3240745,23.8850518 61.5832525,24.0854658 L63.5816087,25.5303243 C63.8714717,25.7611042 63.9328416,26.0377088 63.7344855,26.3452312 C63.108732,27.1910559 62.208458,27.8828434 61.0336635,28.4205935 C59.8588689,28.9743548 58.5925676,29.2515114 57.2342114,29.2515114 C54.7925676,29.2515114 52.7942114,28.4205935 51.2221566,26.760414" id="Fill-53" fill="#20323F"></path>
            <path d="M81.8650607,12.4620566 C82.2617732,12.4620566 82.4601293,12.6619185 82.4601293,13.0616425 L82.4601293,28.2980815 C82.4601293,28.6978053 82.2617732,28.8976673 81.8650607,28.8976673 L78.7061566,28.8976673 C78.3702662,28.8976673 78.1719101,28.6978053 78.1110882,28.2980815 L77.8973896,26.6991856 C76.3565676,28.4206487 74.4491703,29.2819324 72.2064307,29.2819324 C68.2842389,29.2819324 66.1790334,26.5142306 66.1790334,21.4100207 L66.1790334,13.0616425 C66.1790334,12.6619185 66.3768416,12.4620566 66.7735539,12.4620566 L70.1762937,12.4620566 C70.5735539,12.4620566 70.7713621,12.6619185 70.7713621,13.0616425 L70.7713621,21.4100207 C70.7713621,23.7625396 71.9921841,25.1461145 74.082595,25.1461145 C76.2343759,25.1461145 77.7297183,23.6239614 77.8672525,20.4261698 L77.8672525,13.0616425 C77.8672525,12.6619185 78.0656087,12.4620566 78.462321,12.4620566 L81.8650607,12.4620566 Z" id="Fill-55" fill="#20323F"></path>
            <path d="M101.979581,12.4620566 C102.376294,12.4620566 102.574102,12.6619185 102.574102,13.0616425 L102.574102,28.2980815 C102.574102,28.6978053 102.376294,28.8976673 101.979581,28.8976673 L98.8206773,28.8976673 C98.4853348,28.8976673 98.2864307,28.6978053 98.2256087,28.2980815 L98.0119101,26.6991856 C96.4705402,28.4206487 94.563143,29.2819324 92.3204032,29.2819324 C88.3987594,29.2819324 86.2935539,26.5142306 86.2935539,21.4100207 L86.2935539,13.0616425 C86.2935539,12.6619185 86.4913621,12.4620566 86.8880745,12.4620566 L90.2908142,12.4620566 C90.6880745,12.4620566 90.8858827,12.6619185 90.8858827,13.0616425 L90.8858827,21.4100207 C90.8858827,23.7625396 92.1067046,25.1461145 94.1971155,25.1461145 C96.3483484,25.1461145 97.8442389,23.6239614 97.9812252,20.4261698 L97.9812252,13.0616425 C97.9812252,12.6619185 98.1795814,12.4620566 98.5768416,12.4620566 L101.979581,12.4620566 Z" id="Fill-57" fill="#20323F"></path>
            <path d="M132.942759,14.1685024 C134.087417,15.5675363 134.6518,17.4894134 134.6518,19.9186749 L134.6518,28.2979711 C134.6518,28.6976949 134.453445,28.8975569 134.056732,28.8975569 L130.653993,28.8975569 C130.25728,28.8975569 130.058924,28.6976949 130.058924,28.2979711 L130.058924,19.9186749 C130.058924,17.5667081 128.853993,16.213499 126.778924,16.213499 C124.565773,16.213499 123.085773,17.7047343 122.963581,20.9025258 L122.963581,28.2979711 C122.963581,28.6976949 122.765773,28.8975569 122.368513,28.8975569 L119.05728,28.8975569 C118.660568,28.8975569 118.462211,28.6976949 118.462211,28.2979711 L118.462211,19.9186749 C118.462211,17.5667081 117.241938,16.213499 115.150979,16.213499 C112.938924,16.213499 111.458376,17.7047343 111.336184,20.9025258 L111.336184,28.2979711 C111.336184,28.6976949 111.137828,28.8975569 110.741116,28.8975569 L107.338376,28.8975569 C106.941663,28.8975569 106.743855,28.6976949 106.743855,28.2979711 L106.743855,13.061532 C106.743855,12.6618082 106.941663,12.4619462 107.338376,12.4619462 L110.527965,12.4619462 C110.817828,12.4619462 111.015636,12.6618082 111.123033,13.061532 L111.306047,14.6295101 C112.786047,12.9229538 114.55591,12.0776812 116.646869,12.0776812 C119.194814,12.0776812 121.010705,13.2150173 122.093992,15.4907937 C123.635362,13.2150173 125.680293,12.0776812 128.243581,12.0776812 C130.227143,12.0776812 131.79865,12.7694686 132.942759,14.1685024" id="Fill-59" fill="#20323F"></path>
            <path d="M139.08254,28.8973913 C138.808568,28.8973913 138.670486,28.7593651 138.685827,28.4822084 L138.685827,6.45046239 C138.685827,6.17385784 138.823363,6.0352795 139.08254,6.0352795 L141.309938,6.0352795 C141.585006,6.0352795 141.721993,6.17385784 141.707198,6.45046239 L141.707198,28.4822084 C141.707198,28.7593651 141.570211,28.8973913 141.309938,28.8973913 L139.08254,28.8973913 Z" id="Fill-61" fill="#20323F"></path>
            <path d="M158.004841,25.2229676 C159.088677,24.2081988 159.63717,22.8246239 159.63717,21.0562319 C159.63717,19.272933 159.088677,17.7971566 157.974157,16.6283506 C156.860184,15.4755555 155.487034,14.8908765 153.854704,14.8908765 C152.283198,14.8908765 150.97032,15.4446376 149.917718,16.5361491 C148.864568,17.6431194 148.33087,19.0730711 148.33087,20.8409109 C148.33087,22.609303 148.864568,24.0237958 149.933609,25.1153071 C151.001006,26.2068185 152.34402,26.7605798 153.976349,26.7605798 C155.563745,26.7605798 156.906211,26.2531953 158.004841,25.2229676 Z M162.109499,12.7387716 C162.38402,12.7387716 162.521554,12.8773499 162.506759,13.1539544 L162.506759,28.4820427 C162.506759,28.7591995 162.368677,28.8972257 162.109499,28.8972257 L160.354431,28.8972257 C160.156622,28.8972257 160.019088,28.7591995 159.942924,28.4820427 L159.728677,26.1300759 C158.127034,28.2363561 155.990595,29.2820427 153.351143,29.2820427 C151.07717,29.2820427 149.185116,28.4980538 147.659088,26.9295239 C146.118266,25.3609938 145.354979,23.3320083 145.354979,20.8409109 C145.354979,18.32 146.118266,16.2750035 147.659088,14.6910145 C149.185116,13.1230365 151.047034,12.3390476 153.259636,12.3390476 C155.883745,12.3390476 158.21854,13.5536784 159.728677,15.583216 L159.942924,13.1539544 C159.988404,12.8773499 160.12539,12.7387716 160.354431,12.7387716 L162.109499,12.7387716 Z" id="Fill-63" fill="#20323F" fill-rule="nonzero"></path>
            <path d="M179.905006,25.1154175 C180.972952,24.0239061 181.507198,22.6094134 181.507198,20.8410214 C181.507198,19.0731815 180.972952,17.6432298 179.9198,16.5362595 C178.852404,15.4447481 177.540622,14.8909868 175.96802,14.8909868 C174.335691,14.8909868 172.977334,15.475666 171.863363,16.628461 C170.749938,17.7972671 170.185554,19.2730435 170.185554,21.0563424 C170.185554,22.8247343 170.734595,24.2083092 171.833225,25.223078 C172.916513,26.2533057 174.259527,26.760138 175.846376,26.760138 C177.478704,26.760138 178.82117,26.2069289 179.905006,25.1154175 M182.178431,14.691125 C183.704458,16.2751139 184.467198,18.3195583 184.467198,20.8410214 C184.467198,23.3475776 183.704458,25.3771153 182.178431,26.9296343 C180.637609,28.4976122 178.745554,29.2816011 176.471581,29.2816011 C173.72528,29.2816011 171.559252,28.159724 169.971856,25.9303243 L169.72802,28.4821532 C169.666102,28.7593098 169.528568,28.8973361 169.315417,28.8973361 L167.560897,28.8973361 C167.286376,28.8973361 167.148841,28.7593098 167.164184,28.4821532 L167.164184,6.45040718 C167.164184,6.17380262 167.30117,6.0352243 167.560897,6.0352243 L169.788293,6.0352243 C170.063363,6.0352243 170.200349,6.17380262 170.185554,6.45040718 L170.185554,15.4602071 C171.833225,13.3842927 173.95432,12.339158 176.563636,12.339158 C178.775691,12.339158 180.637609,13.123147 182.178431,14.691125" id="Fill-65" fill="#20323F" fill-rule="nonzero"></path>
            <path d="M189.643856,28.574686 C188.529883,28.1131263 187.675636,27.5140924 187.095911,26.7604693 C186.912897,26.5755142 186.897006,26.3762042 187.065225,26.1608834 L187.873993,24.9307937 C188.041663,24.6690959 188.239472,24.6541891 188.499745,24.8695101 C189.521663,26.1299655 191.139198,26.7604693 193.382486,26.7604693 C195.808239,26.7604693 197.013718,25.9146446 196.998924,24.2390062 C196.998924,23.3931815 196.73865,22.8857971 195.930431,22.501532 C195.518376,22.3171291 195.137006,22.1791029 194.785773,22.0714424 C194.435088,21.9786887 193.870704,21.8561215 193.092622,21.6866252 C192.1918,21.5022222 191.475088,21.3178191 190.910704,21.148875 C190.345773,20.9793789 189.766047,20.7331401 189.140293,20.395804 C187.889334,19.7189234 187.248239,18.6423189 187.248239,17.1201656 C187.248239,15.6598482 187.812622,14.4915942 188.95728,13.6308626 C190.086595,12.769579 191.581938,12.3389372 193.443307,12.3389372 C195.59454,12.3389372 197.502486,13.0152657 199.196184,14.3839338 C199.455363,14.52196 199.486047,14.722374 199.287691,14.9835196 L198.463581,16.1523257 C198.326047,16.3825535 198.127691,16.4283781 197.883307,16.274893 C196.709061,15.3523257 195.289883,14.8907661 193.596184,14.8907661 C191.26139,14.8907661 190.101938,15.5985645 190.101938,17.0279641 C190.101938,17.5049827 190.284952,17.9047067 190.650979,18.2276881 C191.002211,18.5506694 191.398376,18.7808971 191.825773,18.9040165 C192.25317,19.0425949 192.848786,19.1806211 193.596184,19.3191995 C193.73317,19.3346584 193.855363,19.3650241 193.947417,19.395942 C195.884952,19.795666 197.349609,20.3339682 198.356732,21.0102968 C199.348513,21.7020842 199.852075,22.7632298 199.852075,24.2080883 C199.852075,25.7457005 199.287691,26.9757902 198.17317,27.8983575 C197.044952,28.8209247 195.472897,29.2819324 193.443307,29.2819324 C192.024129,29.2819324 190.75728,29.0511525 189.643856,28.574686" id="Fill-67" fill="#20323F"></path>
        </g>
    </g>
</svg>