<?xml version="1.0" encoding="UTF-8"?>
<svg width="39px" height="35px" viewBox="0 0 39 35" version="1.1" xmlns="http://www.w3.org/2000/svg" xmlns:xlink="http://www.w3.org/1999/xlink">
    <!-- Generator: Sketch 50.2 (55047) - http://www.bohemiancoding.com/sketch -->
    <title>Group 2</title>
    <desc>Created with Sketch.</desc>
    <defs></defs>
    <g id="Page-1" stroke="none" stroke-width="1" fill="none" fill-rule="evenodd">
        <g id="about-mobile" transform="translate(-51.000000, -716.000000)" fill="#FFFFFF">
            <g id="Group-3" transform="translate(22.000000, 685.000000)">
                <g id="Group-2" transform="translate(29.163399, 31.121622)">
                    <path d="M4.39681675,8.25675676 L4.39681675,9.7109972 C4.39681675,10.1665424 4.39681675,10.6396086 4.39681675,11.0951538 L4.39681675,12.5143523 C4.39681675,12.5493942 4.39681675,12.5844362 4.41399673,12.6019571 C11.9903661,17.9283318 19.5151955,23.2547064 27.0743849,28.5810811 L30.1496006,26.4084809 C21.5596126,20.3637465 13.0039847,14.3365331 4.39681675,8.25675676 Z" id="Shape"></path>
                    <path d="M23.3620495,6.20084927 C22.0057621,7.145577 20.6494748,8.05595099 19.2931874,9.00067872 C19.1066979,9.1209168 18.9880228,9.13809366 18.8015333,9.00067872 C17.1400813,7.83265171 15.4616757,6.6646247 13.7832701,5.49659769 C12.0370502,4.24268634 10.2908302,2.988775 8.52765666,1.75204051 C7.69693066,1.16802701 6.86620467,0.584013505 6.03547867,0 L0,0 C0.322118244,0.223299281 0.57642212,0.412244827 0.847679589,0.601190373 C2.42436362,1.70050991 4.00104766,2.81700632 5.57773169,3.91632586 C7.13746214,5.01564539 8.69719258,6.11496493 10.256923,7.21428447 C11.7149319,8.24489654 13.1898944,9.29268547 14.6479033,10.3232975 C16.0380978,11.302379 17.4452459,12.2642836 18.8354405,13.2605419 C18.9880228,13.3636031 19.0897443,13.3636031 19.2423267,13.2605419 C20.3612637,12.470406 21.4971544,11.7146238 22.633045,10.9244879 C25.4134341,8.98350185 28.1938231,7.04251579 30.9742122,5.1187066 C32.9916896,3.71020344 35.0261206,2.30170028 37.043598,0.910373993 C37.4674378,0.61836724 37.874324,0.326360488 38.3151174,0.0171768678 L32.2626851,0.0171768678 C29.2958066,2.06122413 26.3458816,4.13962514 23.3620495,6.20084927 Z" id="Shape"></path>
                    <path d="M4.43112068,19.0540541 C4.41396871,19.1073521 4.39681675,19.1251181 4.39681675,19.1428841 C4.39681675,19.4449064 4.39681675,19.7291627 4.39681675,20.031185 L4.39681675,21.8077868 C4.39681675,22.3407673 4.39681675,22.8737479 4.39681675,23.3889624 C4.39681675,23.4244944 4.41396871,23.4422604 4.41396871,23.4777925 C9.43949359,27.0842941 14.4650185,30.6730297 19.5248473,34.2972973 C19.5248473,34.2972973 19.5419992,34.2972973 19.5419992,34.2972973 L22.6122004,32.0587791 C16.5232539,27.7061047 10.4857633,23.3889624 4.43112068,19.0540541 Z" id="Shape"></path>
                    <path d="M33.2729491,8.25675676 C29.4812691,10.9199441 25.7412939,13.5656104 21.9840838,16.2112768 C22.0357885,16.2813607 22.0702583,16.3164026 22.1047281,16.3514445 C23.0526481,17.0347623 24.017803,17.7180801 24.965723,18.4013979 C24.9829579,18.4189189 25.0346626,18.4189189 25.0691324,18.4189189 C27.792248,16.5091333 30.5153636,14.5818267 33.2557142,12.672041 C33.2729491,12.65452 33.2729491,12.6194781 33.290184,12.6019571 L33.290184,8.25675676 L33.2729491,8.25675676 Z" id="Shape"></path>
                    <path d="M33.290184,19.0540541 C32.0167419,20.0067568 30.7777173,20.940779 29.5214839,21.8748013 C30.5195871,22.6406995 31.483273,23.3879173 32.4469588,24.1351351 L33.290184,23.5 L33.290184,19.0540541 Z" id="Shape"></path>
                </g>
            </g>
        </g>
    </g>
</svg>