<?xml version="1.0" encoding="UTF-8"?>
<svg width="22px" height="14px" viewBox="0 0 22 14" version="1.1" xmlns="http://www.w3.org/2000/svg" xmlns:xlink="http://www.w3.org/1999/xlink">
    <!-- Generator: Sketch 50.2 (55047) - http://www.bohemiancoding.com/sketch -->
    <title>youtube (1)</title>
    <desc>Created with Sketch.</desc>
    <defs></defs>
    <g id="Symbols" stroke="none" stroke-width="1" fill="none" fill-rule="evenodd">
        <g id="footer" transform="translate(-536.000000, -181.000000)" fill="#FFFFFF" fill-rule="nonzero">
            <g id="Group-2" transform="translate(449.000000, 174.000000)">
                <g id="youtube-(1)" transform="translate(87.596347, 7.228571)">
                    <path d="M20.0200571,1.26649351 C19.4529092,0.344103896 18.8374101,0.174441558 17.5841963,0.109922078 C16.3322894,0.0322597403 13.1842269,0 10.4569515,0 C7.72444892,0 4.57507962,0.0322597403 3.32447945,0.108727273 C2.07387928,0.174441558 1.45707334,0.342909091 0.884698345,1.26649351 C0.300562215,2.18768831 0,3.77438961 0,6.56784416 C0,6.57023377 0,6.57142857 0,6.57142857 C0,6.57381818 0,6.57501299 0,6.57501299 L0,6.5774026 C0,9.35890909 0.300562215,10.9575584 0.884698345,11.8691948 C1.45707334,12.7915844 2.07257249,12.9588571 3.32317266,13.0365195 C4.57507962,13.1034286 7.72444892,13.1428571 10.4569515,13.1428571 C13.1842269,13.1428571 16.3322894,13.1034286 17.5855031,13.0377143 C18.8387169,12.9600519 19.454216,12.7927792 20.0213639,11.8703896 C20.6107272,10.9587532 20.9086758,9.3601039 20.9086758,6.5785974 C20.9086758,6.5785974 20.9086758,6.57501299 20.9086758,6.57262338 C20.9086758,6.57262338 20.9086758,6.57023377 20.9086758,6.56903896 C20.9086758,3.77438961 20.6107272,2.18768831 20.0200571,1.26649351 Z M7.84075342,10.1558442 L7.84075342,2.98701299 L14.3747146,6.57142857 L7.84075342,10.1558442 Z" id="Shape"></path>
                </g>
            </g>
        </g>
    </g>
</svg>