<?xml version="1.0" encoding="UTF-8"?>
<svg width="18px" height="18px" viewBox="0 0 18 18" version="1.1" xmlns="http://www.w3.org/2000/svg" xmlns:xlink="http://www.w3.org/1999/xlink">
    <!-- Generator: Sketch 60 (88103) - https://sketch.com -->
    <title>Twitter</title>
    <desc>Created with Sketch.</desc>
    <g id="Twitter" stroke="none" stroke-width="1" fill="none" fill-rule="evenodd">
        <g id="twitter" transform="translate(2.000000, 3.000000)" fill="#FFFFFF" fill-rule="nonzero">
            <path d="M14.6312758,1.82764444 C14.1295495,2.06284444 13.5906863,2.22204444 13.0245389,2.29324444 C13.6028126,1.92764444 14.0454232,1.34764444 14.2546021,0.65964444 C13.7127074,0.99804444 13.1139705,1.24444444 12.4758232,1.37724444 C11.9650021,0.80204444 11.2389389,0.44444444 10.4340547,0.44444444 C8.88870737,0.44444444 7.63514947,1.76684444 7.63514947,3.39724444 C7.63514947,3.62844444 7.66016,3.85404444 7.70714947,4.07084444 C5.38192842,3.94684444 3.31969684,2.77084444 1.93957053,0.98364444 C1.69856,1.41884444 1.56138105,1.92684444 1.56138105,2.46844444 C1.56138105,3.49324444 2.05552842,4.39804444 2.80584421,4.92684444 C2.34731789,4.91084444 1.91607579,4.77804444 1.53864421,4.55644444 L1.53864421,4.59324444 C1.53864421,6.0236444 2.50344421,7.2180444 3.78352842,7.4892444 C3.54858105,7.5564444 3.30150737,7.5932444 3.04533895,7.5932444 C2.86496,7.5932444 2.68988632,7.5748444 2.51860211,7.5388444 C2.87481263,8.7124444 3.90858105,9.5668444 5.13258105,9.5900444 C4.17460211,10.3812444 2.96727579,10.8524444 1.65687579,10.8524444 C1.43102316,10.8524444 1.20820211,10.8380444 0.989170526,10.8116444 C2.22832842,11.6508444 3.69864421,12.1412444 5.27885474,12.1412444 C10.4272337,12.1412444 13.2412968,7.6404444 13.2412968,3.73644444 L13.2314442,3.35404444 C13.7816758,2.94044444 14.2576337,2.41964444 14.6312758,1.82764444" id="Fill-8"></path>
        </g>
    </g>
</svg>