<?xml version="1.0" encoding="UTF-8"?>
<svg width="200px" height="35px" viewBox="0 0 200 35" version="1.1" xmlns="http://www.w3.org/2000/svg" xmlns:xlink="http://www.w3.org/1999/xlink">
    <!-- Generator: Sketch 60 (88103) - https://sketch.com -->
    <title>EMURGOTEST-logo</title>
    <desc>Created with Sketch.</desc>
    <defs>
        <path d="M3.33176775,6.53202703 C1.54504607,6.5322973 0.0964808061,5.08608108 0.0962101727,3.30175676 C0.0959395393,1.51743243 1.54409885,0.0708108108 3.33082054,0.0705405405 C5.11754223,0.0702702703 6.56610749,1.51648649 6.56637812,3.30081081 C6.56664875,5.085 5.11848944,6.53175676 3.33176775,6.53202703" id="path-1"></path>
        <linearGradient x1="-295.737948%" y1="394.810562%" x2="91.696957%" y2="8.41465456%" id="linearGradient-3">
            <stop stop-color="#FACC69" offset="0%"></stop>
            <stop stop-color="#DA2950" offset="100%"></stop>
        </linearGradient>
        <path d="M3.03488292,6.01337842 C1.39755086,6.01364865 0.0699587332,4.68837838 0.0698233751,3.05310811 C0.0695527831,1.41810811 1.39673896,0.0921621622 3.03407102,0.0920269857 C4.67140307,0.0917567568 5.9989952,1.41716216 5.99926588,3.0522973 C5.99953647,4.68743243 4.67235029,6.01324324 3.03488292,6.01337842" id="path-4"></path>
        <linearGradient x1="-311.797389%" y1="410.81891%" x2="110.968985%" y2="-10.8040949%" id="linearGradient-6">
            <stop stop-color="#FACC69" offset="0%"></stop>
            <stop stop-color="#DA2950" offset="100%"></stop>
        </linearGradient>
        <path d="M2.7641142,5.39810815 C1.27603647,5.39837838 0.0696880998,4.19378378 0.0694174664,2.70783784 C0.0692821497,1.22175676 1.27535988,0.0168918919 2.76343762,0.0167567113 C4.25138004,0.0164864865 5.45786372,1.22108108 5.45799909,2.70702703 C5.45826967,4.19310811 4.25219194,5.39783784 2.7641142,5.39810815" id="path-7"></path>
        <linearGradient x1="-262.917983%" y1="362.078321%" x2="202.282154%" y2="-101.874276%" id="linearGradient-9">
            <stop stop-color="#FACC69" offset="0%"></stop>
            <stop stop-color="#DA2950" offset="100%"></stop>
        </linearGradient>
        <path d="M2.51959693,4.87932432 C1.18090883,4.87945946 0.0955335893,3.79581081 0.0952629559,2.45905405 C0.0951276392,1.12202703 1.18009693,0.0382432432 2.51892035,0.037972973 C3.85760845,0.0378378378 4.94298369,1.12135135 4.94311905,2.45824324 C4.94338964,3.79513514 3.85814971,4.87905405 2.51959693,4.87932432" id="path-10"></path>
        <linearGradient x1="-169.648019%" y1="269.0587%" x2="347.440124%" y2="-246.642744%" id="linearGradient-12">
            <stop stop-color="#FACC69" offset="0%"></stop>
            <stop stop-color="#DA2950" offset="100%"></stop>
        </linearGradient>
        <path d="M2.06797099,4.31621622 C0.966840771,4.22096672 0.102833463,3.29831242 0.102705374,2.17405405 C0.102570058,0.986216216 1.06656622,0.0232432432 2.25586468,0.0231081081 C3.44516315,0.022972973 4.40942994,0.985675676 4.40970058,2.17337838 C4.40982869,3.2980109 3.54569916,4.22095105 2.44436534,4.31621622 L2.06797099,4.31621622 Z" id="path-13"></path>
        <linearGradient x1="7.54022911%" y1="53.5485434%" x2="25.3288042%" y2="49.1481206%" id="linearGradient-15">
            <stop stop-color="#FACC69" offset="0%"></stop>
            <stop stop-color="#DA2950" offset="100%"></stop>
        </linearGradient>
        <path d="M1.9934856,3.79932432 C0.953441459,3.79945946 0.110283109,2.95756757 0.110012476,1.91905405 C0.109877159,0.880405405 0.952900192,0.0383783784 1.99280902,0.0382432432 C3.03285317,0.0381081081 3.87601152,0.879864865 3.8761469,1.91851351 C3.87641747,2.95702703 3.03339443,3.79918919 1.9934856,3.79932432" id="path-16"></path>
        <linearGradient x1="-0.996694435%" y1="100.862083%" x2="664.611227%" y2="-562.960844%" id="linearGradient-18">
            <stop stop-color="#FACC69" offset="0%"></stop>
            <stop stop-color="#DA2950" offset="100%"></stop>
        </linearGradient>
        <path d="M0.00811900191,1.78993045 L0.00811900191,1.46470361 C0.0897469947,0.651711256 0.77682732,0.0168835397 1.61243378,0.0167567568 C2.50308829,0.0167567568 3.2251382,0.737567568 3.22527351,1.62716216 C3.22540883,2.51662162 2.50349424,3.2377027 1.61283973,3.23783784 C0.777189617,3.23796465 0.0897688369,2.60313128 0.00811900191,1.78993045 L0.00811900191,1.78993045 Z" id="path-19"></path>
        <linearGradient x1="-0.874794749%" y1="51.4305674%" x2="16.9137804%" y2="47.0301445%" id="linearGradient-21">
            <stop stop-color="#FACC69" offset="0%"></stop>
            <stop stop-color="#DA2950" offset="100%"></stop>
        </linearGradient>
        <path d="M1.47671113,2.77256759 C0.73531094,2.7727027 0.134369482,2.1727027 0.134234142,1.43243243 C0.134098848,0.692162162 0.73490499,0.0918918919 1.47630518,0.0917567339 C2.21757006,0.0916216216 2.81864686,0.691756757 2.81864686,1.43202703 C2.81878215,2.1722973 2.21797601,2.77256759 1.47671113,2.77256759" id="path-22"></path>
        <linearGradient x1="-226.686153%" y1="325.949182%" x2="707.137805%" y2="-605.370509%" id="linearGradient-24">
            <stop stop-color="#FACC69" offset="0%"></stop>
            <stop stop-color="#DA2950" offset="100%"></stop>
        </linearGradient>
        <path d="M1.17914971,2.21027027 C0.587274472,2.21027027 0.107306142,1.73121622 0.107170797,1.14 C0.107035509,0.548783784 0.586868522,0.0695945946 1.17887908,0.0694594309 C1.77075432,0.0693243243 2.25072265,0.548513514 2.25085799,1.13972973 C2.25099328,1.73081081 1.77116027,2.21013514 1.17914971,2.21027027" id="path-25"></path>
        <linearGradient x1="-586.333779%" y1="684.627293%" x2="583.038744%" y2="-481.609267%" id="linearGradient-27">
            <stop stop-color="#FACC69" offset="0%"></stop>
            <stop stop-color="#DA2950" offset="100%"></stop>
        </linearGradient>
        <path d="M3.61038484,7.08689189 C1.67427351,7.08716216 0.104599808,5.51986486 0.104329175,3.58635135 C0.104058541,1.65297297 1.6733263,0.0854054054 3.6093023,0.0851351351 C5.54541363,0.0848648649 7.11508733,1.65202703 7.11535797,3.58554054 C7.1156286,5.51891892 5.54649616,7.08648649 3.61038484,7.08689189" id="path-28"></path>
        <linearGradient x1="-226.816375%" y1="326.0782%" x2="130.73014%" y2="-30.5163519%" id="linearGradient-30">
            <stop stop-color="#FACC69" offset="0%"></stop>
            <stop stop-color="#DA2950" offset="100%"></stop>
        </linearGradient>
        <path d="M1.90295873,3.62621622 C0.912711132,3.62635135 0.110012476,2.825 0.109877159,1.83608108 C0.109741843,0.847297297 0.912305182,0.0455405405 1.90241747,0.0454054054 C2.89252975,0.0452702703 3.69536372,0.846756757 3.69549904,1.83554054 C3.69563436,2.82445946 2.89307102,3.62608108 1.90295873,3.62621622" id="path-31"></path>
        <linearGradient x1="-431.252925%" y1="529.964591%" x2="267.86399%" y2="-167.277478%" id="linearGradient-33">
            <stop stop-color="#FACC69" offset="0%"></stop>
            <stop stop-color="#DA2950" offset="100%"></stop>
        </linearGradient>
        <path d="M1.70079559,3.40378378 C0.793361804,3.40391892 0.0576449136,2.66932432 0.0575095969,1.76310811 C0.0573742802,0.857027027 0.792955854,0.122297297 1.70025432,0.122162162 C2.6076881,0.122027027 3.34340499,0.856486486 3.34354031,1.7627027 C3.34367562,2.66878378 2.60809405,3.40364865 1.70079559,3.40378378" id="path-34"></path>
        <linearGradient x1="-459.66027%" y1="558.293907%" x2="303.195931%" y2="-202.516517%" id="linearGradient-36">
            <stop stop-color="#FACC69" offset="0%"></stop>
            <stop stop-color="#DA2950" offset="100%"></stop>
        </linearGradient>
        <path d="M1.56534357,3.10945948 C0.740723608,3.10959459 0.0721238004,2.44216216 0.0719884631,1.61864865 C0.071853167,0.795135135 0.740182342,0.127432432 1.56493762,0.127297277 C2.38955758,0.127162162 3.05815739,0.794594595 3.05829273,1.61824324 C3.05842802,2.44175676 2.38996353,3.10932432 1.56534357,3.10945948" id="path-37"></path>
        <linearGradient x1="-425.623266%" y1="524.324921%" x2="413.798536%" y2="-312.80784%" id="linearGradient-39">
            <stop stop-color="#FACC69" offset="0%"></stop>
            <stop stop-color="#DA2950" offset="100%"></stop>
        </linearGradient>
        <path d="M1.36155662,2.75175678 C0.619615163,2.75189189 0.0181324148,2.15121622 0.0181324148,1.41040541 C0.0179971209,0.669594595 0.619209213,0.0689189189 1.36115067,0.068783761 C2.10295681,0.0686486486 2.70443954,0.669189189 2.70457488,1.41 C2.70471017,2.15081081 2.10336276,2.75162162 1.36155662,2.75175678" id="path-40"></path>
        <linearGradient x1="-350.533414%" y1="449.479913%" x2="582.584991%" y2="-481.182991%" id="linearGradient-42">
            <stop stop-color="#FACC69" offset="0%"></stop>
            <stop stop-color="#DA2950" offset="100%"></stop>
        </linearGradient>
        <path d="M1.30242322,2.40986486 C0.643430902,2.40986486 0.108929942,1.87648649 0.108794626,1.21824324 C0.108794626,0.56 0.643024952,0.0263513257 1.30215259,0.0263513257 C1.96114491,0.0262162162 2.4956459,0.55972973 2.4956459,1.21783784 C2.49578119,1.87608108 1.96155086,2.40972973 1.30242322,2.40986486" id="path-43"></path>
        <linearGradient x1="-266.955607%" y1="366.088826%" x2="783.285325%" y2="-681.276258%" id="linearGradient-45">
            <stop stop-color="#FACC69" offset="0%"></stop>
            <stop stop-color="#DA2950" offset="100%"></stop>
        </linearGradient>
        <path d="M1.10810845,2.18256757 C0.531794626,2.18256757 0.0644107192,1.71608108 0.0644107192,1.14054054 C0.0642754319,0.565 0.531388676,0.0982432139 1.10783781,0.0982432139 C1.68415163,0.0981081081 2.15140019,0.564594595 2.15153551,1.14027027 C2.15153551,1.71581081 1.68442226,2.18243243 1.10810845,2.18256757" id="path-46"></path>
        <linearGradient x1="-233.810291%" y1="333.043369%" x2="967.25297%" y2="-864.798959%" id="linearGradient-48">
            <stop stop-color="#FACC69" offset="0%"></stop>
            <stop stop-color="#DA2950" offset="100%"></stop>
        </linearGradient>
        <path d="M0.903915547,1.83581081 C0.410415547,1.83581081 0.0101487181,1.43635135 0.0101487181,0.943513514 C0.0100134357,0.450540541 0.410144914,0.0508107765 0.903644914,0.0508107765 C1.39728023,0.0506756757 1.79741171,0.45027027 1.79754702,0.943243243 C1.79754702,1.43608108 1.39741555,1.83567568 0.903915547,1.83581081" id="path-49"></path>
        <linearGradient x1="-309.823597%" y1="408.854118%" x2="1092.64439%" y2="-989.852823%" id="linearGradient-51">
            <stop stop-color="#FACC69" offset="0%"></stop>
            <stop stop-color="#DA2950" offset="100%"></stop>
        </linearGradient>
        <path d="M0.768192898,1.56040541 C0.357236084,1.56040541 0.0242216478,1.22797297 0.0242216478,0.817702703 C0.0240863724,0.407432432 0.357100768,0.0748648649 0.767922265,0.0747297297 C1.17874376,0.0747297297 1.51175816,0.407162162 1.51189347,0.817432432 C1.51189347,1.2277027 1.17887908,1.56040541 0.768192898,1.56040541" id="path-52"></path>
        <linearGradient x1="-553.30815%" y1="651.683873%" x2="1131.72%" y2="-1028.82543%" id="linearGradient-54">
            <stop stop-color="#FACC69" offset="0%"></stop>
            <stop stop-color="#DA2950" offset="100%"></stop>
        </linearGradient>
        <path d="M0.700940499,1.21324324 C0.372797505,1.21324324 0.106764875,0.947702703 0.106764875,0.620135135 C0.106764875,0.292432432 0.372662188,0.0268918919 0.700669866,0.0268918919 C1.02867754,0.0268918919 1.29471022,0.292432432 1.29471022,0.619864865 C1.29484549,0.947567568 1.02894818,1.21324324 0.700940499,1.21324324" id="path-55"></path>
        <linearGradient x1="-995.383258%" y1="1092.58318%" x2="1114.78865%" y2="-1011.92972%" id="linearGradient-57">
            <stop stop-color="#FACC69" offset="0%"></stop>
            <stop stop-color="#DA2950" offset="100%"></stop>
        </linearGradient>
        <path d="M1.97941267,3.96810811 C0.906486564,3.96824324 0.0366708253,3.09972973 0.0364001919,2.02824324 C0.0362648752,0.956756757 0.905945298,0.087972973 1.9788714,0.0878378378 C3.0517975,0.0877027027 3.92174856,0.956216216 3.92188388,2.02756757 C3.92201919,3.09918919 3.05233877,3.96783784 1.97941267,3.96810811" id="path-58"></path>
        <linearGradient x1="-351.863551%" y1="450.785512%" x2="293.299088%" y2="-192.646971%" id="linearGradient-60">
            <stop stop-color="#FACC69" offset="0%"></stop>
            <stop stop-color="#DA2950" offset="100%"></stop>
        </linearGradient>
        <path d="M0.808517274,1.72121622 C0.362107486,1.72121622 0.000135278758,1.35986486 0.000135278758,0.914054054 C1.08420217e-19,0.468243243 0.361836852,0.106891854 0.808246641,0.106891854 C1.25465643,0.106756757 1.61662864,0.467972973 1.61662864,0.913783784 C1.61676392,1.35972973 1.25492706,1.72108108 0.808517274,1.72121622" id="path-61"></path>
        <linearGradient x1="-819.927131%" y1="917.590025%" x2="730.817815%" y2="-628.9962%" id="linearGradient-63">
            <stop stop-color="#FACC69" offset="0%"></stop>
            <stop stop-color="#DA2950" offset="100%"></stop>
        </linearGradient>
        <path d="M0.767245681,1.55675676 C0.358183301,1.55675676 0.0265220315,1.22567568 0.0265220315,0.817027027 C0.0263867562,0.408513514 0.358047985,0.077297256 0.767110365,0.077297256 C1.17617274,0.0771621622 1.50783397,0.408378378 1.50796929,0.816756757 C1.50796929,1.22540541 1.17644338,1.55662162 0.767245681,1.55675676" id="path-64"></path>
        <linearGradient x1="-883.760477%" y1="981.246361%" x2="808.347624%" y2="-706.323955%" id="linearGradient-66">
            <stop stop-color="#FACC69" offset="0%"></stop>
            <stop stop-color="#DA2950" offset="100%"></stop>
        </linearGradient>
        <path d="M0.767245681,1.36770275 C0.39553071,1.36783784 0.09404506,1.06675676 0.09404506,0.695540541 C0.0939097889,0.324189189 0.395260077,0.0231081081 0.767110365,0.0231081081 C1.13882534,0.0231081081 1.44031094,0.324054054 1.44031094,0.69527027 C1.44031094,1.06662162 1.13909597,1.36770275 0.767245681,1.36770275" id="path-67"></path>
        <linearGradient x1="-892.322813%" y1="989.893222%" x2="969.693407%" y2="-867.316219%" id="linearGradient-69">
            <stop stop-color="#FACC69" offset="0%"></stop>
            <stop stop-color="#DA2950" offset="100%"></stop>
        </linearGradient>
        <path d="M0.673065259,1.33824329 C0.338697697,1.33837838 0.0673877159,1.06756757 0.0673877159,0.733513514 C0.0673877159,0.399594595 0.338427063,0.128783733 0.672929942,0.128783733 C1.00743282,0.128648649 1.27860749,0.399459459 1.27860749,0.733378378 C1.27860749,1.06743243 1.00756814,1.33824329 0.673065259,1.33824329" id="path-70"></path>
        <linearGradient x1="-869.213496%" y1="966.648296%" x2="1200.41001%" y2="-1097.19461%" id="linearGradient-72">
            <stop stop-color="#FACC69" offset="0%"></stop>
            <stop stop-color="#DA2950" offset="100%"></stop>
        </linearGradient>
        <path d="M0.583825024,1.16540541 C0.263144746,1.16540541 0.00321264395,0.924864865 0.00306661468,0.628108108 C0.00306661468,0.331351351 0.262998716,0.0906756757 0.583678995,0.0906756757 C0.904359273,0.0906756757 1.16429144,0.331216216 1.16429144,0.627972973 C1.1644374,0.92472973 0.904505302,1.16540541 0.583825024,1.16540541" id="path-73"></path>
        <linearGradient x1="-850.833707%" y1="821.537707%" x2="1478.79394%" y2="-1173.71463%" id="linearGradient-75">
            <stop stop-color="#FACC69" offset="0%"></stop>
            <stop stop-color="#DA2950" offset="100%"></stop>
        </linearGradient>
        <path d="M0.587329726,1.15295833 C0.306807498,1.15295833 0.0795859525,0.926041667 0.0794399232,0.645895833 C0.0794399232,0.365895833 0.306661468,0.138979096 0.587183697,0.138979096 C0.867559897,0.138833333 1.09492747,0.36575 1.09492747,0.64575 C1.09492747,0.925895833 0.867705926,1.15295833 0.587329726,1.15295833" id="path-76"></path>
        <linearGradient x1="-901.45384%" y1="998.757304%" x2="1762.50935%" y2="-1657.67997%" id="linearGradient-78">
            <stop stop-color="#FACC69" offset="0%"></stop>
            <stop stop-color="#DA2950" offset="100%"></stop>
        </linearGradient>
        <path d="M0.554911228,1.02083333 C0.2803762,1.02083333 0.0579110365,0.798833333 0.0579110365,0.524833333 C0.0579110365,0.250666667 0.2803762,0.0283333333 0.554744338,0.0283333333 C0.829279367,0.0283333333 1.05174453,0.2505 1.05174453,0.524666667 C1.05174453,0.798666667 0.829279367,1.02083333 0.554911228,1.02083333" id="path-79"></path>
        <linearGradient x1="-1089.4979%" y1="1186.44877%" x2="2021.36692%" y2="-1916.07354%" id="linearGradient-81">
            <stop stop-color="#FACC69" offset="0%"></stop>
            <stop stop-color="#DA2950" offset="100%"></stop>
        </linearGradient>
        <path d="M0.647007022,1.0745 C0.380454926,1.0745 0.16452618,0.858666667 0.16452618,0.592666667 C0.164331606,0.326472222 0.380260221,0.110833333 0.647007022,0.110638889 C0.913364411,0.110638889 1.12948773,0.326277778 1.12948773,0.592472222 C1.12948773,0.858666667 0.913559117,1.0745 0.647007022,1.0745" id="path-82"></path>
        <linearGradient x1="-1490.19954%" y1="1586.3829%" x2="2247.73377%" y2="-2142.27796%" id="linearGradient-84">
            <stop stop-color="#FACC69" offset="0%"></stop>
            <stop stop-color="#DA2950" offset="100%"></stop>
        </linearGradient>
        <path d="M0.589082078,1.10693333 C0.270154151,1.10693333 0.0110982246,0.9002 0.0110982246,0.645166667 C0.0110982246,0.390133333 0.269862092,0.1834 0.589082078,0.1834 C0.908302063,0.1834 1.16706593,0.3899 1.16706593,0.644933333 C1.16706593,0.9002 0.908594122,1.10693333 0.589082078,1.10693333" id="path-85"></path>
        <linearGradient x1="-2168.40323%" y1="1465.96415%" x2="2512.04144%" y2="-1521.48734%" id="linearGradient-87">
            <stop stop-color="#FACC69" offset="0%"></stop>
            <stop stop-color="#DA2950" offset="100%"></stop>
        </linearGradient>
        <path d="M0.947081574,1.75891892 C0.463459693,1.75891892 0.0711765485,1.36743243 0.0711765485,0.884324324 C0.0710412668,0.401216216 0.46318906,0.00972972973 0.94681094,0.00959455962 C1.43056814,0.00945945946 1.82271593,0.400945946 1.82285125,0.884054054 C1.82285125,1.36716216 1.43083877,1.75878378 0.947081574,1.75891892" id="path-88"></path>
        <linearGradient x1="-710.543051%" y1="808.497315%" x2="720.526832%" y2="-618.734819%" id="linearGradient-90">
            <stop stop-color="#FACC69" offset="0%"></stop>
            <stop stop-color="#DA2950" offset="100%"></stop>
        </linearGradient>
    </defs>
    <g id="EMURGOTEST-logo" stroke="none" stroke-width="1" fill="none" fill-rule="evenodd">
        <g id="Emurgo_Logo_RGB">
            <path d="M43.3392322,22.1194595 L43.3392322,19.502973 L49.705071,19.502973 L49.705071,16.4774324 L43.3392322,16.4774324 L43.3392322,14.0652703 L50.5648733,14.0652703 L50.5648733,10.9377027 L39.3272274,10.9377027 L39.3272274,25.2471622 L50.8310413,25.2471622 L50.8310413,22.1194595 L43.3392322,22.1194595 Z M71.0055432,25.2471622 L71.0055432,10.9377027 L67.668904,10.9377027 L62.7563666,19.1962162 L57.7208263,10.9377027 L54.3843225,10.9377027 L54.3843225,25.2471622 L58.1302946,25.2471622 L58.1302946,17.8675676 L61.7942649,23.8364865 L63.5954655,23.8364865 L67.2800038,17.6631081 L67.2800038,25.2471622 L71.0055432,25.2471622 Z M81.7088234,25.5332432 C83.8376257,25.5332432 85.492143,24.9541892 86.6726459,23.7956757 C87.8528781,22.6374324 88.4432649,20.9952703 88.4432649,18.8690541 L88.4432649,10.9377027 L84.4516929,10.9377027 L84.4516929,18.7466216 C84.4516929,21.0359459 83.551025,22.1808108 81.7498244,22.1808108 C79.9346862,22.1808108 79.0273877,21.0359459 79.0273877,18.7466216 L79.0273877,10.9377027 L74.974382,10.9377027 L74.974382,18.8690541 C74.974382,20.9952703 75.5644981,22.6374324 76.745001,23.7956757 C77.9250979,24.9541892 79.5800211,25.5332432 81.7088234,25.5332432 L81.7088234,25.5332432 Z M101.273318,25.2471622 L105.612924,25.2471622 L102.521885,20.7497297 C103.422688,20.3137838 104.115104,19.7108108 104.599673,18.9406757 C105.083971,18.1709459 105.326323,17.2681081 105.326323,16.2322973 C105.326323,15.1558108 105.066921,14.2186486 104.548388,13.4213514 C104.029719,12.6241892 103.292784,12.0109459 102.337719,11.5816216 C101.382383,11.1524324 100.256683,10.9377027 98.960214,10.9377027 L92.4100739,10.9377027 L92.4100739,25.2471622 L96.4630797,25.2471622 L96.4630797,21.4448649 L98.6737486,21.4448649 L101.273318,25.2471622 Z M101.232452,16.2322973 C101.232452,16.9 101.020681,17.4147297 100.597817,17.7755405 C100.174681,18.1366216 99.5468119,18.3171622 98.7147495,18.3171622 L96.4630797,18.3171622 L96.4630797,14.1267568 L98.7147495,14.1267568 C99.5468119,14.1267568 100.174681,14.3105405 100.597817,14.6786486 C101.020681,15.0464865 101.232452,15.5645946 101.232452,16.2322973 L101.232452,16.2322973 Z M118.430934,21.7106757 C117.748532,22.0241892 117.018633,22.1808108 116.240698,22.1808108 C115.449095,22.1808108 114.746395,22.0068919 114.132328,21.6594595 C113.518261,21.3118919 113.040593,20.8283784 112.69946,20.2082432 C112.358326,19.5882432 112.187827,18.8828378 112.187827,18.0922973 C112.187827,16.8522973 112.562925,15.8610811 113.313527,15.1181081 C114.063993,14.3754054 115.053564,14.0039189 116.281699,14.0039189 C117.632565,14.0039189 118.7925,14.5355405 119.761638,15.5983784 L122.340504,13.2681081 C121.630903,12.4232432 120.743902,11.7758108 119.679636,11.3262162 C118.615235,10.8763514 117.414164,10.6516216 116.076964,10.6516216 C114.548427,10.6516216 113.176992,10.9682432 111.96266,11.6021622 C110.747922,12.2356757 109.799623,13.1183784 109.117356,14.2493243 C108.434954,15.3806757 108.093956,16.6613514 108.093956,18.0922973 C108.093956,19.5232432 108.434954,20.8044595 109.117356,21.9354054 C109.799623,23.0667568 110.741156,23.9489189 111.942092,24.5827027 C113.142893,25.2163514 114.493894,25.5332432 115.995233,25.5332432 C117.059499,25.5332432 118.1239,25.3764865 119.188301,25.062973 C120.252838,24.7497297 121.194371,24.3 122.013173,23.7139189 L122.013173,17.7856757 L118.430934,17.7856757 L118.430934,21.7106757 Z M132.966383,25.5332432 C134.480983,25.5332432 135.841727,25.2132432 137.050106,24.5724324 C138.257131,23.932027 139.205701,23.0462162 139.894463,21.915 C140.584578,20.7839189 140.928282,19.5098649 140.928282,18.0922973 C140.928282,16.6751351 140.584578,15.4010811 139.894463,14.2697297 C139.205701,13.1387838 138.257131,12.252973 137.050106,11.6122973 C135.841727,10.9718919 134.480983,10.6516216 132.966383,10.6516216 C131.451377,10.6516216 130.090226,10.9718919 128.88266,11.6122973 C127.674959,12.252973 126.726253,13.1387838 126.037491,14.2697297 C125.348188,15.4010811 125.003672,16.6751351 125.003672,18.0922973 C125.003672,19.5098649 125.348188,20.7839189 126.037491,21.915 C126.726253,23.0462162 127.674959,23.932027 128.88266,24.5724324 C130.090226,25.2132432 131.451377,25.5332432 132.966383,25.5332432 L132.966383,25.5332432 Z M132.966383,22.1808108 C132.242709,22.1808108 131.587776,22.0104054 131.001179,21.6695946 C130.414175,21.3291892 129.950309,20.8489189 129.609176,20.2285135 C129.268178,19.6086486 129.097543,18.8964865 129.097543,18.0922973 C129.097543,17.2883784 129.268178,16.5764865 129.609176,15.9563514 C129.950309,15.3362162 130.414175,14.8558108 131.001179,14.515 C131.587776,14.1745946 132.242709,14.0039189 132.966383,14.0039189 C133.689245,14.0039189 134.344448,14.1745946 134.931317,14.515 C135.518321,14.8558108 135.982457,15.3362162 136.323455,15.9563514 C136.664453,16.5764865 136.834952,17.2883784 136.834952,18.0922973 C136.834952,18.8964865 136.664453,19.6086486 136.323455,20.2285135 C135.982457,20.8489189 135.518321,21.3291892 134.931317,21.6695946 C134.344448,22.0104054 133.689245,22.1808108 132.966383,22.1808108 L132.966383,22.1808108 Z" id="Fill-1" fill="#FFFFFF"></path>
            <g id="EMURGOTEST" transform="translate(143.000000, 10.673385)" fill="#FFFFFF" fill-rule="nonzero" opacity="0.5">
                <path d="M8.91734375,14.5254375 L8.91734375,3.47878125 L13.2709063,3.47878125 L13.2709063,0.2848125 L0.515375,0.2848125 L0.515375,3.47878125 L4.88928125,3.47878125 L4.88928125,14.5254375 L8.91734375,14.5254375 Z M27.1782813,14.5254375 L27.1782813,11.4128437 L19.7324688,11.4128437 L19.7324688,8.80884375 L26.059375,8.80884375 L26.059375,5.79796875 L19.7324688,5.79796875 L19.7324688,3.39740625 L26.9138125,3.39740625 L26.9138125,0.2848125 L15.7450938,0.2848125 L15.7450938,14.5254375 L27.1782813,14.5254375 Z M35.3894063,14.81025 C36.7456563,14.81025 37.8984688,14.6034219 38.8478438,14.1897656 C39.7972188,13.7761094 40.50925,13.2234375 40.9839375,12.53175 C41.458625,11.8400625 41.6959688,11.067 41.6959688,10.2125625 C41.6959688,9.2225 41.4348906,8.43926562 40.9127344,7.86285937 C40.3905781,7.28645312 39.7734844,6.86601562 39.0614531,6.60154687 C38.3494219,6.33707812 37.4509063,6.0895625 36.3659063,5.859 C35.4029688,5.6555625 34.7045,5.45890625 34.2705,5.26903125 C33.8365,5.07915625 33.6195,4.79434375 33.6195,4.41459375 C33.6195,4.03484375 33.8025938,3.72629687 34.1687813,3.48895312 C34.5349688,3.25160937 35.1181563,3.1329375 35.9183438,3.1329375 C37.1932188,3.1329375 38.5087813,3.499125 39.8650313,4.2315 L39.8650313,4.2315 L41.106,1.24096875 C40.4143125,0.83409375 39.614125,0.525546875 38.7054375,0.315328125 C37.79675,0.105109375 36.8745,-9.09494702e-13 35.9386875,-9.09494702e-13 C34.568875,-9.09494702e-13 33.4126719,0.2034375 32.4700781,0.6103125 C31.5274844,1.0171875 30.8188438,1.56985937 30.3441563,2.26832812 C29.8694688,2.96679687 29.632125,3.75003125 29.632125,4.61803125 C29.632125,5.60809375 29.8898125,6.39471875 30.4051875,6.97790625 C30.9205625,7.56109375 31.5376563,7.98492187 32.2564688,8.24939062 C32.9752813,8.51385937 33.8704063,8.761375 34.9418438,8.9919375 C35.9183438,9.2089375 36.6269844,9.41576562 37.0677656,9.61242187 C37.5085469,9.80907812 37.7289375,10.1108437 37.7289375,10.5177187 C37.7289375,11.2907812 36.955875,11.6773125 35.40975,11.6773125 C34.596,11.6773125 33.7686875,11.5484687 32.9278125,11.2907812 C32.0869375,11.0330937 31.3477813,10.6940312 30.7103438,10.2735937 L30.7103438,10.2735937 L29.388,13.2437812 C30.066125,13.7184687 30.9476875,14.0982187 32.0326875,14.3830312 C33.1176875,14.6678437 34.2365938,14.81025 35.3894063,14.81025 Z M51.3718438,14.5254375 L51.3718438,3.47878125 L55.7254063,3.47878125 L55.7254063,0.2848125 L42.969875,0.2848125 L42.969875,3.47878125 L47.3437813,3.47878125 L47.3437813,14.5254375 L51.3718438,14.5254375 Z" id="TEST"></path>
            </g>
            <g id="Group-4" transform="translate(20.838772, 3.108108)">
                <mask id="mask-2" fill="white">
                    <use xlink:href="#path-1"></use>
                </mask>
                <g id="Clip-3"></g>
                <path d="M3.33176775,6.53202703 C1.54504607,6.5322973 0.0964808061,5.08608108 0.0962101727,3.30175676 C0.0959395393,1.51743243 1.54409885,0.0708108108 3.33082054,0.0705405405 C5.11754223,0.0702702703 6.56610749,1.51648649 6.56637812,3.30081081 C6.56664875,5.085 5.11848944,6.53175676 3.33176775,6.53202703" id="Fill-2" fill="url(#linearGradient-3)" mask="url(#mask-2)"></path>
            </g>
            <g id="Group-7" transform="translate(26.386756, 10.540541)">
                <mask id="mask-5" fill="white">
                    <use xlink:href="#path-4"></use>
                </mask>
                <g id="Clip-6"></g>
                <path d="M3.03488292,6.01337842 C1.39755086,6.01364865 0.0699587332,4.68837838 0.0698233751,3.05310811 C0.0695527831,1.41810811 1.39673896,0.0921621622 3.03407102,0.0920269857 C4.67140307,0.0917567568 5.9989952,1.41716216 5.99926588,3.0522973 C5.99953647,4.68743243 4.67235029,6.01324324 3.03488292,6.01337842" id="Fill-5" fill="url(#linearGradient-6)" mask="url(#mask-5)"></path>
            </g>
            <g id="Group-10" transform="translate(26.657390, 20.135135)">
                <mask id="mask-8" fill="white">
                    <use xlink:href="#path-7"></use>
                </mask>
                <g id="Clip-9"></g>
                <path d="M2.7641142,5.39810815 C1.27603647,5.39837838 0.0696880998,4.19378378 0.0694174664,2.70783784 C0.0692821497,1.22175676 1.27535988,0.0168918919 2.76343762,0.0167567113 C4.25138004,0.0164864865 5.45786372,1.22108108 5.45799909,2.70702703 C5.45826967,4.19310811 4.25219194,5.39783784 2.7641142,5.39810815" id="Fill-8" fill="url(#linearGradient-9)" mask="url(#mask-8)"></path>
            </g>
            <g id="Group-13" transform="translate(21.650672, 27.567568)">
                <mask id="mask-11" fill="white">
                    <use xlink:href="#path-10"></use>
                </mask>
                <g id="Clip-12"></g>
                <path d="M2.51959693,4.87932432 C1.18090883,4.87945946 0.0955335893,3.79581081 0.0952629559,2.45905405 C0.0951276392,1.12202703 1.18009693,0.0382432432 2.51892035,0.037972973 C3.85760845,0.0378378378 4.94298369,1.12135135 4.94311905,2.45824324 C4.94338964,3.79513514 3.85814971,4.87905405 2.51959693,4.87932432" id="Fill-11" fill="url(#linearGradient-12)" mask="url(#mask-11)"></path>
            </g>
            <g id="Group-16" transform="translate(13.261036, 30.675676)">
                <mask id="mask-14" fill="white">
                    <use xlink:href="#path-13"></use>
                </mask>
                <g id="Clip-15"></g>
                <polygon id="Fill-14" fill="url(#linearGradient-15)" mask="url(#mask-14)" points="-13.2529175 4.31621622 127.667246 4.31621622 127.667246 -30.5905405 -13.2529175 -30.5905405"></polygon>
            </g>
            <g id="Group-19" transform="translate(4.871401, 28.108108)">
                <mask id="mask-17" fill="white">
                    <use xlink:href="#path-16"></use>
                </mask>
                <g id="Clip-18"></g>
                <path d="M1.9934856,3.79932432 C0.953441459,3.79945946 0.110283109,2.95756757 0.110012476,1.91905405 C0.109877159,0.880405405 0.952900192,0.0383783784 1.99280902,0.0382432432 C3.03285317,0.0381081081 3.87601152,0.879864865 3.8761469,1.91851351 C3.87641747,2.95702703 3.03339443,3.79918919 1.9934856,3.79932432" id="Fill-17" fill="url(#linearGradient-18)" mask="url(#mask-17)"></path>
            </g>
            <g id="Group-22" transform="translate(0.000000, 21.216216)">
                <mask id="mask-20" fill="white">
                    <use xlink:href="#path-19"></use>
                </mask>
                <g id="Clip-21"></g>
                <polygon id="Fill-20" fill="url(#linearGradient-21)" mask="url(#mask-20)" points="0.00811900192 13.7756757 140.928282 13.7756757 140.928282 -21.1310811 0.00811900192 -21.1310811"></polygon>
            </g>
            <g id="Group-25" transform="translate(0.135317, 12.162162)">
                <mask id="mask-23" fill="white">
                    <use xlink:href="#path-22"></use>
                </mask>
                <g id="Clip-24"></g>
                <path d="M1.47671113,2.77256759 C0.73531094,2.7727027 0.134369482,2.1727027 0.134234142,1.43243243 C0.134098848,0.692162162 0.73490499,0.0918918919 1.47630518,0.0917567339 C2.21757006,0.0916216216 2.81864686,0.691756757 2.81864686,1.43202703 C2.81878215,2.1722973 2.21797601,2.77256759 1.47671113,2.77256759" id="Fill-23" fill="url(#linearGradient-24)" mask="url(#mask-23)"></path>
            </g>
            <g id="Group-28" transform="translate(5.683301, 5.270270)">
                <mask id="mask-26" fill="white">
                    <use xlink:href="#path-25"></use>
                </mask>
                <g id="Clip-27"></g>
                <path d="M1.17914971,2.21027027 C0.587274472,2.21027027 0.107306142,1.73121622 0.107170797,1.14 C0.107035509,0.548783784 0.586868522,0.0695945946 1.17887908,0.0694594309 C1.77075432,0.0693243243 2.25072265,0.548513514 2.25085799,1.13972973 C2.25099328,1.73081081 1.77116027,2.21013514 1.17914971,2.21027027" id="Fill-26" fill="url(#linearGradient-27)" mask="url(#mask-26)"></path>
            </g>
            <g id="Group-31" transform="translate(11.907869, 0.000000)">
                <mask id="mask-29" fill="white">
                    <use xlink:href="#path-28"></use>
                </mask>
                <g id="Clip-30"></g>
                <path d="M3.61038484,7.08689189 C1.67427351,7.08716216 0.104599808,5.51986486 0.104329175,3.58635135 C0.104058541,1.65297297 1.6733263,0.0854054054 3.6093023,0.0851351351 C5.54541363,0.0848648649 7.11508733,1.65202703 7.11535797,3.58554054 C7.1156286,5.51891892 5.54649616,7.08648649 3.61038484,7.08689189" id="Fill-29" fill="url(#linearGradient-30)" mask="url(#mask-29)"></path>
            </g>
            <g id="Group-34" transform="translate(18.132438, 10.675676)">
                <mask id="mask-32" fill="white">
                    <use xlink:href="#path-31"></use>
                </mask>
                <g id="Clip-33"></g>
                <path d="M1.90295873,3.62621622 C0.912711132,3.62635135 0.110012476,2.825 0.109877159,1.83608108 C0.109741843,0.847297297 0.912305182,0.0455405405 1.90241747,0.0454054054 C2.89252975,0.0452702703 3.69536372,0.846756757 3.69549904,1.83554054 C3.69563436,2.82445946 2.89307102,3.62608108 1.90295873,3.62621622" id="Fill-32" fill="url(#linearGradient-33)" mask="url(#mask-32)"></path>
            </g>
            <g id="Group-37" transform="translate(21.244722, 14.729730)">
                <mask id="mask-35" fill="white">
                    <use xlink:href="#path-34"></use>
                </mask>
                <g id="Clip-36"></g>
                <path d="M1.70079559,3.40378378 C0.793361804,3.40391892 0.0576449136,2.66932432 0.0575095969,1.76310811 C0.0573742802,0.857027027 0.792955854,0.122297297 1.70025432,0.122162162 C2.6076881,0.122027027 3.34340499,0.856486486 3.34354031,1.7627027 C3.34367562,2.66878378 2.60809405,3.40364865 1.70079559,3.40378378" id="Fill-35" fill="url(#linearGradient-36)" mask="url(#mask-35)"></path>
            </g>
            <g id="Group-40" transform="translate(21.380038, 20.000000)">
                <mask id="mask-38" fill="white">
                    <use xlink:href="#path-37"></use>
                </mask>
                <g id="Clip-39"></g>
                <path d="M1.56534357,3.10945948 C0.740723608,3.10959459 0.0721238004,2.44216216 0.0719884631,1.61864865 C0.071853167,0.795135135 0.740182342,0.127432432 1.56493762,0.127297277 C2.38955758,0.127162162 3.05815739,0.794594595 3.05829273,1.61824324 C3.05842802,2.44175676 2.38996353,3.10932432 1.56534357,3.10945948" id="Fill-38" fill="url(#linearGradient-39)" mask="url(#mask-38)"></path>
            </g>
            <g id="Group-43" transform="translate(18.673704, 24.189189)">
                <mask id="mask-41" fill="white">
                    <use xlink:href="#path-40"></use>
                </mask>
                <g id="Clip-42"></g>
                <path d="M1.36155662,2.75175678 C0.619615163,2.75189189 0.0181324148,2.15121622 0.0181324148,1.41040541 C0.0179971209,0.669594595 0.619209213,0.0689189189 1.36115067,0.068783761 C2.10295681,0.0686486486 2.70443954,0.669189189 2.70457488,1.41 C2.70471017,2.15081081 2.10336276,2.75162162 1.36155662,2.75175678" id="Fill-41" fill="url(#linearGradient-42)" mask="url(#mask-41)"></path>
            </g>
            <g id="Group-46" transform="translate(13.937620, 25.945946)">
                <mask id="mask-44" fill="white">
                    <use xlink:href="#path-43"></use>
                </mask>
                <g id="Clip-45"></g>
                <path d="M1.30242322,2.40986486 C0.643430902,2.40986486 0.108929942,1.87648649 0.108794626,1.21824324 C0.108794626,0.56 0.643024952,0.0263513257 1.30215259,0.0263513257 C1.96114491,0.0262162162 2.4956459,0.55972973 2.4956459,1.21783784 C2.49578119,1.87608108 1.96155086,2.40972973 1.30242322,2.40986486" id="Fill-44" fill="url(#linearGradient-45)" mask="url(#mask-44)"></path>
            </g>
            <g id="Group-49" transform="translate(9.336852, 24.459459)">
                <mask id="mask-47" fill="white">
                    <use xlink:href="#path-46"></use>
                </mask>
                <g id="Clip-48"></g>
                <path d="M1.10810845,2.18256757 C0.531794626,2.18256757 0.0644107192,1.71608108 0.0644107192,1.14054054 C0.0642754319,0.565 0.531388676,0.0982432139 1.10783781,0.0982432139 C1.68415163,0.0981081081 2.15140019,0.564594595 2.15153551,1.14027027 C2.15153551,1.71581081 1.68442226,2.18243243 1.10810845,2.18256757" id="Fill-47" fill="url(#linearGradient-48)" mask="url(#mask-47)"></path>
            </g>
            <g id="Group-52" transform="translate(6.630518, 20.675676)">
                <mask id="mask-50" fill="white">
                    <use xlink:href="#path-49"></use>
                </mask>
                <g id="Clip-51"></g>
                <path d="M0.903915547,1.83581081 C0.410415547,1.83581081 0.0101487181,1.43635135 0.0101487181,0.943513514 C0.0100134357,0.450540541 0.410144914,0.0508107765 0.903644914,0.0508107765 C1.39728023,0.0506756757 1.79741171,0.45027027 1.79754702,0.943243243 C1.79754702,1.43608108 1.39741555,1.83567568 0.903915547,1.83581081" id="Fill-50" fill="url(#linearGradient-51)" mask="url(#mask-50)"></path>
            </g>
            <g id="Group-55" transform="translate(6.765835, 15.675676)">
                <mask id="mask-53" fill="white">
                    <use xlink:href="#path-52"></use>
                </mask>
                <g id="Clip-54"></g>
                <path d="M0.768192898,1.56040541 C0.357236084,1.56040541 0.0242216478,1.22797297 0.0242216478,0.817702703 C0.0240863724,0.407432432 0.357100768,0.0748648649 0.767922265,0.0747297297 C1.17874376,0.0747297297 1.51175816,0.407162162 1.51189347,0.817432432 C1.51189347,1.2277027 1.17887908,1.56040541 0.768192898,1.56040541" id="Fill-53" fill="url(#linearGradient-54)" mask="url(#mask-53)"></path>
            </g>
            <g id="Group-58" transform="translate(9.742802, 11.891892)">
                <mask id="mask-56" fill="white">
                    <use xlink:href="#path-55"></use>
                </mask>
                <g id="Clip-57"></g>
                <path d="M0.700940499,1.21324324 C0.372797505,1.21324324 0.106764875,0.947702703 0.106764875,0.620135135 C0.106764875,0.292432432 0.372662188,0.0268918919 0.700669866,0.0268918919 C1.02867754,0.0268918919 1.29471022,0.292432432 1.29471022,0.619864865 C1.29484549,0.947567568 1.02894818,1.21324324 0.700940499,1.21324324" id="Fill-56" fill="url(#linearGradient-57)" mask="url(#mask-56)"></path>
            </g>
            <g id="Group-61" transform="translate(13.261036, 8.918919)">
                <mask id="mask-59" fill="white">
                    <use xlink:href="#path-58"></use>
                </mask>
                <g id="Clip-60"></g>
                <path d="M1.97941267,3.96810811 C0.906486564,3.96824324 0.0366708253,3.09972973 0.0364001919,2.02824324 C0.0362648752,0.956756757 0.905945298,0.087972973 1.9788714,0.0878378378 C3.0517975,0.0877027027 3.92174856,0.956216216 3.92188388,2.02756757 C3.92201919,3.09918919 3.05233877,3.96783784 1.97941267,3.96810811" id="Fill-59" fill="url(#linearGradient-60)" mask="url(#mask-59)"></path>
            </g>
            <g id="Group-64" transform="translate(16.508637, 15.270270)">
                <mask id="mask-62" fill="white">
                    <use xlink:href="#path-61"></use>
                </mask>
                <g id="Clip-63"></g>
                <path d="M0.808517274,1.72121622 C0.362107486,1.72121622 0.000135278758,1.35986486 0.000135278758,0.914054054 C1.08420217e-19,0.468243243 0.361836852,0.106891854 0.808246641,0.106891854 C1.25465643,0.106756757 1.61662864,0.467972973 1.61662864,0.913783784 C1.61676392,1.35972973 1.25492706,1.72108108 0.808517274,1.72121622" id="Fill-62" fill="url(#linearGradient-63)" mask="url(#mask-62)"></path>
            </g>
            <g id="Group-67" transform="translate(17.861804, 17.162162)">
                <mask id="mask-65" fill="white">
                    <use xlink:href="#path-64"></use>
                </mask>
                <g id="Clip-66"></g>
                <path d="M0.767245681,1.55675676 C0.358183301,1.55675676 0.0265220315,1.22567568 0.0265220315,0.817027027 C0.0263867562,0.408513514 0.358047985,0.077297256 0.767110365,0.077297256 C1.17617274,0.0771621622 1.50783397,0.408378378 1.50796929,0.816756757 C1.50796929,1.22540541 1.17644338,1.55662162 0.767245681,1.55675676" id="Fill-65" fill="url(#linearGradient-66)" mask="url(#mask-65)"></path>
            </g>
            <g id="Group-70" transform="translate(17.861804, 19.594595)">
                <mask id="mask-68" fill="white">
                    <use xlink:href="#path-67"></use>
                </mask>
                <g id="Clip-69"></g>
                <path d="M0.767245681,1.36770275 C0.39553071,1.36783784 0.09404506,1.06675676 0.09404506,0.695540541 C0.0939097889,0.324189189 0.395260077,0.0231081081 0.767110365,0.0231081081 C1.13882534,0.0231081081 1.44031094,0.324054054 1.44031094,0.69527027 C1.44031094,1.06662162 1.13909597,1.36770275 0.767245681,1.36770275" id="Fill-68" fill="url(#linearGradient-69)" mask="url(#mask-68)"></path>
            </g>
            <g id="Group-73" transform="translate(16.643954, 21.351351)">
                <mask id="mask-71" fill="white">
                    <use xlink:href="#path-70"></use>
                </mask>
                <g id="Clip-72"></g>
                <path d="M0.673065259,1.33824329 C0.338697697,1.33837838 0.0673877159,1.06756757 0.0673877159,0.733513514 C0.0673877159,0.399594595 0.338427063,0.128783733 0.672929942,0.128783733 C1.00743282,0.128648649 1.27860749,0.399459459 1.27860749,0.733378378 C1.27860749,1.06743243 1.00756814,1.33824329 0.673065259,1.33824329" id="Fill-71" fill="url(#linearGradient-72)" mask="url(#mask-71)"></path>
            </g>
            <g id="Group-76" transform="translate(14.614203, 22.162162)">
                <mask id="mask-74" fill="white">
                    <use xlink:href="#path-73"></use>
                </mask>
                <g id="Clip-75"></g>
                <path d="M0.583825024,1.16540541 C0.263144746,1.16540541 0.00321264395,0.924864865 0.00306661468,0.628108108 C0.00306661468,0.331351351 0.262998716,0.0906756757 0.583678995,0.0906756757 C0.904359273,0.0906756757 1.16429144,0.331216216 1.16429144,0.627972973 C1.1644374,0.92472973 0.904505302,1.16540541 0.583825024,1.16540541" id="Fill-74" fill="url(#linearGradient-75)" mask="url(#mask-74)"></path>
            </g>
            <g id="Group-79" transform="translate(12.449136, 21.486486)">
                <mask id="mask-77" fill="white">
                    <use xlink:href="#path-76"></use>
                </mask>
                <g id="Clip-78"></g>
                <path d="M0.587329726,1.15295833 C0.306807498,1.15295833 0.0795859525,0.926041667 0.0794399232,0.645895833 C0.0794399232,0.365895833 0.306661468,0.138979096 0.587183697,0.138979096 C0.867559897,0.138833333 1.09492747,0.36575 1.09492747,0.64575 C1.09492747,0.925895833 0.867705926,1.15295833 0.587329726,1.15295833" id="Fill-77" fill="url(#linearGradient-78)" mask="url(#mask-77)"></path>
            </g>
            <g id="Group-82" transform="translate(11.231286, 19.864865)">
                <mask id="mask-80" fill="white">
                    <use xlink:href="#path-79"></use>
                </mask>
                <g id="Clip-81"></g>
                <path d="M0.554911228,1.02083333 C0.2803762,1.02083333 0.0579110365,0.798833333 0.0579110365,0.524833333 C0.0579110365,0.250666667 0.2803762,0.0283333333 0.554744338,0.0283333333 C0.829279367,0.0283333333 1.05174453,0.2505 1.05174453,0.524666667 C1.05174453,0.798666667 0.829279367,1.02083333 0.554911228,1.02083333" id="Fill-80" fill="url(#linearGradient-81)" mask="url(#mask-80)"></path>
            </g>
            <g id="Group-85" transform="translate(11.231286, 17.567568)">
                <mask id="mask-83" fill="white">
                    <use xlink:href="#path-82"></use>
                </mask>
                <g id="Clip-84"></g>
                <path d="M0.647007022,1.0745 C0.380454926,1.0745 0.16452618,0.858666667 0.16452618,0.592666667 C0.164331606,0.326472222 0.380260221,0.110833333 0.647007022,0.110638889 C0.913364411,0.110638889 1.12948773,0.326277778 1.12948773,0.592472222 C1.12948773,0.858666667 0.913559117,1.0745 0.647007022,1.0745" id="Fill-83" fill="url(#linearGradient-84)" mask="url(#mask-83)"></path>
            </g>
            <g id="Group-88" transform="translate(12.719770, 15.810811)">
                <mask id="mask-86" fill="white">
                    <use xlink:href="#path-85"></use>
                </mask>
                <g id="Clip-87"></g>
                <path d="M0.589082078,1.10693333 C0.270154151,1.10693333 0.0110982246,0.9002 0.0110982246,0.645166667 C0.0110982246,0.390133333 0.269862092,0.1834 0.589082078,0.1834 C0.908302063,0.1834 1.16706593,0.3899 1.16706593,0.644933333 C1.16706593,0.9002 0.908594122,1.10693333 0.589082078,1.10693333" id="Fill-86" fill="url(#linearGradient-87)" mask="url(#mask-86)"></path>
            </g>
            <g id="Group-91" transform="translate(14.208253, 14.594595)">
                <mask id="mask-89" fill="white">
                    <use xlink:href="#path-88"></use>
                </mask>
                <g id="Clip-90"></g>
                <path d="M0.947081574,1.75891892 C0.463459693,1.75891892 0.0711765485,1.36743243 0.0711765485,0.884324324 C0.0710412668,0.401216216 0.46318906,0.00972972973 0.94681094,0.00959455962 C1.43056814,0.00945945946 1.82271593,0.400945946 1.82285125,0.884054054 C1.82285125,1.36716216 1.43083877,1.75878378 0.947081574,1.75891892" id="Fill-89" fill="url(#linearGradient-90)" mask="url(#mask-89)"></path>
            </g>
        </g>
    </g>
</svg>