<?xml version="1.0" encoding="UTF-8"?>
<svg width="120px" height="30px" viewBox="0 0 120 30" version="1.1" xmlns="http://www.w3.org/2000/svg" xmlns:xlink="http://www.w3.org/1999/xlink">
    <!-- Generator: Sketch 60 (88103) - https://sketch.com -->
    <title>EMURGO-logo</title>
    <desc>Created with Sketch.</desc>
    <defs>
        <polygon id="path-1" points="0 0.000111033884 119.601 0.000111033884 119.601 29.6707407 0 29.6707407"></polygon>
    </defs>
    <g id="EMURGO-logo" stroke="none" stroke-width="1" fill="none" fill-rule="evenodd">
        <g id="logo/emurgo">
            <g id="emurgo-logo">
                <mask id="mask-2" fill="white">
                    <use xlink:href="#path-1"></use>
                </mask>
                <g id="Clip-2"></g>
                <path d="M12.8617407,13.8249259 C12.4513704,13.8249259 12.1184074,13.4923333 12.1184074,13.0815926 C12.1184074,12.6712222 12.451,12.3382593 12.8617407,12.3382593 C13.2721111,12.3382593 13.6047037,12.6708519 13.6050741,13.0815926 C13.6050741,13.491963 13.2721111,13.8249259 12.8617407,13.8249259 L12.8617407,13.8249259 Z M11.0261852,13.4541852 C11.1517407,13.4541852 11.2535926,13.5556667 11.2535926,13.6812222 C11.2535926,13.8067778 11.1521111,13.9086296 11.0265556,13.9086296 C10.901,13.9086296 10.7991481,13.8067778 10.7991481,13.6812222 C10.7991481,13.5556667 10.901,13.4541852 11.0261852,13.4541852 L11.0261852,13.4541852 Z M9.62877697,15.2064074 C9.62840741,15.0493704 9.75581481,14.921963 9.91322222,14.921963 C10.0702593,14.921963 10.1976667,15.0493704 10.1976667,15.2064074 C10.1976667,15.3638148 10.0702593,15.4912222 9.91322222,15.4912222 C9.75581481,15.4912222 9.62877697,15.3638148 9.62877697,15.2064074 L9.62877697,15.2064074 Z M10.2550741,17.1704815 C10.2550741,17.359 10.1021111,17.5123333 9.91359259,17.5123333 C9.72433333,17.5123333 9.57137037,17.359 9.57137037,17.1704815 C9.57137037,16.9815926 9.72433333,16.8282593 9.91322222,16.8282593 C10.1021111,16.8282593 10.2550741,16.9812222 10.2550741,17.1704815 L10.2550741,17.1704815 Z M11.4261852,18.6952963 C11.4261852,18.916037 11.2476667,19.0949259 11.0269259,19.0949259 C10.8065556,19.0949259 10.6276667,18.916037 10.6276667,18.6956667 C10.6276667,18.4749259 10.8061852,18.2964074 11.0269259,18.2964074 C11.2472963,18.2964074 11.4261852,18.4749259 11.4261852,18.6952963 L11.4261852,18.6952963 Z M12.8617407,18.8382593 C13.1135926,18.8382593 13.318037,19.0423333 13.318037,19.2949259 C13.318037,19.5467778 13.113963,19.7512222 12.8617407,19.7512222 C12.6095185,19.7512222 12.4050741,19.5471481 12.4050741,19.2949259 C12.4050741,19.0427037 12.6091481,18.8382593 12.8617407,18.8382593 L12.8617407,18.8382593 Z M15.2102593,18.6952963 C15.2102593,18.9793704 14.9802593,19.2093704 14.6961852,19.2093704 C14.4124815,19.2093704 14.1821111,18.9793704 14.1821111,18.6952963 C14.1821111,18.4115926 14.4124815,18.1815921 14.6961852,18.1815921 C14.9798889,18.1812222 15.2102593,18.4115926 15.2102593,18.6952963 L15.2102593,18.6952963 Z M15.8095185,17.7415926 C15.4943333,17.7415926 15.2384074,17.4856667 15.2384074,17.1701111 C15.2384074,16.8545556 15.493963,16.599 15.8095185,16.599 C16.1250741,16.599 16.381,16.8545556 16.381,17.1701111 C16.381,17.4856667 16.1254444,17.7415926 15.8095185,17.7415926 L15.8095185,17.7415926 Z M15.181,15.2064074 C15.181,14.859 15.4624815,14.5778885 15.8095185,14.5778885 C16.1565556,14.5775185 16.4384074,14.859 16.4384074,15.206037 C16.4384074,15.5534444 16.1569259,15.8349259 15.8098889,15.8349259 C15.4624815,15.8349259 15.181,15.5534444 15.181,15.2064074 L15.181,15.2064074 Z M14.0102593,13.6812222 C14.0102593,13.3023333 14.3172963,12.9952963 14.6961852,12.9949259 C15.0750741,12.9949259 15.3821114,13.301963 15.3821114,13.6808519 C15.3824815,14.0597407 15.0754444,14.3667781 14.6965556,14.3667781 C14.3176667,14.3671481 14.0102593,14.0601111 14.0102593,13.6812222 L14.0102593,13.6812222 Z M12.933963,10.879 C12.0235926,10.879 11.2850741,10.1412222 11.2850741,9.23048148 C11.2850741,8.32011111 12.0228519,7.58196296 12.9335926,7.58159259 C13.843963,7.58159259 14.5824815,8.31937037 14.5824815,9.23011111 C14.5824815,10.1404815 13.8447037,10.8786296 12.933963,10.879 L12.933963,10.879 Z M8.35877778,10.5604815 C8.35877778,10.281963 8.5847037,10.056407 8.86285185,10.056407 C9.14137037,10.056037 9.36692593,10.281963 9.36692593,10.5604815 C9.36692593,10.8386296 9.14174074,11.0641856 8.86322222,11.0641856 C8.5847037,11.0645556 8.35877778,10.8386296 8.35877778,10.5604815 L8.35877778,10.5604815 Z M6.39359259,13.3123333 C6.74211111,13.3123333 7.02507407,13.5949259 7.02507407,13.9434444 C7.02507407,14.2923333 6.74248148,14.5749259 6.39396296,14.5749259 C6.04507407,14.5749259 5.76248148,14.2923333 5.76248148,13.9438148 C5.76248148,13.5949259 6.04507407,13.3123333 6.39359259,13.3123333 L6.39359259,13.3123333 Z M7.15248148,18.2993704 C7.15248148,18.7182593 6.81285185,19.0578889 6.39433333,19.0578889 C5.97544444,19.0578889 5.63581481,18.7182593 5.63544444,18.2997407 C5.63544444,17.8808519 5.97507407,17.5412222 6.39396296,17.5412222 C6.81285185,17.5412222 7.15248148,17.8804815 7.15248148,18.2993704 L7.15248148,18.2993704 Z M9.74988889,21.6823333 C9.74988889,22.1715926 9.35322222,22.5678891 8.86433333,22.5678891 C8.37507407,22.5682593 7.97840741,22.1715926 7.97840741,21.6827037 C7.97840741,21.1934444 8.3747037,20.7967778 8.86396296,20.7967778 C9.35285185,20.7967778 9.74951852,21.1934444 9.74988889,21.6823333 L9.74988889,21.6823333 Z M11.9206296,23.011963 C11.9206296,22.4523333 12.373963,21.9989998 12.9332222,21.9989998 C13.4928519,21.9986296 13.9461854,22.451963 13.9461854,23.0115926 C13.9465556,23.5708519 13.4932222,24.0245556 12.9335926,24.0245556 C12.3743333,24.0245556 11.9206296,23.5712222 11.9206296,23.011963 L11.9206296,23.011963 Z M18.1428519,21.681963 C18.1428519,22.3115926 17.6328519,22.821963 17.0032222,22.821963 C16.3735926,22.821963 15.863222,22.311963 15.863222,21.6823333 C15.8628519,21.0527037 16.3732222,20.5423333 17.0028519,20.541963 C17.6324815,20.541963 18.1428519,21.0523333 18.1428519,21.681963 L18.1428519,21.681963 Z M18.2054444,18.2993704 C18.2054444,17.5993704 18.7724815,17.031963 19.4724815,17.031963 C20.1724815,17.031963 20.7398889,17.599 20.7398889,18.299 C20.7398889,18.9986296 20.1728519,19.566037 19.4728519,19.566037 C18.7728519,19.566037 18.2054444,18.999 18.2054444,18.2993704 L18.2054444,18.2993704 Z M20.8669261,13.9430741 C20.8672963,14.7130741 20.2428519,15.3371481 19.4728519,15.3375185 C18.7028519,15.3375185 18.0784072,14.7134444 18.0784072,13.9434444 C18.078037,13.1734444 18.7024815,12.5489998 19.4724815,12.5489998 C20.2424815,12.5486296 20.8669261,13.1730741 20.8669261,13.9430741 L20.8669261,13.9430741 Z M17.0028519,9.03862948 C17.8432222,9.03825926 18.5243333,9.71937037 18.5247037,10.5597407 C18.5247037,11.4001111 17.8435926,12.0812224 17.0032222,12.0812224 C16.1628519,12.0815926 15.4817407,11.4004815 15.4813704,10.5601111 C15.4813704,9.72011111 16.1624815,9.03862948 17.0028519,9.03862948 L17.0028519,9.03862948 Z M10.1943333,2.97566667 C10.193963,1.33233333 11.5258148,0.000111033884 13.1687778,0.000111033884 C14.8121111,-0.000259259259 16.143963,1.33159259 16.1443334,2.97455556 C16.1447037,4.61751852 14.8128519,5.94974074 13.1698889,5.95011111 C11.5265556,5.95011111 10.1943333,4.61862963 10.1943333,2.97566667 L10.1943333,2.97566667 Z M4.91433333,5.3752963 C4.91433333,4.8727037 5.32137037,4.4652963 5.82359259,4.4652963 C6.32618519,4.4652963 6.73322222,4.8727037 6.73359259,5.37492593 C6.73359259,5.87714815 6.32618519,6.28455556 5.82396296,6.28455556 C5.32174074,6.28455556 4.91433333,5.87751852 4.91433333,5.3752963 L4.91433333,5.3752963 Z M0.228777778,11.4801111 C0.228777778,10.8512222 0.738777778,10.341222 1.36766667,10.341222 C1.99692593,10.3408519 2.50692593,10.8508519 2.50692593,11.4797407 C2.50692593,12.109 1.9972963,12.6193704 1.36803704,12.6193704 C0.738777778,12.6193704 0.228777778,12.1093704 0.228777778,11.4801111 L0.228777778,11.4801111 Z M2.7372963,19.3401111 C2.7372963,20.096037 2.1247037,20.7086296 1.36877778,20.7086296 C0.612851852,20.7086296 -0.000111111111,20.0964074 -0.000111111111,19.3404815 C-0.000111111111,18.5845556 0.612481481,17.9715926 1.36840741,17.9715926 C2.12433333,17.9715926 2.7372963,18.5841852 2.7372963,19.3401111 L2.7372963,19.3401111 Z M7.42359274,25.4445556 C7.42396296,26.3267778 6.70840741,27.0427037 5.82581481,27.0427037 C4.94322222,27.0427037 4.22766667,26.3275185 4.22766667,25.4449259 C4.22766667,24.5623333 4.94285185,23.8467778 5.82544444,23.8464074 C6.70803704,23.8464074 7.42359274,24.5615926 7.42359274,25.4445556 L7.42359274,25.4445556 Z M14.9965556,27.8430741 C14.9965556,28.8523333 14.1784074,29.6704815 13.1691481,29.6708519 C12.1595185,29.6708519 11.3413704,28.8527037 11.3413704,27.8434444 C11.3413704,26.8341852 12.1591481,26.0156667 13.1687778,26.0156667 C14.178037,26.0156667 14.9961852,26.8338148 14.9965556,27.8430741 L14.9965556,27.8430741 Z M22.5691481,25.4438148 C22.5691481,26.5797407 21.6484074,27.500852 20.5124815,27.500852 C19.3761852,27.5012222 18.455074,26.5801111 18.455074,25.4441852 C18.4547037,24.3082593 19.3754444,23.3871481 20.5117407,23.3867778 C21.648037,23.3867778 22.5687778,24.3075185 22.5691481,25.4438148 L22.5691481,25.4438148 Z M27.2550742,19.339 C27.2554444,20.6015926 26.2317407,21.6256668 24.9687778,21.6256668 C23.7061852,21.626037 22.682111,20.6023333 22.682111,19.3397407 C22.6817407,18.0767778 23.7054444,17.0527036 24.9684074,17.0527036 C26.231,17.0523333 27.2550742,18.076037 27.2550742,19.339 L27.2550742,19.339 Z M27.4847038,11.479 C27.4850741,12.8682593 26.3587778,13.9949259 24.9691481,13.9952963 C23.5795185,13.9952963 22.4528518,12.869 22.4528518,11.4793704 C22.4524815,10.0901111 23.5787778,8.96344435 24.9684074,8.96344435 C26.3576667,8.96307407 27.4843333,10.0893704 27.4847038,11.479 L27.4847038,11.479 Z M17.7665556,5.37492593 C17.7665556,3.85825926 18.9954444,2.62899992 20.5117407,2.62899992 C22.028037,2.62862963 23.2576668,3.85751852 23.2576668,5.37381481 C23.258037,6.89011111 22.0287778,8.11974082 20.5124815,8.11974082 C18.9961852,8.12011111 17.7669259,6.89122222 17.7665556,5.37492593 L17.7665556,5.37492593 Z M71.671,9.2227037 L75.0584074,9.2227037 L75.0584074,15.9627037 C75.0584074,17.7693704 74.5576667,19.1649259 73.5558148,20.1493704 C72.553963,21.1338148 71.1498889,21.6256667 69.3432222,21.6256667 C67.5365556,21.6256667 66.1321111,21.1338148 65.1306296,20.1493704 C64.1287778,19.1649259 63.628037,17.7693704 63.628037,15.9627037 L63.628037,9.2227037 L67.0672963,9.2227037 L67.0672963,15.8586296 C67.0672963,17.8041852 67.8376667,18.7771481 69.378037,18.7771481 C70.9065556,18.7771481 71.671,17.8041852 71.671,15.8586296 L71.671,9.2227037 Z M85.3735926,15.0334444 C85.0143333,15.3401111 84.4817407,15.4934444 83.7754444,15.4934444 L81.8647037,15.4934444 L81.8647037,11.9327037 L83.7754444,11.9327037 C84.4817407,11.9327037 85.0143333,12.089 85.3735926,12.4015926 C85.7324815,12.7141852 85.9121111,13.1545556 85.9121111,13.721963 C85.9121111,14.2893704 85.7324815,14.7267778 85.3735926,15.0334444 L85.3735926,15.0334444 Z M88.7698889,16.0234444 C89.181,15.3693704 89.3865556,14.601963 89.3865556,13.721963 C89.3865556,12.8067778 89.1661852,12.0108519 88.7261852,11.3330741 C88.2861852,10.6556667 87.6606296,10.1345556 86.8502593,9.76974074 C86.0395185,9.40492593 85.083963,9.2227037 83.983963,9.2227037 L78.4250741,9.2227037 L78.4250741,21.3827037 L81.8647037,21.3827037 L81.8647037,18.1515926 L83.7406296,18.1515926 L85.9469259,21.3827037 L89.6295185,21.3827037 L87.0065556,17.5608519 C87.771,17.1901111 88.3584074,16.6778889 88.7698889,16.0234444 L88.7698889,16.0234444 Z M96.1650741,12.7749259 C95.528037,13.4064074 95.2095185,14.249 95.2095185,15.3027037 C95.2095185,15.9741852 95.353963,16.5738148 95.643963,17.1004815 C95.9332222,17.6278889 96.3387778,18.0386296 96.8598889,18.3338148 C97.381,18.6293704 97.9772963,18.7771481 98.6491481,18.7771481 C99.3095185,18.7771481 99.9287778,18.6438148 100.508037,18.3775185 L100.508037,15.041963 L103.548037,15.041963 L103.548037,20.0797407 C102.853222,20.5778889 102.053963,20.9601111 101.15063,21.2264074 C100.247296,21.4927037 99.343963,21.6256667 98.4406296,21.6256667 C97.1665556,21.6256667 96.0198889,21.3564074 95.001,20.8178889 C93.9817407,20.2793704 93.1828519,19.5297407 92.603963,18.5682593 C92.0247037,17.6071481 91.7350741,16.5186296 91.7350741,15.3027037 C91.7350741,14.0867778 92.0247037,12.9982593 92.603963,12.0367778 C93.1828519,11.0756667 93.9876667,10.3256667 95.0184074,9.78714815 C96.0491481,9.24862963 97.2132222,8.97937037 98.5102593,8.97937037 C99.6450741,8.97937037 100.664333,9.17048148 101.567667,9.5527037 C102.471,9.93492593 103.223593,10.4849259 103.825815,11.2027037 L101.636926,13.1834444 C100.814704,12.2801111 99.8302593,11.8282593 98.683963,11.8282593 C97.6417407,11.8282593 96.8017407,12.1438148 96.1650741,12.7749259 L96.1650741,12.7749259 Z M36.7802593,18.7245556 L43.1384074,18.7245556 L43.1384074,21.3827037 L33.3754444,21.3827037 L33.3754444,9.2227037 L42.9124815,9.2227037 L42.9124815,11.8804815 L36.7802593,11.8804815 L36.7802593,13.9301111 L42.1828519,13.9301111 L42.1828519,16.5012222 L36.7802593,16.5012222 L36.7802593,18.7245556 Z M60.2598889,9.2227037 L60.2598889,21.3827037 L57.098037,21.3827037 L57.098037,14.9378889 L53.9713704,20.1838148 L52.4424815,20.1838148 L49.3328519,15.1115926 L49.3328519,21.3827037 L46.153963,21.3827037 L46.153963,9.2227037 L48.9854444,9.2227037 L53.2587778,16.2404815 L57.428037,9.2227037 L60.2598889,9.2227037 Z M115.692481,17.1178889 C115.402852,17.6449259 115.008778,18.0534444 114.511,18.3427037 C114.012852,18.631963 113.456926,18.7771481 112.843593,18.7771481 C112.229519,18.7771481 111.673593,18.631963 111.175815,18.3427037 C110.677667,18.0534444 110.283963,17.6449259 109.994333,17.1178889 C109.705074,16.5912222 109.560259,15.986037 109.560259,15.3027037 C109.560259,14.6193704 109.705074,14.0141852 109.994333,13.4871481 C110.283963,12.9604815 110.677667,12.551963 111.175815,12.2627037 C111.673593,11.9730741 112.229519,11.8282593 112.843593,11.8282593 C113.456926,11.8282593 114.012852,11.9730741 114.511,12.2627037 C115.008778,12.551963 115.402852,12.9604815 115.692481,13.4871481 C115.981741,14.0141852 116.126556,14.6193704 116.126556,15.3027037 C116.126556,15.986037 115.981741,16.5912222 115.692481,17.1178889 L115.692481,17.1178889 Z M118.723963,12.0541852 C118.138778,11.0930741 117.333963,10.3401111 116.309148,9.79603704 C115.284333,9.25159259 114.128778,8.97937037 112.843593,8.97937037 C111.558037,8.97937037 110.402852,9.25159259 109.378037,9.79603704 C108.352852,10.3401111 107.548037,11.0930741 106.963222,12.0541852 C106.378407,13.0152963 106.086185,14.0982593 106.086185,15.3027037 C106.086185,16.5071481 106.378407,17.5901111 106.963222,18.5512222 C107.548037,19.5123333 108.352852,20.2652963 109.378037,20.8093704 C110.402852,21.3538148 111.558037,21.6256667 112.843593,21.6256667 C114.128778,21.6256667 115.284333,21.3538148 116.309148,20.8093704 C117.333963,20.2652963 118.138778,19.5123333 118.723963,18.5512222 C119.308407,17.5901111 119.601,16.5071481 119.601,15.3027037 C119.601,14.0982593 119.308407,13.0152963 118.723963,12.0541852 L118.723963,12.0541852 Z" id="Fill-1" fill="#FFFFFF" mask="url(#mask-2)"></path>
            </g>
        </g>
    </g>
</svg>