<?xml version="1.0" encoding="UTF-8"?>
<svg width="300px" height="282px" viewBox="0 0 300 282" version="1.1" xmlns="http://www.w3.org/2000/svg" xmlns:xlink="http://www.w3.org/1999/xlink">
    <!-- Generator: Sketch 60 (88103) - https://sketch.com -->
    <title>Fast</title>
    <desc>Created with Sketch.</desc>
    <defs>
        <linearGradient x1="-0.00419732674%" y1="49.9967243%" x2="100.00388%" y2="49.9967243%" id="linearGradient-1">
            <stop stop-color="#17D1AA" offset="0%"></stop>
            <stop stop-color="#1CB9B0" offset="23%"></stop>
            <stop stop-color="#297DC0" offset="70%"></stop>
            <stop stop-color="#3154CB" offset="100%"></stop>
        </linearGradient>
        <linearGradient x1="16.4858393%" y1="22.6148922%" x2="77.4962137%" y2="68.6297313%" id="linearGradient-2">
            <stop stop-color="#17D1AA" offset="0%"></stop>
            <stop stop-color="#1CB9B0" offset="23%"></stop>
            <stop stop-color="#297DC0" offset="70%"></stop>
            <stop stop-color="#3154CB" offset="100%"></stop>
        </linearGradient>
        <linearGradient x1="26.4081944%" y1="67.6699956%" x2="94.31047%" y2="16.8290834%" id="linearGradient-3">
            <stop stop-color="#17D1AA" offset="0%"></stop>
            <stop stop-color="#1AC2AE" offset="7%"></stop>
            <stop stop-color="#229BB8" offset="27%"></stop>
            <stop stop-color="#297CC0" offset="46%"></stop>
            <stop stop-color="#2D66C6" offset="65%"></stop>
            <stop stop-color="#3059CA" offset="83%"></stop>
            <stop stop-color="#3154CB" offset="100%"></stop>
        </linearGradient>
        <linearGradient x1="67.9778073%" y1="112.201722%" x2="40.9360638%" y2="18.6469865%" id="linearGradient-4">
            <stop stop-color="#17D1AA" offset="0%"></stop>
            <stop stop-color="#2398B9" offset="41%"></stop>
            <stop stop-color="#2D67C6" offset="80%"></stop>
            <stop stop-color="#3154CB" offset="100%"></stop>
        </linearGradient>
        <linearGradient x1="65.8118566%" y1="12.6130181%" x2="17.7859645%" y2="107.699608%" id="linearGradient-5">
            <stop stop-color="#17D1AA" offset="0%"></stop>
            <stop stop-color="#1AC2AE" offset="7%"></stop>
            <stop stop-color="#229BB8" offset="27%"></stop>
            <stop stop-color="#297CC0" offset="46%"></stop>
            <stop stop-color="#2D66C6" offset="65%"></stop>
            <stop stop-color="#3059CA" offset="83%"></stop>
            <stop stop-color="#3154CB" offset="100%"></stop>
        </linearGradient>
        <linearGradient x1="0.436329149%" y1="38.3430713%" x2="110.687978%" y2="64.074348%" id="linearGradient-6">
            <stop stop-color="#17D1AA" offset="0%"></stop>
            <stop stop-color="#1AC2AE" offset="7%"></stop>
            <stop stop-color="#229BB8" offset="27%"></stop>
            <stop stop-color="#297CC0" offset="46%"></stop>
            <stop stop-color="#2D66C6" offset="65%"></stop>
            <stop stop-color="#3059CA" offset="83%"></stop>
            <stop stop-color="#3154CB" offset="100%"></stop>
        </linearGradient>
        <linearGradient x1="0.0137158476%" y1="49.9909963%" x2="100.044035%" y2="49.9909963%" id="linearGradient-7">
            <stop stop-color="#3154CB" offset="0%"></stop>
            <stop stop-color="#3059CA" offset="17%"></stop>
            <stop stop-color="#2D66C6" offset="35%"></stop>
            <stop stop-color="#297CC0" offset="54%"></stop>
            <stop stop-color="#229BB8" offset="73%"></stop>
            <stop stop-color="#1AC2AE" offset="93%"></stop>
            <stop stop-color="#17D1AA" offset="100%"></stop>
        </linearGradient>
        <linearGradient x1="-0.00342467534%" y1="50.0142505%" x2="100.072805%" y2="50.0142505%" id="linearGradient-8">
            <stop stop-color="#3154CB" offset="0%"></stop>
            <stop stop-color="#3059CA" offset="17%"></stop>
            <stop stop-color="#2D66C6" offset="35%"></stop>
            <stop stop-color="#297CC0" offset="54%"></stop>
            <stop stop-color="#229BB8" offset="73%"></stop>
            <stop stop-color="#1AC2AE" offset="93%"></stop>
            <stop stop-color="#17D1AA" offset="100%"></stop>
        </linearGradient>
        <linearGradient x1="-79.9086597%" y1="-42.4379995%" x2="558.99626%" y2="412.121854%" id="linearGradient-9">
            <stop stop-color="#17D1AA" offset="0%"></stop>
            <stop stop-color="#1CB9B0" offset="23%"></stop>
            <stop stop-color="#297DC0" offset="70%"></stop>
            <stop stop-color="#3154CB" offset="100%"></stop>
        </linearGradient>
        <linearGradient x1="-185.662193%" y1="-164.451844%" x2="206.414268%" y2="192.236066%" id="linearGradient-10">
            <stop stop-color="#17D1AA" offset="0%"></stop>
            <stop stop-color="#1CB9B0" offset="23%"></stop>
            <stop stop-color="#297DC0" offset="70%"></stop>
            <stop stop-color="#3154CB" offset="100%"></stop>
        </linearGradient>
        <linearGradient x1="-76.8897666%" y1="-110.573964%" x2="219.959189%" y2="264.74632%" id="linearGradient-11">
            <stop stop-color="#17D1AA" offset="0%"></stop>
            <stop stop-color="#1CB9B0" offset="23%"></stop>
            <stop stop-color="#297DC0" offset="70%"></stop>
            <stop stop-color="#3154CB" offset="100%"></stop>
        </linearGradient>
        <linearGradient x1="-334.563708%" y1="-211.753163%" x2="232.882075%" y2="174.51903%" id="linearGradient-12">
            <stop stop-color="#17D1AA" offset="0%"></stop>
            <stop stop-color="#1CB9B0" offset="23%"></stop>
            <stop stop-color="#297DC0" offset="70%"></stop>
            <stop stop-color="#3154CB" offset="100%"></stop>
        </linearGradient>
        <linearGradient x1="-455.828877%" y1="-226.963237%" x2="228.235294%" y2="147.587465%" id="linearGradient-13">
            <stop stop-color="#17D1AA" offset="0%"></stop>
            <stop stop-color="#1CB9B0" offset="23%"></stop>
            <stop stop-color="#297DC0" offset="70%"></stop>
            <stop stop-color="#3154CB" offset="100%"></stop>
        </linearGradient>
        <linearGradient x1="193.2145%" y1="115.487117%" x2="-501.580702%" y2="-172.547786%" id="linearGradient-14">
            <stop stop-color="#17D1AA" offset="0%"></stop>
            <stop stop-color="#1CB9B0" offset="23%"></stop>
            <stop stop-color="#297DC0" offset="70%"></stop>
            <stop stop-color="#3154CB" offset="100%"></stop>
        </linearGradient>
        <linearGradient x1="421.51257%" y1="203.198544%" x2="-193.378921%" y2="-40.1384259%" id="linearGradient-15">
            <stop stop-color="#17D1AA" offset="0%"></stop>
            <stop stop-color="#1CB9B0" offset="23%"></stop>
            <stop stop-color="#297DC0" offset="70%"></stop>
            <stop stop-color="#3154CB" offset="100%"></stop>
        </linearGradient>
        <linearGradient x1="250.445793%" y1="162.159811%" x2="-215.298973%" y2="-84.7784219%" id="linearGradient-16">
            <stop stop-color="#17D1AA" offset="0%"></stop>
            <stop stop-color="#1CB9B0" offset="23%"></stop>
            <stop stop-color="#297DC0" offset="70%"></stop>
            <stop stop-color="#3154CB" offset="100%"></stop>
        </linearGradient>
        <linearGradient x1="629.607225%" y1="230.584842%" x2="-221.158866%" y2="-25.0618745%" id="linearGradient-17">
            <stop stop-color="#17D1AA" offset="0%"></stop>
            <stop stop-color="#1CB9B0" offset="23%"></stop>
            <stop stop-color="#297DC0" offset="70%"></stop>
            <stop stop-color="#3154CB" offset="100%"></stop>
        </linearGradient>
        <linearGradient x1="554.547499%" y1="181.699613%" x2="-123.129601%" y2="10.6837641%" id="linearGradient-18">
            <stop stop-color="#17D1AA" offset="0%"></stop>
            <stop stop-color="#1CB9B0" offset="23%"></stop>
            <stop stop-color="#297DC0" offset="70%"></stop>
            <stop stop-color="#3154CB" offset="100%"></stop>
        </linearGradient>
        <linearGradient x1="0.00025700619%" y1="49.9948457%" x2="99.9998301%" y2="49.9948457%" id="linearGradient-19">
            <stop stop-color="#17D1AA" offset="0%"></stop>
            <stop stop-color="#1CB9B0" offset="23%"></stop>
            <stop stop-color="#297DC0" offset="70%"></stop>
            <stop stop-color="#3154CB" offset="100%"></stop>
        </linearGradient>
    </defs>
    <g id="Fast" stroke="none" stroke-width="1" fill="none" fill-rule="evenodd">
        <g id="fast" transform="translate(0.000000, 2.000000)" fill-rule="nonzero">
            <path d="M142.627119,277.912911 C135.697401,277.91692 128.888514,276.099572 122.883777,272.643238 L7.61985472,206.140992 C3.03741727,203.489594 0.215963111,198.59923 0.215963111,193.30799 C0.215963111,188.016749 3.03741727,183.126385 7.61985472,180.474987 L149.883777,98.0839164 C154.481444,95.4383364 160.140832,95.4383364 164.738499,98.0839164 L292.358354,171.699478 C296.94502,174.345956 299.770459,179.236415 299.770459,184.528851 C299.770459,189.821287 296.94502,194.711747 292.358354,197.358225 L162.443099,272.599687 C156.42206,276.085488 149.585704,277.918504 142.627119,277.912911 L142.627119,277.912911 Z M157.322034,97.53953 C154.965313,97.53953 152.650278,98.1606484 150.610169,99.3396345 L8.32445521,181.737963 C4.18971635,184.127668 1.64341792,188.538656 1.64341792,193.311619 C1.64341792,198.084581 4.18971635,202.49557 8.32445521,204.885274 L123.588378,271.380261 C135.38362,278.166728 149.905379,278.152895 161.687651,271.343969 L291.639225,196.102507 C295.773964,193.712802 298.320262,189.301814 298.320262,184.528851 C298.320262,179.755889 295.773964,175.3449 291.639225,172.955196 L164.012107,99.332376 C161.978353,98.1580286 159.670929,97.53953 157.322034,97.53953 Z" id="Shape" fill="url(#linearGradient-1)"></path>
            <path d="M130.35109,48.6826632 C166.510896,69.5435509 195.726392,120.11342 195.610515,161.610183 C195.493947,203.106945 166.082324,219.874047 129.922518,199.013159 C93.7627119,178.152272 64.5472155,127.596919 64.684743,86.0783812 C64.8232446,44.5598433 94.2058111,27.8290339 130.35109,48.6826632 Z" id="Shape" fill="#52FCFF"></path>
            <path d="M223.539952,156.057441 C223.539952,154.896084 223.539952,153.734726 223.503632,152.558851 C223.503632,151.833003 223.416465,151.107154 223.372881,150.424856 C223.31477,149.343342 223.271186,148.247311 223.176755,147.173055 C223.11138,146.403655 223.009685,145.626997 222.929782,144.857598 C222.828087,143.877702 222.74092,142.905065 222.617433,141.917911 C222.608856,141.849583 222.596733,141.781745 222.581114,141.714674 C222.501211,141.075927 222.392252,140.43718 222.297821,139.798433 C222.123487,138.637076 221.956416,137.475718 221.753027,136.307102 C221.622276,135.581253 221.46247,134.855405 221.324455,134.086005 C221.150121,133.193211 220.997579,132.300418 220.808717,131.407624 C220.757869,131.204386 220.707022,130.99389 220.663438,130.790653 C220.554479,130.304334 220.438257,129.825274 220.329298,129.338956 C220.046005,128.090496 219.74092,126.849295 219.421308,125.593577 C219.283293,125.049191 219.138015,124.504804 218.992736,123.960418 C218.891041,123.575718 218.79661,123.191018 218.687651,122.79906 C218.578692,122.407102 218.42615,121.978851 218.309927,121.565117 L218.309927,121.565117 C216.857143,117.210026 211.975787,102.402715 208.082324,94.788564 C207.552058,93.7506005 207.007264,92.7126371 206.578692,91.6601567 C206.357384,91.1542369 206.092464,90.6685079 205.786925,90.2084595 C205.423729,89.6277807 205.162228,89.0108094 204.842615,88.4156136 C204.523002,87.8204178 204.290557,87.4574935 204.043584,86.9639164 C203.585977,86.0042019 203.074259,85.0711976 202.510896,84.1693995 C202.067797,83.4943603 201.711864,82.7685117 201.312349,82.0789556 C201.000365,81.6203177 200.730502,81.1344423 200.506053,80.6272585 C200.120005,79.638727 199.564476,78.7250004 198.864407,77.9271018 C198.33183,77.2346256 197.846473,76.5071348 197.411622,75.7495561 L197.012107,75.1253264 C195.733656,73.1510183 194.421308,71.2033246 193.075061,69.2822454 C192.900726,69.0354569 192.711864,68.8031854 192.544794,68.5563969 C192.021792,67.8305483 191.498789,67.1046997 190.939467,66.3788512 C189.958838,65.1303916 189.065375,63.8020888 188.09201,62.5463708 C187.692494,62.0382768 187.292978,61.5229243 186.886199,61.0148303 C185.498789,59.2655352 184.060533,57.5525326 182.615012,55.868564 C182.433414,55.6580679 182.25908,55.4403133 182.084746,55.2298172 C181.910412,55.0193211 181.532688,54.6273629 181.263923,54.3225065 C180.503632,53.4611662 179.733656,52.6095039 178.953995,51.7675196 C178.452785,51.2231332 177.951574,50.6787467 177.443099,50.1416188 C176.62954,49.2899565 175.811138,48.4503916 174.987893,47.6229243 C174.639225,47.274517 174.297821,46.8970757 173.949153,46.5559269 C173.760291,46.3744648 173.564165,46.2002611 173.382567,46.0115405 C173.048426,45.6631332 172.714286,45.2856919 172.358354,45.002611 C171.457627,44.2041775 170.585956,43.3476762 169.699758,42.5347258 C168.813559,41.7217755 168.138015,41.1410966 167.346247,40.458799 C166.830508,40.0087728 166.31477,39.5442298 165.791768,39.1014621 C164.912833,38.3756136 164.026634,37.649765 163.133172,36.9239164 C162.690073,36.5682507 162.254237,36.1980679 161.803874,35.8496606 C160.457627,34.8044386 159.101695,33.7882507 157.736077,32.8010966 C156.646489,32.0244386 155.556901,31.2622977 154.438257,30.5291906 C152.501211,29.2275022 150.564165,28.0177546 148.627119,26.8999478 C146.491525,25.6660052 144.377724,24.5481984 142.285714,23.5465274 C140.920097,22.8932637 139.566586,22.2883899 138.225182,21.731906 L138.021792,21.6448042 C137.702179,21.506893 137.389831,21.4125326 137.062954,21.2818799 C136.067797,20.8826632 135.072639,20.4979634 134.084746,20.1568146 C133.583535,19.982611 133.082324,19.8229243 132.588378,19.6632376 C131.723971,19.3801567 130.866828,19.1115927 130.009685,18.8720627 L129.283293,18.6543081 C128.905569,18.5526893 128.556901,18.4801044 128.164649,18.3857441 C127.656174,18.2550914 127.154964,18.1316971 126.646489,18.0228198 C125.985472,17.8703916 125.324455,17.7397389 124.663438,17.6163446 L124.104116,17.5074674 C120.093156,16.9539628 116.040728,16.7596308 111.995157,16.9267885 C109.946731,17.0211488 107.549637,17.2679373 107.542373,17.2751958 L107.171913,17.3550392 C105.990315,17.5727937 104.828087,17.8413577 103.68523,18.1607311 C103.569007,18.1607311 103.438257,18.2115405 103.322034,18.2478329 L102.893462,18.3712272 C101.690364,18.7349537 100.507147,19.1613684 99.3486683,19.6487206 L99.1380145,19.7503394 C98.4915254,20.0261619 97.874092,20.3600522 97.2493947,20.6721671 C96.6246973,20.984282 96.1162228,21.1875196 95.5714286,21.492376 L95.157385,21.7246475 L75.2106538,33.3890339 C76.7433414,32.5034987 91.2493947,35.9875718 92.6440678,36.8585901 C98.3680387,40.3716971 109.583535,33.7664752 115.51816,36.9384334 C128.731235,44.0081984 149.549637,56.4492428 160.656174,66.1828721 C171.050847,75.29953 189.493947,111.911332 198.428571,131.204386 L197.012107,130.347885 C201.690073,150.032898 201.675545,169.616292 195.74092,184.300209 C192.355932,192.661984 191.702179,190.651384 191.193705,199.615614 C191.113801,200.951175 184.031477,214.945535 182.774818,215.671384 C189.40678,211.831645 201.602906,204.732846 201.602906,204.732846 C204.675268,202.943717 207.469855,200.716078 209.898305,198.120366 C217.343826,190.194099 222.145278,178.370026 223.256659,163.076397 C223.382567,161.363394 223.460048,159.631036 223.489104,157.879321 C223.561743,157.276867 223.539952,156.674413 223.539952,156.057441 Z" id="Shape" fill="url(#linearGradient-2)"></path>
            <path d="M199.997579,132.104439 L190.016949,105.97389 L182.25908,108.768407 L189.029056,125.528251 L189.029056,125.528251 C193.082324,137.65718 195.33414,149.924021 195.305085,161.47953 C195.181598,202.802089 165.922518,219.467572 129.929782,198.708303 C93.937046,177.949034 64.8886199,127.633211 65.0048426,86.3106527 C65.1210654,44.988094 94.3874092,28.3443864 130.380145,49.0963969 C152.171913,61.653577 171.174334,84.5831332 182.956416,110.227363 L182.956416,110.227363 L190.046005,106.002924 C186.732091,99.0286696 182.961185,92.2805516 178.757869,85.8025587 C175.598063,80.9175979 172.220339,76.1850653 168.631961,71.6702872 C160.261596,60.9517951 150.446933,51.4424843 139.467312,43.4130026 C138.377724,42.6363446 137.288136,41.8742037 136.169492,41.1338381 C134.215496,39.8418277 132.276029,38.6296606 130.358354,37.5045953 C128.232446,36.2803307 126.121065,35.1649434 124.024213,34.1584334 C113.716707,29.2081462 103.932203,26.9870496 95.1428571,27.2846475 C91.5730865,27.4069274 88.0346305,27.9950086 84.6174334,29.0339426 C68.2227603,34.0060052 57.0145278,49.5827154 55.2276029,74.0365535 C51.9225182,119.677911 82.8087167,179.02329 124.133172,206.554726 C126.094431,207.861253 128.046005,209.071001 129.987893,210.183969 C168.864407,232.612689 201.900726,217.202924 205.046005,173.695561 C205.997579,160.593995 204.138015,146.367363 200.026634,132.089922 L199.997579,132.104439 Z" id="Shape" fill="url(#linearGradient-3)"></path>
            <polygon id="Shape" fill="url(#linearGradient-4)" points="151.256659 53.0232376 169.227603 42.208094 169.242131 23.5174935 151.271186 34.3326371"></polygon>
            <path d="M134.622276,14.5968146 C134.622276,12.5571802 136.075061,11.6934204 137.861985,12.7531593 L153.682809,21.8843342 C155.585321,23.1117253 156.782354,25.1772893 156.900726,27.4370757 L156.900726,33.853577 C156.900726,35.8932115 155.447942,36.7569713 153.675545,35.6972324 L151.300242,34.3326371 L151.300242,53.0232376 C150.57385,52.4788512 149.767554,51.9417232 148.997579,51.4263708 C147.631961,50.5214795 146.273608,49.6794952 144.922518,48.9004178 C143.469734,48.036658 141.951574,47.26 140.484262,46.5559269 L140.484262,28.0903394 L137.847458,26.5660574 C135.948364,25.3330366 134.754776,23.266058 134.636804,21.0060574 L134.622276,14.5968146 Z" id="Shape" fill="url(#linearGradient-5)"></path>
            <path d="M155.876513,0.725848564 C156.131542,0.622200107 156.401064,0.558542517 156.675545,0.537121086 C157.264546,0.535911791 157.842532,0.69662227 158.346247,1.00167102 C162.7046,3.39697128 166.961259,6.01002611 171.261501,8.4924282 C173.25908,9.64652742 175.271186,10.6046475 176.397094,12.7459008 C177.319613,14.4951958 177.188862,16.1791645 177.188862,18.0663708 C177.188862,19.3874151 177.188862,20.715718 177.188862,22.0367624 C177.271579,22.8445359 176.913764,23.634464 176.251816,24.1054308 L155.912833,35.9295039 C156.576314,35.4592534 156.936702,34.6697629 156.857143,33.8608355 L156.857143,27.4443342 C156.85517,27.2013073 156.83575,26.958735 156.799031,26.7184856 L156.799031,26.6023499 C156.760478,26.3573982 156.707111,26.1150048 156.639225,25.8765013 L156.639225,25.8111749 C156.559444,25.5637682 156.464843,25.321381 156.355932,25.0853264 C156.245038,24.8358663 156.118892,24.593459 155.978208,24.3594778 L155.978208,24.3594778 C155.8408,24.1239165 155.690449,23.8961356 155.527845,23.6771802 L155.484262,23.6118538 C155.338983,23.4158747 155.179177,23.227154 155.01937,23.0456919 L154.910412,22.9368146 C154.83903,22.8628201 154.763869,22.7925611 154.68523,22.7263185 C154.390043,22.447468 154.063392,22.203881 153.711864,22.00047 L137.861985,12.7531593 C137.672175,12.6454287 137.472773,12.5555223 137.266344,12.4845953 L137.150121,12.4410444 C136.97738,12.3858817 136.79985,12.3470001 136.619855,12.3249086 L136.561743,12.3249086 C136.390547,12.302721 136.217201,12.302721 136.046005,12.3249086 L136.046005,12.3249086 C135.881726,12.3581452 135.724441,12.4195383 135.581114,12.5063708 C139.779661,10.0602611 153.014528,2.34449086 154.038741,1.78558747 C154.626097,1.39034321 155.240159,1.03624863 155.876513,0.725848564 Z" id="Shape" fill="url(#linearGradient-6)"></path>
            <path d="M146.368039,124.925796 C146.440697,124.779459 146.440697,124.607591 146.368039,124.461253 L146.368039,124.461253 C146.316109,124.28494 146.202732,124.133026 146.048426,124.033003 L134.476998,117.754413 L140.571429,102.968877 C140.619355,102.817536 140.606325,102.653485 140.535109,102.511593 C140.482072,102.359387 140.379847,102.229148 140.244552,102.14141 L125.121065,93.9248042 C124.953995,93.8304439 124.815981,93.9248042 124.786925,94.1135248 L121.714286,119.082715 C121.700132,119.228622 121.730521,119.375392 121.801453,119.503708 C121.859013,119.631489 121.952357,119.739889 122.070218,119.815822 L131.411622,124.896762 L123.312349,150.461149 C123.267747,150.692904 123.329011,150.932456 123.479419,151.114413 C123.624697,151.303133 123.820823,151.353943 123.915254,151.237807 L146.368039,124.925796 Z M132.232446,125.034674 C132.270726,124.884164 132.255314,124.725029 132.188862,124.584648 C132.12822,124.440658 132.027344,124.317178 131.898305,124.228982 L122.455206,119.148042 L125.42615,95.0353525 L139.736077,102.794674 L133.656174,117.587467 C133.600379,117.734797 133.600379,117.897422 133.656174,118.044752 C133.711092,118.198029 133.815985,118.328407 133.953995,118.414935 L145.35109,124.599164 L124.714286,148.798956 L132.232446,125.034674 Z" id="Shape" fill="url(#linearGradient-7)"></path>
            <path d="M123.784504,152.740313 L123.74092,152.740313 C123.186065,152.721614 122.66886,152.455213 122.331719,152.014465 C121.881113,151.462464 121.729195,150.72513 121.924939,150.040157 L129.668281,125.571802 L121.380145,121.078799 C120.989378,120.862892 120.678626,120.52692 120.493947,120.120679 C120.304699,119.743856 120.228997,119.320238 120.276029,118.901253 L123.348668,93.9248042 C123.399514,93.3656267 123.730626,92.8703505 124.228117,92.6093263 C124.725609,92.3483022 125.321615,92.3571377 125.811138,92.6327937 L140.96368,100.89295 C141.40054,101.137822 141.737362,101.528346 141.915254,101.99624 C142.117944,102.494205 142.117944,103.051591 141.915254,103.549556 L136.31477,117.130183 L146.738499,122.784543 C147.223318,123.058763 147.584625,123.508111 147.748184,124.040261 C147.980542,124.670168 147.864698,125.375736 147.443099,125.898433 L147.443099,125.898433 L124.990315,152.195927 C124.683144,152.539124 124.245266,152.736812 123.784504,152.740313 L123.784504,152.740313 Z M124.024213,118.313316 L132.588378,122.958747 C133.008226,123.194748 133.335894,123.565656 133.51816,124.011227 C133.724962,124.467338 133.761049,124.982472 133.619855,125.462924 L133.619855,125.462924 L128.266344,142.360679 L143.113801,124.940313 L133.285714,119.612585 C132.849922,119.363045 132.513774,118.970738 132.33414,118.502037 C132.134927,118.005907 132.134927,117.452109 132.33414,116.955979 L137.934625,103.375352 L126.610169,97.2637076 L124.024213,118.313316 Z" id="Shape" fill="url(#linearGradient-8)"></path>
            <path d="M108.319613,148.174726 C107.113801,147.448877 105.929782,147.528721 105.283293,148.44329 L101.970944,153.074204 C100.997579,154.438799 101.578692,157.240574 103.242131,159.309243 C103.726143,159.92723 104.319498,160.451254 104.992736,160.8553 C106.198547,161.581149 107.382567,161.515822 108.029056,160.601253 L111.341404,155.963081 C112.31477,154.598486 111.733656,151.803969 110.070218,149.728042 C109.584278,149.109882 108.991363,148.583787 108.319613,148.174726 L108.319613,148.174726 Z" id="Shape" fill="url(#linearGradient-9)"></path>
            <path d="M150.363196,172.200313 C149.839715,171.872321 149.230129,171.708033 148.612591,171.728512 C146.941889,171.866423 146.346247,173.993159 147.305085,176.468303 L150.581114,184.909922 C151.154614,186.459103 152.218063,187.779137 153.610169,188.669817 C154.131287,189.002524 154.743126,189.164882 155.360775,189.13436 C157.031477,188.996449 157.627119,186.869713 156.668281,184.394569 L153.392252,175.95295 C152.818791,174.405653 151.75515,173.087928 150.363196,172.200313 Z" id="Shape" fill="url(#linearGradient-10)"></path>
            <path d="M126.617433,179.233786 C126.479419,178.950705 126.348668,178.667624 126.239709,178.377285 C126.188862,178.232115 126.138015,178.086945 126.094431,177.941775 C126.027485,177.725132 125.974113,177.50453 125.934625,177.281253 C125.934625,177.136084 125.876513,176.998172 125.861985,176.853003 C125.835821,176.643549 125.823687,176.432584 125.825666,176.221514 L125.825666,168.665431 C125.719963,167.7355 126.172706,166.830692 126.98063,166.357232 C127.065358,166.319402 127.152762,166.287863 127.242131,166.262872 C127.334829,166.235869 127.429573,166.216449 127.525424,166.204784 L127.670702,166.204784 C128.259557,166.202696 128.836732,166.368919 129.33414,166.683864 C129.844587,166.980693 130.307401,167.352625 130.707022,167.787154 C130.808717,167.898451 130.910412,168.014587 131.012107,168.135561 C131.113801,168.251697 131.208232,168.375091 131.302663,168.505744 C131.397094,168.636397 131.571429,168.890444 131.694915,169.093681 C131.781743,169.224975 131.861752,169.360646 131.934625,169.500157 C132.014528,169.645326 132.079903,169.783238 132.152542,169.928407 C132.283293,170.211488 132.399516,170.501828 132.501211,170.792167 C132.602906,171.082507 132.639225,171.227676 132.690073,171.445431 C132.74092,171.663185 132.748184,171.73577 132.769976,171.88094 C132.818758,172.161384 132.843063,172.445534 132.842643,172.730183 L132.842643,180.286266 C132.843369,180.480669 132.828796,180.674829 132.799031,180.866945 C132.76296,181.151278 132.682054,181.42811 132.559322,181.687154 C132.494838,181.822794 132.416971,181.951665 132.326877,182.071854 C132.267792,182.145392 132.204744,182.215661 132.138015,182.28235 C131.862735,182.539956 131.510705,182.700546 131.135593,182.739634 C130.759448,182.779833 130.379094,182.732635 130.024213,182.601723 L129.849879,182.536397 C129.66583,182.459679 129.486356,182.372433 129.312349,182.275091 C128.147086,181.533111 127.213426,180.479444 126.617433,179.233786 Z" id="Shape" fill="url(#linearGradient-11)"></path>
            <path d="M165.755448,163.257859 C164.542373,162.53201 163.35109,162.604595 162.7046,163.519164 C161.738499,164.88376 162.312349,167.678277 163.983051,169.754204 L169.670702,176.823969 C170.143173,177.436044 170.727302,177.953239 171.392252,178.348251 C172.605327,179.074099 173.79661,179.016031 174.450363,178.094204 C175.416465,176.744125 174.857143,173.94235 173.186441,171.866423 L167.506053,164.818433 C167.022169,164.196358 166.428956,163.667539 165.755448,163.257859 L165.755448,163.257859 Z" id="Shape" fill="url(#linearGradient-12)"></path>
            <path d="M171.348668,142.266319 C169.423729,141.15577 167.840194,142.055822 167.83293,144.269661 C167.966826,146.722527 169.261587,148.965098 171.319613,150.308721 L177.900726,154.104909 C179.825666,155.215457 181.409201,154.315405 181.416465,152.101567 C181.276324,149.648727 179.979826,147.407814 177.922518,146.062507 L171.348668,142.266319 Z" id="Shape" fill="url(#linearGradient-13)"></path>
            <path d="M149.680387,92.7924804 C151.002421,93.249765 152.150121,92.981201 152.585956,91.9650131 L154.975787,86.7897128 C155.702179,85.2654308 154.576271,82.623342 152.549637,80.9030809 C151.959286,80.3878618 151.279904,79.9844732 150.544794,79.7126893 C149.22276,79.2554047 148.075061,79.5167102 147.639225,80.5328982 L145.27845,85.7081984 C144.552058,87.2324804 145.677966,89.8745692 147.7046,91.5948303 C148.284228,92.1116005 148.953942,92.5175564 149.680387,92.7924804 Z" id="Shape" fill="url(#linearGradient-14)"></path>
            <path d="M103.874092,77.077859 C104.447176,77.3031892 105.074799,77.3512372 105.675545,77.2157702 C107.2954,76.7657441 107.476998,74.566423 106.075061,72.3090339 L101.266344,64.6368146 C100.416195,63.2206825 99.125178,62.1218447 97.590799,61.5084073 C97.0153929,61.2813079 96.3841933,61.2357132 95.7820823,61.3777546 C94.1694915,61.8350392 93.9878935,64.0343603 95.3898305,66.2844909 L100.191283,73.9567102 C101.046152,75.3699451 102.339213,76.465803 103.874092,77.077859 L103.874092,77.077859 Z" id="Shape" fill="url(#linearGradient-15)"></path>
            <path d="M125.876513,65.7110705 C126.071203,65.9588858 126.250707,66.2182458 126.414044,66.4877285 C126.493947,66.6183812 126.566586,66.7562924 126.639225,66.8869452 C126.711864,67.0175979 126.835351,67.2934204 126.922518,67.5039164 C127.009685,67.7144125 127.024213,67.7724804 127.067797,67.9103916 C127.133752,68.1125574 127.187123,68.3186084 127.227603,68.5273629 L128.622276,75.9527937 C128.896119,76.8509756 128.610835,77.8259186 127.895884,78.4351958 C127.819646,78.4893857 127.739527,78.5379062 127.656174,78.5803655 C127.572889,78.6253431 127.485279,78.6618198 127.394673,78.6892428 L127.249395,78.7255352 C126.672884,78.8424418 126.074802,78.7894869 125.527845,78.573107 C124.972938,78.3725664 124.449503,78.0939362 123.973366,77.7456397 L123.610169,77.4625587 L123.254237,77.1504439 C123.079903,76.9907572 122.912833,76.823812 122.753027,76.6496084 L122.440678,76.2866841 C122.346247,76.1632898 122.244552,76.0398956 122.157385,75.9165013 C121.973511,75.662287 121.803764,75.3981635 121.64891,75.1253264 C121.532812,74.9296094 121.430858,74.7258529 121.343826,74.5156136 C121.280683,74.3833015 121.224908,74.2476028 121.176755,74.1091384 C121.076802,73.8425983 120.999055,73.5682623 120.94431,73.2889295 L119.549637,65.8634987 C119.514729,65.6716391 119.492887,65.477634 119.484262,65.2828198 C119.468909,64.9973518 119.495834,64.7111833 119.564165,64.433577 C119.602164,64.2879235 119.655741,64.14678 119.723971,64.0125849 C119.766462,63.9292945 119.815019,63.8492358 119.869249,63.7730548 C120.088497,63.4675778 120.40259,63.2430286 120.762712,63.1343081 C121.12743,63.0238887 121.512726,62.9990494 121.88862,63.0617232 L122.070218,63.0617232 C122.265382,63.0998907 122.457253,63.1532831 122.644068,63.2214099 C123.934723,63.7304875 125.055222,64.5935073 125.876513,65.7110705 L125.876513,65.7110705 Z" id="Shape" fill="url(#linearGradient-16)"></path>
            <path d="M90.4358354,88.7422454 C91.7651332,89.19953 92.9200969,88.9382245 93.3849879,87.9147781 C94.0750605,86.3904961 92.9854722,83.7484073 90.9588378,82.0281462 L84.0508475,76.1487728 C83.465971,75.6408451 82.7941979,75.2425089 82.0677966,74.9728982 C80.7457627,74.5156136 79.5762712,74.7769191 79.1113801,75.8003655 C78.3849879,77.3028721 79.4891041,79.9594778 81.5157385,81.6797389 L88.4237288,87.5373368 C89.0162455,88.0569098 89.6979188,88.4651159 90.4358354,88.7422454 L90.4358354,88.7422454 Z" id="Shape" fill="url(#linearGradient-17)"></path>
            <path d="M88.8886199,110.408825 C90.9878935,111.134674 92.3680387,109.95154 91.9612591,107.781253 C91.370349,105.395739 89.6755759,103.435265 87.3995157,102.504334 L80.2227603,100.007415 C78.1234867,99.2815666 76.7433414,100.457441 77.1501211,102.634987 C77.7431755,105.019392 79.4372145,106.979017 81.7118644,107.911906 L88.8886199,110.408825 Z" id="Shape" fill="url(#linearGradient-18)"></path>
            <g id="Group" opacity="0.25" transform="translate(47.215496, 60.245431)" fill="url(#linearGradient-19)">
                <path d="M96.1670702,170.879269 C86.9636804,170.879269 76.779661,167.80893 66.2469734,161.733577 C29.8547215,140.734778 0.341404358,89.6495561 0.457285031,47.8479373 C0.515738499,27.4443342 7.53268765,12.1869974 20.2154964,4.89221932 C32.8983051,-2.40255875 49.8668281,-0.805691906 67.7578692,9.51587467 C104.164649,30.4856397 133.656174,81.5998956 133.561969,123.394256 C133.503632,143.812376 126.486683,159.069713 113.803874,166.364491 C108.427789,169.401073 102.342067,170.958934 96.1670702,170.879269 L96.1670702,170.879269 Z M37.8595642,2.55498695 C32.0646003,2.47514105 26.3521573,3.93286525 21.3050847,6.77942559 C9.31961259,13.6677285 2.69491525,28.2572846 2.63645607,47.8551958 C2.52058111,88.96 31.5472155,139.195979 67.3365617,159.846371 C84.5302663,169.768721 100.64891,171.409138 112.72155,164.470026 C124.794189,157.530914 131.331719,142.992167 131.382914,123.394256 C131.498789,82.3039687 102.472155,32.0679896 66.6682809,11.4175979 C56.4842615,5.52370757 46.6707022,2.55498695 37.8595642,2.55498695 Z" id="Shape"></path>
            </g>
        </g>
    </g>
</svg>