<?xml version="1.0" encoding="UTF-8"?>
<svg width="300px" height="282px" viewBox="0 0 300 282" version="1.1" xmlns="http://www.w3.org/2000/svg" xmlns:xlink="http://www.w3.org/1999/xlink">
    <!-- Generator: Sketch 60 (88103) - https://sketch.com -->
    <title>Secure</title>
    <desc>Created with Sketch.</desc>
    <defs>
        <linearGradient x1="-0.00419732674%" y1="49.9966846%" x2="100.00388%" y2="49.9966846%" id="linearGradient-1">
            <stop stop-color="#17D1AA" offset="0%"></stop>
            <stop stop-color="#1CB9B0" offset="23%"></stop>
            <stop stop-color="#297DC0" offset="70%"></stop>
            <stop stop-color="#3154CB" offset="100%"></stop>
        </linearGradient>
        <linearGradient x1="-0.0263486098%" y1="50.0025956%" x2="100.007386%" y2="50.0025956%" id="linearGradient-2">
            <stop stop-color="#17D1AA" offset="0%"></stop>
            <stop stop-color="#1AC2AE" offset="7%"></stop>
            <stop stop-color="#229BB8" offset="27%"></stop>
            <stop stop-color="#297CC0" offset="46%"></stop>
            <stop stop-color="#2D66C6" offset="65%"></stop>
            <stop stop-color="#3059CA" offset="83%"></stop>
            <stop stop-color="#3154CB" offset="100%"></stop>
        </linearGradient>
        <linearGradient x1="-0.0216708202%" y1="49.9995499%" x2="100%" y2="49.9995499%" id="linearGradient-3">
            <stop stop-color="#17D1AA" offset="0%"></stop>
            <stop stop-color="#1AC2AE" offset="7%"></stop>
            <stop stop-color="#229BB8" offset="27%"></stop>
            <stop stop-color="#297CC0" offset="46%"></stop>
            <stop stop-color="#2D66C6" offset="65%"></stop>
            <stop stop-color="#3059CA" offset="83%"></stop>
            <stop stop-color="#3154CB" offset="100%"></stop>
        </linearGradient>
        <linearGradient x1="0%" y1="50.0105086%" x2="100%" y2="50.0105086%" id="linearGradient-4">
            <stop stop-color="#17D1AA" offset="0%"></stop>
            <stop stop-color="#1AC2AE" offset="7%"></stop>
            <stop stop-color="#229BB8" offset="27%"></stop>
            <stop stop-color="#297CC0" offset="46%"></stop>
            <stop stop-color="#2D66C6" offset="65%"></stop>
            <stop stop-color="#3059CA" offset="83%"></stop>
            <stop stop-color="#3154CB" offset="100%"></stop>
        </linearGradient>
        <linearGradient x1="0.0174050746%" y1="49.9997652%" x2="99.9985113%" y2="49.9997652%" id="linearGradient-5">
            <stop stop-color="#1D45BA" offset="0%"></stop>
            <stop stop-color="#2A94F3" offset="100%"></stop>
        </linearGradient>
        <linearGradient x1="17.8127309%" y1="26.6388118%" x2="74.3788661%" y2="75.2990739%" id="linearGradient-6">
            <stop stop-color="#17D1AA" offset="0%"></stop>
            <stop stop-color="#1CB9B0" offset="23%"></stop>
            <stop stop-color="#297DC0" offset="70%"></stop>
            <stop stop-color="#3154CB" offset="100%"></stop>
        </linearGradient>
    </defs>
    <g id="Secure" stroke="none" stroke-width="1" fill="none" fill-rule="evenodd">
        <g id="secure-26" fill-rule="nonzero">
            <path d="M142.627119,281.360425 C135.697401,281.36444 128.888514,279.544699 122.883777,276.083814 L7.61985472,209.494021 C3.03741727,206.839132 0.215963111,201.94233 0.215963111,196.644124 C0.215963111,191.345918 3.03741727,186.449115 7.61985472,183.794227 L149.883777,101.294691 C154.48409,98.6458205 160.14545,98.6458205 164.745763,101.294691 L292.358354,175.007165 C296.94502,177.657127 299.770459,182.554025 299.770459,187.853428 C299.770459,193.152831 296.94502,198.049729 292.358354,200.699691 L162.443099,276.040206 C156.42206,279.530597 149.585704,281.366026 142.627119,281.360425 Z M157.322034,100.756825 C154.965929,100.754536 152.65085,101.373744 150.610169,102.552062 L8.32445521,185.051598 C4.19005918,187.446437 1.64438072,191.864179 1.64438072,196.644124 C1.64438072,201.424069 4.19005918,205.84181 8.32445521,208.236649 L123.588378,274.819175 C135.38362,281.614576 149.905379,281.600725 161.687651,274.782835 L291.639225,199.44232 C295.773964,197.049469 298.320262,192.632674 298.320262,187.853428 C298.320262,183.074182 295.773964,178.657386 291.639225,176.264536 L164.01937,102.544794 C161.983442,101.368604 159.672956,100.751791 157.322034,100.756825 Z" id="Shape" fill="url(#linearGradient-1)"></path>
            <path d="M206.491525,65.8993299 L215.600484,73.8941753 C218.723971,76.6414948 220.801453,81.2639691 220.48184,84.7962371 L213.029056,168.095258 C211.779661,182.086237 206.142857,192.385052 197.346247,197.581701 L197.404358,197.581701 L183.050847,205.903608 L183.348668,201.542784 L178.031477,202.138763 C176.934625,188.714691 172.452785,176.32268 168.7046,163.18933 C160.162228,125.853402 187.256659,97.1955155 206.491525,65.8993299 Z" id="Shape" fill="url(#linearGradient-2)"></path>
            <path d="M85.5108959,0.76314433 C86.4401594,0.258873346 87.536468,0.161543811 88.5399516,0.494226804 L152.070218,18.1701031 L206.491525,65.9065979 C187.256659,97.2027835 160.162228,125.86067 168.719128,163.182062 C172.467312,176.315412 176.949153,188.707423 178.046005,202.131495 L152.099274,205.038711 L117.755448,161.510412 C102.726392,142.468144 92.8547215,118.781598 91.1404358,97.6752062 L84.1815981,11.9123196 L72.4140436,8.43819588 L85.5108959,0.76314433 Z" id="Shape" fill="url(#linearGradient-3)"></path>
            <path d="M219.058111,78.4948454 L204.668281,87.3327835 L138.893462,25.8233505 L152.070218,18.1701031 L215.600484,73.9014433 C217.03856,75.1949043 218.212713,76.7547478 219.058111,78.4948454 Z" id="Shape" fill="url(#linearGradient-4)"></path>
            <path d="M138.893462,25.8233505 L202.423729,81.5546907 C205.554479,84.2947423 207.624697,88.9244845 207.312349,92.4567526 L199.8523,175.755773 C198.145278,194.885258 188.266344,207.168247 173.244552,208.847165 L138.893462,212.691959 L104.549637,169.16366 C89.527845,150.121392 79.6489104,126.434845 77.9418886,105.328454 L70.4600484,13.4168041 C70.1476998,9.51386598 72.2179177,7.28257732 75.3486683,8.15474227 L138.893462,25.8233505 Z" id="Shape" fill="url(#linearGradient-5)"></path>
            <g id="Group" opacity="0.25" transform="translate(55.205811, 19.623711)" fill="url(#linearGradient-6)">
                <path d="M35.0193705,163.247474 C19.9467312,144.147062 9.91525424,120.089845 8.20096852,98.881701 L0.726392252,6.97005155 C0.530266344,4.52072165 1.17675545,2.54381443 2.5496368,1.41 C3.77586309,0.460879962 5.39518631,0.18811205 6.86440678,0.683195876 L70.6125908,18.4099485 L134.309927,74.2866495 C137.680387,77.2447423 139.874092,82.1797423 139.532688,86.0318041 L132.087167,169.345361 C130.336562,188.889124 120.065375,201.600928 104.600484,203.330722 L69.7336562,207.23366 L35.0193705,163.247474 Z M6.34866828,2.62376289 C5.50207762,2.31998696 4.56047038,2.45031196 3.82808717,2.97262887 C2.97820823,3.69943299 2.57869249,5.08762887 2.71670702,6.84649485 L10.1694915,98.7290722 C11.8547215,119.55201 21.7263923,143.216753 36.566586,162.019175 L70.5762712,205.11866 L104.382567,201.324742 C118.830508,199.711237 128.455206,187.675361 130.11138,169.134588 L137.571429,85.835567 C137.854722,82.6230928 135.900726,78.2986082 133.016949,75.7693299 L69.6610169,20.1978866 L6.34866828,2.62376289 Z" id="Shape"></path>
            </g>
            <path d="M137.564165,100.168144 C141.828087,102.63201 145.300242,109.260464 145.300242,114.95134 L145.300242,151.175258 C145.300242,151.865722 144.878935,152.192784 144.355932,151.902062 C143.772451,151.485805 143.421819,150.816527 143.411622,150.099588 L143.411622,113.861134 C143.411622,109.558454 140.789346,104.543505 137.564165,102.682887 C134.338983,100.822268 131.753027,102.806443 131.753027,107.109124 C131.753027,107.799588 131.331719,108.119381 130.808717,107.835928 C130.227927,107.417329 129.87806,106.749511 129.864407,106.033454 C129.828087,100.298969 133.300242,97.7042784 137.564165,100.168144 Z" id="Shape" fill="#52FCFF"></path>
            <path d="M144.733656,152.381753 C144.536732,152.376439 144.34434,152.321438 144.174334,152.221856 C143.481097,151.735588 143.062506,150.946571 143.048426,150.099588 L143.048426,113.861134 C143.048426,109.674742 140.506053,104.805155 137.382567,103.00268 C136.096852,102.275876 134.869249,102.145052 133.924939,102.690155 C132.755448,103.373351 132.079903,104.979588 132.079903,107.109124 C132.117282,107.533299 131.922851,107.944615 131.571429,108.184794 C131.260016,108.349301 130.883537,108.329768 130.590799,108.133918 C129.895936,107.652411 129.476523,106.86455 129.464891,106.018918 C129.464891,102.89366 130.510896,100.495206 132.326877,99.4776804 C133.8523,98.5982474 135.77724,98.7508763 137.745763,99.8774227 L137.745763,99.8774227 C142.104116,102.399433 145.663438,109.173247 145.663438,114.980412 L145.663438,151.175258 C145.700817,151.599433 145.506386,152.010749 145.154964,152.250928 C145.029579,152.333229 144.883579,152.378565 144.733656,152.381753 L144.733656,152.381753 Z M135.246973,101.621753 C136.12881,101.643054 136.98994,101.893524 137.745763,102.348557 C141.072639,104.26732 143.774818,109.420361 143.774818,113.83933 L143.774818,150.077784 C143.789784,150.646062 144.055825,151.178445 144.501211,151.531392 C144.552058,151.531392 144.675545,151.625876 144.755448,151.582268 C144.835351,151.53866 144.900726,151.386031 144.900726,151.131649 L144.900726,114.95134 C144.900726,109.376753 141.508475,102.886392 137.346247,100.48067 L137.346247,100.48067 C135.610169,99.4776804 133.939467,99.3323196 132.653753,100.07366 C131.062954,100.989433 130.154964,103.155309 130.154964,106.018918 C130.181744,106.592496 130.461023,107.124758 130.917676,107.472526 C130.968523,107.472526 131.099274,107.559742 131.171913,107.516134 C131.244552,107.472526 131.317191,107.319897 131.317191,107.072784 C131.317191,104.67433 132.123487,102.835515 133.496368,102.028763 C134.031126,101.733902 134.637066,101.593023 135.246973,101.621753 Z" id="Shape" fill="#52FCFF"></path>
            <path d="M137.564165,109.224124 C138.145845,109.641949 138.495965,110.310248 138.508475,111.026598 L138.508475,131.413454 C138.508475,132.103918 138.087167,132.430979 137.564165,132.140258 C136.983375,131.721659 136.633508,131.053841 136.619855,130.337784 L136.619855,109.936392 C136.619855,109.245928 137.048426,108.926134 137.564165,109.224124 Z" id="Shape" fill="#52FCFF"></path>
            <path d="M137.941889,132.605437 C137.745107,132.599177 137.552937,132.544241 137.382567,132.445515 C136.689329,131.959248 136.270739,131.17023 136.256659,130.323247 L136.256659,109.936392 C136.223875,109.513051 136.417271,109.103925 136.765133,108.860722 C137.076546,108.696215 137.453025,108.715747 137.745763,108.911598 C138.440626,109.393104 138.860039,110.180965 138.871671,111.026598 L138.871671,131.413454 C138.912239,131.838194 138.717078,132.251054 138.363196,132.489124 C138.23629,132.566309 138.090396,132.606578 137.941889,132.605437 L137.941889,132.605437 Z M137.215496,109.478505 C137.194218,109.47181 137.171399,109.47181 137.150121,109.478505 C137.077482,109.478505 137.004843,109.674742 137.004843,109.921856 L137.004843,130.308711 C137.008994,130.889794 137.276108,131.43769 137.731235,131.79866 C137.782082,131.79866 137.912833,131.893144 137.985472,131.849536 C138.058111,131.805928 138.130751,131.653299 138.130751,131.398918 L138.130751,111.026598 C138.104967,110.452749 137.825479,109.92009 137.368039,109.57299 L137.368039,109.57299 C137.318433,109.527833 137.258606,109.495408 137.193705,109.478505 L137.215496,109.478505 Z" id="Shape" fill="#52FCFF"></path>
            <path d="M137.564165,138.666959 C138.147646,139.083216 138.498278,139.752494 138.508475,140.469433 L138.508475,151.793041 C138.508475,152.519845 138.087167,152.810567 137.564165,152.519845 C136.983126,152.098186 136.633509,151.428156 136.619855,150.710103 L136.619855,139.379227 C136.619855,138.688763 137.048426,138.368969 137.564165,138.666959 Z" id="Shape" fill="#52FCFF"></path>
            <path d="M137.941889,152.985001 C137.744567,152.982332 137.551513,152.927142 137.382567,152.825103 C136.686563,152.341287 136.26716,151.550737 136.256659,150.702835 L136.256659,139.379227 C136.223875,138.955886 136.417271,138.54676 136.765133,138.303557 C137.076546,138.13905 137.453025,138.158582 137.745763,138.354433 L137.745763,138.354433 C138.440626,138.835939 138.860039,139.6238 138.871671,140.469433 L138.871671,151.800309 C138.90905,152.224485 138.714618,152.635801 138.363196,152.875979 C138.23435,152.947674 138.089318,152.985203 137.941889,152.985001 L137.941889,152.985001 Z M137.215496,138.92134 C137.194218,138.914645 137.171399,138.914645 137.150121,138.92134 C137.077482,138.95768 137.004843,139.117577 137.004843,139.364691 L137.004843,150.688299 C137.008994,151.269382 137.276108,151.817277 137.731235,152.178247 C137.782082,152.178247 137.912833,152.272732 137.985472,152.229124 C138.058111,152.185515 138.130751,152.032887 138.130751,151.785773 L138.130751,140.469433 C138.115735,139.88269 137.835136,139.334543 137.368039,138.979485 L137.368039,138.979485 C137.315014,138.947282 137.255435,138.927411 137.193705,138.92134 L137.215496,138.92134 Z" id="Shape" fill="#52FCFF"></path>
            <path d="M130.750605,114.362629 C131.334086,114.778886 131.684719,115.448164 131.694915,116.165103 L131.694915,143.347577 C131.694915,144.074381 131.273608,144.357835 130.750605,144.074381 C130.169566,143.652722 129.81995,142.982692 129.806295,142.264639 L129.806295,115.074897 C129.828087,114.384433 130.256659,114.057371 130.750605,114.362629 Z" id="Shape" fill="#52FCFF"></path>
            <path d="M131.150121,144.532336 C130.952799,144.5296 130.759745,144.47441 130.590799,144.372371 C129.894796,143.888555 129.475393,143.098005 129.464891,142.250103 L129.464891,115.074897 C129.429069,114.651001 129.623147,114.240432 129.973366,113.999227 C130.284778,113.83472 130.661257,113.854252 130.953995,114.050103 L130.953995,114.050103 C131.648858,114.53161 132.068271,115.31947 132.079903,116.165103 L132.079903,143.347577 C132.117282,143.771753 131.922851,144.183069 131.571429,144.423247 C131.443218,144.496519 131.297759,144.534159 131.150121,144.532336 L131.150121,144.532336 Z M130.423729,114.609581 L130.358354,114.609581 C130.285714,114.653351 130.213075,114.805979 130.213075,115.060361 L130.213075,142.235567 C130.225966,142.82285 130.50701,143.371867 130.975787,143.725515 C131.026634,143.725515 131.150121,143.82 131.230024,143.776392 C131.309927,143.732784 131.375303,143.580155 131.375303,143.333041 L131.375303,116.150567 C131.362412,115.563284 131.081367,115.014267 130.612591,114.660619 L130.612591,114.660619 C130.548132,114.625249 130.475424,114.607688 130.401937,114.609581 L130.423729,114.609581 Z" id="Shape" fill="#52FCFF"></path>
            <path d="M151.1477,130.657577 C151.728739,131.079237 152.078355,131.749267 152.09201,132.46732 L152.09201,148.318918 C152.09201,149.045722 151.663438,149.329175 151.1477,149.045722 C150.564219,148.629465 150.213586,147.960187 150.20339,147.243247 L150.20339,131.377113 C150.20339,130.679381 150.624697,130.359588 151.1477,130.657577 Z" id="Shape" fill="#52FCFF"></path>
            <path d="M151.51816,149.510876 C151.322588,149.505081 151.132068,149.447391 150.966102,149.343711 C150.271239,148.862205 149.851826,148.074344 149.840194,147.228711 L149.840194,131.377113 C149.801666,130.950723 149.99606,130.536707 150.348668,130.294175 C150.660771,130.132831 151.035547,130.152275 151.329298,130.345052 L151.329298,130.345052 C152.025301,130.828868 152.444704,131.619417 152.455206,132.46732 L152.455206,148.318918 C152.48799,148.742258 152.294594,149.151384 151.946731,149.394588 C151.816176,149.469414 151.66861,149.509455 151.51816,149.510876 Z M150.791768,130.911959 C150.773084,130.904661 150.75234,130.904661 150.733656,130.911959 C150.661017,130.948299 150.588378,131.108196 150.588378,131.362577 L150.588378,147.214175 C150.601269,147.801458 150.882313,148.350476 151.35109,148.704124 C151.401937,148.704124 151.525424,148.798608 151.605327,148.755 C151.68523,148.711392 151.750605,148.558763 151.750605,148.304381 L151.750605,132.46732 C151.735639,131.899041 151.469598,131.366658 151.024213,131.013711 C150.954435,130.950338 150.864186,130.914218 150.769976,130.911959 L150.791768,130.911959 Z" id="Shape" fill="#52FCFF"></path>
            <path d="M117.196126,106.513144 C117.777165,106.934804 118.126781,107.604834 118.140436,108.322887 L118.140436,119.646495 C118.140436,120.336959 117.711864,120.656753 117.196126,120.373299 C116.612645,119.957042 116.262013,119.287764 116.251816,118.570825 L116.251816,107.23268 C116.22276,106.534948 116.673123,106.215155 117.196126,106.513144 Z" id="Shape" fill="#52FCFF"></path>
            <path d="M117.566586,120.83121 C117.37142,120.82937 117.180484,120.774068 117.014528,120.671289 C116.319665,120.189782 115.900252,119.401922 115.88862,118.556289 L115.88862,107.23268 C115.850092,106.80629 116.044486,106.392274 116.397094,106.149742 C116.709197,105.988398 117.083973,106.007842 117.377724,106.200619 L117.377724,106.200619 C118.071878,106.686075 118.490736,107.475598 118.503632,108.322887 L118.503632,119.646495 C118.536416,120.069836 118.34302,120.478962 117.995157,120.722165 C117.864041,120.794761 117.716434,120.832309 117.566586,120.83121 L117.566586,120.83121 Z M116.840194,106.767526 C116.82151,106.760228 116.800766,106.760228 116.782082,106.767526 C116.709443,106.811134 116.636804,106.963763 116.636804,107.218144 L116.636804,118.541753 C116.662588,119.115601 116.942075,119.64826 117.399516,119.995361 C117.473248,120.047768 117.566786,120.063812 117.653753,120.038969 C117.726392,120.038969 117.799031,119.842732 117.799031,119.595619 L117.799031,108.293814 C117.781107,107.726281 117.515654,107.195074 117.072639,106.840206 L117.072639,106.840206 C116.996378,106.792613 116.908281,106.767428 116.818402,106.767526 L116.840194,106.767526 Z" id="Shape" fill="#52FCFF"></path>
            <path d="M125.324455,95.4584536 C125.804125,95.9815491 125.99925,96.7055466 125.847458,97.3990206 C125.198591,99.2672966 124.886242,101.235965 124.924939,103.213454 L124.924939,132.656289 C124.924939,133.383093 124.503632,133.673814 123.98063,133.383093 C123.39984,132.964494 123.049972,132.296676 123.03632,131.580619 L123.03632,102.094175 C122.994314,99.8321356 123.353379,97.580553 124.096852,95.4439175 C124.285714,94.9133505 124.837772,94.9133505 125.324455,95.4584536 Z" id="Shape" fill="#52FCFF"></path>
            <path d="M124.358354,133.819308 C124.161572,133.81294 123.969402,133.758004 123.799031,133.659278 C123.109457,133.170634 122.693966,132.382375 122.680387,131.53701 L122.680387,102.094175 C122.637687,99.7881653 123.001609,97.4926776 123.755448,95.3130928 C123.852366,95.0014605 124.111313,94.7674407 124.430993,94.7025773 C124.881334,94.6528065 125.324111,94.8466312 125.59322,95.2113402 L125.59322,95.2113402 C126.163096,95.8349504 126.386289,96.7009969 126.188862,97.5225773 C125.558342,99.3421992 125.253432,101.25881 125.288136,103.184381 L125.288136,132.627216 C125.328704,133.051956 125.133543,133.464817 124.779661,133.702887 C124.653399,133.781552 124.507067,133.821942 124.358354,133.819308 L124.358354,133.819308 Z M124.590799,95.4075773 L124.590799,95.4075773 C124.539952,95.4075773 124.496368,95.4657216 124.467312,95.5602062 C123.739572,97.6624261 123.390335,99.8771541 123.435835,102.101443 L123.435835,131.551546 C123.442071,132.132138 123.708771,132.679183 124.162228,133.041495 C124.213075,133.041495 124.343826,133.135979 124.416465,133.092371 C124.489104,133.048763 124.561743,132.896134 124.561743,132.641753 L124.561743,103.206186 C124.527199,101.193965 124.846843,99.1913615 125.506053,97.29 C125.610346,96.7249881 125.443605,96.1437531 125.05569,95.7201031 C124.948709,95.5579376 124.781285,95.4453858 124.590799,95.4075773 L124.590799,95.4075773 Z" id="Shape" fill="#52FCFF"></path>
            <path d="M137.564165,91.1048969 C145.554479,95.7346392 152.09201,108.192062 152.09201,118.876082 L152.09201,123.404072 C152.09201,124.130876 151.663438,124.421598 151.1477,124.130876 C150.563309,123.715414 150.212416,123.045638 150.20339,122.328402 L150.20339,117.800412 C150.20339,108.504588 144.530266,97.6679381 137.564165,93.6414433 C134.658596,91.9552577 131.920097,91.6645361 129.661017,92.7765464 C129.254237,92.9800515 128.658596,92.5439691 128.331719,91.8171649 C128.004843,91.0903608 128.070218,90.3635567 128.476998,90.1309794 C131.041162,88.8518041 134.266344,89.2006701 137.564165,91.1048969 Z" id="Shape" fill="#52FCFF"></path>
            <path d="M151.51816,124.596031 C151.323515,124.590761 151.133461,124.535714 150.966102,124.436134 C150.271026,123.951494 149.851896,123.161461 149.840194,122.313866 L149.840194,117.785876 C149.840194,108.60634 144.254237,97.9077835 137.382567,93.939433 C134.585956,92.3259278 131.970944,92.0279381 129.820823,93.0890722 C129.589427,93.1910916 129.325828,93.1910916 129.094431,93.0890722 C128.592655,92.8610662 128.199271,92.4466056 127.997579,91.9334536 C127.583535,90.9958763 127.72155,90.065567 128.317191,89.7530412 C130.990315,88.4302577 134.338983,88.7863918 137.760291,90.7560309 C145.874092,95.4366495 152.469734,108.039433 152.469734,118.839742 L152.469734,123.367732 C152.507113,123.791907 152.312681,124.203223 151.961259,124.443402 C151.831919,124.53705 151.677704,124.59017 151.51816,124.596031 Z M132.552058,91.7372165 C134.391047,91.7950283 136.182375,92.3364915 137.745763,93.3071134 C144.813559,97.3917526 150.566586,108.373763 150.566586,117.785876 L150.566586,122.313866 C150.579477,122.901149 150.860521,123.450166 151.329298,123.803814 C151.380145,123.803814 151.503632,123.898299 151.583535,123.854691 C151.663438,123.811082 151.728814,123.658454 151.728814,123.404072 L151.728814,118.876082 C151.728814,108.308351 145.292978,95.9890206 137.382567,91.4246907 L137.382567,91.4246907 C134.193705,89.5786082 131.09201,89.2442784 128.66586,90.4435052 C128.498789,90.5234536 128.42615,91.0540206 128.66586,91.657268 C128.785227,91.9905104 129.026711,92.2659063 129.341404,92.4276804 C129.393201,92.4454007 129.449414,92.4454007 129.501211,92.4276804 C130.451676,91.9661707 131.495611,91.7299088 132.552058,91.7372165 L132.552058,91.7372165 Z" id="Shape" fill="#52FCFF"></path>
            <path d="M145.336562,91.2139175 C143.134358,88.5791736 140.507335,86.3314267 137.564165,84.5636598 C126.849879,78.3785567 118.140436,84.9706701 118.140436,99.2596392 C118.140436,99.9864433 117.711864,100.277165 117.196126,99.9864433 C116.611735,99.570981 116.260842,98.9012051 116.251816,98.1839691 C116.251816,82.5068041 125.811138,75.2751031 137.564165,82.0634536 C140.79466,83.9925441 143.679573,86.4491814 146.099274,89.3314948 C146.574001,89.857086 146.756426,90.5844756 146.585956,91.2720619 C146.375303,91.7953608 145.823245,91.7662887 145.336562,91.2139175 Z" id="Shape" fill="#52FCFF"></path>
            <path d="M117.566586,100.451598 C117.371942,100.446328 117.181887,100.391281 117.014528,100.291701 C116.321291,99.8054337 115.9027,99.016416 115.88862,98.169433 C115.88862,89.7893814 118.641646,83.3935052 123.443099,80.6171134 C127.430993,78.3131443 132.515738,78.7056186 137.745763,81.7291237 C141.012877,83.6900257 143.929552,86.1833792 146.375303,89.1061856 C146.936765,89.7372711 147.141694,90.609396 146.920097,91.4246907 C146.814473,91.7250488 146.557154,91.946524 146.244552,92.006134 C145.782943,92.0395335 145.337199,91.8303007 145.067797,91.4537629 L145.067797,91.4537629 C142.886653,88.8616778 140.289399,86.6510406 137.382567,84.9125258 C132.842615,82.2814948 128.455206,81.9253608 125.033898,83.895 C120.878935,86.2934536 118.496368,91.8898454 118.496368,99.2887113 C118.533747,99.7128867 118.339316,100.124203 117.987893,100.364381 C117.857945,100.431098 117.712325,100.461243 117.566586,100.451598 Z M129.108959,79.8685052 C127.250299,79.8502438 125.420214,80.3268374 123.806295,81.249433 C119.237288,83.887732 116.615012,90.058299 116.615012,98.169433 C116.627903,98.756716 116.908948,99.3057332 117.377724,99.6593814 C117.421308,99.6593814 117.552058,99.753866 117.631961,99.7102577 C117.711864,99.6666495 117.77724,99.5140206 117.77724,99.2596392 C117.77724,91.6136598 120.290557,85.7701546 124.677966,83.2699485 C128.309927,81.1694845 132.966102,81.5256186 137.753027,84.2874742 C140.732088,86.073217 143.391156,88.3456382 145.619855,91.0104124 C145.823245,91.2502577 146.01937,91.3374742 146.128329,91.3229381 C146.237288,91.3084021 146.208232,91.3229381 146.25908,91.1848454 C146.370279,90.6254991 146.211462,90.0464303 145.830508,89.6222165 C143.43949,86.7597505 140.58652,84.3178746 137.389831,82.3977835 C134.899624,80.8412645 132.043421,79.9688766 129.108959,79.8685052 L129.108959,79.8685052 Z" id="Shape" fill="#52FCFF"></path>
            <path d="M152.745763,99.8774227 C153.064799,100.075252 153.317688,100.363709 153.472155,100.705979 C156.973366,107.974021 158.905569,115.794433 158.905569,122.800825 L158.905569,143.15134 C158.905569,143.878144 158.476998,144.168866 157.961259,143.878144 C157.376868,143.462682 157.025975,142.792906 157.016949,142.07567 L157.016949,121.725155 C156.869195,114.729494 155.180111,107.852686 152.070218,101.585412 C151.72155,100.858608 151.750605,100.088196 152.142857,99.8483505 C152.334217,99.7478949 152.564944,99.7590206 152.745763,99.8774227 L152.745763,99.8774227 Z" id="Shape" fill="#52FCFF"></path>
            <path d="M158.309927,144.372371 C158.115283,144.367101 157.925229,144.312055 157.757869,144.212474 C157.064632,143.726207 156.646042,142.937189 156.631961,142.090206 L156.631961,121.739691 C156.486734,114.796725 154.809956,107.971646 151.72155,101.752577 C151.27845,100.836804 151.372881,99.8919588 151.932203,99.5721649 C152.243437,99.392319 152.630057,99.4064372 152.927361,99.6085052 L152.927361,99.6085052 C153.303663,99.8416241 153.600103,100.183864 153.77724,100.589691 C157.307506,107.857732 159.246973,115.779897 159.246973,122.844433 L159.246973,143.194948 C159.284352,143.619124 159.089921,144.03044 158.738499,144.270619 C158.607849,144.343678 158.459454,144.378911 158.309927,144.372371 Z M152.375303,100.131804 C152.354025,100.125109 152.331205,100.125109 152.309927,100.131804 C152.142857,100.233557 152.077482,100.793196 152.375303,101.396443 C155.507497,107.714211 157.208904,114.645296 157.358354,121.696082 L157.358354,142.046598 C157.371244,142.633881 157.652289,143.182898 158.121065,143.536546 C158.171913,143.536546 158.2954,143.631031 158.375303,143.587423 C158.455206,143.543814 158.520581,143.391186 158.520581,143.136804 L158.520581,122.829897 C158.520581,115.874381 156.602906,108.083041 153.123487,100.894948 C153.0054,100.620809 152.811305,100.386249 152.564165,100.219021 L152.564165,100.219021 C152.509654,100.174342 152.444648,100.144322 152.375303,100.131804 L152.375303,100.131804 Z" id="Shape" fill="#52FCFF"></path>
        </g>
    </g>
</svg>