<?xml version="1.0" encoding="UTF-8"?>
<svg width="300px" height="282px" viewBox="0 0 300 282" version="1.1" xmlns="http://www.w3.org/2000/svg" xmlns:xlink="http://www.w3.org/1999/xlink">
    <!-- Generator: Sketch 60 (88103) - https://sketch.com -->
    <title>Simple</title>
    <desc>Created with Sketch.</desc>
    <defs>
        <linearGradient x1="-0.00419732674%" y1="49.9967243%" x2="100.00388%" y2="49.9967243%" id="linearGradient-1">
            <stop stop-color="#17D1AA" offset="0%"></stop>
            <stop stop-color="#1CB9B0" offset="23%"></stop>
            <stop stop-color="#297DC0" offset="70%"></stop>
            <stop stop-color="#3154CB" offset="100%"></stop>
        </linearGradient>
        <linearGradient x1="23.879141%" y1="7.07774024%" x2="82.8955726%" y2="97.6849694%" id="linearGradient-2">
            <stop stop-color="#17D1AA" offset="0%"></stop>
            <stop stop-color="#1AC2AE" offset="7%"></stop>
            <stop stop-color="#229BB8" offset="27%"></stop>
            <stop stop-color="#297CC0" offset="46%"></stop>
            <stop stop-color="#2D66C6" offset="65%"></stop>
            <stop stop-color="#3059CA" offset="83%"></stop>
            <stop stop-color="#3154CB" offset="100%"></stop>
        </linearGradient>
        <linearGradient x1="46.3150545%" y1="16.2118721%" x2="56.6459923%" y2="110.747032%" id="linearGradient-3">
            <stop stop-color="#17D1AA" offset="0%"></stop>
            <stop stop-color="#1CB9B0" offset="23%"></stop>
            <stop stop-color="#297DC0" offset="70%"></stop>
            <stop stop-color="#3154CB" offset="100%"></stop>
        </linearGradient>
        <linearGradient x1="-0.00995455056%" y1="49.989469%" x2="100.020092%" y2="49.989469%" id="linearGradient-4">
            <stop stop-color="#17D1AA" offset="0%"></stop>
            <stop stop-color="#1CB9B0" offset="23%"></stop>
            <stop stop-color="#297DC0" offset="70%"></stop>
            <stop stop-color="#3154CB" offset="100%"></stop>
        </linearGradient>
        <linearGradient x1="80.5146024%" y1="47.8008392%" x2="-21.1132419%" y2="52.3155713%" id="linearGradient-5">
            <stop stop-color="#17D1AA" offset="0%"></stop>
            <stop stop-color="#1AC2AE" offset="7%"></stop>
            <stop stop-color="#229BB8" offset="27%"></stop>
            <stop stop-color="#297CC0" offset="46%"></stop>
            <stop stop-color="#2D66C6" offset="65%"></stop>
            <stop stop-color="#3059CA" offset="83%"></stop>
            <stop stop-color="#3154CB" offset="100%"></stop>
        </linearGradient>
        <linearGradient x1="167.666637%" y1="45.1827821%" x2="-2.31147496%" y2="50.8357238%" id="linearGradient-6">
            <stop stop-color="#17D1AA" offset="0%"></stop>
            <stop stop-color="#1AC2AE" offset="7%"></stop>
            <stop stop-color="#229BB8" offset="27%"></stop>
            <stop stop-color="#297CC0" offset="46%"></stop>
            <stop stop-color="#2D66C6" offset="65%"></stop>
            <stop stop-color="#3059CA" offset="83%"></stop>
            <stop stop-color="#3154CB" offset="100%"></stop>
        </linearGradient>
        <linearGradient x1="109.034471%" y1="47.3312335%" x2="-34.8678968%" y2="52.606961%" id="linearGradient-7">
            <stop stop-color="#17D1AA" offset="0%"></stop>
            <stop stop-color="#1AC2AE" offset="7%"></stop>
            <stop stop-color="#229BB8" offset="27%"></stop>
            <stop stop-color="#297CC0" offset="46%"></stop>
            <stop stop-color="#2D66C6" offset="65%"></stop>
            <stop stop-color="#3059CA" offset="83%"></stop>
            <stop stop-color="#3154CB" offset="100%"></stop>
        </linearGradient>
    </defs>
    <g id="Simple" stroke="none" stroke-width="1" fill="none" fill-rule="evenodd">
        <g id="simple-27" transform="translate(0.000000, -1.000000)" fill-rule="nonzero">
            <path d="M142.627119,283.362462 C135.697401,283.366463 128.888514,281.552517 122.883777,278.102653 L7.61985472,211.724898 C3.03741727,209.078463 0.215963111,204.197253 0.215963111,198.915918 C0.215963111,193.634583 3.03741727,188.753373 7.61985472,186.106939 L149.883777,103.870102 C154.481444,101.229474 160.140832,101.229474 164.738499,103.870102 L292.358354,177.347857 C296.94502,179.989381 299.770459,184.870686 299.770459,190.153214 C299.770459,195.435743 296.94502,200.317048 292.358354,202.958571 L162.443099,278.059184 C156.42206,281.53846 149.585704,283.368044 142.627119,283.362462 Z M8.34624697,210.471531 L123.610169,276.842041 C135.405412,283.615803 149.92717,283.601996 161.709443,276.805816 L291.661017,201.705204 C295.795756,199.319973 298.342054,194.917242 298.342054,190.153214 C298.342054,185.389187 295.795756,180.986455 291.661017,178.601224 L164.012107,105.116224 C159.865533,102.728469 154.756743,102.728469 150.610169,105.116224 L8.32445521,187.360306 C4.19005918,189.747519 1.64438072,194.151194 1.64438072,198.915918 C1.64438072,203.680643 4.19005918,208.084317 8.32445521,210.471531 L8.34624697,210.471531 Z" id="Shape" fill="url(#linearGradient-1)"></path>
            <path d="M72.8716707,7.62887755 L81.8934625,2.4705102 C83.176842,1.84512888 84.5139294,1.33594171 85.8886199,0.949081633 L85.8886199,0.949081633 C88.31477,0.173877551 91.2421308,0.594081633 94.3874092,2.39806122 L205.525424,66.8776531 C213.900726,71.7389796 220.656174,84.7145918 220.62,95.8572449 L220.307506,185.621531 C220.307506,192.308571 217.815981,196.800408 214.046005,198.292857 L203.716707,203.683061 L195.617433,191.584082 L93.9443099,132.581633 C85.5690073,127.727551 78.8135593,114.744694 78.8498789,103.602041 L79.1767554,17.0327551 L72.8716707,7.62887755 Z" id="_Path_" fill="url(#linearGradient-2)"></path>
            <path d="M67.8813559,19.6481633 C67.9249395,8.49102041 74.7384988,3.39061224 83.1355932,8.24469388 L194.273608,72.7605102 C202.64891,77.6145918 209.404358,90.597449 209.368185,101.740102 L209.05569,191.504388 C209.01937,202.654286 202.205811,207.761939 193.801453,202.900612 L82.6634383,138.42102 C74.2953995,133.545204 67.5544794,120.569592 67.5544794,109.397959 L67.8813559,19.6481633 Z" id="Shape" fill="#52FCFF"></path>
            <path d="M78.842615,18.3440816 L188.789346,82.149898 C191.004843,83.4394898 193.438257,86.337449 195.326877,89.9019388 C197.281477,93.5446864 198.365381,97.5887613 198.493947,101.718367 L198.181598,191.482653 C198.181598,191.982551 198.181598,192.431735 198.123487,192.822959 L88.1476998,129.009898 C85.9249395,127.727551 83.4987893,124.829592 81.6101695,121.265102 C79.6580966,117.621741 78.5766879,113.5777 78.4503632,109.448673 L78.7554479,19.6843878 C78.7554479,19.1844898 78.7554479,18.7353061 78.8208232,18.3440816 L78.842615,18.3440816 Z M77.0338983,6.41173469 C71.6658596,6.41173469 67.8886199,11.36 67.8595642,19.6481633 L67.5544794,109.397959 C67.5544794,120.555102 74.2736077,133.530714 82.6489104,138.377551 L193.786925,202.857143 C195.606726,203.995999 197.697693,204.631148 199.845036,204.697347 C205.213075,204.697347 208.990315,199.749082 209.012107,191.460918 L209.324455,101.696633 C209.324455,90.5394898 202.605327,77.5566327 194.230024,72.7170408 L83.0920097,8.20122449 C81.2701784,7.0677823 79.1800547,6.43538862 77.0338983,6.36826531 L77.0338983,6.41173469 Z" id="Shape" fill="url(#linearGradient-3)"></path>
            <g id="Group" opacity="0.25" transform="translate(50.847458, 20.285714)" fill="url(#linearGradient-4)">
                <path d="M134.012107,200.538965 C131.672449,200.472079 129.392039,199.789748 127.401937,198.560918 L16.2639225,134.081327 C7.60532688,129.060612 0.588377724,115.628571 0.631759324,104.145408 L0.937046005,14.3811224 C0.937046005,8.12153061 3.11622276,3.31816327 6.74818402,1.20989796 C9.85714286,-0.572346939 13.7723971,-0.239081633 17.7748184,2.04306122 L128.912833,66.5226531 C137.571429,71.5433673 144.581114,84.9754082 144.544935,96.4585714 L144.268765,186.193878 C144.268765,192.453469 142.089588,197.256837 138.457627,199.365102 C137.106883,200.143861 135.572253,200.549022 134.012107,200.538965 Z M11.1791768,2.17293971 C10.0114728,2.15868293 8.86081065,2.45372111 7.84503632,3.02836735 C4.84503632,4.73816327 3.11622276,8.82428571 3.10169492,14.3231633 L2.79661017,104.087449 C2.79661017,114.875102 9.28329298,127.45949 17.3244552,132.139694 L128.46247,196.619286 C131.753027,198.531939 134.898305,198.792755 137.309927,197.452449 C140.302663,195.735408 142.031477,191.620306 142.053269,186.157653 L142.358504,96.3933673 C142.394673,85.5984694 135.871671,73.0140816 127.830508,68.3411224 L16.6924939,3.86153061 C15.0356694,2.82477492 13.1338621,2.24248172 11.1791768,2.17293971 Z" id="Shape"></path>
            </g>
            <path d="M149.251816,86.4895918 L149.251816,106.195714 C149.233652,106.43285 149.099955,106.645993 148.894091,106.766006 C148.688227,106.88602 148.436417,106.897619 148.220339,106.797041 L128.66586,95.8282653 C128.454588,95.7000845 128.323212,95.4735079 128.317191,95.2269388 L128.317191,75.9265306 C128.335355,75.689395 128.469052,75.4762522 128.674916,75.3562385 C128.88078,75.2362248 129.13259,75.2246259 129.348668,75.3252041 L149.251816,86.4895918 L149.251816,86.4895918 Z M153.072739,84.8232653 L125.520581,69.369898 C125.307521,69.2471626 125.044732,69.2482461 124.832698,69.3727341 C124.620663,69.4972221 124.492176,69.7258606 124.496269,69.9712245 L124.496269,96.8932653 C124.493656,97.1422029 124.627351,97.3727788 124.845036,97.4945918 L152.048426,112.752347 C152.261486,112.875082 152.524275,112.873999 152.73631,112.749511 C152.948345,112.625023 153.076831,112.396384 153.072739,112.15102 L153.072739,84.8232653 L153.072739,84.8232653 Z" id="Shape" fill="url(#linearGradient-5)"></path>
            <path d="M120.581114,100.49398 C126.849879,104.015 131.956416,111.969898 131.956416,118.222245 C131.956416,124.474592 126.871671,126.713265 120.581114,123.192245 C114.290557,119.671224 109.198547,111.716327 109.198547,105.456735 C109.198547,99.1971429 114.283293,96.9729592 120.581114,100.49398 L120.581114,100.49398 Z M120.581114,96.6831633 C112.1477,91.9667347 105.326877,94.9081633 105.326877,103.312245 C105.326877,111.716327 112.133172,122.293878 120.530266,127.003061 C128.927361,131.712245 135.726392,128.741837 135.726392,120.366735 C135.726392,111.991633 128.934625,101.428571 120.581114,96.6831633 L120.581114,96.6831633 Z" id="Shape" fill="url(#linearGradient-6)"></path>
            <path d="M149.273608,120.265306 L158.353511,143.101224 L140.193705,132.922143 C140.193705,132.922143 140.193705,132.922143 140.193705,132.922143 L149.273608,120.265306 L149.273608,120.265306 Z M149.273608,111.868469 L133.932203,133.255408 L162.210654,149.121735 C162.573943,149.318672 163.021768,149.26912 163.332944,148.997553 C163.644121,148.725986 163.752809,148.289865 163.605327,147.904592 L149.273608,111.83949 L149.273608,111.868469 Z" id="Shape" fill="url(#linearGradient-7)"></path>
        </g>
    </g>
</svg>